<?xml version="1.0" encoding="utf-8"?><svg width="1084px" height="500px" viewBox="0 0 1084 500"  style="font-family: -apple-system, BlinkMacSystemFont, Segoe UI, Roboto, Helvetica, Arial, sans-serif, Apple Color Emoji, Segoe UI Emoji, Segoe UI Symbol;font-size: 16px;" version="1.1" xmlns="http://www.w3.org/2000/svg" xmlns:xlink="http://www.w3.org/1999/xlink"><defs xmlns="http://www.w3.org/2000/svg"><clipPath id="id-46"><rect width="1084" height="500"/></clipPath><linearGradient id="gradient-id-69" x1="1%" x2="99%" y1="59%" y2="41%"><stop stop-color="#474758" offset="0"/><stop stop-color="#474758" stop-opacity="1" offset="0.75"/><stop stop-color="#3cabff" stop-opacity="1" offset="0.755"/></linearGradient><clipPath id="id-78"/><filter id="filter-id-51" filterUnits="objectBoundingBox" width="200%" height="200%" x="-50%" y="-50%"><feGaussianBlur result="blurOut" in="SourceGraphic" stdDeviation="1.5"/><feOffset result="offsetBlur" dx="1" dy="1"/><feFlood flood-color="#000000" flood-opacity="0.5"/><feComposite in2="offsetBlur" operator="in"/><feMerge><feMergeNode/><feMergeNode in="SourceGraphic"/></feMerge></filter><filter id="filter-id-66" filterUnits="objectBoundingBox" width="120%" height="120%" x="-10%" y="-10%"><feColorMatrix type="saturate" values="0"/></filter><filter id="filter-id-83" filterUnits="objectBoundingBox" width="200%" height="200%" x="-50%" y="-50%"><feGaussianBlur result="blurOut" in="SourceGraphic" stdDeviation="1.5"/><feOffset result="offsetBlur" dx="1" dy="1"/><feFlood flood-color="#000000" flood-opacity="0.5"/><feComposite in2="offsetBlur" operator="in"/><feMerge><feMergeNode/><feMergeNode in="SourceGraphic"/></feMerge></filter></defs><g xmlns="http://www.w3.org/2000/svg" style=""><g fill="#ffffff" fill-opacity="0"><rect width="1084" height="500"/></g><g><g role="region" clip-path="url(#id-46)" opacity="1" aria-label="Chart"><g><g><g><g><g><g transform="translate(542,250)"><g><g role="group" aria-label="Series"><g><g clip-path="url(#id-78)"><g/></g><g/><g><g><g stroke-opacity="1" stroke="#ffffff" role="menuitem" focusable="true" tabindex="0" fill="#67b7dc" id="id-103" transform="translate(0,0)"><g><g><path d=" M0,0  L0,-200  a200,200,0,0,1,159.7215,320.3704 L0,0 "/></g><g/></g></g><g stroke-opacity="1" stroke="#ffffff" role="menuitem" focusable="true" tabindex="0" fill="#6794dc" id="id-123" transform="translate(0,0)"><g><g><path d=" M0,0  L159.7215,120.3704  a200,200,0,0,1,-311.0697,10.3726 L0,0 "/></g><g/></g></g><g stroke-opacity="1" stroke="#ffffff" role="menuitem" focusable="true" tabindex="0" fill="#6771dc" id="id-140" transform="translate(0,0)"><g><g><path d=" M0,0  L-151.3482,130.743  a200,200,0,0,1,-18.721,-235.9877 L0,0 "/></g><g/></g></g><g stroke-opacity="1" stroke="#ffffff" role="menuitem" focusable="true" tabindex="0" fill="#8067dc" id="id-157" transform="translate(0,0)"><g><g><path d=" M0,0  L-170.0692,-105.2448  a200,200,0,0,1,86.0914,-76.2703 L0,0 "/></g><g/></g></g><g stroke-opacity="1" stroke="#ffffff" role="menuitem" focusable="true" tabindex="0" fill="#a367dc" id="id-174" transform="translate(0,0)"><g><g><path d=" M0,0  L-83.9778,-181.5151  a200,200,0,0,1,70.6547,-18.0407 L0,0 "/></g><g/></g></g><g stroke-opacity="1" stroke="#ffffff" role="menuitem" focusable="true" tabindex="0" fill="#c767dc" id="id-191" transform="translate(0,0)"><g><g><path d=" M0,0  L-13.3231,-199.5557  a200,200,0,0,1,13.3231,-0.4443 L0,0 "/></g><g/></g></g></g></g><g><g><g fill-opacity="0" stroke-opacity="0.2" stroke="#000000" stroke-width="1"><polyline points="178.98893796,-89.23541948,210,-96.374,216,-96.374"/></g><g fill-opacity="0" stroke-opacity="0.2" stroke="#000000" stroke-width="1"><polyline points="6.6652752,199.88890442,210,215.88,216,215.88"/></g><g fill-opacity="0" stroke-opacity="0.2" stroke="#000000" stroke-width="1"><polyline points="-199.37362066,15.8164278,-210,17.082,-216,17.082"/></g><g fill-opacity="0" stroke-opacity="0.2" stroke="#000000" stroke-width="1"><polyline points="-132.62453164000001,-149.70214964,-210,-153.88,-216,-153.88"/></g><g fill-opacity="0" stroke-opacity="0.2" stroke="#000000" stroke-width="1"><polyline points="-49.479650539999994,-193.78277576,-210,-184.88,-216,-184.88"/></g><g fill-opacity="0" stroke-opacity="0.2" stroke="#000000" stroke-width="1"><polyline points="-6.6652752,-199.88890442,-210,-215.88,-216,-215.88"/></g></g></g><g><g><g fill="#000000" aria-label="13-17: 35.3%" transform="translate(216,-96.374)"><g transform="translate(5,-10.5)" style="user-select: none;"><text x="0" y="21.34375" dy="-5.763"><tspan>13-17: 35.3%</tspan></text></g></g><g fill="#000000" aria-label="18-21: 28.4%" transform="translate(216,215.88)"><g transform="translate(5,-10.5)" style="user-select: none;"><text x="0" y="21.34375" dy="-5.763"><tspan>18-21: 28.4%</tspan></text></g></g><g fill="#000000" aria-label="22-25: 20.2%" transform="translate(-216,17.082)"><g transform="translate(-97,-10.5)" style="user-select: none;"><text x="0" y="21.34375" dy="-5.763"><tspan>22-25: 20.2%</tspan></text></g></g><g fill="#000000" aria-label="26-30: 9.3%" transform="translate(-216,-153.88)"><g transform="translate(-88,-10.5)" style="user-select: none;"><text x="0" y="21.34375" dy="-5.763"><tspan>26-30: 9.3%</tspan></text></g></g><g fill="#000000" aria-label="31-40: 5.8%" transform="translate(-216,-184.88)"><g transform="translate(-88,-10.5)" style="user-select: none;"><text x="0" y="21.34375" dy="-5.763"><tspan>31-40: 5.8%</tspan></text></g></g><g fill="#000000" aria-label="41+: 1.1%" transform="translate(-216,-215.88)"><g transform="translate(-76,-10.5)" style="user-select: none;"><text x="0" y="21.34375" dy="-5.763"><tspan>41+: 1.1%</tspan></text></g></g></g></g></g></g></g></g><g transform="translate(1272,250)"><g><g><g/></g></g></g></g></g></g></g></g></g><g><g><g role="tooltip" visibility="hidden" opacity="0"><g fill="#ffffff" fill-opacity="0.9" stroke-width="1" stroke-opacity="1" stroke="#ffffff" filter="url(#filter-id-51)" style="pointer-events: none;" transform="translate(0,6)"><path d="M3,0 L3,0 L0,-6 L13,0 L21,0 a3,3 0 0 1 3,3 L24,8 a3,3 0 0 1 -3,3 L3,11 a3,3 0 0 1 -3,-3 L0,3 a3,3 0 0 1 3,-3"/></g><g><g fill="#ffffff" style="pointer-events: none;" transform="translate(12,6)"><g transform="translate(0,7)" display="none"/></g></g></g><g visibility="hidden" display="none" style="pointer-events: none;"><g fill="#ffffff" opacity="1"><rect width="2544" height="500"/></g><g><g transform="translate(1272,250)"><g><g stroke-opacity="1" fill="#f3f3f3" fill-opacity="0.8"><g><g><path d=" M53,0  a53,53,0,0,1,-106,0 a53,53,0,0,1,106,0 M42,0  a42,42,0,0,0,-84,0 a42,42,0,0,0,84,0 L42,0 "/></g></g></g><g stroke-opacity="1" fill="#000000" fill-opacity="0.2"><g><g><path d=" M50,0  a50,50,0,0,1,-100,0 a50,50,0,0,1,100,0 M45,0  a45,45,0,0,0,-90,0 a45,45,0,0,0,90,0 L45,0 "/></g></g></g><g fill="#000000" fill-opacity="0.4"><g transform="translate(-20,-10.5)" style="user-select: none;"><text x="20px" y="21.34375" dy="-5.763" text-anchor="middle"><tspan>100%</tspan></text></g></g></g></g></g></g><g opacity="0.3" aria-labelledby="id-66-title" filter="url(#filter-id-66)" style="cursor: pointer;" transform="translate(0,479)"><g fill="#ffffff" opacity="0"><rect width="66" height="21"/></g><g><g shape-rendering="auto" fill="none" stroke-opacity="1" stroke-width="1.7999999999999998" stroke="#3cabff"><path d=" M15,15  C17.4001,15 22.7998,15.0001 27,15 C31.2002,14.9999 33.2999,6 36,6 C38.7001,6 38.6999,10.5 40.5,10.5 C42.3001,10.5 42.2999,6 45,6 C47.7001,6 50.9999,14.9999 54,15 C57.0002,15.0001 58.7999,15 60,15"/></g><g shape-rendering="auto" fill="none" stroke-opacity="1" stroke-width="1.7999999999999998" stroke="url(#gradient-id-69)"><path d=" M6,15  C8.2501,15 9.7498,15.0001 15,15 C20.2502,14.9999 20.7748,3.6 27,3.6 C33.2252,3.6 33.8998,14.9999 39.9,15 C45.9002,15.0001 45.9748,15 51,15 C56.0252,15 57.7499,15 60,15"/></g></g><title id="id-66-title">Chart created using amCharts library</title></g><g role="tooltip" opacity="0" aria-describedby="id-103" transform="translate(1363.1175,204.5731)" aria-hidden="true" visibility="hidden"><g fill="#67b7dc" fill-opacity="0.9" stroke-width="1" stroke-opacity="1" stroke="#ffffff" filter="url(#filter-id-83)" style="pointer-events: none;" transform="translate(-78,-38)"><path d="M3,0 L153,0 a3,3 0 0 1 3,3 L156,29 a3,3 0 0 1 -3,3 L153,32 L83,32 L78,38 L73,32 L3,32 a3,3 0 0 1 -3,-3 L0,3 a3,3 0 0 1 3,-3"/></g><g><g fill="#000000" style="pointer-events: none;" transform="translate(0,-38)"><g transform="translate(-66,7)" style="user-select: none;"><text x="0" y="21.34375" dy="-5.763"><tspan>13-17: 35.3% (133)</tspan></text></g></g></g></g></g></g></g></g></svg>