<?xml version="1.0" encoding="utf-8"?><svg width="1086px" height="500px" viewBox="0 0 1086 500"  style="font-family: -apple-system, BlinkMacSystemFont, Segoe UI, Roboto, Helvetica, Arial, sans-serif, Apple Color Emoji, Segoe UI Emoji, Segoe UI Symbol;font-size: 16px;" version="1.1" xmlns="http://www.w3.org/2000/svg" xmlns:xlink="http://www.w3.org/1999/xlink"><defs xmlns="http://www.w3.org/2000/svg"><clipPath id="id-46"><rect width="1086" height="500"/></clipPath><linearGradient id="gradient-id-69" x1="1%" x2="99%" y1="59%" y2="41%"><stop stop-color="#474758" offset="0"/><stop stop-color="#474758" stop-opacity="1" offset="0.75"/><stop stop-color="#3cabff" stop-opacity="1" offset="0.755"/></linearGradient><clipPath id="id-78"/><filter id="filter-id-51" filterUnits="objectBoundingBox" width="200%" height="200%" x="-50%" y="-50%"><feGaussianBlur result="blurOut" in="SourceGraphic" stdDeviation="1.5"/><feOffset result="offsetBlur" dx="1" dy="1"/><feFlood flood-color="#000000" flood-opacity="0.5"/><feComposite in2="offsetBlur" operator="in"/><feMerge><feMergeNode/><feMergeNode in="SourceGraphic"/></feMerge></filter><filter id="filter-id-66" filterUnits="objectBoundingBox" width="120%" height="120%" x="-10%" y="-10%"><feColorMatrix type="saturate" values="0"/></filter><filter id="filter-id-83" filterUnits="objectBoundingBox" width="200%" height="200%" x="-50%" y="-50%"><feGaussianBlur result="blurOut" in="SourceGraphic" stdDeviation="1.5"/><feOffset result="offsetBlur" dx="1" dy="1"/><feFlood flood-color="#000000" flood-opacity="0.5"/><feComposite in2="offsetBlur" operator="in"/><feMerge><feMergeNode/><feMergeNode in="SourceGraphic"/></feMerge></filter></defs><g xmlns="http://www.w3.org/2000/svg" style=""><g fill="#ffffff" fill-opacity="1"><rect width="1086" height="500"/></g><g><g role="region" clip-path="url(#id-46)" opacity="1" aria-label="Chart"><g><g><g><g><g><g transform="translate(543,250)"><g><g role="group" aria-label="Series"><g><g clip-path="url(#id-78)"><g/></g><g/><g><g><g stroke-opacity="1" stroke="#ffffff" role="menuitem" focusable="true" tabindex="0" fill="#67b7dc" id="id-101" transform="translate(0,0)"><g><g><path d=" M0,0  L0,-200  a200,200,0,0,1,164.8173,313.2928 L0,0 "/></g><g/></g></g><g stroke-opacity="1" stroke="#ffffff" role="menuitem" focusable="true" tabindex="0" fill="#6794dc"><g><g><path d=" M0,0  L164.8173,113.2928  a200,200,0,0,1,-288.2885,44.0439 L0,0 "/></g><g/></g></g><g stroke-opacity="1" stroke="#ffffff" role="menuitem" focusable="true" tabindex="0" fill="#6771dc" id="id-138" transform="translate(0,0)"><g><g><path d=" M0,0  L-123.4712,157.3368  a200,200,0,0,1,38.6508,-338.4596 L0,0 "/></g><g/></g></g><g stroke-opacity="1" stroke="#ffffff" role="menuitem" focusable="true" tabindex="0" fill="#8067dc" id="id-155" transform="translate(0,0)"><g><g><path d=" M0,0  L-84.8204,-181.1229  a200,200,0,0,1,84.8204,-18.8771 L0,0 "/></g><g/></g></g></g></g><g><g><g fill-opacity="0" stroke-opacity="0.2" stroke="#000000" stroke-width="1"><polyline points="177.00079542,-93.1166925,210,-100.566,216,-100.566"/></g><g fill-opacity="0" stroke-opacity="0.2" stroke="#000000" stroke-width="1"><polyline points="30.204984839999998,197.70599104,210,213,216,213"/></g><g fill-opacity="0" stroke-opacity="0.2" stroke="#000000" stroke-width="1"><polyline points="-198.7085379,-22.691781980000002,-210,-24.507,-216,-24.507"/></g><g fill-opacity="0" stroke-opacity="0.2" stroke="#000000" stroke-width="1"><polyline points="-43.44779708,-195.22368946,-210,-210.842,-216,-210.842"/></g></g></g><g><g><g fill="#000000" aria-label="I commit to a project until I reach&#10; a defined end goal before moving&#10; on to the next: 34.6%" transform="translate(216,-100.566)"><g transform="translate(5,-32)" style="user-select: none;"><text x="0" y="21.34375" dy="-5.763"><tspan>I commit to a project until I reach</tspan></text><text x="0" y="42.6875" dy="-5.763"><tspan> a defined end goal before moving</tspan></text><text x="0" y="64.03125" dy="-5.763"><tspan> on to the next: 34.6%</tspan></text></g></g><g fill="#000000" aria-label="I start a project but quickly lose&#10; motivation and usually don't&#10; complete a project: 26.0%" transform="translate(216,213)"><g transform="translate(5,-32)" style="user-select: none;"><text x="0" y="21.34375" dy="-5.763"><tspan>I start a project but quickly lose</tspan></text><text x="0" y="42.6875" dy="-5.763"><tspan> motivation and usually don't</tspan></text><text x="0" y="64.03125" dy="-5.763"><tspan> complete a project: 26.0%</tspan></text></g></g><g fill="#000000" aria-label="I have lots of projects on the go.&#10; Switching between them keeps&#10; me motivated: 32.4%" transform="translate(-216,-24.507)"><g transform="translate(-233,-32)" style="user-select: none;"><text x="0" y="21.34375" dy="-5.763"><tspan>I have lots of projects on the go.</tspan></text><text x="0" y="42.6875" dy="-5.763"><tspan> Switching between them keeps</tspan></text><text x="0" y="64.03125" dy="-5.763"><tspan> me motivated: 32.4%</tspan></text></g></g><g fill="#000000" aria-label="I need to have some collaborators&#10; in order to keep myself motivated: 7.0%" transform="translate(-216,-210.842)"><g transform="translate(-286,-21.5)" style="user-select: none;"><text x="0" y="21.34375" dy="-5.763"><tspan>I need to have some collaborators</tspan></text><text x="0" y="42.6875" dy="-5.763"><tspan> in order to keep myself motivated: 7.0%</tspan></text></g></g></g></g></g></g></g></g><g transform="translate(860,250)"><g><g><g/></g></g></g></g></g></g></g></g></g><g><g><g role="tooltip" visibility="hidden" opacity="0"><g fill="#ffffff" fill-opacity="0.9" stroke-width="1" stroke-opacity="1" stroke="#ffffff" filter="url(#filter-id-51)" style="pointer-events: none;" transform="translate(0,6)"><path d="M3,0 L3,0 L0,-6 L13,0 L21,0 a3,3 0 0 1 3,3 L24,8 a3,3 0 0 1 -3,3 L3,11 a3,3 0 0 1 -3,-3 L0,3 a3,3 0 0 1 3,-3"/></g><g><g fill="#ffffff" style="pointer-events: none;" transform="translate(12,6)"><g transform="translate(0,7)" display="none"/></g></g></g><g visibility="hidden" display="none" style="pointer-events: none;"><g fill="#ffffff" opacity="1"><rect width="1720" height="500"/></g><g><g transform="translate(860,250)"><g><g stroke-opacity="1" fill="#f3f3f3" fill-opacity="0.8"><g><g><path d=" M53,0  a53,53,0,0,1,-106,0 a53,53,0,0,1,106,0 M42,0  a42,42,0,0,0,-84,0 a42,42,0,0,0,84,0 L42,0 "/></g></g></g><g stroke-opacity="1" fill="#000000" fill-opacity="0.2"><g><g><path d=" M50,0  a50,50,0,0,1,-100,0 a50,50,0,0,1,100,0 M45,0  a45,45,0,0,0,-90,0 a45,45,0,0,0,90,0 L45,0 "/></g></g></g><g fill="#000000" fill-opacity="0.4"><g transform="translate(-20,-10.5)" style="user-select: none;"><text x="20px" y="21.34375" dy="-5.763" text-anchor="middle"><tspan>100%</tspan></text></g></g></g></g></g></g><g opacity="0.3" aria-labelledby="id-66-title" filter="url(#filter-id-66)" style="cursor: pointer;" transform="translate(0,479)"><g fill="#ffffff" opacity="0"><rect width="66" height="21"/></g><g><g shape-rendering="auto" fill="none" stroke-opacity="1" stroke-width="1.7999999999999998" stroke="#3cabff"><path d=" M15,15  C17.4001,15 22.7998,15.0001 27,15 C31.2002,14.9999 33.2999,6 36,6 C38.7001,6 38.6999,10.5 40.5,10.5 C42.3001,10.5 42.2999,6 45,6 C47.7001,6 50.9999,14.9999 54,15 C57.0002,15.0001 58.7999,15 60,15"/></g><g shape-rendering="auto" fill="none" stroke-opacity="1" stroke-width="1.7999999999999998" stroke="url(#gradient-id-69)"><path d=" M6,15  C8.2501,15 9.7498,15.0001 15,15 C20.2502,14.9999 20.7748,3.6 27,3.6 C33.2252,3.6 33.8998,14.9999 39.9,15 C45.9002,15.0001 45.9748,15 51,15 C56.0252,15 57.7499,15 60,15"/></g></g><title id="id-66-title">Chart created using amCharts library</title></g><g role="tooltip" opacity="0" aria-describedby="id-138" transform="translate(760.6457,238.6541)" aria-hidden="true" visibility="hidden"><g fill="#6771dc" fill-opacity="0.9" stroke-width="1" stroke-opacity="1" stroke="#ffffff" filter="url(#filter-id-83)" style="pointer-events: none;" transform="translate(-126,-81)"><path d="M3,0 L249,0 a3,3 0 0 1 3,3 L252,72 a3,3 0 0 1 -3,3 L249,75 L131,75 L126,81 L121,75 L3,75 a3,3 0 0 1 -3,-3 L0,3 a3,3 0 0 1 3,-3"/></g><g><g fill="#ffffff" style="pointer-events: none;" transform="translate(0,-81)"><g transform="translate(-114,7)" style="user-select: none;"><text x="0" y="21.34375" dy="-5.763"><tspan>I have lots of projects on the go.</tspan></text><text x="0" y="42.6875" dy="-5.763"><tspan> Switching between them keeps</tspan></text><text x="0" y="64.046875" dy="-5.767"><tspan> me motivated: 32.4% (121)</tspan></text></g></g></g></g></g></g></g></g></svg>