<?xml version="1.0" encoding="utf-8"?><svg width="1187px" height="500px" viewBox="0 0 1187 500"  style="font-family: -apple-system, BlinkMacSystemFont, Segoe UI, Roboto, Helvetica, Arial, sans-serif, Apple Color Emoji, Segoe UI Emoji, Segoe UI Symbol;font-size: 16px;" version="1.1" xmlns="http://www.w3.org/2000/svg" xmlns:xlink="http://www.w3.org/1999/xlink"><defs xmlns="http://www.w3.org/2000/svg"><clipPath id="id-46"><rect width="1187" height="500"/></clipPath><linearGradient id="gradient-id-69" x1="1%" x2="99%" y1="59%" y2="41%"><stop stop-color="#474758" offset="0"/><stop stop-color="#474758" stop-opacity="1" offset="0.75"/><stop stop-color="#3cabff" stop-opacity="1" offset="0.755"/></linearGradient><clipPath id="id-78"/><filter id="filter-id-51" filterUnits="objectBoundingBox" width="200%" height="200%" x="-50%" y="-50%"><feGaussianBlur result="blurOut" in="SourceGraphic" stdDeviation="1.5"/><feOffset result="offsetBlur" dx="1" dy="1"/><feFlood flood-color="#000000" flood-opacity="0.5"/><feComposite in2="offsetBlur" operator="in"/><feMerge><feMergeNode/><feMergeNode in="SourceGraphic"/></feMerge></filter><filter id="filter-id-66" filterUnits="objectBoundingBox" width="120%" height="120%" x="-10%" y="-10%"><feColorMatrix type="saturate" values="0"/></filter><filter id="filter-id-83" filterUnits="objectBoundingBox" width="200%" height="200%" x="-50%" y="-50%"><feGaussianBlur result="blurOut" in="SourceGraphic" stdDeviation="1.5"/><feOffset result="offsetBlur" dx="1" dy="1"/><feFlood flood-color="#000000" flood-opacity="0.5"/><feComposite in2="offsetBlur" operator="in"/><feMerge><feMergeNode/><feMergeNode in="SourceGraphic"/></feMerge></filter></defs><g xmlns="http://www.w3.org/2000/svg" style=""><g fill="#ffffff" fill-opacity="0"><rect width="1187" height="500"/></g><g><g role="region" clip-path="url(#id-46)" opacity="1" aria-label="Chart"><g><g><g><g><g><g transform="translate(593.5,250)"><g><g role="group" aria-label="Series"><g><g clip-path="url(#id-78)"><g/></g><g/><g><g><g stroke-opacity="1" stroke="#ffffff" role="menuitem" focusable="true" tabindex="0" fill="#67b7dc"><g><g><path d=" M0,0  L0,-200  a200,200,0,0,1,23.2799,1.3595 L0,0 "/></g><g/></g></g><g stroke-opacity="1" stroke="#ffffff" role="menuitem" focusable="true" tabindex="0" fill="#6794dc"><g><g><path d=" M0,0  L23.2799,-198.6405  a200,200,0,0,1,166.5152,135.5704 L0,0 "/></g><g/></g></g><g stroke-opacity="1" stroke="#ffffff" role="menuitem" focusable="true" tabindex="0" fill="#6771dc"><g><g><path d=" M0,0  L189.7951,-63.0701  a200,200,0,0,1,-281.2608,240.9296 L0,0 "/></g><g/></g></g><g stroke-opacity="1" stroke="#ffffff" role="menuitem" focusable="true" tabindex="0" fill="#8067dc"><g><g><path d=" M0,0  L-91.4657,177.8596  a200,200,0,0,1,-96.6935,-110.0649 L0,0 "/></g><g/></g></g><g stroke-opacity="1" stroke="#ffffff" role="menuitem" focusable="true" tabindex="0" fill="#a367dc"><g><g><path d=" M0,0  L-188.1592,67.7946  a200,200,0,0,1,-10.5766,-45.3426 L0,0 "/></g><g/></g></g><g stroke-opacity="1" stroke="#ffffff" role="menuitem" focusable="true" tabindex="0" fill="#c767dc"><g><g><path d=" M0,0  L-198.7358,22.452  a200,200,0,0,1,91.3735,-191.1925 L0,0 "/></g><g/></g></g><g stroke-opacity="1" stroke="#ffffff" role="menuitem" focusable="true" tabindex="0" fill="#dc67ce"><g><g><path d=" M0,0  L-107.3623,-168.7404  a200,200,0,0,1,67.6293,-27.2731 L0,0 "/></g><g/></g></g><g stroke-opacity="1" stroke="#ffffff" role="menuitem" focusable="true" tabindex="0" fill="#dc67ab"><g><g><path d=" M0,0  L-39.7329,-196.0135  a200,200,0,0,1,6.5545,-1.2153 L0,0 "/></g><g/></g></g><g stroke-opacity="1" stroke="#ffffff" role="menuitem" focusable="true" tabindex="0" fill="#dc6788"><g><g><path d=" M0,0  L-33.1785,-197.2288  a200,200,0,0,1,33.1785,-2.7712 L0,0 "/></g><g/></g></g></g></g><g><g><g fill-opacity="0" stroke-opacity="0.2" stroke="#000000" stroke-width="1"><polyline points="11.6597769,-199.65983472,210,-215.633,216,-215.633"/></g><g fill-opacity="0" stroke-opacity="0.2" stroke="#000000" stroke-width="1"><polyline points="126.27379022000001,-155.09651802,210,-167.504,216,-167.504"/></g><g fill-opacity="0" stroke-opacity="0.2" stroke="#000000" stroke-width="1"><polyline points="130.11125132,151.8916136,210,164.043,216,164.043"/></g><g fill-opacity="0" stroke-opacity="0.2" stroke="#000000" stroke-width="1"><polyline points="-150.2534378,131.999638,-210,142.56,-216,142.56"/></g><g fill-opacity="0" stroke-opacity="0.2" stroke="#000000" stroke-width="1"><polyline points="-194.77145292,45.43215962,-210,49.067,-216,49.067"/></g><g fill-opacity="0" stroke-opacity="0.2" stroke="#000000" stroke-width="1"><polyline points="-180.45123324000002,-86.24008596,-210,-93.139,-216,-93.139"/></g><g fill-opacity="0" stroke-opacity="0.2" stroke="#000000" stroke-width="1"><polyline points="-74.80111527999999,-185.48529094,-210,-153.25,-216,-153.25"/></g><g fill-opacity="0" stroke-opacity="0.2" stroke="#000000" stroke-width="1"><polyline points="-36.460761000000005,-196.64845004,-210,-184.25,-216,-184.25"/></g><g fill-opacity="0" stroke-opacity="0.2" stroke="#000000" stroke-width="1"><polyline points="-16.646991959999998,-199.30599002,-210,-215.25,-216,-215.25"/></g></g></g><g><g><g fill="#000000" aria-label="No formal education: 1.9%" transform="translate(216,-215.633)"><g transform="translate(5,-10.5)" style="user-select: none;"><text x="0" y="21.34375" dy="-5.763"><tspan>No formal education: 1.9%</tspan></text></g></g><g fill="#000000" aria-label="Primary/elementary school: 18.0%" transform="translate(216,-167.504)"><g transform="translate(5,-10.5)" style="user-select: none;"><text x="0" y="21.34375" dy="-5.763"><tspan>Primary/elementary school: 18.0%</tspan></text></g></g><g fill="#000000" aria-label="Secondary/high school: 37.7%" transform="translate(216,164.043)"><g transform="translate(5,-10.5)" style="user-select: none;"><text x="0" y="21.34375" dy="-5.763"><tspan>Secondary/high school: 37.7%</tspan></text></g></g><g fill="#000000" aria-label="College/University without earning a degree: 11.9%" transform="translate(-216,142.56)"><g transform="translate(-367,-10.5)" style="user-select: none;"><text x="0" y="21.34375" dy="-5.763"><tspan>College/University without earning a degree: 11.9%</tspan></text></g></g><g fill="#000000" aria-label="Associate degree: 3.7%" transform="translate(-216,49.067)"><g transform="translate(-168,-10.5)" style="user-select: none;"><text x="0" y="21.34375" dy="-5.763"><tspan>Associate degree: 3.7%</tspan></text></g></g><g fill="#000000" aria-label="Bachelor's degree: 17.8%" transform="translate(-216,-93.139)"><g transform="translate(-181,-10.5)" style="user-select: none;"><text x="0" y="21.34375" dy="-5.763"><tspan>Bachelor's degree: 17.8%</tspan></text></g></g><g fill="#000000" aria-label="Master's degree: 5.8%" transform="translate(-216,-153.25)"><g transform="translate(-160,-10.5)" style="user-select: none;"><text x="0" y="21.34375" dy="-5.763"><tspan>Master's degree: 5.8%</tspan></text></g></g><g fill="#000000" aria-label="PhD: 0.5%" transform="translate(-216,-184.25)"><g transform="translate(-77,-10.5)" style="user-select: none;"><text x="0" y="21.34375" dy="-5.763"><tspan>PhD: 0.5%</tspan></text></g></g><g fill="#000000" aria-label="Other: 2.7%" transform="translate(-216,-215.25)"><g transform="translate(-88,-10.5)" style="user-select: none;"><text x="0" y="21.34375" dy="-5.763"><tspan>Other: 2.7%</tspan></text></g></g></g></g></g></g></g></g><g transform="translate(1272,250)"><g><g><g/></g></g></g></g></g></g></g></g></g><g><g><g role="tooltip" visibility="hidden" opacity="0"><g fill="#ffffff" fill-opacity="0.9" stroke-width="1" stroke-opacity="1" stroke="#ffffff" filter="url(#filter-id-51)" style="pointer-events: none;" transform="translate(0,6)"><path d="M3,0 L3,0 L0,-6 L13,0 L21,0 a3,3 0 0 1 3,3 L24,8 a3,3 0 0 1 -3,3 L3,11 a3,3 0 0 1 -3,-3 L0,3 a3,3 0 0 1 3,-3"/></g><g><g fill="#ffffff" style="pointer-events: none;" transform="translate(12,6)"><g transform="translate(0,7)" display="none"/></g></g></g><g visibility="hidden" display="none" style="pointer-events: none;"><g fill="#ffffff" opacity="1"><rect width="2544" height="500"/></g><g><g transform="translate(1272,250)"><g><g stroke-opacity="1" fill="#f3f3f3" fill-opacity="0.8"><g><g><path d=" M53,0  a53,53,0,0,1,-106,0 a53,53,0,0,1,106,0 M42,0  a42,42,0,0,0,-84,0 a42,42,0,0,0,84,0 L42,0 "/></g></g></g><g stroke-opacity="1" fill="#000000" fill-opacity="0.2"><g><g><path d=" M50,0  a50,50,0,0,1,-100,0 a50,50,0,0,1,100,0 M45,0  a45,45,0,0,0,-90,0 a45,45,0,0,0,90,0 L45,0 "/></g></g></g><g fill="#000000" fill-opacity="0.4"><g transform="translate(-20,-10.5)" style="user-select: none;"><text x="20px" y="21.34375" dy="-5.763" text-anchor="middle"><tspan>100%</tspan></text></g></g></g></g></g></g><g opacity="0.3" aria-labelledby="id-66-title" filter="url(#filter-id-66)" style="cursor: pointer;" transform="translate(0,479)"><g fill="#ffffff" opacity="0"><rect width="66" height="21"/></g><g><g shape-rendering="auto" fill="none" stroke-opacity="1" stroke-width="1.7999999999999998" stroke="#3cabff"><path d=" M15,15  C17.4001,15 22.7998,15.0001 27,15 C31.2002,14.9999 33.2999,6 36,6 C38.7001,6 38.6999,10.5 40.5,10.5 C42.3001,10.5 42.2999,6 45,6 C47.7001,6 50.9999,14.9999 54,15 C57.0002,15.0001 58.7999,15 60,15"/></g><g shape-rendering="auto" fill="none" stroke-opacity="1" stroke-width="1.7999999999999998" stroke="url(#gradient-id-69)"><path d=" M6,15  C8.2501,15 9.7498,15.0001 15,15 C20.2502,14.9999 20.7748,3.6 27,3.6 C33.2252,3.6 33.8998,14.9999 39.9,15 C45.9002,15.0001 45.9748,15 51,15 C56.0252,15 57.7499,15 60,15"/></g></g><title id="id-66-title">Chart created using amCharts library</title></g><g role="tooltip" visibility="hidden" opacity="0"><g fill="#ffffff" fill-opacity="0.9" stroke-width="1" stroke-opacity="1" stroke="#ffffff" filter="url(#filter-id-83)" style="pointer-events: none;" transform="translate(0,6)"><path d="M3,0 L3,0 L0,-6 L13,0 L21,0 a3,3 0 0 1 3,3 L24,8 a3,3 0 0 1 -3,3 L3,11 a3,3 0 0 1 -3,-3 L0,3 a3,3 0 0 1 3,-3"/></g><g><g fill="#ffffff" style="pointer-events: none;" transform="translate(12,6)"><g transform="translate(0,7)" display="none"/></g></g></g></g></g></g></g></svg>