<?xml version="1.0" encoding="utf-8"?><svg width="1067px" height="500px" viewBox="0 0 1067 500"  style="font-family: -apple-system, BlinkMacSystemFont, Segoe UI, Roboto, Helvetica, Arial, sans-serif, Apple Color Emoji, Segoe UI Emoji, Segoe UI Symbol;font-size: 16px;" version="1.1" xmlns="http://www.w3.org/2000/svg" xmlns:xlink="http://www.w3.org/1999/xlink"><defs xmlns="http://www.w3.org/2000/svg"><clipPath id="id-46"><rect width="1067" height="500"/></clipPath><linearGradient id="gradient-id-69" x1="1%" x2="99%" y1="59%" y2="41%"><stop stop-color="#474758" offset="0"/><stop stop-color="#474758" stop-opacity="1" offset="0.75"/><stop stop-color="#3cabff" stop-opacity="1" offset="0.755"/></linearGradient><clipPath id="id-78"/><filter id="filter-id-51" filterUnits="objectBoundingBox" width="200%" height="200%" x="-50%" y="-50%"><feGaussianBlur result="blurOut" in="SourceGraphic" stdDeviation="1.5"/><feOffset result="offsetBlur" dx="1" dy="1"/><feFlood flood-color="#000000" flood-opacity="0.5"/><feComposite in2="offsetBlur" operator="in"/><feMerge><feMergeNode/><feMergeNode in="SourceGraphic"/></feMerge></filter><filter id="filter-id-66" filterUnits="objectBoundingBox" width="120%" height="120%" x="-10%" y="-10%"><feColorMatrix type="saturate" values="0"/></filter><filter id="filter-id-83" filterUnits="objectBoundingBox" width="200%" height="200%" x="-50%" y="-50%"><feGaussianBlur result="blurOut" in="SourceGraphic" stdDeviation="1.5"/><feOffset result="offsetBlur" dx="1" dy="1"/><feFlood flood-color="#000000" flood-opacity="0.5"/><feComposite in2="offsetBlur" operator="in"/><feMerge><feMergeNode/><feMergeNode in="SourceGraphic"/></feMerge></filter></defs><g xmlns="http://www.w3.org/2000/svg" style=""><g fill="#ffffff" fill-opacity="1"><rect width="1067" height="500"/></g><g><g role="region" clip-path="url(#id-46)" opacity="1" aria-label="Chart"><g><g><g><g><g><g transform="translate(533.5,250)"><g><g role="group" aria-label="Series"><g><g clip-path="url(#id-78)"><g/></g><g/><g><g><g stroke-opacity="1" stroke="#ffffff" role="menuitem" focusable="true" tabindex="0" fill="#67b7dc"><g><g><path d=" M0,0  L0,-200  a200,200,0,0,1,198.1124,227.4128 a200,200,0,0,1,-252.4205,165.0726 L0,0 "/></g><g/></g></g><g stroke-opacity="1" stroke="#ffffff" role="menuitem" focusable="true" tabindex="0" fill="#6794dc" id="id-126" transform="translate(0,0)"><g><g><path d=" M0,0  L-54.3081,192.4854  a200,200,0,0,1,-143.8043,-219.8982 L0,0 "/></g><g/></g></g><g stroke-opacity="1" stroke="#ffffff" role="menuitem" focusable="true" tabindex="0" fill="#6771dc" id="id-143" transform="translate(0,0)"><g><g><path d=" M0,0  L-198.1124,-27.4128  a200,200,0,0,1,15.5619,-54.2896 L0,0 "/></g><g/></g></g><g stroke-opacity="1" stroke="#ffffff" role="menuitem" focusable="true" tabindex="0" fill="#8067dc" id="id-160" transform="translate(0,0)"><g><g><path d=" M0,0  L-182.5506,-81.7024  a200,200,0,0,1,27.9815,-45.2165 L0,0 "/></g><g/></g></g><g stroke-opacity="1" stroke="#ffffff" role="menuitem" focusable="true" tabindex="0" fill="#a367dc"><g><g><path d=" M0,0  L-154.569,-126.9189  a200,200,0,0,1,38.9076,-36.2449 L0,0 "/></g><g/></g></g><g stroke-opacity="1" stroke="#ffffff" role="menuitem" focusable="true" tabindex="0" fill="#c767dc"><g><g><path d=" M0,0  L-115.6614,-163.1638  a200,200,0,0,1,40.8603,-22.3215 L0,0 "/></g><g/></g></g><g stroke-opacity="1" stroke="#ffffff" role="menuitem" focusable="true" tabindex="0" fill="#dc67ce"><g><g><path d=" M0,0  L-74.8011,-185.4853  a200,200,0,0,1,35.0682,-10.5282 L0,0 "/></g><g/></g></g><g stroke-opacity="1" stroke="#ffffff" role="menuitem" focusable="true" tabindex="0" fill="#dc67ab"><g><g><path d=" M0,0  L-39.7329,-196.0135  a200,200,0,0,1,19.7667,-2.9874 L0,0 "/></g><g/></g></g><g stroke-opacity="1" stroke="#ffffff" role="menuitem" focusable="true" tabindex="0" fill="#dc6788"><g><g><path d=" M0,0  L-19.9662,-199.0009  a200,200,0,0,1,19.9662,-0.9991 L0,0 "/></g><g/></g></g></g></g><g><g><g fill-opacity="0" stroke-opacity="0.2" stroke="#000000" stroke-width="1"><polyline points="198.11244064,27.41278648,210,29.606,216,29.606"/></g><g fill-opacity="0" stroke-opacity="0.2" stroke="#000000" stroke-width="1"><polyline points="-167.38530278,109.46305502,-210,118.22,-216,118.22"/></g><g fill-opacity="0" stroke-opacity="0.2" stroke="#000000" stroke-width="1"><polyline points="-192.25744264,-55.109670200000004,-210,-29.73,-216,-29.73"/></g><g fill-opacity="0" stroke-opacity="0.2" stroke="#000000" stroke-width="1"><polyline points="-170.06922692,-105.24475308000001,-210,-60.73,-216,-60.73"/></g><g fill-opacity="0" stroke-opacity="0.2" stroke="#000000" stroke-width="1"><polyline points="-136.32516636,-146.34018252,-210,-91.73,-216,-91.73"/></g><g fill-opacity="0" stroke-opacity="0.2" stroke="#000000" stroke-width="1"><polyline points="-95.88304026,-175.51764182,-210,-122.73,-216,-122.73"/></g><g fill-opacity="0" stroke-opacity="0.2" stroke="#000000" stroke-width="1"><polyline points="-57.508463860000006,-191.55358672,-210,-153.73,-216,-153.73"/></g><g fill-opacity="0" stroke-opacity="0.2" stroke="#000000" stroke-width="1"><polyline points="-29.886927680000003,-197.7543212,-210,-184.73,-216,-184.73"/></g><g fill-opacity="0" stroke-opacity="0.2" stroke="#000000" stroke-width="1"><polyline points="-9.995598560000001,-199.75006386,-210,-215.73,-216,-215.73"/></g></g></g><g><g><g fill="#000000" aria-label="Student (full time): 54.4%" transform="translate(216,29.606)"><g transform="translate(5,-10.5)" style="user-select: none;"><text x="0" y="21.34375" dy="-5.763"><tspan>Student (full time): 54.4%</tspan></text></g></g><g fill="#000000" aria-label="Employed (full time): 22.8%" transform="translate(-216,118.22)"><g transform="translate(-198,-10.5)" style="user-select: none;"><text x="0" y="21.34375" dy="-5.763"><tspan>Employed (full time): 22.8%</tspan></text></g></g><g fill="#000000" aria-label="Unemployed: 4.5%" transform="translate(-216,-29.73)"><g transform="translate(-138,-10.5)" style="user-select: none;"><text x="0" y="21.34375" dy="-5.763"><tspan>Unemployed: 4.5%</tspan></text></g></g><g fill="#000000" aria-label="Student (part time): 4.2%" transform="translate(-216,-60.73)"><g transform="translate(-181,-10.5)" style="user-select: none;"><text x="0" y="21.34375" dy="-5.763"><tspan>Student (part time): 4.2%</tspan></text></g></g><g fill="#000000" aria-label="Employed (part time): 4.2%" transform="translate(-216,-91.73)"><g transform="translate(-196,-10.5)" style="user-select: none;"><text x="0" y="21.34375" dy="-5.763"><tspan>Employed (part time): 4.2%</tspan></text></g></g><g fill="#000000" aria-label="Employed (internship): 3.7%" transform="translate(-216,-122.73)"><g transform="translate(-202,-10.5)" style="user-select: none;"><text x="0" y="21.34375" dy="-5.763"><tspan>Employed (internship): 3.7%</tspan></text></g></g><g fill="#000000" aria-label="Self employed: 2.9%" transform="translate(-216,-153.73)"><g transform="translate(-148,-10.5)" style="user-select: none;"><text x="0" y="21.34375" dy="-5.763"><tspan>Self employed: 2.9%</tspan></text></g></g><g fill="#000000" aria-label="Employed and Student mix: 1.6%" transform="translate(-216,-184.73)"><g transform="translate(-237,-10.5)" style="user-select: none;"><text x="0" y="21.34375" dy="-5.763"><tspan>Employed and Student mix: 1.6%</tspan></text></g></g><g fill="#000000" aria-label="Other: 1.6%" transform="translate(-216,-215.73)"><g transform="translate(-88,-10.5)" style="user-select: none;"><text x="0" y="21.34375" dy="-5.763"><tspan>Other: 1.6%</tspan></text></g></g></g></g></g></g></g></g><g transform="translate(1263.5,250)"><g><g><g/></g></g></g></g></g></g></g></g></g><g><g><g role="tooltip" visibility="hidden" opacity="0"><g fill="#ffffff" fill-opacity="0.9" stroke-width="1" stroke-opacity="1" stroke="#ffffff" filter="url(#filter-id-51)" style="pointer-events: none;" transform="translate(0,6)"><path d="M3,0 L3,0 L0,-6 L13,0 L21,0 a3,3 0 0 1 3,3 L24,8 a3,3 0 0 1 -3,3 L3,11 a3,3 0 0 1 -3,-3 L0,3 a3,3 0 0 1 3,-3"/></g><g><g fill="#ffffff" style="pointer-events: none;" transform="translate(12,6)"><g transform="translate(0,7)" display="none"/></g></g></g><g visibility="hidden" display="none" style="pointer-events: none;"><g fill="#ffffff" opacity="1"><rect width="2527" height="500"/></g><g><g transform="translate(1263.5,250)"><g><g stroke-opacity="1" fill="#f3f3f3" fill-opacity="0.8"><g><g><path d=" M53,0  a53,53,0,0,1,-106,0 a53,53,0,0,1,106,0 M42,0  a42,42,0,0,0,-84,0 a42,42,0,0,0,84,0 L42,0 "/></g></g></g><g stroke-opacity="1" fill="#000000" fill-opacity="0.2"><g><g><path d=" M50,0  a50,50,0,0,1,-100,0 a50,50,0,0,1,100,0 M45,0  a45,45,0,0,0,-90,0 a45,45,0,0,0,90,0 L45,0 "/></g></g></g><g fill="#000000" fill-opacity="0.4"><g transform="translate(-20,-10.5)" style="user-select: none;"><text x="20px" y="21.34375" dy="-5.763" text-anchor="middle"><tspan>100%</tspan></text></g></g></g></g></g></g><g opacity="0.3" aria-labelledby="id-66-title" filter="url(#filter-id-66)" style="cursor: pointer;" transform="translate(0,479)"><g fill="#ffffff" opacity="0"><rect width="66" height="21"/></g><g><g shape-rendering="auto" fill="none" stroke-opacity="1" stroke-width="1.7999999999999998" stroke="#3cabff"><path d=" M15,15  C17.4001,15 22.7998,15.0001 27,15 C31.2002,14.9999 33.2999,6 36,6 C38.7001,6 38.6999,10.5 40.5,10.5 C42.3001,10.5 42.2999,6 45,6 C47.7001,6 50.9999,14.9999 54,15 C57.0002,15.0001 58.7999,15 60,15"/></g><g shape-rendering="auto" fill="none" stroke-opacity="1" stroke-width="1.7999999999999998" stroke="url(#gradient-id-69)"><path d=" M6,15  C8.2501,15 9.7498,15.0001 15,15 C20.2502,14.9999 20.7748,3.6 27,3.6 C33.2252,3.6 33.8998,14.9999 39.9,15 C45.9002,15.0001 45.9748,15 51,15 C56.0252,15 57.7499,15 60,15"/></g></g><title id="id-66-title">Chart created using amCharts library</title></g><g role="tooltip" opacity="0" aria-describedby="id-160" transform="translate(448.4654,197.3776)" aria-hidden="true" visibility="hidden"><g fill="#8067dc" fill-opacity="0.9" stroke-width="1" stroke-opacity="1" stroke="#ffffff" filter="url(#filter-id-83)" style="pointer-events: none;" transform="translate(-115.5,-38)"><path d="M3,0 L228,0 a3,3 0 0 1 3,3 L231,29 a3,3 0 0 1 -3,3 L228,32 L120.5,32 L115.5,38 L110.5,32 L3,32 a3,3 0 0 1 -3,-3 L0,3 a3,3 0 0 1 3,-3"/></g><g><g fill="#ffffff" style="pointer-events: none;" transform="translate(0,-38)"><g transform="translate(-103.5,7)" style="user-select: none;"><text x="0" y="21.34375" dy="-5.763"><tspan>Student (part time): 4.2% (16)</tspan></text></g></g></g></g></g></g></g></g></svg>