<?xml version="1.0" encoding="utf-8"?><svg width="1306px" height="500px" viewBox="0 0 1306 500"  style="font-family: -apple-system, BlinkMacSystemFont, Segoe UI, Roboto, Helvetica, Arial, sans-serif, Apple Color Emoji, Segoe UI Emoji, Segoe UI Symbol;font-size: 16px;" version="1.1" xmlns="http://www.w3.org/2000/svg" xmlns:xlink="http://www.w3.org/1999/xlink"><defs xmlns="http://www.w3.org/2000/svg"><clipPath id="id-46"><rect width="1306" height="500"/></clipPath><linearGradient id="gradient-id-69" x1="1%" x2="99%" y1="59%" y2="41%"><stop stop-color="#474758" offset="0"/><stop stop-color="#474758" stop-opacity="1" offset="0.75"/><stop stop-color="#3cabff" stop-opacity="1" offset="0.755"/></linearGradient><filter id="filter-id-78" filterUnits="objectBoundingBox" width="200%" height="200%" x="-50%" y="-50%"/><filter id="filter-id-99" filterUnits="objectBoundingBox" width="200%" height="200%" x="-50%" y="-50%"/><clipPath id="id-132"><path d="M0,0 L929,0 L929,379 L0,379 L0,0"/></clipPath><clipPath id="id-253"><rect width="929" height="379"/></clipPath><filter id="filter-id-51" filterUnits="objectBoundingBox" width="200%" height="200%" x="-50%" y="-50%"><feGaussianBlur result="blurOut" in="SourceGraphic" stdDeviation="1.5"/><feOffset result="offsetBlur" dx="1" dy="1"/><feFlood flood-color="#000000" flood-opacity="0.5"/><feComposite in2="offsetBlur" operator="in"/><feMerge><feMergeNode/><feMergeNode in="SourceGraphic"/></feMerge></filter><filter id="filter-id-66" filterUnits="objectBoundingBox" width="120%" height="120%" x="-10%" y="-10%"><feColorMatrix type="saturate" values="0"/></filter><filter id="filter-id-137" filterUnits="objectBoundingBox" width="200%" height="200%" x="-50%" y="-50%"><feGaussianBlur result="blurOut" in="SourceGraphic" stdDeviation="1.5"/><feOffset result="offsetBlur" dx="1" dy="1"/><feFlood flood-color="#000000" flood-opacity="0.5"/><feComposite in2="offsetBlur" operator="in"/><feMerge><feMergeNode/><feMergeNode in="SourceGraphic"/></feMerge></filter></defs><g xmlns="http://www.w3.org/2000/svg" style=""><g fill="#ffffff" fill-opacity="1"><rect width="1306" height="500"/></g><g><g role="region" clip-path="url(#id-46)" opacity="1" aria-label="Chart"><g transform="translate(40,40)"><g><g><g><g><g><g><g transform="translate(297,0)"><g fill="#ffffff" fill-opacity="0"><rect width="929" height="379"/></g><g><g><g><g stroke="#000000" stroke-opacity="0.15" fill="none" transform="translate(-186,0)" display="none"><path d=" M0,0  L0,379 " transform="translate(-0.5,-0.5)"/></g><g stroke="#000000" stroke-opacity="0.15" fill="none" transform="translate(-93,0)" display="none"><path d=" M0,0  L0,379 " transform="translate(-0.5,-0.5)"/></g><g stroke="#000000" stroke-opacity="0.15" fill="none"><path d=" M0,0  L0,379 " transform="translate(-0.5,-0.5)"/></g><g stroke="#000000" stroke-opacity="0.15" fill="none" transform="translate(93,0)" display="none"><path d=" M0,0  L0,379 " transform="translate(-0.5,-0.5)"/></g><g stroke="#000000" stroke-opacity="0.15" fill="none" transform="translate(186,0)"><path d=" M0,0  L0,379 " transform="translate(-0.5,-0.5)"/></g><g stroke="#000000" stroke-opacity="0.15" fill="none" transform="translate(279,0)" display="none"><path d=" M0,0  L0,379 " transform="translate(-0.5,-0.5)"/></g><g stroke="#000000" stroke-opacity="0.15" fill="none" transform="translate(372,0)"><path d=" M0,0  L0,379 " transform="translate(-0.5,-0.5)"/></g><g stroke="#000000" stroke-opacity="0.15" fill="none" transform="translate(464,0)" display="none"><path d=" M0,0  L0,379 " transform="translate(-0.5,-0.5)"/></g><g stroke="#000000" stroke-opacity="0.15" fill="none" transform="translate(557,0)"><path d=" M0,0  L0,379 " transform="translate(-0.5,-0.5)"/></g><g stroke="#000000" stroke-opacity="0.15" fill="none" transform="translate(650,0)" display="none"><path d=" M0,0  L0,379 " transform="translate(-0.5,-0.5)"/></g><g stroke="#000000" stroke-opacity="0.15" fill="none" transform="translate(743,0)"><path d=" M0,0  L0,379 " transform="translate(-0.5,-0.5)"/></g><g stroke="#000000" stroke-opacity="0.15" fill="none" transform="translate(1115,0)" display="none"><path d=" M0,0  L0,379 " transform="translate(-0.5,-0.5)"/></g><g stroke="#000000" stroke-opacity="0.15" fill="none" transform="translate(929,0)"><path d=" M0,0  L0,379 " transform="translate(-0.5,-0.5)"/></g><g stroke="#000000" stroke-opacity="0.15" fill="none" transform="translate(-372,0)" display="none"><path d=" M0,0  L0,379 " transform="translate(-0.5,-0.5)"/></g></g></g><g><g/></g><g><g><g role="group" stroke-opacity="0" fill-opacity="1" stroke="#67b7dc" aria-label="Series" id="id-127"><g><g clip-path="url(#id-132)"><g><g><g><g stroke-opacity="0" fill="#67b7dc" fill-opacity="1" stroke="#67b7dc" role="menuitem" focusable="true" tabindex="0" transform="translate(0,12.632)"><g><g><path d="M0,0 L886.84,0 a5,5 0 0 1 5,5 L891.84,96.068 a5,5 0 0 1 -5,5 L0,101.068 a0,0 0 0 1 -0,-0 L0,0 a0,0 0 0 1 0,-0 Z"/></g></g></g><g stroke-opacity="0" fill="#6794dc" fill-opacity="1" stroke="#67b7dc" role="menuitem" focusable="true" tabindex="0" transform="translate(0,138.968)"><g><g><path d="M0,0 L403.76,0 a5,5 0 0 1 5,5 L408.76,96.064 a5,5 0 0 1 -5,5 L0,101.064 a0,0 0 0 1 -0,-0 L0,0 a0,0 0 0 1 0,-0 Z"/></g></g></g><g stroke-opacity="0" fill="#6771dc" fill-opacity="1" stroke="#67b7dc" role="menuitem" focusable="true" tabindex="0" transform="translate(0,265.3)"><g><g><path d="M0,0 L357.31,0 a5,5 0 0 1 5,5 L362.31,96.068 a5,5 0 0 1 -5,5 L0,101.068 a0,0 0 0 1 -0,-0 L0,0 a0,0 0 0 1 0,-0 Z"/></g></g></g></g></g></g></g><g/></g></g></g></g><g clip-path="url(#id-253)"><g><g fill="#67b7dc" stroke="#67b7dc"><g><g opacity="1" transform="translate(0,63.168)" focusable="true" tabindex="0"><g><g fill="#000000" stroke-opacity="0" transform="translate(10,0)"><g transform="translate(0,-10.5)" style="user-select: none;"><text x="0" y="21.34375" overflow="hidden" dy="-5.763"><tspan>96</tspan></text></g></g></g></g><g opacity="1" transform="translate(0,189.5)" focusable="true" tabindex="0"><g><g fill="#000000" stroke-opacity="0" transform="translate(10,0)"><g transform="translate(0,-10.5)" style="user-select: none;"><text x="0" y="21.34375" overflow="hidden" dy="-5.763"><tspan>44</tspan></text></g></g></g></g><g opacity="1" transform="translate(0,315.832)" focusable="true" tabindex="0"><g><g fill="#000000" stroke-opacity="0" transform="translate(10,0)"><g transform="translate(0,-10.5)" style="user-select: none;"><text x="0" y="21.34375" overflow="hidden" dy="-5.763"><tspan>39</tspan></text></g></g></g></g></g></g></g></g><g><g><g><g/></g><g><g/></g></g></g><g><g/></g><g><g/></g><g role="button" focusable="true" tabindex="0" opacity="0" visibility="hidden" aria-hidden="true" transform="translate(889,-3)" aria-labelledby="id-37-title"><g fill="#6794dc" stroke="#ffffff" fill-opacity="1" stroke-opacity="0" transform="translate(0,8)"><path d="M17,0 L18,0 a17,17 0 0 1 17,17 L35,17 a17,17 0 0 1 -17,17 L17,34 a17,17 0 0 1 -17,-17 L0,17 a17,17 0 0 1 17,-17 Z"/></g><g transform="translate(9,9)"><g stroke="#ffffff" style="pointer-events: none;" transform="translate(0,8)"><path d=" M0,0  L11,0 " transform="translate(2.5,7.5)"/></g><g fill="#000000" style="pointer-events: none;" transform="translate(17,8)"><g display="none"/></g></g><title id="id-37-title">Zoom Out</title></g></g></g><g><g><g aria-hidden="true"><g><g fill="#000000" transform="translate(0,189.5) rotate(-90)"><g display="none"/></g><g stroke="#000000" stroke-opacity="0.15" fill="none" display="none" transform="translate(297,379)" opacity="0" visibility="hidden" aria-hidden="true"><path transform="translate(-0.5,-0.5)" d=" M0,0  L929,0 "/></g><g transform="translate(0,0)"><g><g fill="#000000" aria-label="L" fill-opacity="0" opacity="0" stroke-opacity="0" style="pointer-events: none;" transform="translate(297,189.5)"><g transform="translate(-287,-10.5)" style="user-select: none;"><text x="0" y="21.359375" dy="-5.767"><tspan>I don't feel comfortable with my ability.</tspan></text></g></g><g fill="#000000" transform="translate(297,63.166)"><g transform="translate(-287,-10.5)" style="user-select: none;"><text x="0" y="21.34375" dy="-5.763"><tspan>I don't feel comfortable with my ability.</tspan></text></g></g><g fill="#000000" transform="translate(297,189.5)"><g transform="translate(-160,-10.5)" style="user-select: none;"><text x="0" y="21.34375" dy="-5.763"><tspan>I don't have the time.</tspan></text></g></g><g fill="#000000" transform="translate(297,315.834)"><g transform="translate(-265,-10.5)" style="user-select: none;"><text x="0" y="21.34375" dy="-5.763"><tspan>I can't find projects that interest me.</tspan></text></g></g><g fill="#000000" display="none" transform="translate(297,442.166)"><g transform="translate(-10,0)" display="none"/></g></g></g><g stroke="#000000" stroke-opacity="0" fill="none" style="pointer-events: none;" transform="translate(297,0)"><path d=" M0,0  L0,379 " transform="translate(-0.5,-0.5)"/></g></g></g></g></g><g transform="translate(1226,0)"><g/></g></g></g><g><g transform="translate(297,0)"/></g><g transform="translate(0,379)"><g transform="translate(297,0)"><g aria-hidden="true"><g><g stroke="#000000" stroke-opacity="0" fill="none" style="pointer-events: none;"><path d=" M0,0  L929,0 " transform="translate(-0.5,-0.5)"/></g><g><g><g fill="#000000" aria-label="L" fill-opacity="0" opacity="0" stroke-opacity="0" style="pointer-events: none;" transform="translate(464.5,0)"><g transform="translate(-4,10)" style="user-select: none;"><text x="0" y="21.359375" dy="-5.767"><tspan>L</tspan></text></g></g><g fill="#000000" transform="translate(-185.8,0)" display="none"><g transform="translate(-12,10)" style="user-select: none;"><text x="0" y="21.359375" dy="-5.767"><tspan>-20</tspan></text></g></g><g fill="#000000" transform="translate(-92.9,0)" display="none"><g transform="translate(-12,10)" style="user-select: none;"><text x="0" y="21.359375" dy="-5.767"><tspan>-10</tspan></text></g></g><g fill="#000000"><g transform="translate(-4.5,10)" style="user-select: none;"><text x="0" y="21.34375" dy="-5.763"><tspan>0</tspan></text></g></g><g fill="#000000" transform="translate(92.9,0)" display="none"><g transform="translate(-9,10)" style="user-select: none;"><text x="0" y="21.34375" dy="-5.763"><tspan>10</tspan></text></g></g><g fill="#000000" transform="translate(185.8,0)"><g transform="translate(-9,10)" style="user-select: none;"><text x="0" y="21.34375" dy="-5.763"><tspan>20</tspan></text></g></g><g fill="#000000" transform="translate(278.7,0)" display="none"><g transform="translate(-9,10)" style="user-select: none;"><text x="0" y="21.34375" dy="-5.763"><tspan>30</tspan></text></g></g><g fill="#000000" transform="translate(371.6,0)"><g transform="translate(-9,10)" style="user-select: none;"><text x="0" y="21.34375" dy="-5.763"><tspan>40</tspan></text></g></g><g fill="#000000" transform="translate(464.5,0)" display="none"><g transform="translate(-9,10)" style="user-select: none;"><text x="0" y="21.34375" dy="-5.763"><tspan>50</tspan></text></g></g><g fill="#000000" transform="translate(557.4,0)"><g transform="translate(-9,10)" style="user-select: none;"><text x="0" y="21.34375" dy="-5.763"><tspan>60</tspan></text></g></g><g fill="#000000" transform="translate(650.3,0)" display="none"><g transform="translate(-9,10)" style="user-select: none;"><text x="0" y="21.34375" dy="-5.763"><tspan>70</tspan></text></g></g><g fill="#000000" transform="translate(743.2,0)"><g transform="translate(-9,10)" style="user-select: none;"><text x="0" y="21.34375" dy="-5.763"><tspan>80</tspan></text></g></g><g fill="#000000" transform="translate(1114.8,0)" display="none"><g transform="translate(-13,10)" style="user-select: none;"><text x="0" y="21.34375" dy="-5.763"><tspan>120</tspan></text></g></g><g fill="#000000" transform="translate(929,0)"><g transform="translate(-13,10)" style="user-select: none;"><text x="0" y="21.34375" dy="-5.763"><tspan>100</tspan></text></g></g><g fill="#000000" transform="translate(-371.6,0)" display="none"><g transform="translate(-12,10)" style="user-select: none;"><text x="0" y="21.359375" dy="-5.767"><tspan>-40</tspan></text></g></g></g></g><g stroke="#000000" stroke-opacity="0.15" fill="none" transform="translate(0,-379)"><path transform="translate(-0.5,-0.5)" d=" M0,0  L0,379 "/></g><g fill="#000000" transform="translate(464.5,41)"><g display="none"/></g></g></g></g></g></g></g></g></g></g></g><g><g><g role="tooltip" visibility="hidden" opacity="0"><g fill="#ffffff" fill-opacity="0.9" stroke-width="1" stroke-opacity="1" stroke="#ffffff" filter="url(#filter-id-51)" style="pointer-events: none;" transform="translate(0,6)"><path d="M3,0 L3,0 L0,-6 L13,0 L21,0 a3,3 0 0 1 3,3 L24,8 a3,3 0 0 1 -3,3 L3,11 a3,3 0 0 1 -3,-3 L0,3 a3,3 0 0 1 3,-3"/></g><g><g fill="#ffffff" style="pointer-events: none;" transform="translate(12,6)"><g transform="translate(0,7)" display="none"/></g></g></g><g visibility="hidden" display="none" style="pointer-events: none;"><g fill="#ffffff" opacity="1"><rect width="1306" height="500"/></g><g><g transform="translate(653,250)"><g><g stroke-opacity="1" fill="#f3f3f3" fill-opacity="0.8"><g><g><path d=" M53,0  a53,53,0,0,1,-106,0 a53,53,0,0,1,106,0 M42,0  a42,42,0,0,0,-84,0 a42,42,0,0,0,84,0 L42,0 "/></g></g></g><g stroke-opacity="1" fill="#000000" fill-opacity="0.2"><g><g><path d=" M50,0  a50,50,0,0,1,-100,0 a50,50,0,0,1,100,0 M45,0  a45,45,0,0,0,-90,0 a45,45,0,0,0,90,0 L45,0 "/></g></g></g><g fill="#000000" fill-opacity="0.4"><g transform="translate(-20,-10.5)" style="user-select: none;"><text x="20px" y="21.34375" dy="-5.763" text-anchor="middle"><tspan>100%</tspan></text></g></g></g></g></g></g><g opacity="0.3" aria-labelledby="id-66-title" filter="url(#filter-id-66)" style="cursor: pointer;" transform="translate(0,479)"><g fill="#ffffff" opacity="0"><rect width="66" height="21"/></g><g><g shape-rendering="auto" fill="none" stroke-opacity="1" stroke-width="1.7999999999999998" stroke="#3cabff"><path d=" M15,15  C17.4001,15 22.7998,15.0001 27,15 C31.2002,14.9999 33.2999,6 36,6 C38.7001,6 38.6999,10.5 40.5,10.5 C42.3001,10.5 42.2999,6 45,6 C47.7001,6 50.9999,14.9999 54,15 C57.0002,15.0001 58.7999,15 60,15"/></g><g shape-rendering="auto" fill="none" stroke-opacity="1" stroke-width="1.7999999999999998" stroke="url(#gradient-id-69)"><path d=" M6,15  C8.2501,15 9.7498,15.0001 15,15 C20.2502,14.9999 20.7748,3.6 27,3.6 C33.2252,3.6 33.8998,14.9999 39.9,15 C45.9002,15.0001 45.9748,15 51,15 C56.0252,15 57.7499,15 60,15"/></g></g><title id="id-66-title">Chart created using amCharts library</title></g><g role="tooltip" visibility="hidden" opacity="0"><g fill="#000000" fill-opacity="1" stroke-width="1" stroke-opacity="1" stroke="#000000" style="pointer-events: none;" transform="translate(-25,40)"><path d="M0,0 L20,0 a0,0 0 0 1 0,0 L20,0 L20,0 L25,0 L20,10 L20,10 a0,0 0 0 1 -0,0 L0,10 a0,0 0 0 1 -0,-0 L0,0 a0,0 0 0 1 0,-0"/></g><g><g fill="#ffffff" style="pointer-events: none;" transform="translate(-15,40)"><g transform="translate(0,5)" display="none"/></g></g></g><g role="tooltip" visibility="hidden" opacity="0"><g fill="#000000" fill-opacity="1" stroke-width="1" stroke-opacity="1" stroke="#000000" style="pointer-events: none;" transform="translate(337,419)"><path d="M0,0 L20,0 a0,0 0 0 1 0,0 L20,10 a0,0 0 0 1 -0,0 L0,10 a0,0 0 0 1 -0,-0 L0,0 a0,0 0 0 1 0,-0"/></g><g><g fill="#ffffff" style="pointer-events: none;" transform="translate(347,419)"><g transform="translate(0,5)" display="none"/></g></g></g><g role="tooltip" visibility="hidden" opacity="0" aria-describedby="id-127"><g fill="#67b7dc" fill-opacity="0.9" stroke-width="1" stroke-opacity="1" stroke="#ffffff" filter="url(#filter-id-137)" style="pointer-events: none;" transform="translate(6,0)"><path d="M3,0 L21,0 a3,3 0 0 1 3,3 L24,8 a3,3 0 0 1 -3,3 L3,11 a3,3 0 0 1 -3,-3 L0,8 L0,8 L-6,0 L0,-2 L0,3 a3,3 0 0 1 3,-3"/></g><g><g fill="#000000" style="pointer-events: none;" transform="translate(18,0)"><g transform="translate(0,7)" display="none"/></g></g></g></g></g></g></g></svg>