<?xml version="1.0" encoding="utf-8"?><svg width="1236px" height="500px" viewBox="0 0 1236 500"  style="font-family: -apple-system, BlinkMacSystemFont, Segoe UI, Roboto, Helvetica, Arial, sans-serif, Apple Color Emoji, Segoe UI Emoji, Segoe UI Symbol;font-size: 16px;" version="1.1" xmlns="http://www.w3.org/2000/svg" xmlns:xlink="http://www.w3.org/1999/xlink"><defs xmlns="http://www.w3.org/2000/svg"><clipPath id="id-46"><rect width="1236" height="500"/></clipPath><linearGradient id="gradient-id-69" x1="1%" x2="99%" y1="59%" y2="41%"><stop stop-color="#474758" offset="0"/><stop stop-color="#474758" stop-opacity="1" offset="0.75"/><stop stop-color="#3cabff" stop-opacity="1" offset="0.755"/></linearGradient><clipPath id="id-78"/><filter id="filter-id-51" filterUnits="objectBoundingBox" width="200%" height="200%" x="-50%" y="-50%"><feGaussianBlur result="blurOut" in="SourceGraphic" stdDeviation="1.5"/><feOffset result="offsetBlur" dx="1" dy="1"/><feFlood flood-color="#000000" flood-opacity="0.5"/><feComposite in2="offsetBlur" operator="in"/><feMerge><feMergeNode/><feMergeNode in="SourceGraphic"/></feMerge></filter><filter id="filter-id-66" filterUnits="objectBoundingBox" width="120%" height="120%" x="-10%" y="-10%"><feColorMatrix type="saturate" values="0"/></filter><filter id="filter-id-83" filterUnits="objectBoundingBox" width="200%" height="200%" x="-50%" y="-50%"><feGaussianBlur result="blurOut" in="SourceGraphic" stdDeviation="1.5"/><feOffset result="offsetBlur" dx="1" dy="1"/><feFlood flood-color="#000000" flood-opacity="0.5"/><feComposite in2="offsetBlur" operator="in"/><feMerge><feMergeNode/><feMergeNode in="SourceGraphic"/></feMerge></filter></defs><g xmlns="http://www.w3.org/2000/svg" style=""><g fill="#ffffff" fill-opacity="1"><rect width="1236" height="500"/></g><g><g role="region" clip-path="url(#id-46)" opacity="1" aria-label="Chart"><g><g><g><g><g><g transform="translate(618,250)"><g><g role="group" aria-label="Series"><g><g clip-path="url(#id-78)"><g/></g><g/><g><g><g stroke-opacity="1" stroke="#ffffff" role="menuitem" focusable="true" tabindex="0" fill="#67b7dc" id="id-104" transform="translate(0,0)"><g><g><path d=" M0,0  L0,-200  a200,200,0,0,1,45.7076,394.707 L0,0 "/></g><g/></g></g><g stroke-opacity="1" stroke="#ffffff" role="menuitem" focusable="true" tabindex="0" fill="#6794dc" id="id-124" transform="translate(0,0)"><g><g><path d=" M0,0  L45.7076,194.707  a200,200,0,0,1,-194.0791,-60.5955 L0,0 "/></g><g/></g></g><g stroke-opacity="1" stroke="#ffffff" role="menuitem" focusable="true" tabindex="0" fill="#6771dc" id="id-141" transform="translate(0,0)"><g><g><path d=" M0,0  L-148.3715,134.1115  a200,200,0,0,1,-49.9486,-159.9786 L0,0 "/></g><g/></g></g><g stroke-opacity="1" stroke="#ffffff" role="menuitem" focusable="true" tabindex="0" fill="#8067dc" id="id-158" transform="translate(0,0)"><g><g><path d=" M0,0  L-198.3202,-25.8671  a200,200,0,0,1,42.4686,-99.4736 L0,0 "/></g><g/></g></g><g stroke-opacity="1" stroke="#ffffff" role="menuitem" focusable="true" tabindex="0" fill="#a367dc" id="id-175" transform="translate(0,0)"><g><g><path d=" M0,0  L-155.8515,-125.3407  a200,200,0,0,1,66.8557,-53.7674 L0,0 "/></g><g/></g></g><g stroke-opacity="1" stroke="#ffffff" role="menuitem" focusable="true" tabindex="0" fill="#c767dc" id="id-192" transform="translate(0,0)"><g><g><path d=" M0,0  L-88.9959,-179.1082  a200,200,0,0,1,60.2736,-18.8187 L0,0 "/></g><g/></g></g><g stroke-opacity="1" stroke="#ffffff" role="menuitem" focusable="true" tabindex="0" fill="#dc67ce"><g><g><path d=" M0,0  L-28.7223,-197.9268  a200,200,0,0,1,28.7223,-2.0732 L0,0 "/></g><g/></g></g></g></g><g><g><g fill-opacity="0" stroke-opacity="0.2" stroke="#000000" stroke-width="1"><polyline points="198.67234372,-23.00651728,210,-24.847,216,-24.847"/></g><g fill-opacity="0" stroke-opacity="0.2" stroke="#000000" stroke-width="1"><polyline points="-59.60643592,190.91116468,-210,206.184,-216,206.184"/></g><g fill-opacity="0" stroke-opacity="0.2" stroke="#000000" stroke-width="1"><polyline points="-190.91116468,59.60643592,-210,64.375,-216,64.375"/></g><g fill-opacity="0" stroke-opacity="0.2" stroke="#000000" stroke-width="1"><polyline points="-183.93790392,-78.529278,-210,-84.812,-216,-84.812"/></g><g fill-opacity="0" stroke-opacity="0.2" stroke="#000000" stroke-width="1"><polyline points="-125.3407275,-155.85153842,-210,-153.44,-216,-153.44"/></g><g fill-opacity="0" stroke-opacity="0.2" stroke="#000000" stroke-width="1"><polyline points="-59.60643592,-190.91116468,-210,-184.44,-216,-184.44"/></g><g fill-opacity="0" stroke-opacity="0.2" stroke="#000000" stroke-width="1"><polyline points="-14.39850864,-199.48103405999998,-210,-215.44,-216,-215.44"/></g></g></g><g><g><g fill="#000000" aria-label="Support the open source community: 46.3%" transform="translate(216,-24.847)"><g transform="translate(5,-10.5)" style="user-select: none;"><text x="0" y="21" dy="-5.67"><tspan>Support the open source community: 46.3%</tspan></text></g></g><g fill="#000000" aria-label="To learn and self improve: 17.0%" transform="translate(-216,206.184)"><g transform="translate(-233,-10.5)" style="user-select: none;"><text x="0" y="21" dy="-5.67"><tspan>To learn and self improve: 17.0%</tspan></text></g></g><g fill="#000000" aria-label="To help other people: 13.8%" transform="translate(-216,64.375)"><g transform="translate(-202,-10.5)" style="user-select: none;"><text x="0" y="21" dy="-5.67"><tspan>To help other people: 13.8%</tspan></text></g></g><g fill="#000000" aria-label="For fun: 8.7%" transform="translate(-216,-84.812)"><g transform="translate(-97,-10.5)" style="user-select: none;"><text x="0" y="21" dy="-5.67"><tspan>For fun: 8.7%</tspan></text></g></g><g fill="#000000" aria-label="To fix bugs/find unique problems: 6.9%" transform="translate(-216,-153.44)"><g transform="translate(-281,-10.5)" style="user-select: none;"><text x="0" y="21" dy="-5.67"><tspan>To fix bugs/find unique problems: 6.9%</tspan></text></g></g><g fill="#000000" aria-label="Working as a team: 5.0%" transform="translate(-216,-184.44)"><g transform="translate(-180,-10.5)" style="user-select: none;"><text x="0" y="21" dy="-5.67"><tspan>Working as a team: 5.0%</tspan></text></g></g><g fill="#000000" aria-label="Why not: 2.3%" transform="translate(-216,-215.44)"><g transform="translate(-108,-10.5)" style="user-select: none;"><text x="0" y="21" dy="-5.67"><tspan>Why not: 2.3%</tspan></text></g></g></g></g></g></g></g></g><g transform="translate(952,250)"><g><g><g/></g></g></g></g></g></g></g></g></g><g><g><g role="tooltip" visibility="hidden" opacity="0"><g fill="#ffffff" fill-opacity="0.9" stroke-width="1" stroke-opacity="1" stroke="#ffffff" filter="url(#filter-id-51)" style="pointer-events: none;" transform="translate(0,6)"><path d="M3,0 L3,0 L0,-6 L13,0 L21,0 a3,3 0 0 1 3,3 L24,8 a3,3 0 0 1 -3,3 L3,11 a3,3 0 0 1 -3,-3 L0,3 a3,3 0 0 1 3,-3"/></g><g><g fill="#ffffff" style="pointer-events: none;" transform="translate(12,6)"><g transform="translate(0,7)" display="none"/></g></g></g><g visibility="hidden" display="none" style="pointer-events: none;"><g fill="#ffffff" opacity="1"><rect width="1904" height="500"/></g><g><g transform="translate(952,250)"><g><g stroke-opacity="1" fill="#f3f3f3" fill-opacity="0.8"><g><g><path d=" M53,0  a53,53,0,0,1,-106,0 a53,53,0,0,1,106,0 M42,0  a42,42,0,0,0,-84,0 a42,42,0,0,0,84,0 L42,0 "/></g></g></g><g stroke-opacity="1" fill="#000000" fill-opacity="0.2"><g><g><path d=" M50,0  a50,50,0,0,1,-100,0 a50,50,0,0,1,100,0 M45,0  a45,45,0,0,0,-90,0 a45,45,0,0,0,90,0 L45,0 "/></g></g></g><g fill="#000000" fill-opacity="0.4"><g transform="translate(-19.5,-10.5)" style="user-select: none;"><text x="19.5px" y="21" dy="-5.67" text-anchor="middle"><tspan>100%</tspan></text></g></g></g></g></g></g><g opacity="0.3" aria-labelledby="id-66-title" filter="url(#filter-id-66)" style="cursor: pointer;" transform="translate(0,479)"><g fill="#ffffff" opacity="0"><rect width="66" height="21"/></g><g><g shape-rendering="auto" fill="none" stroke-opacity="1" stroke-width="1.7999999999999998" stroke="#3cabff"><path d=" M15,15  C17.4001,15 22.7998,15.0001 27,15 C31.2002,14.9999 33.2999,6 36,6 C38.7001,6 38.6999,10.5 40.5,10.5 C42.3001,10.5 42.2999,6 45,6 C47.7001,6 50.9999,14.9999 54,15 C57.0002,15.0001 58.7999,15 60,15"/></g><g shape-rendering="auto" fill="none" stroke-opacity="1" stroke-width="1.7999999999999998" stroke="url(#gradient-id-69)"><path d=" M6,15  C8.2501,15 9.7498,15.0001 15,15 C20.2502,14.9999 20.7748,3.6 27,3.6 C33.2252,3.6 33.8998,14.9999 39.9,15 C45.9002,15.0001 45.9748,15 51,15 C56.0252,15 57.7499,15 60,15"/></g></g><title id="id-66-title">Chart created using amCharts library</title></g><g role="tooltip" opacity="0" aria-describedby="id-104" transform="translate(1051.637,238.4619)" aria-hidden="true" visibility="hidden"><g fill="#67b7dc" fill-opacity="0.9" stroke-width="1" stroke-opacity="1" stroke="#ffffff" filter="url(#filter-id-83)" style="pointer-events: none;" transform="translate(-187,-38)"><path d="M3,0 L371,0 a3,3 0 0 1 3,3 L374,29 a3,3 0 0 1 -3,3 L371,32 L192,32 L187,38 L182,32 L3,32 a3,3 0 0 1 -3,-3 L0,3 a3,3 0 0 1 3,-3"/></g><g><g fill="#000000" style="pointer-events: none;" transform="translate(0,-38)"><g transform="translate(-175,7)" style="user-select: none;"><text x="0" y="21.015625" dy="-5.674"><tspan>Support the open source community: 46.3% (101)</tspan></text></g></g></g></g></g></g></g></g></svg>