<?xml version="1.0" encoding="utf-8"?><svg width="1104px" height="500px" viewBox="0 0 1104 500"  style="font-family: -apple-system, BlinkMacSystemFont, Segoe UI, Roboto, Helvetica, Arial, sans-serif, Apple Color Emoji, Segoe UI Emoji, Segoe UI Symbol;font-size: 16px;" version="1.1" xmlns="http://www.w3.org/2000/svg" xmlns:xlink="http://www.w3.org/1999/xlink"><defs xmlns="http://www.w3.org/2000/svg"><clipPath id="id-46"><rect width="1104" height="500"/></clipPath><linearGradient id="gradient-id-69" x1="1%" x2="99%" y1="59%" y2="41%"><stop stop-color="#474758" offset="0"/><stop stop-color="#474758" stop-opacity="1" offset="0.75"/><stop stop-color="#3cabff" stop-opacity="1" offset="0.755"/></linearGradient><filter id="filter-id-78" filterUnits="objectBoundingBox" width="200%" height="200%" x="-50%" y="-50%"/><filter id="filter-id-99" filterUnits="objectBoundingBox" width="200%" height="200%" x="-50%" y="-50%"/><clipPath id="id-132"><path d="M0,0 L996,0 L996,349 L0,349 L0,0"/></clipPath><clipPath id="id-154"><rect width="996" height="349"/></clipPath><clipPath id="id-228"><path d="M0,0 L996,0 L996,60 L0,60 L0,0"/></clipPath><clipPath id="id-592"><rect width="996" height="349"/></clipPath><filter id="filter-id-51" filterUnits="objectBoundingBox" width="200%" height="200%" x="-50%" y="-50%"><feGaussianBlur result="blurOut" in="SourceGraphic" stdDeviation="1.5"/><feOffset result="offsetBlur" dx="1" dy="1"/><feFlood flood-color="#000000" flood-opacity="0.5"/><feComposite in2="offsetBlur" operator="in"/><feMerge><feMergeNode/><feMergeNode in="SourceGraphic"/></feMerge></filter><filter id="filter-id-66" filterUnits="objectBoundingBox" width="120%" height="120%" x="-10%" y="-10%"><feColorMatrix type="saturate" values="0"/></filter><filter id="filter-id-137" filterUnits="objectBoundingBox" width="200%" height="200%" x="-50%" y="-50%"><feGaussianBlur result="blurOut" in="SourceGraphic" stdDeviation="1.5"/><feOffset result="offsetBlur" dx="1" dy="1"/><feFlood flood-color="#000000" flood-opacity="0.5"/><feComposite in2="offsetBlur" operator="in"/><feMerge><feMergeNode/><feMergeNode in="SourceGraphic"/></feMerge></filter><filter id="filter-id-254" filterUnits="objectBoundingBox" width="200%" height="200%" x="-50%" y="-50%"><feGaussianBlur result="blurOut" in="SourceGraphic" stdDeviation="1.5"/><feOffset result="offsetBlur" dx="1" dy="1"/><feFlood flood-color="#000000" flood-opacity="0.5"/><feComposite in2="offsetBlur" operator="in"/><feMerge><feMergeNode/><feMergeNode in="SourceGraphic"/></feMerge><feGaussianBlur result="blurOut" in="SourceGraphic" stdDeviation="1.5"/><feOffset result="offsetBlur" dx="1" dy="1"/><feFlood flood-color="#000000" flood-opacity="0.5"/><feComposite in2="offsetBlur" operator="in"/><feMerge><feMergeNode/><feMergeNode in="SourceGraphic"/></feMerge></filter><filter id="filter-id-209" filterUnits="userSpaceOnUse" width="120%" height="120%" x="-10%" y="-10%"><feColorMatrix type="saturate" values="0"/></filter><clipPath id="id-712" transform="translate(3.3196508692975857e-15,0)"><rect width="996" height="60"/></clipPath></defs><g xmlns="http://www.w3.org/2000/svg" style=""><g fill="#ffffff" fill-opacity="0"><rect width="1104" height="500"/></g><g><g role="region" clip-path="url(#id-46)" opacity="1" aria-label="Chart" id="id-22"><g transform="translate(15,15)"><g><g><g><g><g><g><g transform="translate(78,0)" style="touch-action: none; user-select: none; -webkit-user-drag: none;"><g fill="#ffffff" fill-opacity="0"><rect width="996" height="349"/></g><g><g><g><g stroke="#000000" stroke-opacity="0.15" fill="none" transform="translate(0,336)" display="none"><path d=" M0,0  L996,0 " transform="translate(-0.5,-0.5)"/></g><g stroke="#000000" stroke-opacity="0.15" fill="none" transform="translate(0,240)" display="none"><path d=" M0,0  L996,0 " transform="translate(-0.5,-0.5)"/></g><g stroke="#000000" stroke-opacity="0.15" fill="none" transform="translate(0,131)"><path d=" M0,0  L996,0 " transform="translate(-0.5,-0.5)"/></g><g stroke="#000000" stroke-opacity="0.15" fill="none" transform="translate(0,-44)" display="none"><path d=" M0,0  L996,0 " transform="translate(-0.5,-0.5)"/></g><g stroke="#000000" stroke-opacity="0.15" fill="none" transform="translate(0,262)"><path d=" M0,0  L996,0 " transform="translate(-0.5,-0.5)"/></g><g stroke="#000000" stroke-opacity="0.15" fill="none" transform="translate(0,174)"><path d=" M0,0  L996,0 " transform="translate(-0.5,-0.5)"/></g><g stroke="#000000" stroke-opacity="0.15" fill="none" transform="translate(0,0)"><path d=" M0,0  L996,0 " transform="translate(-0.5,-0.5)"/></g><g stroke="#000000" stroke-opacity="0.15" fill="none" transform="translate(0,44)"><path d=" M0,0  L996,0 " transform="translate(-0.5,-0.5)"/></g><g stroke="#000000" stroke-opacity="0.15" fill="none" transform="translate(0,305)"><path d=" M0,0  L996,0 " transform="translate(-0.5,-0.5)"/></g><g stroke="#000000" stroke-opacity="0.15" fill="none" transform="translate(0,218)"><path d=" M0,0  L996,0 " transform="translate(-0.5,-0.5)"/></g><g stroke="#000000" stroke-opacity="0.15" fill="none" transform="translate(0,87)"><path d=" M0,0  L996,0 " transform="translate(-0.5,-0.5)"/></g><g stroke="#000000" stroke-opacity="0.15" fill="none" transform="translate(0,349)"><path d=" M0,0  L996,0 " transform="translate(-0.5,-0.5)"/></g><g stroke="#000000" stroke-opacity="0.15" fill="none" transform="translate(0,393)" display="none"><path d=" M0,0  L996,0 " transform="translate(-0.5,-0.5)"/></g><g stroke="#000000" stroke-opacity="0.15" fill="none" transform="translate(0,436)" display="none"><path d=" M0,0  L996,0 " transform="translate(-0.5,-0.5)"/></g></g></g><g><g><g stroke="#000000" stroke-opacity="0.15" fill="none" transform="translate(1067,0)" display="none"><path d=" M0,0  L0,349 " transform="translate(-0.5,-0.5)"/></g><g stroke="#000000" stroke-opacity="0.15" fill="none" transform="translate(1138,0)" display="none"><path d=" M0,0  L0,349 " transform="translate(-0.5,-0.5)"/></g><g stroke="#000000" stroke-opacity="0.15" fill="none" transform="translate(854,0)"><path d=" M0,0  L0,349 " transform="translate(-0.5,-0.5)"/></g><g stroke="#000000" stroke-opacity="0.15" fill="none" transform="translate(996,0)"><path d=" M0,0  L0,349 " transform="translate(-0.5,-0.5)"/></g><g stroke="#000000" stroke-opacity="0.15" fill="none" transform="translate(711,0)"><path d=" M0,0  L0,349 " transform="translate(-0.5,-0.5)"/></g><g stroke="#000000" stroke-opacity="0.15" fill="none" transform="translate(569,0)"><path d=" M0,0  L0,349 " transform="translate(-0.5,-0.5)"/></g><g stroke="#000000" stroke-opacity="0.15" fill="none" transform="translate(427,0)"><path d=" M0,0  L0,349 " transform="translate(-0.5,-0.5)"/></g><g stroke="#000000" stroke-opacity="0.15" fill="none" transform="translate(285,0)"><path d=" M0,0  L0,349 " transform="translate(-0.5,-0.5)"/></g><g stroke="#000000" stroke-opacity="0.15" fill="none" transform="translate(142,0)"><path d=" M0,0  L0,349 " transform="translate(-0.5,-0.5)"/></g><g stroke="#000000" stroke-opacity="0.15" fill="none" transform="translate(0,0)"><path d=" M0,0  L0,349 " transform="translate(-0.5,-0.5)"/></g></g></g><g><g><g role="group" stroke-opacity="1" fill-opacity="0" stroke="#67b7dc" stroke-width="2" aria-label="Series" id="id-127"><g><g clip-path="url(#id-132)"><g><g><g><g fill="#67b7dc" fill-opacity="0" stroke="#67b7dc" stroke-opacity="1" stroke-width="2" style="pointer-events: none;"><g><g stroke-opacity="0"><path/></g><g fill="none" fill-opacity="0"><path d=" M17.5857,309.5375  M17.7857,309.7375  L17.7857,309.7375  L17.7857,309.7375  L53.3571,211.5813  L88.9286,307.5563  L124.5,318.4625  L160.0714,344.6375  L195.6429,335.9125  L231.2143,338.0938  L266.7857,320.6438  L302.3571,329.3688  L337.9286,346.8188  L373.5,349  L409.0714,344.6375  L444.6429,342.4563  L480.2143,344.6375  L515.7857,346.8188  L551.3571,335.9125  L586.9286,338.0938  L622.5,8.725  L658.0714,309.7375  L693.6429,333.7313  L729.2143,340.275  L764.7857,333.7313  L800.3571,338.0938  L835.9286,342.4563  L871.5,340.275  L907.0714,344.6375  L942.6429,344.6375  L978.2143,340.275 "/></g></g></g></g></g></g></g><g/></g></g></g></g><g clip-path="url(#id-592)"><g><g fill="#67b7dc" stroke="#67b7dc"><g><g opacity="1" transform="translate(800.357,338.094)"><g><g stroke-width="2" fill="#ffffff"><circle r="4"/></g></g></g><g opacity="1" transform="translate(835.929,342.456)"><g><g stroke-width="2" fill="#ffffff"><circle r="4"/></g></g></g><g opacity="1" transform="translate(871.5,340.275)"><g><g stroke-width="2" fill="#ffffff"><circle r="4"/></g></g></g><g opacity="1" transform="translate(907.071,344.638)"><g><g stroke-width="2" fill="#ffffff"><circle r="4"/></g></g></g><g opacity="1" transform="translate(942.643,344.638)"><g><g stroke-width="2" fill="#ffffff"><circle r="4"/></g></g></g><g opacity="1" transform="translate(978.214,340.275)"><g><g stroke-width="2" fill="#ffffff"><circle r="4"/></g></g></g><g transform="translate(764.786,333.731)"><g><g stroke-width="2" fill="#ffffff"><circle r="4"/></g></g></g><g transform="translate(729.214,340.275)"><g><g stroke-width="2" fill="#ffffff"><circle r="4"/></g></g></g><g transform="translate(693.643,333.731)"><g><g stroke-width="2" fill="#ffffff"><circle r="4"/></g></g></g><g transform="translate(658.071,309.738)"><g><g stroke-width="2" fill="#ffffff"><circle r="4"/></g></g></g><g transform="translate(622.5,8.725)"><g><g stroke-width="2" fill="#ffffff"><circle r="4"/></g></g></g><g transform="translate(551.357,335.913)"><g><g stroke-width="2" fill="#ffffff"><circle r="4"/></g></g></g><g transform="translate(586.929,338.094)"><g><g stroke-width="2" fill="#ffffff"><circle r="4"/></g></g></g><g transform="translate(515.786,346.819)"><g><g stroke-width="2" fill="#ffffff"><circle r="4"/></g></g></g><g transform="translate(444.643,342.456)"><g><g stroke-width="2" fill="#ffffff"><circle r="4"/></g></g></g><g transform="translate(480.214,344.638)"><g><g stroke-width="2" fill="#ffffff"><circle r="4"/></g></g></g><g transform="translate(409.071,344.638)"><g><g stroke-width="2" fill="#ffffff"><circle r="4"/></g></g></g><g transform="translate(373.5,349)"><g><g stroke-width="2" fill="#ffffff"><circle r="4"/></g></g></g><g transform="translate(337.929,346.819)"><g><g stroke-width="2" fill="#ffffff"><circle r="4"/></g></g></g><g transform="translate(302.357,329.369)"><g><g stroke-width="2" fill="#ffffff"><circle r="4"/></g></g></g><g transform="translate(266.786,320.644)"><g><g stroke-width="2" fill="#ffffff"><circle r="4"/></g></g></g><g transform="translate(231.214,338.094)"><g><g stroke-width="2" fill="#ffffff"><circle r="4"/></g></g></g><g transform="translate(195.643,335.913)"><g><g stroke-width="2" fill="#ffffff"><circle r="4"/></g></g></g><g transform="translate(160.071,344.638)"><g><g stroke-width="2" fill="#ffffff"><circle r="4"/></g></g></g><g transform="translate(124.5,318.463)"><g><g stroke-width="2" fill="#ffffff"><circle r="4"/></g></g></g><g transform="translate(88.929,307.556)"><g><g stroke-width="2" fill="#ffffff"><circle r="4"/></g></g></g><g transform="translate(53.357,211.581)"><g><g stroke-width="2" fill="#ffffff"><circle r="4"/></g></g></g><g transform="translate(17.786,309.738)"><g><g stroke-width="2" fill="#ffffff"><circle r="4"/></g></g></g></g></g></g></g><g><g><g><g/></g><g><g/></g></g></g><g><g/></g><g><g/></g><g opacity="0" clip-path="url(#id-154)" style="touch-action: none; user-select: none; -webkit-user-drag: none;" aria-hidden="true" visibility="hidden"><g><g fill-opacity="0.2" fill="#000000" visibility="hidden" style="pointer-events: none;"><path/></g><g stroke="#000000" fill="none" stroke-dasharray="3,3" stroke-opacity="0.4" style="pointer-events: none;" transform="translate(978.214,340.275)"><path d=" M0,0  L0,349 "/></g><g stroke="#000000" fill="none" stroke-dasharray="3,3" stroke-opacity="0.4" style="pointer-events: none;" transform="translate(-17.786,340.275)"><path d=" M0,0  L996,0 "/></g></g></g><g role="button" focusable="true" tabindex="0" opacity="0" aria-labelledby="id-37-title" transform="translate(956,-3)" aria-hidden="true" visibility="hidden"><g fill="#6794dc" stroke="#ffffff" fill-opacity="1" stroke-opacity="0" transform="translate(0,8)"><path d="M17,0 L18,0 a17,17 0 0 1 17,17 L35,17 a17,17 0 0 1 -17,17 L17,34 a17,17 0 0 1 -17,-17 L0,17 a17,17 0 0 1 17,-17 Z"/></g><g transform="translate(9,9)"><g stroke="#ffffff" style="pointer-events: none;" transform="translate(0,8)"><path d=" M0,0  L11,0 " transform="translate(2.5,7.5)"/></g><g fill="#000000" style="pointer-events: none;" transform="translate(17,8)"><g display="none"/></g></g><title id="id-37-title">Zoom Out</title></g></g></g><g><g><g role="scrollbar" aria-valuemin="0" aria-valuemax="100" aria-valuenow="0" aria-valuetext="From 0 to 160" aria-labelledby="id-155-title" aria-orientation="vertical" aria-controls="id-22" transform="translate(10,0)"><g fill="#f3f3f3" fill-opacity="0.5"><path d="M6,0 L6,0 a6,6 0 0 1 6,6 L12,343 a6,6 0 0 1 -6,6 L6,349 a6,6 0 0 1 -6,-6 L0,6 a6,6 0 0 1 6,-6 Z"/></g><g><g role="slider" focusable="true" tabindex="0" aria-valuemin="0" aria-valuemax="100" aria-live="polite" aria-labelledby="id-169-title" aria-valuenow="0" aria-valuetext="From 0 to 160" aria-describedby="id-169-description" transform="translate(6,0)" style="touch-action: none; user-select: none; -webkit-user-drag: none; cursor: -webkit-grab;"><g fill="#d9d9d9" stroke="#ffffff" fill-opacity="1" stroke-opacity="1" transform="translate(-6,0)"><path d="M6,0 L6,0 a6,6 0 0 1 6,6 L12,343 a6,6 0 0 1 -6,6 L6,349 a6,6 0 0 1 -6,-6 L0,6 a6,6 0 0 1 6,-6 Z"/></g><g transform="translate(-6,0)"><g fill="#000000" style="pointer-events: none;" transform="translate(6,174.5)"><g display="none"/></g></g><title id="id-169-title">From 0 to 160</title><desc id="id-169-description">Use up and down arrows to move selection</desc></g><g role="slider" focusable="true" tabindex="0" aria-valuemin="0" aria-valuemax="100" aria-labelledby="id-157-title" aria-valuenow="0" aria-valuetext="To 160" aria-describedby="id-157-description" transform="translate(6,349)" style="touch-action: none; user-select: none; -webkit-user-drag: none; cursor: ns-resize;" opacity="0" visibility="hidden" aria-hidden="true"><g fill="#d9d9d9" stroke="#ffffff" fill-opacity="1" stroke-opacity="1" transform="translate(-14,-14)"><path d="M14,0 L14,0 a14,14 0 0 1 14,14 L28,14 a14,14 0 0 1 -14,14 L14,28 a14,14 0 0 1 -14,-14 L0,14 a14,14 0 0 1 14,-14 Z"/></g><g transform="translate(-6,-12)"><g stroke="#ffffff" stroke-opacity="0.7" style="pointer-events: none;" transform="translate(6,16) rotate(-90)"><path d=" M-2,-6  L-2,6  M2,-6  L2,6 " transform="translate(3.5,-0.5)"/></g></g><title id="id-157-title">To 160</title><desc id="id-157-description">Use up and down arrows to move upper selection</desc></g><g role="slider" focusable="true" tabindex="0" aria-valuemin="0" aria-valuemax="100" aria-labelledby="id-163-title" aria-valuenow="100" aria-valuetext="From 0" aria-describedby="id-163-description" transform="translate(6,0)" style="touch-action: none; user-select: none; -webkit-user-drag: none; cursor: ns-resize;" opacity="0" visibility="hidden" aria-hidden="true"><g fill="#d9d9d9" stroke="#ffffff" fill-opacity="1" stroke-opacity="1" transform="translate(-14,-14)"><path d="M14,0 L14,0 a14,14 0 0 1 14,14 L28,14 a14,14 0 0 1 -14,14 L14,28 a14,14 0 0 1 -14,-14 L0,14 a14,14 0 0 1 14,-14 Z"/></g><g transform="translate(-6,-12)"><g stroke="#ffffff" stroke-opacity="0.7" style="pointer-events: none;" transform="translate(6,16) rotate(-90)"><path d=" M-2,-6  L-2,6  M2,-6  L2,6 " transform="translate(3.5,-0.5)"/></g></g><title id="id-163-title">From 0</title><desc id="id-163-description">Use up and down arrows to move lower selection</desc></g></g><title id="id-155-title">Use TAB select grip buttons or up and down arrows to change selection</title></g><g aria-hidden="true" transform="translate(32,0)"><g><g fill="#000000" transform="translate(0,174.5) rotate(-90)"><g display="none"/></g><g stroke="#000000" stroke-opacity="0.15" fill="none" transform="translate(46,349)" opacity="1"><path transform="translate(-0.5,-0.5)" d=" M0,0  L996,0 "/></g><g transform="translate(0,0)"><g><g fill="#000000" aria-label="L" fill-opacity="0" opacity="0" stroke-opacity="0" style="pointer-events: none;" transform="translate(46,174.5)"><g transform="translate(-36,-10.5)" style="user-select: none;"><text x="0" y="21.34375" dy="-5.763"><tspan>100</tspan></text></g></g><g fill="#000000" transform="translate(46,335.913)" display="none"><g transform="translate(-19,-10.5)" style="user-select: none;"><text x="0" y="21.34375" dy="-5.763"><tspan>6</tspan></text></g></g><g fill="#000000" transform="translate(46,239.938)" display="none"><g transform="translate(-28,-10.5)" style="user-select: none;"><text x="0" y="21.34375" dy="-5.763"><tspan>50</tspan></text></g></g><g fill="#000000" transform="translate(46,130.875)"><g transform="translate(-36,-10.5)" style="user-select: none;"><text x="0" y="21.359375" dy="-5.767"><tspan>100</tspan></text></g></g><g fill="#000000" transform="translate(46,-43.625)" display="none"><g transform="translate(-36,-10.5)" style="user-select: none;"><text x="0" y="21.34375" dy="-5.763"><tspan>180</tspan></text></g></g><g fill="#000000" transform="translate(46,261.75)"><g transform="translate(-28,-10.5)" style="user-select: none;"><text x="0" y="21.359375" dy="-5.767"><tspan>40</tspan></text></g></g><g fill="#000000" transform="translate(46,174.5)"><g transform="translate(-28,-10.5)" style="user-select: none;"><text x="0" y="21.34375" dy="-5.763"><tspan>80</tspan></text></g></g><g fill="#000000" transform="translate(46,0)"><g transform="translate(-36,-10.5)" style="user-select: none;"><text x="0" y="21.34375" dy="-5.763"><tspan>160</tspan></text></g></g><g fill="#000000" transform="translate(46,43.625)"><g transform="translate(-36,-10.5)" style="user-select: none;"><text x="0" y="21.359375" dy="-5.767"><tspan>140</tspan></text></g></g><g fill="#000000" transform="translate(46,305.375)"><g transform="translate(-28,-10.5)" style="user-select: none;"><text x="0" y="21.34375" dy="-5.763"><tspan>20</tspan></text></g></g><g fill="#000000" transform="translate(46,218.125)"><g transform="translate(-28,-10.5)" style="user-select: none;"><text x="0" y="21.359375" dy="-5.767"><tspan>60</tspan></text></g></g><g fill="#000000" transform="translate(46,87.25)"><g transform="translate(-36,-10.5)" style="user-select: none;"><text x="0" y="21.34375" dy="-5.763"><tspan>120</tspan></text></g></g><g fill="#000000" transform="translate(46,349)"><g transform="translate(-19,-10.5)" style="user-select: none;"><text x="0" y="21.359375" dy="-5.767"><tspan>0</tspan></text></g></g><g fill="#000000" transform="translate(46,392.625)" display="none"><g transform="translate(-19,-10.5)" style="user-select: none;"><text x="0" y="21.34375" dy="-5.763"><tspan>0</tspan></text></g></g><g fill="#000000" transform="translate(46,436.25)" display="none"><g transform="translate(-26,-10.5)" style="user-select: none;"><text x="0" y="21.359375" dy="-5.767"><tspan>-1</tspan></text></g></g></g></g><g stroke="#000000" stroke-opacity="0" fill="none" style="pointer-events: none;" transform="translate(46,0)"><path d=" M0,0  L0,349 " transform="translate(-0.5,-0.5)"/></g></g></g></g></g><g transform="translate(1074,0)"><g/></g></g></g><g><g transform="translate(78,0)"/></g><g transform="translate(0,349)"><g transform="translate(78,0)"><g aria-hidden="true"><g><g stroke="#000000" stroke-opacity="0" fill="none" style="pointer-events: none;"><path d=" M0,0  L996,0 " transform="translate(-0.5,-0.5)"/></g><g><g><g fill="#000000" aria-label="L" fill-opacity="0" opacity="0" stroke-opacity="0" style="pointer-events: none;"><g transform="translate(-4,10)" style="user-select: none;"><text x="0" y="21.34375" dy="-5.763"><tspan>L</tspan></text></g></g><g fill="#000000" transform="translate(1067.143,0)" display="none"><g transform="translate(-25,10)" style="user-select: none;"><text x="0" y="21.359375" dy="-5.767"><tspan>Mar 03</tspan></text></g></g><g fill="#000000" transform="translate(1138.286,0)" display="none"><g transform="translate(-25,10)" style="user-select: none;"><text x="0" y="21.359375" dy="-5.767"><tspan>Mar 05</tspan></text></g></g><g fill="#000000" transform="translate(853.714,0)"><g transform="translate(-24,10)" style="user-select: none;"><text x="0" y="21.34375" dy="-5.763"><tspan>Feb 25</tspan></text></g></g><g fill="#000000" transform="translate(996,0)"><g transform="translate(-25,10)" style="user-select: none;"><text x="0" y="21.359375" dy="-5.767"><tspan>Mar 01</tspan></text></g></g><g fill="#000000" transform="translate(711.429,0)"><g transform="translate(-24,10)" style="user-select: none;"><text x="0" y="21.34375" dy="-5.763"><tspan>Feb 21</tspan></text></g></g><g fill="#000000" transform="translate(569.143,0)"><g transform="translate(-24,10)" style="user-select: none;"><text x="0" y="21.359375" dy="-5.767"><tspan>Feb 17</tspan></text></g></g><g fill="#000000" transform="translate(426.857,0)"><g transform="translate(-24,10)" style="user-select: none;"><text x="0" y="21.34375" dy="-5.763"><tspan>Feb 13</tspan></text></g></g><g fill="#000000" transform="translate(284.571,0)"><g transform="translate(-24,10)" style="user-select: none;"><text x="0" y="21.359375" dy="-5.767"><tspan>Feb 09</tspan></text></g></g><g fill="#000000" transform="translate(142.286,0)"><g transform="translate(-24,10)" style="user-select: none;"><text x="0" y="21.34375" dy="-5.763"><tspan>Feb 05</tspan></text></g></g><g fill="#000000" transform="translate(0,0)"><g transform="translate(-24,10)" style="user-select: none;"><text x="0" y="21.34375" dy="-5.763"><tspan>Feb 01</tspan></text></g></g></g></g><g stroke="#000000" stroke-opacity="0.15" fill="none" display="none" transform="translate(0,-349)"><path transform="translate(-0.5,-0.5)" d=" M0,0  L0,349 "/></g><g fill="#000000" transform="translate(498,41)"><g display="none"/></g></g></g><g role="scrollbar" aria-valuemin="0" aria-valuemax="100" aria-valuenow="0" aria-valuetext="From Feb 01 to Mar 01" aria-labelledby="id-176-title" aria-orientation="horizontal" aria-controls="id-22" transform="translate(0,51)"><g fill="#f3f3f3" fill-opacity="0.5"><path d="M0,0 L996,0 a0,0 0 0 1 0,0 L996,60 a0,0 0 0 1 -0,0 L0,60 a0,0 0 0 1 -0,-0 L0,0 a0,0 0 0 1 0,-0 Z"/></g><g><g role="region" opacity="1" style="pointer-events: none;" aria-labelledby="id-197-title"><g><g><g><g><g><g><g><g filter="url(#filter-id-209)" transform="translate(0.0001,0)"><g fill="#ffffff" fill-opacity="0"><rect width="996" height="60"/></g><g><g><g/></g><g><g><g stroke="#000000" stroke-opacity="0.05" fill="none"><path d=" M0,0  L0,60 " transform="translate(-0.5,-0.5)"/></g><g stroke="#000000" stroke-opacity="0.05" fill="none" transform="translate(142,0)"><path d=" M0,0  L0,60 " transform="translate(-0.5,-0.5)"/></g><g stroke="#000000" stroke-opacity="0.05" fill="none" transform="translate(285,0)"><path d=" M0,0  L0,60 " transform="translate(-0.5,-0.5)"/></g><g stroke="#000000" stroke-opacity="0.05" fill="none" transform="translate(427,0)"><path d=" M0,0  L0,60 " transform="translate(-0.5,-0.5)"/></g><g stroke="#000000" stroke-opacity="0.05" fill="none" transform="translate(569,0)"><path d=" M0,0  L0,60 " transform="translate(-0.5,-0.5)"/></g><g stroke="#000000" stroke-opacity="0.05" fill="none" transform="translate(711,0)"><path d=" M0,0  L0,60 " transform="translate(-0.5,-0.5)"/></g><g stroke="#000000" stroke-opacity="0.05" fill="none" transform="translate(854,0)"><path d=" M0,0  L0,60 " transform="translate(-0.5,-0.5)"/></g><g stroke="#000000" stroke-opacity="0.05" fill="none" transform="translate(996,0)"><path d=" M0,0  L0,60 " transform="translate(-0.5,-0.5)"/></g><g stroke="#000000" stroke-opacity="0.05" fill="none" transform="translate(1138,0)" display="none"><path d=" M0,0  L0,60 " transform="translate(-0.5,-0.5)"/></g></g></g><g><g><g role="group" stroke-opacity="1" fill-opacity="0" stroke="#67b7dc" stroke-width="2" aria-label="Series"><g><g clip-path="url(#id-228)"><g><g><g><g fill="#67b7dc" fill-opacity="0" stroke="#67b7dc" stroke-opacity="1" stroke-width="2" style="pointer-events: none;"><g><g stroke-opacity="0"><path/></g><g fill="none" fill-opacity="0"><path d=" M17.5857,54.4  M17.7857,54.6  L17.7857,54.6  L17.7857,54.6  L53.3571,41.1  L88.9286,54.3  L124.5,55.8  L160.0714,59.4  L195.6429,58.2  L231.2143,58.5  L266.7857,56.1  L302.3571,57.3  L337.9286,59.7  L373.5,60  L409.0714,59.4  L444.6429,59.1  L480.2143,59.4  L515.7857,59.7  L551.3571,58.2  L586.9286,58.5  L622.5,13.2  L658.0714,54.6  L693.6429,57.9  L729.2143,58.8  L764.7857,57.9  L800.3571,58.5  L835.9286,59.1  L871.5,58.8  L907.0714,59.4  L942.6429,59.4  L978.2143,58.8 "/></g></g></g></g></g></g></g><g/><g/></g></g></g></g><g clip-path="url(#id-712)"><g><g fill="#67b7dc" stroke="#67b7dc"><g><g transform="translate(17.786,54.6)"><g><g stroke-width="2" fill="#ffffff"><circle r="4"/></g></g></g><g transform="translate(53.357,41.1)"><g><g stroke-width="2" fill="#ffffff"><circle r="4"/></g></g></g><g transform="translate(88.929,54.3)"><g><g stroke-width="2" fill="#ffffff"><circle r="4"/></g></g></g><g transform="translate(124.5,55.8)"><g><g stroke-width="2" fill="#ffffff"><circle r="4"/></g></g></g><g transform="translate(160.071,59.4)"><g><g stroke-width="2" fill="#ffffff"><circle r="4"/></g></g></g><g transform="translate(195.643,58.2)"><g><g stroke-width="2" fill="#ffffff"><circle r="4"/></g></g></g><g transform="translate(231.214,58.5)"><g><g stroke-width="2" fill="#ffffff"><circle r="4"/></g></g></g><g transform="translate(266.786,56.1)"><g><g stroke-width="2" fill="#ffffff"><circle r="4"/></g></g></g><g transform="translate(302.357,57.3)"><g><g stroke-width="2" fill="#ffffff"><circle r="4"/></g></g></g><g transform="translate(337.929,59.7)"><g><g stroke-width="2" fill="#ffffff"><circle r="4"/></g></g></g><g transform="translate(373.5,60)"><g><g stroke-width="2" fill="#ffffff"><circle r="4"/></g></g></g><g transform="translate(409.071,59.4)"><g><g stroke-width="2" fill="#ffffff"><circle r="4"/></g></g></g><g transform="translate(444.643,59.1)"><g><g stroke-width="2" fill="#ffffff"><circle r="4"/></g></g></g><g transform="translate(480.214,59.4)"><g><g stroke-width="2" fill="#ffffff"><circle r="4"/></g></g></g><g transform="translate(515.786,59.7)"><g><g stroke-width="2" fill="#ffffff"><circle r="4"/></g></g></g><g transform="translate(551.357,58.2)"><g><g stroke-width="2" fill="#ffffff"><circle r="4"/></g></g></g><g transform="translate(586.929,58.5)"><g><g stroke-width="2" fill="#ffffff"><circle r="4"/></g></g></g><g transform="translate(622.5,13.2)"><g><g stroke-width="2" fill="#ffffff"><circle r="4"/></g></g></g><g transform="translate(658.071,54.6)"><g><g stroke-width="2" fill="#ffffff"><circle r="4"/></g></g></g><g transform="translate(693.643,57.9)"><g><g stroke-width="2" fill="#ffffff"><circle r="4"/></g></g></g><g transform="translate(729.214,58.8)"><g><g stroke-width="2" fill="#ffffff"><circle r="4"/></g></g></g><g transform="translate(764.786,57.9)"><g><g stroke-width="2" fill="#ffffff"><circle r="4"/></g></g></g><g transform="translate(800.357,58.5)"><g><g stroke-width="2" fill="#ffffff"><circle r="4"/></g></g></g><g transform="translate(835.929,59.1)"><g><g stroke-width="2" fill="#ffffff"><circle r="4"/></g></g></g><g transform="translate(871.5,58.8)"><g><g stroke-width="2" fill="#ffffff"><circle r="4"/></g></g></g><g transform="translate(907.071,59.4)"><g><g stroke-width="2" fill="#ffffff"><circle r="4"/></g></g></g><g transform="translate(942.643,59.4)"><g><g stroke-width="2" fill="#ffffff"><circle r="4"/></g></g></g><g transform="translate(978.214,58.8)"><g><g stroke-width="2" fill="#ffffff"><circle r="4"/></g></g></g></g></g></g></g><g><g><g><g/></g><g><g/></g></g></g><g><g/></g><g><g/></g><g role="button" focusable="true" tabindex="0" opacity="0" visibility="hidden" aria-hidden="true" display="none"><g fill="#6794dc" stroke="#ffffff" fill-opacity="1" stroke-opacity="0"><path/></g><g transform="translate(9,9)"><g stroke="#ffffff" style="pointer-events: none;"><path d=" M0,0  L11,0 " transform="translate(2.5,7.5)"/></g><g fill="#000000" style="pointer-events: none;"><g/></g></g></g></g></g><g><g><g aria-hidden="true"><g><g fill="#000000" display="none" transform="translate(0,0) rotate(-90)"><g/></g><g stroke="#000000" stroke-opacity="0.15" fill="none" display="none" transform="translate(0,60)" opacity="0" visibility="hidden" aria-hidden="true"><path transform="translate(-0.5,-0.5)" d=" M0,0  L996,0 "/></g><g><g><g fill="#000000" aria-label="L" fill-opacity="0.5" opacity="0" stroke-opacity="0" style="pointer-events: none;" display="none" transform="translate(0,30)"><g transform="translate(10,-10.5)" style="user-select: none;"><text x="0" y="21.34375" dy="-5.763"><tspan>L</tspan></text></g></g></g></g><g stroke="#000000" stroke-opacity="0" fill="none" display="none" style="pointer-events: none;"><path transform="translate(-0.5,-0.5)" d=" M0,0  L0,60 "/></g></g></g></g></g><g transform="translate(996.0001,0)"><g/></g></g></g><g><g transform="translate(0.0001,0)"/></g><g transform="translate(0,60)"><g transform="translate(0.0001,0)"><g aria-hidden="true"><g><g stroke="#000000" stroke-opacity="0" fill="none" display="none" style="pointer-events: none;"><path transform="translate(-0.5,-0.5)" d=" M0,0  L996,0 "/></g><g><g><g fill="#000000" aria-label="L" fill-opacity="0.5" opacity="0" stroke-opacity="0" style="pointer-events: none;" display="none"><g transform="translate(-4,-31)" style="user-select: none;"><text x="0" y="21.34375" dy="-5.763"><tspan>L</tspan></text></g></g><g fill="#000000" fill-opacity="0.5" display="none"><g transform="translate(-24,-31)" style="user-select: none;"><text x="0" y="21.34375" dy="-5.763"><tspan>Feb 01</tspan></text></g></g><g fill="#000000" fill-opacity="0.5" transform="translate(142.286,0)"><g transform="translate(-24,-31)" style="user-select: none;"><text x="0" y="21.34375" dy="-5.763"><tspan>Feb 05</tspan></text></g></g><g fill="#000000" fill-opacity="0.5" transform="translate(284.571,0)"><g transform="translate(-24,-31)" style="user-select: none;"><text x="0" y="21.34375" dy="-5.763"><tspan>Feb 09</tspan></text></g></g><g fill="#000000" fill-opacity="0.5" transform="translate(426.857,0)"><g transform="translate(-24,-31)" style="user-select: none;"><text x="0" y="21.34375" dy="-5.763"><tspan>Feb 13</tspan></text></g></g><g fill="#000000" fill-opacity="0.5" transform="translate(569.143,0)"><g transform="translate(-24,-31)" style="user-select: none;"><text x="0" y="21.34375" dy="-5.763"><tspan>Feb 17</tspan></text></g></g><g fill="#000000" fill-opacity="0.5" transform="translate(711.429,0)"><g transform="translate(-24,-31)" style="user-select: none;"><text x="0" y="21.34375" dy="-5.763"><tspan>Feb 21</tspan></text></g></g><g fill="#000000" fill-opacity="0.5" transform="translate(853.714,0)"><g transform="translate(-24,-31)" style="user-select: none;"><text x="0" y="21.34375" dy="-5.763"><tspan>Feb 25</tspan></text></g></g><g fill="#000000" fill-opacity="0.5" transform="translate(996,0)" display="none"><g transform="translate(-25,-31)" style="user-select: none;"><text x="0" y="21.34375" dy="-5.763"><tspan>Mar 01</tspan></text></g></g><g fill="#000000" fill-opacity="0.5" transform="translate(1138.286,0)" display="none"><g transform="translate(-25,-31)" style="user-select: none;"><text x="0" y="21.34375" dy="-5.763"><tspan>Mar 05</tspan></text></g></g></g></g><g stroke="#000000" stroke-opacity="0.15" fill="none" display="none" transform="translate(0,-60)"><path transform="translate(-0.5,-0.5)" d=" M0,0  L0,60 "/></g><g fill="#000000" display="none"><g/></g></g></g></g></g></g></g></g></g></g><title id="id-197-title">Chart</title></g><g fill="#ffffff" fill-opacity="0.8" style="pointer-events: none;"><path d="M-1,0 L-1,0 L-1,60 L-1,60 L-1,0M996,0 L996,0 L996,60 L996,60 L996,0"/></g><g role="slider" focusable="true" tabindex="0" aria-valuemin="0" aria-valuemax="100" aria-live="polite" aria-labelledby="id-190-title" aria-valuenow="0" aria-valuetext="From Feb 01 to Mar 01" aria-describedby="id-190-description" transform="translate(0,30)" style="touch-action: none; user-select: none; -webkit-user-drag: none; cursor: -webkit-grab;"><g fill="#ffffff" stroke="#ffffff" fill-opacity="0" stroke-opacity="1" transform="translate(0,-30)"><path d="M0,0 L996,0 a0,0 0 0 1 0,0 L996,60 a0,0 0 0 1 -0,0 L0,60 a0,0 0 0 1 -0,-0 L0,0 a0,0 0 0 1 0,-0 Z"/></g><g transform="translate(0,-30)"><g fill="#000000" style="pointer-events: none;" transform="translate(498,30)"><g display="none"/></g></g><title id="id-190-title">From Feb 01 to Mar 01</title><desc id="id-190-description">Use left and right arrows to move selection</desc></g><g role="slider" focusable="true" tabindex="0" aria-valuemin="0" aria-valuemax="100" aria-labelledby="id-178-title" aria-valuenow="0" aria-valuetext="From Feb 01" aria-describedby="id-178-description" transform="translate(0,30)" style="touch-action: none; user-select: none; -webkit-user-drag: none; cursor: ew-resize;" opacity="0" visibility="hidden" aria-hidden="true"><g fill="#d9d9d9" stroke="#ffffff" fill-opacity="1" stroke-opacity="1" transform="translate(-14,-14)"><path d="M14,0 L14,0 a14,14 0 0 1 14,14 L28,14 a14,14 0 0 1 -14,14 L14,28 a14,14 0 0 1 -14,-14 L0,14 a14,14 0 0 1 14,-14 Z"/></g><g transform="translate(-6,-12)"><g stroke="#ffffff" stroke-opacity="0.7" style="pointer-events: none;" transform="translate(2,12)"><path d=" M-2,-6  L-2,6  M2,-6  L2,6 " transform="translate(3.5,-0.5)"/></g></g><title id="id-178-title">From Feb 01</title><desc id="id-178-description">Use left and right arrows to move left selection</desc></g><g role="slider" focusable="true" tabindex="0" aria-valuemin="0" aria-valuemax="100" aria-labelledby="id-184-title" aria-valuenow="100" aria-valuetext="To Mar 01" aria-describedby="id-184-description" transform="translate(996,30)" style="touch-action: none; user-select: none; -webkit-user-drag: none; cursor: ew-resize;" opacity="0" visibility="hidden" aria-hidden="true"><g fill="#d9d9d9" stroke="#ffffff" fill-opacity="1" stroke-opacity="1" transform="translate(-14,-14)"><path d="M14,0 L14,0 a14,14 0 0 1 14,14 L28,14 a14,14 0 0 1 -14,14 L14,28 a14,14 0 0 1 -14,-14 L0,14 a14,14 0 0 1 14,-14 Z"/></g><g transform="translate(-6,-12)"><g stroke="#ffffff" stroke-opacity="0.7" style="pointer-events: none;" transform="translate(2,12)"><path d=" M-2,-6  L-2,6  M2,-6  L2,6 " transform="translate(3.5,-0.5)"/></g></g><title id="id-184-title">To Mar 01</title><desc id="id-184-description">Use left and right arrows to move right selection</desc></g></g><title id="id-176-title">Use TAB to select grip buttons or left and right arrows to change selection</title></g></g></g></g></g></g></g></g></g><g><g><g role="tooltip" visibility="hidden" opacity="0"><g fill="#ffffff" fill-opacity="0.9" stroke-width="1" stroke-opacity="1" stroke="#ffffff" filter="url(#filter-id-51)" style="pointer-events: none;" transform="translate(0,6)"><path d="M3,0 L3,0 L0,-6 L13,0 L21,0 a3,3 0 0 1 3,3 L24,8 a3,3 0 0 1 -3,3 L3,11 a3,3 0 0 1 -3,-3 L0,3 a3,3 0 0 1 3,-3"/></g><g><g fill="#ffffff" style="pointer-events: none;" transform="translate(12,6)"><g transform="translate(0,7)" display="none"/></g></g></g><g visibility="hidden" display="none" style="pointer-events: none;"><g fill="#ffffff" opacity="1"><rect width="1104" height="500"/></g><g><g transform="translate(552,250)"><g><g stroke-opacity="1" fill="#f3f3f3" fill-opacity="0.8"><g><g><path d=" M53,0  a53,53,0,0,1,-106,0 a53,53,0,0,1,106,0 M42,0  a42,42,0,0,0,-84,0 a42,42,0,0,0,84,0 L42,0 "/></g></g></g><g stroke-opacity="1" fill="#000000" fill-opacity="0.2"><g><g><path d=" M50,0  a50,50,0,0,1,-100,0 a50,50,0,0,1,100,0 M45,0  a45,45,0,0,0,-90,0 a45,45,0,0,0,90,0 L45,0 "/></g></g></g><g fill="#000000" fill-opacity="0.4"><g transform="translate(-20,-10.5)" style="user-select: none;"><text x="20px" y="21.34375" dy="-5.763" text-anchor="middle"><tspan>100%</tspan></text></g></g></g></g></g></g><g opacity="0.3" aria-labelledby="id-66-title" filter="url(#filter-id-66)" style="cursor: pointer;" transform="translate(0,479)"><g fill="#ffffff" opacity="0"><rect width="66" height="21"/></g><g><g shape-rendering="auto" fill="none" stroke-opacity="1" stroke-width="1.7999999999999998" stroke="#3cabff"><path d=" M15,15  C17.4001,15 22.7998,15.0001 27,15 C31.2002,14.9999 33.2999,6 36,6 C38.7001,6 38.6999,10.5 40.5,10.5 C42.3001,10.5 42.2999,6 45,6 C47.7001,6 50.9999,14.9999 54,15 C57.0002,15.0001 58.7999,15 60,15"/></g><g shape-rendering="auto" fill="none" stroke-opacity="1" stroke-width="1.7999999999999998" stroke="url(#gradient-id-69)"><path d=" M6,15  C8.2501,15 9.7498,15.0001 15,15 C20.2502,14.9999 20.7748,3.6 27,3.6 C33.2252,3.6 33.8998,14.9999 39.9,15 C45.9002,15.0001 45.9748,15 51,15 C56.0252,15 57.7499,15 60,15"/></g></g><title id="id-66-title">Chart created using amCharts library</title></g><g role="tooltip" opacity="0" transform="translate(1071.2143,364)" visibility="hidden" aria-hidden="true"><g fill="#000000" fill-opacity="1" stroke-width="1" stroke-opacity="1" stroke="#000000" style="pointer-events: none;" transform="translate(-50.2,5)"><path d="M0,0 L45.2,0 L50.2,-5 L55.2,0 L68,0 a0,0 0 0 1 0,0 L68,31 a0,0 0 0 1 -0,0 L0,31 a0,0 0 0 1 -0,-0 L0,0 a0,0 0 0 1 0,-0"/></g><g><g fill="#ffffff" style="pointer-events: none;" transform="translate(-16.2,5)"><g transform="translate(-24,5)" style="user-select: none;"><text x="0" y="21.34375" dy="-5.763"><tspan>Feb 28</tspan></text></g></g></g></g><g role="tooltip" opacity="0" transform="translate(93,355.275)" visibility="hidden" aria-hidden="true"><g fill="#000000" fill-opacity="1" stroke-width="1" stroke-opacity="1" stroke="#000000" style="pointer-events: none;" transform="translate(-35,-22.3)"><path d="M0,0 L30,0 a0,0 0 0 1 0,0 L30,0 L30,17.3 L35,22.3 L30,27.3 L30,31 a0,0 0 0 1 -0,0 L0,31 a0,0 0 0 1 -0,-0 L0,0 a0,0 0 0 1 0,-0"/></g><g><g fill="#ffffff" style="pointer-events: none;" transform="translate(-20,-22.3)"><g transform="translate(-5,5)" style="user-select: none;"><text x="0" y="21.34375" dy="-5.763"><tspan>4</tspan></text></g></g></g></g><g role="tooltip" opacity="0" aria-describedby="id-127" transform="translate(1071.2143,355.275)" visibility="hidden" aria-hidden="true"><g fill="#67b7dc" fill-opacity="0.9" stroke-width="1" stroke-opacity="0" stroke="#ffffff" filter="url(#filter-id-137)" style="pointer-events: none;" transform="translate(-20,-46)"><path d="M20,0 L20,0 a20,20 0 0 1 20,20 L40,20 a20,20 0 0 1 -20,20 L20,40 L25,40 L20,46 L15,40 L20,40 a20,20 0 0 1 -20,-20 L0,20 a20,20 0 0 1 20,-20"/></g><g><g fill="#000000" style="pointer-events: none;" transform="translate(0,-46)"><g transform="translate(-8,7)" style="user-select: none;"><text x="8px" y="25.171875" dy="-5.763" text-anchor="middle"><tspan>4</tspan></text></g></g></g></g><g role="tooltip" visibility="hidden" opacity="0"><g fill="#000000" fill-opacity="1" stroke-width="1" stroke-opacity="1" stroke="#000000" style="pointer-events: none;" transform="translate(93,-15)"><path d="M0,0 L20,0 a0,0 0 0 1 0,0 L20,10 a0,0 0 0 1 -0,0 L20,10 L10,10 L0.00010000000000331966,15 L0,10 L0,10 a0,0 0 0 1 -0,-0 L0,0 a0,0 0 0 1 0,-0"/></g><g><g fill="#ffffff" style="pointer-events: none;" transform="translate(103,-15)"><g transform="translate(0,5)" display="none"/></g></g></g><g role="tooltip" visibility="hidden" opacity="0"><g fill="#000000" fill-opacity="1" stroke-width="1" stroke-opacity="1" stroke="#000000" style="pointer-events: none;" transform="translate(5,415)"><path d="M0,0 L20,0 a0,0 0 0 1 0,0 L20,0 L20,0 L88,0 L20,10 L20,10 a0,0 0 0 1 -0,0 L0,10 a0,0 0 0 1 -0,-0 L0,0 a0,0 0 0 1 0,-0"/></g><g><g fill="#ffffff" style="pointer-events: none;" transform="translate(15,415)"><g transform="translate(0,5)" display="none"/></g></g></g><g role="tooltip" visibility="hidden" opacity="0"><g filter="url(#filter-id-254)" fill="#ffffff" fill-opacity="0.9" stroke-width="1" stroke-opacity="0" stroke="#ffffff" style="pointer-events: none;" transform="translate(0,6)"><path d="M20,0 L10,0 L0,-6 L20,0 L20,0 a20,20 0 0 1 20,20 L40,20 a20,20 0 0 1 -20,20 L20,40 a20,20 0 0 1 -20,-20 L0,20 a20,20 0 0 1 20,-20"/></g><g><g fill="#ffffff" style="pointer-events: none;" transform="translate(20,6)"><g transform="translate(0,7)" display="none"/></g></g></g></g></g></g></g></svg>