<?xml version="1.0" encoding="utf-8"?><svg width="1294px" height="650px" viewBox="0 0 1294 650"  style="font-family: -apple-system, BlinkMacSystemFont, Segoe UI, Roboto, Helvetica, Arial, sans-serif, Apple Color Emoji, Segoe UI Emoji, Segoe UI Symbol;font-size: 16px;" version="1.1" xmlns="http://www.w3.org/2000/svg" xmlns:xlink="http://www.w3.org/1999/xlink"><defs xmlns="http://www.w3.org/2000/svg"><clipPath id="id-46"><rect width="1294" height="650"/></clipPath><linearGradient id="gradient-id-69" x1="1%" x2="99%" y1="59%" y2="41%"><stop stop-color="#474758" offset="0"/><stop stop-color="#474758" stop-opacity="1" offset="0.75"/><stop stop-color="#3cabff" stop-opacity="1" offset="0.755"/></linearGradient><filter id="filter-id-103" filterUnits="objectBoundingBox" width="200%" height="200%" x="-50%" y="-50%"/><filter id="filter-id-124" filterUnits="objectBoundingBox" width="200%" height="200%" x="-50%" y="-50%"/><clipPath id="id-144"><path d="M0,0 L1184,0 L1184,455 L0,455 L0,0"/></clipPath><clipPath id="id-165"><path d="M0,0 L1184,0 L1184,455 L0,455 L0,0"/></clipPath><clipPath id="id-186"><path d="M0,0 L1184,0 L1184,455 L0,455 L0,0"/></clipPath><clipPath id="id-207"><path d="M0,0 L1184,0 L1184,455 L0,455 L0,0"/></clipPath><clipPath id="id-228"><path d="M0,0 L1184,0 L1184,455 L0,455 L0,0"/></clipPath><clipPath id="id-561"><rect width="1184" height="455"/></clipPath><filter id="filter-id-51" filterUnits="objectBoundingBox" width="200%" height="200%" x="-50%" y="-50%"><feGaussianBlur result="blurOut" in="SourceGraphic" stdDeviation="1.5"/><feOffset result="offsetBlur" dx="1" dy="1"/><feFlood flood-color="#000000" flood-opacity="0.5"/><feComposite in2="offsetBlur" operator="in"/><feMerge><feMergeNode/><feMergeNode in="SourceGraphic"/></feMerge></filter><filter id="filter-id-66" filterUnits="objectBoundingBox" width="120%" height="120%" x="-10%" y="-10%"><feColorMatrix type="saturate" values="0"/></filter><filter id="filter-id-149" filterUnits="objectBoundingBox" width="200%" height="200%" x="-50%" y="-50%"><feGaussianBlur result="blurOut" in="SourceGraphic" stdDeviation="1.5"/><feOffset result="offsetBlur" dx="1" dy="1"/><feFlood flood-color="#000000" flood-opacity="0.5"/><feComposite in2="offsetBlur" operator="in"/><feMerge><feMergeNode/><feMergeNode in="SourceGraphic"/></feMerge></filter><filter id="filter-id-170" filterUnits="objectBoundingBox" width="200%" height="200%" x="-50%" y="-50%"><feGaussianBlur result="blurOut" in="SourceGraphic" stdDeviation="1.5"/><feOffset result="offsetBlur" dx="1" dy="1"/><feFlood flood-color="#000000" flood-opacity="0.5"/><feComposite in2="offsetBlur" operator="in"/><feMerge><feMergeNode/><feMergeNode in="SourceGraphic"/></feMerge></filter><filter id="filter-id-191" filterUnits="objectBoundingBox" width="200%" height="200%" x="-50%" y="-50%"><feGaussianBlur result="blurOut" in="SourceGraphic" stdDeviation="1.5"/><feOffset result="offsetBlur" dx="1" dy="1"/><feFlood flood-color="#000000" flood-opacity="0.5"/><feComposite in2="offsetBlur" operator="in"/><feMerge><feMergeNode/><feMergeNode in="SourceGraphic"/></feMerge></filter><filter id="filter-id-212" filterUnits="objectBoundingBox" width="200%" height="200%" x="-50%" y="-50%"><feGaussianBlur result="blurOut" in="SourceGraphic" stdDeviation="1.5"/><feOffset result="offsetBlur" dx="1" dy="1"/><feFlood flood-color="#000000" flood-opacity="0.5"/><feComposite in2="offsetBlur" operator="in"/><feMerge><feMergeNode/><feMergeNode in="SourceGraphic"/></feMerge></filter><filter id="filter-id-233" filterUnits="objectBoundingBox" width="200%" height="200%" x="-50%" y="-50%"><feGaussianBlur result="blurOut" in="SourceGraphic" stdDeviation="1.5"/><feOffset result="offsetBlur" dx="1" dy="1"/><feFlood flood-color="#000000" flood-opacity="0.5"/><feComposite in2="offsetBlur" operator="in"/><feMerge><feMergeNode/><feMergeNode in="SourceGraphic"/></feMerge></filter></defs><g xmlns="http://www.w3.org/2000/svg" style=""><g fill="#ffffff" fill-opacity="1"><rect width="1294" height="650"/></g><g><g role="region" clip-path="url(#id-46)" opacity="1" aria-label="Chart" id="id-22"><g transform="translate(30,30)"><g><g><g><g><g transform="translate(0,32)"><g><g transform="translate(50,0)"><g fill="#ffffff" fill-opacity="0"><rect width="1184" height="455"/></g><g><g><g><g stroke="#000000" stroke-opacity="0.15" fill="none" transform="translate(0,546)" display="none"><path d=" M0,0  L1184,0 " transform="translate(-0.5,-0.5)"/></g><g stroke="#000000" stroke-opacity="0.15" fill="none" transform="translate(0,501)" display="none"><path d=" M0,0  L1184,0 " transform="translate(-0.5,-0.5)"/></g><g stroke="#000000" stroke-opacity="0.15" fill="none" transform="translate(0,455)"><path d=" M0,0  L1184,0 " transform="translate(-0.5,-0.5)"/></g><g stroke="#000000" stroke-opacity="0.15" fill="none" transform="translate(0,409)"><path d=" M0,0  L1184,0 " transform="translate(-0.5,-0.5)"/></g><g stroke="#000000" stroke-opacity="0.15" fill="none" transform="translate(0,364)"><path d=" M0,0  L1184,0 " transform="translate(-0.5,-0.5)"/></g><g stroke="#000000" stroke-opacity="0.15" fill="none" transform="translate(0,318)"><path d=" M0,0  L1184,0 " transform="translate(-0.5,-0.5)"/></g><g stroke="#000000" stroke-opacity="0.15" fill="none" transform="translate(0,273)"><path d=" M0,0  L1184,0 " transform="translate(-0.5,-0.5)"/></g><g stroke="#000000" stroke-opacity="0.15" fill="none" transform="translate(0,227)"><path d=" M0,0  L1184,0 " transform="translate(-0.5,-0.5)"/></g><g stroke="#000000" stroke-opacity="0.15" fill="none" transform="translate(0,182)"><path d=" M0,0  L1184,0 " transform="translate(-0.5,-0.5)"/></g><g stroke="#000000" stroke-opacity="0.15" fill="none" transform="translate(0,137)"><path d=" M0,0  L1184,0 " transform="translate(-0.5,-0.5)"/></g><g stroke="#000000" stroke-opacity="0.15" fill="none" transform="translate(0,91)"><path d=" M0,0  L1184,0 " transform="translate(-0.5,-0.5)"/></g><g stroke="#000000" stroke-opacity="0.15" fill="none" transform="translate(0,-46)" display="none"><path d=" M0,0  L1184,0 " transform="translate(-0.5,-0.5)"/></g><g stroke="#000000" stroke-opacity="0.15" fill="none"><path d=" M0,0  L1184,0 " transform="translate(-0.5,-0.5)"/></g><g stroke="#000000" stroke-opacity="0.15" fill="none" transform="translate(0,45)"><path d=" M0,0  L1184,0 " transform="translate(-0.5,-0.5)"/></g></g></g><g><g><g stroke="#000000" stroke-opacity="0.15" fill="none"><path d=" M0,0  L0,455 " transform="translate(-0.5,-0.5)"/></g><g stroke="#000000" stroke-opacity="0.15" fill="none" transform="translate(197,0)"><path d=" M0,0  L0,455 " transform="translate(-0.5,-0.5)"/></g><g stroke="#000000" stroke-opacity="0.15" fill="none" transform="translate(395,0)"><path d=" M0,0  L0,455 " transform="translate(-0.5,-0.5)"/></g><g stroke="#000000" stroke-opacity="0.15" fill="none" transform="translate(592,0)"><path d=" M0,0  L0,455 " transform="translate(-0.5,-0.5)"/></g><g stroke="#000000" stroke-opacity="0.15" fill="none" transform="translate(789,0)"><path d=" M0,0  L0,455 " transform="translate(-0.5,-0.5)"/></g><g stroke="#000000" stroke-opacity="0.15" fill="none" transform="translate(987,0)"><path d=" M0,0  L0,455 " transform="translate(-0.5,-0.5)"/></g><g stroke="#000000" stroke-opacity="0.15" fill="none" transform="translate(1184,0)"><path d=" M0,0  L0,455 " transform="translate(-0.5,-0.5)"/></g></g></g><g><g><g role="group" stroke-opacity="0" fill-opacity="1" stroke="#67b7dc" aria-label="Strongly disagree" id="id-139"><g><g clip-path="url(#id-144)"><g><g><g><g stroke-opacity="1" fill="#67b7dc" fill-opacity="1" stroke="#67b7dc" role="menuitem" focusable="true" tabindex="0" transform="translate(19.737,446.574)"><g><g><path d="M0,0 L157.863,0 a0,0 0 0 1 0,0 L157.863,8.426 a0,0 0 0 1 -0,0 L0,8.426 a0,0 0 0 1 -0,-0 L0,0 a0,0 0 0 1 0,-0 Z"/></g></g></g><g stroke-opacity="1" fill="#67b7dc" fill-opacity="1" stroke="#67b7dc" role="menuitem" focusable="true" tabindex="0" transform="translate(217.063,447.778)"><g><g><path d="M0,0 L157.875,0 a0,0 0 0 1 0,0 L157.875,7.222 a0,0 0 0 1 -0,0 L0,7.222 a0,0 0 0 1 -0,-0 L0,0 a0,0 0 0 1 0,-0 Z"/></g></g></g><g stroke-opacity="1" fill="#67b7dc" fill-opacity="1" stroke="#67b7dc" role="menuitem" focusable="true" tabindex="0" transform="translate(414.4,444.167)"><g><g><path d="M0,0 L157.863,0 a0,0 0 0 1 0,0 L157.863,10.833 a0,0 0 0 1 -0,0 L0,10.833 a0,0 0 0 1 -0,-0 L0,0 a0,0 0 0 1 0,-0 Z"/></g></g></g><g stroke-opacity="1" fill="#67b7dc" fill-opacity="1" stroke="#67b7dc" role="menuitem" focusable="true" tabindex="0" transform="translate(611.737,442.963)"><g><g><path d="M0,0 L157.863,0 a0,0 0 0 1 0,0 L157.863,12.037 a0,0 0 0 1 -0,0 L0,12.037 a0,0 0 0 1 -0,-0 L0,0 a0,0 0 0 1 0,-0 Z"/></g></g></g><g stroke-opacity="1" fill="#67b7dc" fill-opacity="1" stroke="#67b7dc" role="menuitem" focusable="true" tabindex="0" transform="translate(809.063,441.759)"><g><g><path d="M0,0 L157.875,0 a0,0 0 0 1 0,0 L157.875,13.241 a0,0 0 0 1 -0,0 L0,13.241 a0,0 0 0 1 -0,-0 L0,0 a0,0 0 0 1 0,-0 Z"/></g></g></g><g stroke-opacity="1" fill="#67b7dc" fill-opacity="1" stroke="#67b7dc" role="menuitem" focusable="true" tabindex="0" transform="translate(1006.4,422.5)"><g><g><path d="M0,0 L157.863,0 a0,0 0 0 1 0,0 L157.863,32.5 a0,0 0 0 1 -0,0 L0,32.5 a0,0 0 0 1 -0,-0 L0,0 a0,0 0 0 1 0,-0 Z"/></g></g></g></g></g></g></g><g/></g></g><g role="group" stroke-opacity="0" fill-opacity="1" stroke="#6771dc" aria-label="Somewhat disagree" id="id-160"><g><g clip-path="url(#id-165)"><g><g><g><g stroke-opacity="1" fill="#6771dc" fill-opacity="1" stroke="#6771dc" role="menuitem" focusable="true" tabindex="0" transform="translate(19.737,435.741)"><g><g><path d="M0,0 L157.863,0 a0,0 0 0 1 0,0 L157.863,10.833 a0,0 0 0 1 -0,0 L0,10.833 a0,0 0 0 1 -0,-0 L0,0 a0,0 0 0 1 0,-0 Z"/></g></g></g><g stroke-opacity="1" fill="#6771dc" fill-opacity="1" stroke="#6771dc" role="menuitem" focusable="true" tabindex="0" transform="translate(217.063,442.963)"><g><g><path d="M0,0 L157.875,0 a0,0 0 0 1 0,0 L157.875,4.815 a0,0 0 0 1 -0,0 L0,4.815 a0,0 0 0 1 -0,-0 L0,0 a0,0 0 0 1 0,-0 Z"/></g></g></g><g stroke-opacity="1" fill="#6771dc" fill-opacity="1" stroke="#6771dc" role="menuitem" focusable="true" tabindex="0" transform="translate(414.4,432.13)"><g><g><path d="M0,0 L157.863,0 a0,0 0 0 1 0,0 L157.863,12.037 a0,0 0 0 1 -0,0 L0,12.037 a0,0 0 0 1 -0,-0 L0,0 a0,0 0 0 1 0,-0 Z"/></g></g></g><g stroke-opacity="1" fill="#6771dc" fill-opacity="1" stroke="#6771dc" role="menuitem" focusable="true" tabindex="0" transform="translate(611.737,428.519)"><g><g><path d="M0,0 L157.863,0 a0,0 0 0 1 0,0 L157.863,14.444 a0,0 0 0 1 -0,0 L0,14.444 a0,0 0 0 1 -0,-0 L0,0 a0,0 0 0 1 0,-0 Z"/></g></g></g><g stroke-opacity="1" fill="#6771dc" fill-opacity="1" stroke="#6771dc" role="menuitem" focusable="true" tabindex="0" transform="translate(809.063,421.296)"><g><g><path d="M0,0 L157.875,0 a0,0 0 0 1 0,0 L157.875,20.463 a0,0 0 0 1 -0,0 L0,20.463 a0,0 0 0 1 -0,-0 L0,0 a0,0 0 0 1 0,-0 Z"/></g></g></g><g stroke-opacity="1" fill="#6771dc" fill-opacity="1" stroke="#6771dc" role="menuitem" focusable="true" tabindex="0" transform="translate(1006.4,383.981)"><g><g><path d="M0,0 L157.863,0 a0,0 0 0 1 0,0 L157.863,38.519 a0,0 0 0 1 -0,0 L0,38.519 a0,0 0 0 1 -0,-0 L0,0 a0,0 0 0 1 0,-0 Z"/></g></g></g></g></g></g></g><g/></g></g><g role="group" stroke-opacity="0" fill-opacity="1" stroke="#a367dc" aria-label="Not sure" id="id-181"><g><g clip-path="url(#id-186)"><g><g><g><g stroke-opacity="1" fill="#a367dc" fill-opacity="1" stroke="#a367dc" role="menuitem" focusable="true" tabindex="0" transform="translate(19.737,405.648)"><g><g><path d="M0,0 L157.863,0 a0,0 0 0 1 0,0 L157.863,30.093 a0,0 0 0 1 -0,0 L0,30.093 a0,0 0 0 1 -0,-0 L0,0 a0,0 0 0 1 0,-0 Z"/></g></g></g><g stroke-opacity="1" fill="#a367dc" fill-opacity="1" stroke="#a367dc" role="menuitem" focusable="true" tabindex="0" transform="translate(217.063,408.056)"><g><g><path d="M0,0 L157.875,0 a0,0 0 0 1 0,0 L157.875,34.907 a0,0 0 0 1 -0,0 L0,34.907 a0,0 0 0 1 -0,-0 L0,0 a0,0 0 0 1 0,-0 Z"/></g></g></g><g stroke-opacity="1" fill="#a367dc" fill-opacity="1" stroke="#a367dc" role="menuitem" focusable="true" tabindex="0" transform="translate(414.4,361.111)"><g><g><path d="M0,0 L157.863,0 a0,0 0 0 1 0,0 L157.863,71.019 a0,0 0 0 1 -0,0 L0,71.019 a0,0 0 0 1 -0,-0 L0,0 a0,0 0 0 1 0,-0 Z"/></g></g></g><g stroke-opacity="1" fill="#a367dc" fill-opacity="1" stroke="#a367dc" role="menuitem" focusable="true" tabindex="0" transform="translate(611.737,352.685)"><g><g><path d="M0,0 L157.863,0 a0,0 0 0 1 0,0 L157.863,75.833 a0,0 0 0 1 -0,0 L0,75.833 a0,0 0 0 1 -0,-0 L0,0 a0,0 0 0 1 0,-0 Z"/></g></g></g><g stroke-opacity="1" fill="#a367dc" fill-opacity="1" stroke="#a367dc" role="menuitem" focusable="true" tabindex="0" transform="translate(809.063,345.463)"><g><g><path d="M0,0 L157.875,0 a0,0 0 0 1 0,0 L157.875,75.833 a0,0 0 0 1 -0,0 L0,75.833 a0,0 0 0 1 -0,-0 L0,0 a0,0 0 0 1 0,-0 Z"/></g></g></g><g stroke-opacity="1" fill="#a367dc" fill-opacity="1" stroke="#a367dc" role="menuitem" focusable="true" tabindex="0" transform="translate(1006.4,293.704)"><g><g><path d="M0,0 L157.863,0 a0,0 0 0 1 0,0 L157.863,90.278 a0,0 0 0 1 -0,0 L0,90.278 a0,0 0 0 1 -0,-0 L0,0 a0,0 0 0 1 0,-0 Z"/></g></g></g></g></g></g></g><g/></g></g><g role="group" stroke-opacity="0" fill-opacity="1" stroke="#dc67ce" aria-label="Somewhat agree" id="id-202"><g><g clip-path="url(#id-207)"><g><g><g><g stroke-opacity="1" fill="#dc67ce" fill-opacity="1" stroke="#dc67ce" role="menuitem" focusable="true" tabindex="0" transform="translate(19.737,322.593)"><g><g><path d="M0,0 L157.863,0 a0,0 0 0 1 0,0 L157.863,83.056 a0,0 0 0 1 -0,0 L0,83.056 a0,0 0 0 1 -0,-0 L0,0 a0,0 0 0 1 0,-0 Z"/></g></g></g><g stroke-opacity="1" fill="#dc67ce" fill-opacity="1" stroke="#dc67ce" role="menuitem" focusable="true" tabindex="0" transform="translate(217.063,310.556)"><g><g><path d="M0,0 L157.875,0 a0,0 0 0 1 0,0 L157.875,97.5 a0,0 0 0 1 -0,0 L0,97.5 a0,0 0 0 1 -0,-0 L0,0 a0,0 0 0 1 0,-0 Z"/></g></g></g><g stroke-opacity="1" fill="#dc67ce" fill-opacity="1" stroke="#dc67ce" role="menuitem" focusable="true" tabindex="0" transform="translate(414.4,266.019)"><g><g><path d="M0,0 L157.863,0 a0,0 0 0 1 0,0 L157.863,95.093 a0,0 0 0 1 -0,0 L0,95.093 a0,0 0 0 1 -0,-0 L0,0 a0,0 0 0 1 0,-0 Z"/></g></g></g><g stroke-opacity="1" fill="#dc67ce" fill-opacity="1" stroke="#dc67ce" role="menuitem" focusable="true" tabindex="0" transform="translate(611.737,253.981)" id="id-836"><g><g><path d="M0,0 L157.863,0 a0,0 0 0 1 0,0 L157.863,98.704 a0,0 0 0 1 -0,0 L0,98.704 a0,0 0 0 1 -0,-0 L0,0 a0,0 0 0 1 0,-0 Z"/></g></g></g><g stroke-opacity="1" fill="#dc67ce" fill-opacity="1" stroke="#dc67ce" role="menuitem" focusable="true" tabindex="0" transform="translate(809.063,246.759)"><g><g><path d="M0,0 L157.875,0 a0,0 0 0 1 0,0 L157.875,98.704 a0,0 0 0 1 -0,0 L0,98.704 a0,0 0 0 1 -0,-0 L0,0 a0,0 0 0 1 0,-0 Z"/></g></g></g><g stroke-opacity="1" fill="#dc67ce" fill-opacity="1" stroke="#dc67ce" role="menuitem" focusable="true" tabindex="0" transform="translate(1006.4,216.667)"><g><g><path d="M0,0 L157.863,0 a0,0 0 0 1 0,0 L157.863,77.037 a0,0 0 0 1 -0,0 L0,77.037 a0,0 0 0 1 -0,-0 L0,0 a0,0 0 0 1 0,-0 Z"/></g></g></g></g></g></g></g><g/></g></g><g role="group" stroke-opacity="0" fill-opacity="1" stroke="#dc6788" aria-label="Strongly Agree" id="id-223"><g><g clip-path="url(#id-228)"><g><g><g><g stroke-opacity="1" fill="#dc6788" fill-opacity="1" stroke="#dc6788" role="menuitem" focusable="true" tabindex="0" transform="translate(19.737,0)" id="id-563"><g><g><path d="M0,0 L157.863,0 a0,0 0 0 1 0,0 L157.863,322.593 a0,0 0 0 1 -0,0 L0,322.593 a0,0 0 0 1 -0,-0 L0,0 a0,0 0 0 1 0,-0 Z"/></g></g></g><g stroke-opacity="1" fill="#dc6788" fill-opacity="1" stroke="#dc6788" role="menuitem" focusable="true" tabindex="0" transform="translate(217.063,0)" id="id-577"><g><g><path d="M0,0 L157.875,0 a0,0 0 0 1 0,0 L157.875,310.556 a0,0 0 0 1 -0,0 L0,310.556 a0,0 0 0 1 -0,-0 L0,0 a0,0 0 0 1 0,-0 Z"/></g></g></g><g stroke-opacity="1" fill="#dc6788" fill-opacity="1" stroke="#dc6788" role="menuitem" focusable="true" tabindex="0" transform="translate(414.4,0)" id="id-591"><g><g><path d="M0,0 L157.863,0 a0,0 0 0 1 0,0 L157.863,266.019 a0,0 0 0 1 -0,0 L0,266.019 a0,0 0 0 1 -0,-0 L0,0 a0,0 0 0 1 0,-0 Z"/></g></g></g><g stroke-opacity="1" fill="#dc6788" fill-opacity="1" stroke="#dc6788" role="menuitem" focusable="true" tabindex="0" transform="translate(611.737,0)" id="id-605"><g><g><path d="M0,0 L157.863,0 a0,0 0 0 1 0,0 L157.863,253.981 a0,0 0 0 1 -0,0 L0,253.981 a0,0 0 0 1 -0,-0 L0,0 a0,0 0 0 1 0,-0 Z"/></g></g></g><g stroke-opacity="1" fill="#dc6788" fill-opacity="1" stroke="#dc6788" role="menuitem" focusable="true" tabindex="0" transform="translate(809.063,0)" id="id-619"><g><g><path d="M0,0 L157.875,0 a0,0 0 0 1 0,0 L157.875,246.759 a0,0 0 0 1 -0,0 L0,246.759 a0,0 0 0 1 -0,-0 L0,0 a0,0 0 0 1 0,-0 Z"/></g></g></g><g stroke-opacity="1" fill="#dc6788" fill-opacity="1" stroke="#dc6788" role="menuitem" focusable="true" tabindex="0" transform="translate(1006.4,0)" id="id-633" aria-label="I like the&#10; nickname policy 180  "><g><g><path d="M0,0 L157.863,0 a0,0 0 0 1 0,0 L157.863,216.667 a0,0 0 0 1 -0,0 L0,216.667 a0,0 0 0 1 -0,-0 L0,0 a0,0 0 0 1 0,-0 Z"/></g></g></g></g></g></g></g><g/></g></g></g></g><g clip-path="url(#id-561)"><g><g fill="#67b7dc" stroke="#67b7dc"><g><g focusable="true" tabindex="0" opacity="1" transform="translate(98.663,450.787)" style="pointer-events: none;"><g><g fill="#ffffff" stroke-opacity="0"><g transform="translate(-21.5,-10.5)" style="user-select: none;"><text x="0" y="21.359375" overflow="hidden" dy="-5.767"><tspan>1.85%</tspan></text></g></g></g></g><g focusable="true" tabindex="0" opacity="1" transform="translate(296,451.389)" style="pointer-events: none;"><g><g fill="#ffffff" stroke-opacity="0"><g transform="translate(-21.5,-10.5)" style="user-select: none;"><text x="0" y="21.34375" overflow="hidden" dy="-5.763"><tspan>1.59%</tspan></text></g></g></g></g><g focusable="true" tabindex="0" opacity="1" transform="translate(493.337,449.583)" style="pointer-events: none;"><g><g fill="#ffffff" stroke-opacity="0"><g transform="translate(-21.5,-10.5)" style="user-select: none;"><text x="0" y="21.34375" overflow="hidden" dy="-5.763"><tspan>2.38%</tspan></text></g></g></g></g><g focusable="true" tabindex="0" opacity="1" transform="translate(690.663,448.981)" style="pointer-events: none;"><g><g fill="#ffffff" stroke-opacity="0"><g transform="translate(-21.5,-10.5)" style="user-select: none;"><text x="0" y="21.34375" overflow="hidden" dy="-5.763"><tspan>2.65%</tspan></text></g></g></g></g><g focusable="true" tabindex="0" opacity="1" transform="translate(888,448.38)" style="pointer-events: none;"><g><g fill="#ffffff" stroke-opacity="0"><g transform="translate(-21.5,-10.5)" style="user-select: none;"><text x="0" y="21.34375" overflow="hidden" dy="-5.763"><tspan>2.91%</tspan></text></g></g></g></g><g focusable="true" tabindex="0" opacity="1" transform="translate(1085.337,438.75)" style="pointer-events: none;"><g><g fill="#ffffff" stroke-opacity="0"><g transform="translate(-21.5,-10.5)" style="user-select: none;"><text x="0" y="21.34375" overflow="hidden" dy="-5.763"><tspan>7.14%</tspan></text></g></g></g></g></g></g><g fill="#6771dc" stroke="#6771dc"><g><g focusable="true" tabindex="0" opacity="1" transform="translate(98.663,441.157)" style="pointer-events: none;"><g><g fill="#ffffff" stroke-opacity="0"><g transform="translate(-21.5,-10.5)" style="user-select: none;"><text x="0" y="21.359375" overflow="hidden" dy="-5.767"><tspan>2.38%</tspan></text></g></g></g></g><g focusable="true" tabindex="0" opacity="1" transform="translate(296,445.37)" style="pointer-events: none;"><g><g fill="#ffffff" stroke-opacity="0"><g transform="translate(-21.5,-10.5)" style="user-select: none;"><text x="0" y="21.34375" overflow="hidden" dy="-5.763"><tspan>1.06%</tspan></text></g></g></g></g><g focusable="true" tabindex="0" opacity="1" transform="translate(493.337,438.148)" style="pointer-events: none;"><g><g fill="#ffffff" stroke-opacity="0"><g transform="translate(-21.5,-10.5)" style="user-select: none;"><text x="0" y="21.34375" overflow="hidden" dy="-5.763"><tspan>2.65%</tspan></text></g></g></g></g><g focusable="true" tabindex="0" opacity="1" transform="translate(690.663,435.741)" style="pointer-events: none;"><g><g fill="#ffffff" stroke-opacity="0"><g transform="translate(-21.5,-10.5)" style="user-select: none;"><text x="0" y="21.34375" overflow="hidden" dy="-5.763"><tspan>3.17%</tspan></text></g></g></g></g><g focusable="true" tabindex="0" opacity="1" transform="translate(888,431.528)" style="pointer-events: none;"><g><g fill="#ffffff" stroke-opacity="0"><g transform="translate(-22,-10.5)" style="user-select: none;"><text x="0" y="21.34375" overflow="hidden" dy="-5.763"><tspan>4.50%</tspan></text></g></g></g></g><g focusable="true" tabindex="0" opacity="1" transform="translate(1085.337,403.241)" style="pointer-events: none;"><g><g fill="#ffffff" stroke-opacity="0"><g transform="translate(-21.5,-10.5)" style="user-select: none;"><text x="0" y="21.34375" overflow="hidden" dy="-5.763"><tspan>8.47%</tspan></text></g></g></g></g></g></g><g fill="#a367dc" stroke="#a367dc"><g><g focusable="true" tabindex="0" opacity="1" transform="translate(98.663,420.694)" style="pointer-events: none;"><g><g fill="#ffffff" stroke-opacity="0"><g transform="translate(-21.5,-10.5)" style="user-select: none;"><text x="0" y="21.359375" overflow="hidden" dy="-5.767"><tspan>6.61%</tspan></text></g></g></g></g><g focusable="true" tabindex="0" opacity="1" transform="translate(296,425.509)" style="pointer-events: none;"><g><g fill="#ffffff" stroke-opacity="0"><g transform="translate(-21.5,-10.5)" style="user-select: none;"><text x="0" y="21.34375" overflow="hidden" dy="-5.763"><tspan>7.67%</tspan></text></g></g></g></g><g focusable="true" tabindex="0" opacity="1" transform="translate(493.337,396.62)" style="pointer-events: none;"><g><g fill="#ffffff" stroke-opacity="0"><g transform="translate(-26,-10.5)" style="user-select: none;"><text x="0" y="21.34375" overflow="hidden" dy="-5.763"><tspan>15.61%</tspan></text></g></g></g></g><g focusable="true" tabindex="0" opacity="1" transform="translate(690.663,390.602)" style="pointer-events: none;"><g><g fill="#ffffff" stroke-opacity="0"><g transform="translate(-26,-10.5)" style="user-select: none;"><text x="0" y="21.34375" overflow="hidden" dy="-5.763"><tspan>16.67%</tspan></text></g></g></g></g><g focusable="true" tabindex="0" opacity="1" transform="translate(888,383.38)" style="pointer-events: none;"><g><g fill="#ffffff" stroke-opacity="0"><g transform="translate(-26,-10.5)" style="user-select: none;"><text x="0" y="21.34375" overflow="hidden" dy="-5.763"><tspan>16.67%</tspan></text></g></g></g></g><g focusable="true" tabindex="0" opacity="1" transform="translate(1085.337,338.843)" style="pointer-events: none;"><g><g fill="#ffffff" stroke-opacity="0"><g transform="translate(-26,-10.5)" style="user-select: none;"><text x="0" y="21.34375" overflow="hidden" dy="-5.763"><tspan>19.84%</tspan></text></g></g></g></g></g></g><g fill="#dc67ce" stroke="#dc67ce"><g><g focusable="true" tabindex="0" opacity="1" transform="translate(98.663,364.12)" style="pointer-events: none;"><g><g fill="#ffffff" stroke-opacity="0"><g transform="translate(-26,-10.5)" style="user-select: none;"><text x="0" y="21.359375" overflow="hidden" dy="-5.767"><tspan>18.25%</tspan></text></g></g></g></g><g focusable="true" tabindex="0" opacity="1" transform="translate(296,359.306)" style="pointer-events: none;"><g><g fill="#ffffff" stroke-opacity="0"><g transform="translate(-26,-10.5)" style="user-select: none;"><text x="0" y="21.34375" overflow="hidden" dy="-5.763"><tspan>21.43%</tspan></text></g></g></g></g><g focusable="true" tabindex="0" opacity="1" transform="translate(493.337,313.565)" style="pointer-events: none;"><g><g fill="#ffffff" stroke-opacity="0"><g transform="translate(-26,-10.5)" style="user-select: none;"><text x="0" y="21.34375" overflow="hidden" dy="-5.763"><tspan>20.90%</tspan></text></g></g></g></g><g focusable="true" tabindex="0" opacity="1" transform="translate(690.663,303.333)" style="pointer-events: none;"><g><g fill="#ffffff" stroke-opacity="0"><g transform="translate(-26,-10.5)" style="user-select: none;"><text x="0" y="21.34375" overflow="hidden" dy="-5.763"><tspan>21.69%</tspan></text></g></g></g></g><g focusable="true" tabindex="0" opacity="1" transform="translate(888,296.111)" style="pointer-events: none;"><g><g fill="#ffffff" stroke-opacity="0"><g transform="translate(-26,-10.5)" style="user-select: none;"><text x="0" y="21.34375" overflow="hidden" dy="-5.763"><tspan>21.69%</tspan></text></g></g></g></g><g focusable="true" tabindex="0" opacity="1" transform="translate(1085.337,255.185)" style="pointer-events: none;"><g><g fill="#ffffff" stroke-opacity="0"><g transform="translate(-26,-10.5)" style="user-select: none;"><text x="0" y="21.34375" overflow="hidden" dy="-5.763"><tspan>16.93%</tspan></text></g></g></g></g></g></g><g fill="#dc6788" stroke="#dc6788"><g><g opacity="1" transform="translate(98.663,161.296)" style="pointer-events: none;" focusable="true" tabindex="0"><g><g fill="#ffffff" stroke-opacity="0"><g transform="translate(-26,-10.5)" style="user-select: none;"><text x="0" y="21.34375" overflow="hidden" dy="-5.763"><tspan>70.90%</tspan></text></g></g></g></g><g opacity="1" transform="translate(296,155.278)" style="pointer-events: none;" focusable="true" tabindex="0"><g><g fill="#ffffff" stroke-opacity="0"><g transform="translate(-26,-10.5)" style="user-select: none;"><text x="0" y="21.34375" overflow="hidden" dy="-5.763"><tspan>68.25%</tspan></text></g></g></g></g><g opacity="1" transform="translate(493.337,133.009)" style="pointer-events: none;" focusable="true" tabindex="0"><g><g fill="#ffffff" stroke-opacity="0"><g transform="translate(-26,-10.5)" style="user-select: none;"><text x="0" y="21.34375" overflow="hidden" dy="-5.763"><tspan>58.47%</tspan></text></g></g></g></g><g opacity="1" transform="translate(690.663,126.991)" style="pointer-events: none;" focusable="true" tabindex="0"><g><g fill="#ffffff" stroke-opacity="0"><g transform="translate(-26,-10.5)" style="user-select: none;"><text x="0" y="21.34375" overflow="hidden" dy="-5.763"><tspan>55.82%</tspan></text></g></g></g></g><g opacity="1" transform="translate(888,123.38)" style="pointer-events: none;" focusable="true" tabindex="0"><g><g fill="#ffffff" stroke-opacity="0"><g transform="translate(-26,-10.5)" style="user-select: none;"><text x="0" y="21.34375" overflow="hidden" dy="-5.763"><tspan>54.23%</tspan></text></g></g></g></g><g opacity="1" transform="translate(1085.337,108.333)" style="pointer-events: none;" focusable="true" tabindex="0"><g><g fill="#ffffff" stroke-opacity="0"><g transform="translate(-26,-10.5)" style="user-select: none;"><text x="0" y="21.34375" overflow="hidden" dy="-5.763"><tspan>47.62%</tspan></text></g></g></g></g></g></g></g></g><g><g><g><g/></g><g><g/></g></g></g><g><g/></g><g><g/></g><g role="button" focusable="true" tabindex="0" opacity="0" visibility="hidden" aria-hidden="true" transform="translate(1144,-3)" aria-labelledby="id-37-title"><g fill="#6794dc" stroke="#ffffff" fill-opacity="1" stroke-opacity="0" transform="translate(0,8)"><path d="M17,0 L18,0 a17,17 0 0 1 17,17 L35,17 a17,17 0 0 1 -17,17 L17,34 a17,17 0 0 1 -17,-17 L0,17 a17,17 0 0 1 17,-17 Z"/></g><g transform="translate(9,9)"><g stroke="#ffffff" style="pointer-events: none;" transform="translate(0,8)"><path d=" M0,0  L11,0 " transform="translate(2.5,7.5)"/></g><g fill="#000000" style="pointer-events: none;" transform="translate(17,8)"><g display="none"/></g></g><title id="id-37-title">Zoom Out</title></g></g></g><g><g><g aria-hidden="true"><g><g fill="#000000" transform="translate(0,227.5) rotate(-90)"><g display="none"/></g><g stroke="#000000" stroke-opacity="0.15" fill="none" transform="translate(50,455)" opacity="1"><path transform="translate(-0.5,-0.5)" d=" M0,0  L1184,0 "/></g><g><g><g fill="#000000" aria-label="L" fill-opacity="0" opacity="0" stroke-opacity="0" style="pointer-events: none;" transform="translate(50,227.5)"><g transform="translate(-36,-10.5)" style="user-select: none;"><text x="0" y="21.34375" dy="-5.763"><tspan>100</tspan></text></g></g><g fill="#000000" transform="translate(50,546)" display="none"><g transform="translate(-34,-10.5)" style="user-select: none;"><text x="0" y="21.359375" dy="-5.767"><tspan>-20</tspan></text></g></g><g fill="#000000" transform="translate(50,500.5)" display="none"><g transform="translate(-34,-10.5)" style="user-select: none;"><text x="0" y="21.34375" dy="-5.763"><tspan>-10</tspan></text></g></g><g fill="#000000" transform="translate(50,455)"><g transform="translate(-19,-10.5)" style="user-select: none;"><text x="0" y="21.34375" dy="-5.763"><tspan>0</tspan></text></g></g><g fill="#000000" transform="translate(50,409.5)"><g transform="translate(-28,-10.5)" style="user-select: none;"><text x="0" y="21.359375" dy="-5.767"><tspan>10</tspan></text></g></g><g fill="#000000" transform="translate(50,364)"><g transform="translate(-28,-10.5)" style="user-select: none;"><text x="0" y="21.34375" dy="-5.763"><tspan>20</tspan></text></g></g><g fill="#000000" transform="translate(50,318.5)"><g transform="translate(-28,-10.5)" style="user-select: none;"><text x="0" y="21.359375" dy="-5.767"><tspan>30</tspan></text></g></g><g fill="#000000" transform="translate(50,273)"><g transform="translate(-28,-10.5)" style="user-select: none;"><text x="0" y="21.34375" dy="-5.763"><tspan>40</tspan></text></g></g><g fill="#000000" transform="translate(50,227.5)"><g transform="translate(-28,-10.5)" style="user-select: none;"><text x="0" y="21.359375" dy="-5.767"><tspan>50</tspan></text></g></g><g fill="#000000" transform="translate(50,182)"><g transform="translate(-28,-10.5)" style="user-select: none;"><text x="0" y="21.34375" dy="-5.763"><tspan>60</tspan></text></g></g><g fill="#000000" transform="translate(50,136.5)"><g transform="translate(-28,-10.5)" style="user-select: none;"><text x="0" y="21.359375" dy="-5.767"><tspan>70</tspan></text></g></g><g fill="#000000" transform="translate(50,91)"><g transform="translate(-28,-10.5)" style="user-select: none;"><text x="0" y="21.34375" dy="-5.763"><tspan>80</tspan></text></g></g><g fill="#000000" transform="translate(50,-45.5)" display="none"><g transform="translate(-36,-10.5)" style="user-select: none;"><text x="0" y="21.34375" dy="-5.763"><tspan>120</tspan></text></g></g><g fill="#000000" transform="translate(50,0)"><g transform="translate(-36,-10.5)" style="user-select: none;"><text x="0" y="21.34375" dy="-5.763"><tspan>100</tspan></text></g></g><g fill="#000000" transform="translate(50,45.5)"><g transform="translate(-28,-10.5)" style="user-select: none;"><text x="0" y="21.34375" dy="-5.763"><tspan>90</tspan></text></g></g></g></g><g stroke="#000000" stroke-opacity="0" fill="none" style="pointer-events: none;" transform="translate(50,0)"><path d=" M0,0  L0,455 " transform="translate(-0.5,-0.5)"/></g></g></g></g></g><g transform="translate(1234,0)"><g/></g></g></g><g><g transform="translate(50,0)"><g role="scrollbar" aria-valuemin="0" aria-valuemax="100" aria-valuenow="0" aria-valuetext="From Rules are&#10; clear and&#10; understandable to I like the&#10; nickname policy" aria-labelledby="id-244-title" aria-orientation="horizontal" aria-controls="id-22" transform="translate(0,10)"><g fill="#f3f3f3" fill-opacity="0.5"><path d="M6,0 L1178,0 a6,6 0 0 1 6,6 L1184,6 a6,6 0 0 1 -6,6 L6,12 a6,6 0 0 1 -6,-6 L0,6 a6,6 0 0 1 6,-6 Z"/></g><g><g role="slider" focusable="true" tabindex="0" aria-valuemin="0" aria-valuemax="100" aria-live="polite" aria-labelledby="id-258-title" aria-valuenow="0" aria-valuetext="From Rules are&#10; clear and&#10; understandable to I like the&#10; nickname policy" aria-describedby="id-258-description" transform="translate(0,6)" style="touch-action: none; user-select: none; -webkit-user-drag: none; cursor: -webkit-grab;"><g fill="#d9d9d9" stroke="#ffffff" fill-opacity="1" stroke-opacity="1" transform="translate(0,-6)"><path d="M6,0 L1178,0 a6,6 0 0 1 6,6 L1184,6 a6,6 0 0 1 -6,6 L6,12 a6,6 0 0 1 -6,-6 L0,6 a6,6 0 0 1 6,-6 Z"/></g><g transform="translate(0,-6)"><g fill="#000000" style="pointer-events: none;" transform="translate(592,6)"><g display="none"/></g></g><title id="id-258-title">From Rules are
 clear and
 understandable to I like the
 nickname policy</title><desc id="id-258-description">Use left and right arrows to move selection</desc></g><g role="slider" focusable="true" tabindex="0" aria-valuemin="0" aria-valuemax="100" aria-labelledby="id-246-title" aria-valuenow="0" aria-valuetext="From Rules are&#10; clear and&#10; understandable" aria-describedby="id-246-description" transform="translate(0,6)" style="touch-action: none; user-select: none; -webkit-user-drag: none; cursor: ew-resize;" opacity="0" visibility="hidden" aria-hidden="true"><g fill="#d9d9d9" stroke="#ffffff" fill-opacity="1" stroke-opacity="1" transform="translate(-14,-14)"><path d="M14,0 L14,0 a14,14 0 0 1 14,14 L28,14 a14,14 0 0 1 -14,14 L14,28 a14,14 0 0 1 -14,-14 L0,14 a14,14 0 0 1 14,-14 Z"/></g><g transform="translate(-6,-12)"><g stroke="#ffffff" stroke-opacity="0.7" style="pointer-events: none;" transform="translate(2,12)"><path d=" M-2,-6  L-2,6  M2,-6  L2,6 " transform="translate(3.5,-0.5)"/></g></g><title id="id-246-title">From Rules are
 clear and
 understandable</title><desc id="id-246-description">Use left and right arrows to move left selection</desc></g><g role="slider" focusable="true" tabindex="0" aria-valuemin="0" aria-valuemax="100" aria-labelledby="id-252-title" aria-valuenow="100" aria-valuetext="To I like the&#10; nickname policy" aria-describedby="id-252-description" transform="translate(1184,6)" style="touch-action: none; user-select: none; -webkit-user-drag: none; cursor: ew-resize;" opacity="0" visibility="hidden" aria-hidden="true"><g fill="#d9d9d9" stroke="#ffffff" fill-opacity="1" stroke-opacity="1" transform="translate(-14,-14)"><path d="M14,0 L14,0 a14,14 0 0 1 14,14 L28,14 a14,14 0 0 1 -14,14 L14,28 a14,14 0 0 1 -14,-14 L0,14 a14,14 0 0 1 14,-14 Z"/></g><g transform="translate(-6,-12)"><g stroke="#ffffff" stroke-opacity="0.7" style="pointer-events: none;" transform="translate(2,12)"><path d=" M-2,-6  L-2,6  M2,-6  L2,6 " transform="translate(3.5,-0.5)"/></g></g><title id="id-252-title">To I like the
 nickname policy</title><desc id="id-252-description">Use left and right arrows to move right selection</desc></g></g><title id="id-244-title">Use TAB to select grip buttons or left and right arrows to change selection</title></g></g></g><g transform="translate(0,487)"><g transform="translate(50,0)"><g aria-hidden="true"><g><g stroke="#000000" stroke-opacity="0" fill="none" style="pointer-events: none;"><path d=" M0,0  L1184,0 " transform="translate(-0.5,-0.5)"/></g><g><g><g fill="#000000" aria-label="L" fill-opacity="0" opacity="0" stroke-opacity="0" style="pointer-events: none;" transform="translate(592,0)"><g transform="translate(-55.5,10)" style="user-select: none;"><text x="0" y="21.359375" dy="-5.767"><tspan>Rules are</tspan></text><text x="0" y="42.71875" dy="-5.767"><tspan> clear and</tspan></text><text x="0" y="64.0625" dy="-5.763"><tspan> understandable</tspan></text></g></g><g fill="#000000" transform="translate(98.669,0)"><g transform="translate(-55.5,10)" style="user-select: none;"><text x="0" y="21.34375" dy="-5.763"><tspan>Rules are</tspan></text><text x="0" y="42.6875" dy="-5.763"><tspan> clear and</tspan></text><text x="0" y="64.03125" dy="-5.763"><tspan> understandable</tspan></text></g></g><g fill="#000000" transform="translate(296,0)"><g transform="translate(-39,10)" style="user-select: none;"><text x="0" y="21.34375" dy="-5.763"><tspan>Rules are</tspan></text><text x="0" y="42.6875" dy="-5.763"><tspan> reasonable</tspan></text></g></g><g fill="#000000" transform="translate(493.331,0)"><g transform="translate(-56.5,10)" style="user-select: none;"><text x="0" y="21.34375" dy="-5.763"><tspan>The moderation</tspan></text><text x="0" y="42.6875" dy="-5.763"><tspan> is fair</tspan></text></g></g><g fill="#000000" transform="translate(690.669,0)"><g transform="translate(-64,10)" style="user-select: none;"><text x="0" y="21.34375" dy="-5.763"><tspan>The mod team</tspan></text><text x="0" y="42.6875" dy="-5.763"><tspan> communicate well</tspan></text></g></g><g fill="#000000" transform="translate(888,0)"><g transform="translate(-59.5,10)" style="user-select: none;"><text x="0" y="21.34375" dy="-5.763"><tspan>I like TPH's</tspan></text><text x="0" y="42.6875" dy="-5.763"><tspan> moderation style</tspan></text></g></g><g fill="#000000" transform="translate(1085.331,0)"><g transform="translate(-57,10)" style="user-select: none;"><text x="0" y="21.34375" dy="-5.763"><tspan>I like the</tspan></text><text x="0" y="42.6875" dy="-5.763"><tspan> nickname policy</tspan></text></g></g><g fill="#000000" display="none" transform="translate(1282.669,0)"><g transform="translate(0,10)" display="none"/></g></g></g><g stroke="#000000" stroke-opacity="0.15" fill="none" display="none" transform="translate(1184,-455)" opacity="0" visibility="hidden" aria-hidden="true"><path transform="translate(-0.5,-0.5)" d=" M0,0  L0,455 "/></g><g fill="#000000" transform="translate(592,84)"><g display="none"/></g></g></g></g></g></g></g><g role="group" aria-label="Legend" transform="translate(0,571)"><g><g focusable="true" tabindex="0" role="switch" aria-controls="id-139" aria-labelledby="id-139" aria-checked="true" transform="translate(221,0)" style="cursor: pointer;"><g fill="#ffffff" fill-opacity="0"><rect width="156" height="39"/></g><g transform="translate(0,8)"><g fill="#67b7dc" style="pointer-events: none;"><g fill="#ffffff" fill-opacity="0" stroke-opacity="0" stroke="#000000"><rect width="23" height="23"/></g><g><g fill="#67b7dc" fill-opacity="1" stroke="#67b7dc" stroke-opacity="1"><path d="M3,0 L20,0 a3,3 0 0 1 3,3 L23,20 a3,3 0 0 1 -3,3 L3,23 a3,3 0 0 1 -3,-3 L0,3 a3,3 0 0 1 3,-3 Z"/></g></g></g><g fill="#000000" aria-label="Strongly disagree" style="pointer-events: none;" transform="translate(28,1)"><g style="user-select: none;"><text x="0" y="21.34375" overflow="hidden" dy="-5.763"><tspan>Strongly disagree</tspan></text></g></g><g fill="#000000" style="pointer-events: none;" display="none"><g display="none"/></g></g></g><g focusable="true" tabindex="0" role="switch" aria-controls="id-160" aria-labelledby="id-160" aria-checked="true" transform="translate(397,0)" style="cursor: pointer;"><g fill="#ffffff" fill-opacity="0"><rect width="172" height="39"/></g><g transform="translate(0,8)"><g fill="#6771dc" style="pointer-events: none;"><g fill="#ffffff" fill-opacity="0" stroke-opacity="0" stroke="#000000"><rect width="23" height="23"/></g><g><g fill="#6771dc" fill-opacity="1" stroke="#6771dc" stroke-opacity="1"><path d="M3,0 L20,0 a3,3 0 0 1 3,3 L23,20 a3,3 0 0 1 -3,3 L3,23 a3,3 0 0 1 -3,-3 L0,3 a3,3 0 0 1 3,-3 Z"/></g></g></g><g fill="#000000" aria-label="Somewhat disagree" style="pointer-events: none;" transform="translate(28,1)"><g style="user-select: none;"><text x="0" y="21.34375" overflow="hidden" dy="-5.763"><tspan>Somewhat disagree</tspan></text></g></g><g fill="#000000" style="pointer-events: none;" display="none"><g display="none"/></g></g></g><g focusable="true" tabindex="0" role="switch" aria-controls="id-181" aria-labelledby="id-181" aria-checked="true" transform="translate(589,0)" style="cursor: pointer;"><g fill="#ffffff" fill-opacity="0"><rect width="94" height="39"/></g><g transform="translate(0,8)"><g fill="#a367dc" style="pointer-events: none;"><g fill="#ffffff" fill-opacity="0" stroke-opacity="0" stroke="#000000"><rect width="23" height="23"/></g><g><g fill="#a367dc" fill-opacity="1" stroke="#a367dc" stroke-opacity="1"><path d="M3,0 L20,0 a3,3 0 0 1 3,3 L23,20 a3,3 0 0 1 -3,3 L3,23 a3,3 0 0 1 -3,-3 L0,3 a3,3 0 0 1 3,-3 Z"/></g></g></g><g fill="#000000" aria-label="Not sure" style="pointer-events: none;" transform="translate(28,1)"><g style="user-select: none;"><text x="0" y="21.34375" overflow="hidden" dy="-5.763"><tspan>Not sure</tspan></text></g></g><g fill="#000000" style="pointer-events: none;" display="none"><g display="none"/></g></g></g><g focusable="true" tabindex="0" role="switch" aria-controls="id-202" aria-labelledby="id-202" aria-checked="true" transform="translate(703,0)" style="cursor: pointer;"><g fill="#ffffff" fill-opacity="0"><rect width="152" height="39"/></g><g transform="translate(0,8)"><g fill="#dc67ce" style="pointer-events: none;"><g fill="#ffffff" fill-opacity="0" stroke-opacity="0" stroke="#000000"><rect width="23" height="23"/></g><g><g fill="#dc67ce" fill-opacity="1" stroke="#dc67ce" stroke-opacity="1"><path d="M3,0 L20,0 a3,3 0 0 1 3,3 L23,20 a3,3 0 0 1 -3,3 L3,23 a3,3 0 0 1 -3,-3 L0,3 a3,3 0 0 1 3,-3 Z"/></g></g></g><g fill="#000000" aria-label="Somewhat agree" style="pointer-events: none;" transform="translate(28,1)"><g style="user-select: none;"><text x="0" y="21.34375" overflow="hidden" dy="-5.763"><tspan>Somewhat agree</tspan></text></g></g><g fill="#000000" style="pointer-events: none;" display="none"><g display="none"/></g></g></g><g focusable="true" tabindex="0" role="switch" aria-controls="id-223" aria-labelledby="id-223" aria-checked="true" transform="translate(875,0)" style="cursor: pointer;"><g fill="#ffffff" fill-opacity="0"><rect width="138" height="39"/></g><g transform="translate(0,8)"><g fill="#dc6788" style="pointer-events: none;"><g fill="#ffffff" fill-opacity="0" stroke-opacity="0" stroke="#000000"><rect width="23" height="23"/></g><g><g fill="#dc6788" fill-opacity="1" stroke="#dc6788" stroke-opacity="1"><path d="M3,0 L20,0 a3,3 0 0 1 3,3 L23,20 a3,3 0 0 1 -3,3 L3,23 a3,3 0 0 1 -3,-3 L0,3 a3,3 0 0 1 3,-3 Z"/></g></g></g><g fill="#000000" aria-label="Strongly Agree" style="pointer-events: none;" transform="translate(28,1)"><g style="user-select: none;"><text x="0" y="21.34375" overflow="hidden" dy="-5.763"><tspan>Strongly Agree</tspan></text></g></g><g fill="#000000" style="pointer-events: none;" display="none"><g display="none"/></g></g></g></g></g></g></g></g></g><g><g><g role="tooltip" visibility="hidden" opacity="0"><g fill="#ffffff" fill-opacity="0.9" stroke-width="1" stroke-opacity="1" stroke="#ffffff" filter="url(#filter-id-51)" style="pointer-events: none;" transform="translate(0,6)"><path d="M3,0 L3,0 L0,-6 L13,0 L21,0 a3,3 0 0 1 3,3 L24,8 a3,3 0 0 1 -3,3 L3,11 a3,3 0 0 1 -3,-3 L0,3 a3,3 0 0 1 3,-3"/></g><g><g fill="#ffffff" style="pointer-events: none;" transform="translate(12,6)"><g transform="translate(0,7)" display="none"/></g></g></g><g visibility="hidden" display="none" style="pointer-events: none;"><g fill="#ffffff" opacity="1"><rect width="1451" height="650"/></g><g><g transform="translate(725.5,250)"><g><g stroke-opacity="1" fill="#f3f3f3" fill-opacity="0.8"><g><g><path d=" M53,0  a53,53,0,0,1,-106,0 a53,53,0,0,1,106,0 M42,0  a42,42,0,0,0,-84,0 a42,42,0,0,0,84,0 L42,0 "/></g></g></g><g stroke-opacity="1" fill="#000000" fill-opacity="0.2"><g><g><path d=" M50,0  a50,50,0,0,1,-100,0 a50,50,0,0,1,100,0 M45,0  a45,45,0,0,0,-90,0 a45,45,0,0,0,90,0 L45,0 "/></g></g></g><g fill="#000000" fill-opacity="0.4"><g transform="translate(-20,-10.5)" style="user-select: none;"><text x="20px" y="21.34375" dy="-5.763" text-anchor="middle"><tspan>100%</tspan></text></g></g></g></g></g></g><g opacity="0.3" aria-labelledby="id-66-title" filter="url(#filter-id-66)" style="cursor: pointer;" transform="translate(0,629)"><g fill="#ffffff" opacity="0"><rect width="66" height="21"/></g><g><g shape-rendering="auto" fill="none" stroke-opacity="1" stroke-width="1.7999999999999998" stroke="#3cabff"><path d=" M15,15  C17.4001,15 22.7998,15.0001 27,15 C31.2002,14.9999 33.2999,6 36,6 C38.7001,6 38.6999,10.5 40.5,10.5 C42.3001,10.5 42.2999,6 45,6 C47.7001,6 50.9999,14.9999 54,15 C57.0002,15.0001 58.7999,15 60,15"/></g><g shape-rendering="auto" fill="none" stroke-opacity="1" stroke-width="1.7999999999999998" stroke="url(#gradient-id-69)"><path d=" M6,15  C8.2501,15 9.7498,15.0001 15,15 C20.2502,14.9999 20.7748,3.6 27,3.6 C33.2252,3.6 33.8998,14.9999 39.9,15 C45.9002,15.0001 45.9748,15 51,15 C56.0252,15 57.7499,15 60,15"/></g></g><title id="id-66-title">Chart created using amCharts library</title></g><g role="tooltip" visibility="hidden" opacity="0"><g fill="#000000" fill-opacity="1" stroke-width="1" stroke-opacity="1" stroke="#000000" style="pointer-events: none;" transform="translate(80,517)"><path d="M0,0 L20,0 a0,0 0 0 1 0,0 L20,10 a0,0 0 0 1 -0,0 L0,10 a0,0 0 0 1 -0,-0 L0,0 a0,0 0 0 1 0,-0"/></g><g><g fill="#ffffff" style="pointer-events: none;" transform="translate(90,517)"><g transform="translate(0,5)" display="none"/></g></g></g><g role="tooltip" visibility="hidden" opacity="0"><g fill="#000000" fill-opacity="1" stroke-width="1" stroke-opacity="1" stroke="#000000" style="pointer-events: none;" transform="translate(-25,62)"><path d="M0,0 L20,0 a0,0 0 0 1 0,0 L20,0 L20,0 L25,0 L20,10 L20,10 a0,0 0 0 1 -0,0 L0,10 a0,0 0 0 1 -0,-0 L0,0 a0,0 0 0 1 0,-0"/></g><g><g fill="#ffffff" style="pointer-events: none;" transform="translate(-15,62)"><g transform="translate(0,5)" display="none"/></g></g></g><g role="tooltip" visibility="hidden" opacity="0"><g fill="#ffffff" fill-opacity="0.9" stroke-width="1" stroke-opacity="1" stroke="#ffffff" filter="url(#filter-id-149)" style="pointer-events: none;" transform="translate(0,6)"><path d="M3,0 L3,0 L0,-6 L13,0 L21,0 a3,3 0 0 1 3,3 L24,8 a3,3 0 0 1 -3,3 L3,11 a3,3 0 0 1 -3,-3 L0,3 a3,3 0 0 1 3,-3"/></g><g><g fill="#ffffff" style="pointer-events: none;" transform="translate(12,6)"><g transform="translate(0,7)" display="none"/></g></g></g><g role="tooltip" visibility="hidden" opacity="0"><g fill="#ffffff" fill-opacity="0.9" stroke-width="1" stroke-opacity="1" stroke="#ffffff" filter="url(#filter-id-170)" style="pointer-events: none;" transform="translate(0,6)"><path d="M3,0 L3,0 L0,-6 L13,0 L21,0 a3,3 0 0 1 3,3 L24,8 a3,3 0 0 1 -3,3 L3,11 a3,3 0 0 1 -3,-3 L0,3 a3,3 0 0 1 3,-3"/></g><g><g fill="#ffffff" style="pointer-events: none;" transform="translate(12,6)"><g transform="translate(0,7)" display="none"/></g></g></g><g role="tooltip" visibility="hidden" opacity="0"><g fill="#ffffff" fill-opacity="0.9" stroke-width="1" stroke-opacity="1" stroke="#ffffff" filter="url(#filter-id-191)" style="pointer-events: none;" transform="translate(0,6)"><path d="M3,0 L3,0 L0,-6 L13,0 L21,0 a3,3 0 0 1 3,3 L24,8 a3,3 0 0 1 -3,3 L3,11 a3,3 0 0 1 -3,-3 L0,3 a3,3 0 0 1 3,-3"/></g><g><g fill="#ffffff" style="pointer-events: none;" transform="translate(12,6)"><g transform="translate(0,7)" display="none"/></g></g></g><g role="tooltip" opacity="0" aria-describedby="id-836" transform="translate(862.252,265.333)" aria-hidden="true" visibility="hidden"><g fill="#dc67ce" fill-opacity="0.9" stroke-width="1" stroke-opacity="1" stroke="#ffffff" filter="url(#filter-id-212)" style="pointer-events: none;" transform="translate(-101,-38)"><path d="M3,0 L199,0 a3,3 0 0 1 3,3 L202,29 a3,3 0 0 1 -3,3 L199,32 L106,32 L101,38 L96,32 L3,32 a3,3 0 0 1 -3,-3 L0,3 a3,3 0 0 1 3,-3"/></g><g><g fill="#000000" style="pointer-events: none;" transform="translate(0,-38)"><g transform="translate(-89,7)" style="user-select: none;"><text x="0" y="21.34375" dy="-5.763"><tspan>Somewhat agree: 21.69%</tspan></text></g></g></g></g><g role="tooltip" opacity="0" aria-describedby="id-633" transform="translate(1165.3315,170.3335)"><g fill="#dc6788" fill-opacity="0.9" stroke-width="1" stroke-opacity="1" stroke="#ffffff" filter="url(#filter-id-233)" style="pointer-events: none;" transform="translate(-94.5,-38)"><path d="M3,0 L186,0 a3,3 0 0 1 3,3 L189,29 a3,3 0 0 1 -3,3 L186,32 L99.5,32 L94.5,38 L89.5,32 L3,32 a3,3 0 0 1 -3,-3 L0,3 a3,3 0 0 1 3,-3"/></g><g><g fill="#000000" style="pointer-events: none;" transform="translate(0,-38)"><g transform="translate(-82.5,7)" style="user-select: none;"><text x="0" y="21.34375" dy="-5.763"><tspan>Strongly Agree: 47.62%</tspan></text></g></g></g></g></g></g></g></g></svg>