<?xml version="1.0" encoding="utf-8"?><svg width="948px" height="500px" viewBox="0 0 948 500"  style="font-family: -apple-system, BlinkMacSystemFont, Segoe UI, Roboto, Helvetica, Arial, sans-serif, Apple Color Emoji, Segoe UI Emoji, Segoe UI Symbol;font-size: 16px;" version="1.1" xmlns="http://www.w3.org/2000/svg" xmlns:xlink="http://www.w3.org/1999/xlink"><defs xmlns="http://www.w3.org/2000/svg"><clipPath id="id-46"><rect width="948" height="500"/></clipPath><linearGradient id="gradient-id-69" x1="1%" x2="99%" y1="59%" y2="41%"><stop stop-color="#474758" offset="0"/><stop stop-color="#474758" stop-opacity="1" offset="0.75"/><stop stop-color="#3cabff" stop-opacity="1" offset="0.755"/></linearGradient><clipPath id="id-78"/><filter id="filter-id-51" filterUnits="objectBoundingBox" width="200%" height="200%" x="-50%" y="-50%"><feGaussianBlur result="blurOut" in="SourceGraphic" stdDeviation="1.5"/><feOffset result="offsetBlur" dx="1" dy="1"/><feFlood flood-color="#000000" flood-opacity="0.5"/><feComposite in2="offsetBlur" operator="in"/><feMerge><feMergeNode/><feMergeNode in="SourceGraphic"/></feMerge></filter><filter id="filter-id-66" filterUnits="objectBoundingBox" width="120%" height="120%" x="-10%" y="-10%"><feColorMatrix type="saturate" values="0"/></filter><filter id="filter-id-83" filterUnits="objectBoundingBox" width="200%" height="200%" x="-50%" y="-50%"><feGaussianBlur result="blurOut" in="SourceGraphic" stdDeviation="1.5"/><feOffset result="offsetBlur" dx="1" dy="1"/><feFlood flood-color="#000000" flood-opacity="0.5"/><feComposite in2="offsetBlur" operator="in"/><feMerge><feMergeNode/><feMergeNode in="SourceGraphic"/></feMerge></filter></defs><g xmlns="http://www.w3.org/2000/svg" style=""><g fill="#ffffff" fill-opacity="1"><rect width="948" height="500"/></g><g><g role="region" clip-path="url(#id-46)" opacity="1" aria-label="Chart"><g><g><g><g><g><g transform="translate(474,250)"><g><g role="group" aria-label="Series"><g><g clip-path="url(#id-78)"><g/></g><g/><g><g><g stroke-opacity="1" stroke="#ffffff" role="menuitem" focusable="true" tabindex="0" fill="#67b7dc"><g><g><path d=" M0,0  L0,-200  a200,200,0,0,1,186.7161,271.6736 L0,0 "/></g><g/></g></g><g stroke-opacity="1" stroke="#ffffff" role="menuitem" focusable="true" tabindex="0" fill="#6794dc"><g><g><path d=" M0,0  L186.7161,71.6736  a200,200,0,0,1,-309.8484,85.9286 L0,0 "/></g><g/></g></g><g stroke-opacity="1" stroke="#ffffff" role="menuitem" focusable="true" tabindex="0" fill="#6771dc"><g><g><path d=" M0,0  L-123.1323,157.6022  a200,200,0,0,1,-65.9714,-222.7158 L0,0 "/></g><g/></g></g><g stroke-opacity="1" stroke="#ffffff" role="menuitem" focusable="true" tabindex="0" fill="#8067dc"><g><g><path d=" M0,0  L-189.1037,-65.1136  a200,200,0,0,1,95.2094,-111.4759 L0,0 "/></g><g/></g></g><g stroke-opacity="1" stroke="#ffffff" role="menuitem" focusable="true" tabindex="0" fill="#a367dc"><g><g><path d=" M0,0  L-93.8943,-176.5895  a200,200,0,0,1,83.4271,-23.1364 L0,0 "/></g><g/></g></g><g stroke-opacity="1" stroke="#ffffff" role="menuitem" focusable="true" tabindex="0" fill="#c767dc"><g><g><path d=" M0,0  L-10.4672,-199.7259  a200,200,0,0,1,10.4672,-0.2741 L0,0 "/></g><g/></g></g></g></g><g><g><g fill-opacity="0" stroke-opacity="0.2" stroke="#000000" stroke-width="1"><polyline points="164.82523772,-113.28124738000001,210,-122.344,216,-122.344"/></g><g fill-opacity="0" stroke-opacity="0.2" stroke="#000000" stroke-width="1"><polyline points="53.44767522,192.72609064,210,208.144,216,208.144"/></g><g fill-opacity="0" stroke-opacity="0.2" stroke="#000000" stroke-width="1"><polyline points="-191.76394698000001,56.80306894,-210,61.347,-216,61.347"/></g><g fill-opacity="0" stroke-opacity="0.2" stroke="#000000" stroke-width="1"><polyline points="-152.08119312,-129.88960966000002,-210,-140.281,-216,-140.281"/></g><g fill-opacity="0" stroke-opacity="0.2" stroke="#000000" stroke-width="1"><polyline points="-53.44767522,-192.72609064,-210,-184.926,-216,-184.926"/></g><g fill-opacity="0" stroke-opacity="0.2" stroke="#000000" stroke-width="1"><polyline points="-5.23538966,-199.931465,-210,-215.926,-216,-215.926"/></g></g></g><g><g><g fill="#000000" aria-label="13-17: 30.8%" transform="translate(216,-122.344)"><g transform="translate(5,-10.5)" style="user-select: none;"><text x="0" y="21" dy="-5.67"><tspan>13-17: 30.8%</tspan></text></g></g><g fill="#000000" aria-label="18-21: 29.7%" transform="translate(216,208.144)"><g transform="translate(5,-10.5)" style="user-select: none;"><text x="0" y="21" dy="-5.67"><tspan>18-21: 29.7%</tspan></text></g></g><g fill="#000000" aria-label="22-25: 19.7%" transform="translate(-216,61.347)"><g transform="translate(-97,-10.5)" style="user-select: none;"><text x="0" y="21" dy="-5.67"><tspan>22-25: 19.7%</tspan></text></g></g><g fill="#000000" aria-label="26-30: 11.9%" transform="translate(-216,-140.281)"><g transform="translate(-97,-10.5)" style="user-select: none;"><text x="0" y="21" dy="-5.67"><tspan>26-30: 11.9%</tspan></text></g></g><g fill="#000000" aria-label="31-40: 6.9%" transform="translate(-216,-184.926)"><g transform="translate(-88,-10.5)" style="user-select: none;"><text x="0" y="21" dy="-5.67"><tspan>31-40: 6.9%</tspan></text></g></g><g fill="#000000" aria-label="41+: 0.8%" transform="translate(-216,-215.926)"><g transform="translate(-76,-10.5)" style="user-select: none;"><text x="0" y="21" dy="-5.67"><tspan>41+: 0.8%</tspan></text></g></g></g></g></g></g></g></g><g transform="translate(474,250)"><g><g><g/></g></g></g></g></g></g></g></g></g><g><g><g role="tooltip" visibility="hidden" opacity="0"><g fill="#ffffff" fill-opacity="0.9" stroke-width="1" stroke-opacity="1" stroke="#ffffff" filter="url(#filter-id-51)" transform="translate(0,6)" style="pointer-events: none;"><path d="M3,0 L3,0 L0,-6 L13,0 L21,0 a3,3 0 0 1 3,3 L24,8 a3,3 0 0 1 -3,3 L3,11 a3,3 0 0 1 -3,-3 L0,3 a3,3 0 0 1 3,-3"/></g><g><g fill="#ffffff" transform="translate(12,6)" style="pointer-events: none;"><g transform="translate(0,7)" display="none"/></g></g></g><g visibility="hidden" style="pointer-events: none;" display="none"><g fill="#ffffff" opacity="1"><rect width="948" height="500"/></g><g><g transform="translate(474,250)"><g><g stroke-opacity="1" fill="#f3f3f3" fill-opacity="0.8"><g><g><path d=" M53,0  a53,53,0,0,1,-106,0 a53,53,0,0,1,106,0 M42,0  a42,42,0,0,0,-84,0 a42,42,0,0,0,84,0 L42,0 "/></g></g></g><g stroke-opacity="1" fill="#000000" fill-opacity="0.2"><g><g><path d=" M50,0  a50,50,0,0,1,-100,0 a50,50,0,0,1,100,0 M45,0  a45,45,0,0,0,-90,0 a45,45,0,0,0,90,0 L45,0 "/></g></g></g><g fill="#000000" fill-opacity="0.4"><g transform="translate(-19.5,-10.5)" style="user-select: none;"><text x="19.5px" y="21" dy="-5.67" text-anchor="middle"><tspan>100%</tspan></text></g></g></g></g></g></g><g opacity="0.3" aria-labelledby="id-66-title" filter="url(#filter-id-66)" transform="translate(0,479)" style="cursor: pointer;"><g fill="#ffffff" opacity="0"><rect width="66" height="21"/></g><g><g shape-rendering="auto" fill="none" stroke-opacity="1" stroke-width="1.7999999999999998" stroke="#3cabff"><path d=" M15,15  C17.4001,15 22.7998,15.0001 27,15 C31.2002,14.9999 33.2999,6 36,6 C38.7001,6 38.6999,10.5 40.5,10.5 C42.3001,10.5 42.2999,6 45,6 C47.7001,6 50.9999,14.9999 54,15 C57.0002,15.0001 58.7999,15 60,15"/></g><g shape-rendering="auto" fill="none" stroke-opacity="1" stroke-width="1.7999999999999998" stroke="url(#gradient-id-69)"><path d=" M6,15  C8.2501,15 9.7498,15.0001 15,15 C20.2502,14.9999 20.7748,3.6 27,3.6 C33.2252,3.6 33.8998,14.9999 39.9,15 C45.9002,15.0001 45.9748,15 51,15 C56.0252,15 57.7499,15 60,15"/></g></g><title id="id-66-title">Chart created using amCharts library</title></g><g role="tooltip" visibility="hidden" opacity="0"><g fill="#ffffff" fill-opacity="0.9" stroke-width="1" stroke-opacity="1" stroke="#ffffff" filter="url(#filter-id-83)" transform="translate(0,6)" style="pointer-events: none;"><path d="M3,0 L3,0 L0,-6 L13,0 L21,0 a3,3 0 0 1 3,3 L24,8 a3,3 0 0 1 -3,3 L3,11 a3,3 0 0 1 -3,-3 L0,3 a3,3 0 0 1 3,-3"/></g><g><g fill="#ffffff" transform="translate(12,6)" style="pointer-events: none;"><g transform="translate(0,7)" display="none"/></g></g></g></g></g></g></g></svg>