<?xml version="1.0" encoding="utf-8"?><svg width="1029px" height="500px" viewBox="0 0 1029 500"  style="font-family: -apple-system, BlinkMacSystemFont, Segoe UI, Roboto, Helvetica, Arial, sans-serif, Apple Color Emoji, Segoe UI Emoji, Segoe UI Symbol;font-size: 16px;" version="1.1" xmlns="http://www.w3.org/2000/svg" xmlns:xlink="http://www.w3.org/1999/xlink"><defs xmlns="http://www.w3.org/2000/svg"><clipPath id="id-46"><rect width="1029" height="500"/></clipPath><linearGradient id="gradient-id-69" x1="1%" x2="99%" y1="59%" y2="41%"><stop stop-color="#474758" offset="0"/><stop stop-color="#474758" stop-opacity="1" offset="0.75"/><stop stop-color="#3cabff" stop-opacity="1" offset="0.755"/></linearGradient><clipPath id="id-78"/><filter id="filter-id-51" filterUnits="objectBoundingBox" width="200%" height="200%" x="-50%" y="-50%"><feGaussianBlur result="blurOut" in="SourceGraphic" stdDeviation="1.5"/><feOffset result="offsetBlur" dx="1" dy="1"/><feFlood flood-color="#000000" flood-opacity="0.5"/><feComposite in2="offsetBlur" operator="in"/><feMerge><feMergeNode/><feMergeNode in="SourceGraphic"/></feMerge></filter><filter id="filter-id-66" filterUnits="objectBoundingBox" width="120%" height="120%" x="-10%" y="-10%"><feColorMatrix type="saturate" values="0"/></filter><filter id="filter-id-83" filterUnits="objectBoundingBox" width="200%" height="200%" x="-50%" y="-50%"><feGaussianBlur result="blurOut" in="SourceGraphic" stdDeviation="1.5"/><feOffset result="offsetBlur" dx="1" dy="1"/><feFlood flood-color="#000000" flood-opacity="0.5"/><feComposite in2="offsetBlur" operator="in"/><feMerge><feMergeNode/><feMergeNode in="SourceGraphic"/></feMerge></filter></defs><g xmlns="http://www.w3.org/2000/svg" style=""><g fill="#ffffff" fill-opacity="1"><rect width="1029" height="500"/></g><g><g role="region" clip-path="url(#id-46)" opacity="1" aria-label="Chart"><g><g><g><g><g><g transform="translate(514.5,250)"><g><g role="group" aria-label="Series"><g><g clip-path="url(#id-78)"><g/></g><g/><g><g><g stroke-opacity="1" stroke="#ffffff" role="menuitem" focusable="true" tabindex="0" fill="#67b7dc" id="id-102" transform="translate(0,0)"><g><g><path d=" M0,0  L0,-200  a200,200,0,0,1,199.9695,203.4905 L0,0 "/></g><g/></g></g><g stroke-opacity="1" stroke="#ffffff" role="menuitem" focusable="true" tabindex="0" fill="#6794dc"><g><g><path d=" M0,0  L199.9695,3.4905  a200,200,0,0,1,-278.1158,180.6105 L0,0 "/></g><g/></g></g><g stroke-opacity="1" stroke="#ffffff" role="menuitem" focusable="true" tabindex="0" fill="#6771dc"><g><g><path d=" M0,0  L-78.1462,184.101  a200,200,0,0,1,-77.283,-309.965 L0,0 "/></g><g/></g></g><g stroke-opacity="1" stroke="#ffffff" role="menuitem" focusable="true" tabindex="0" fill="#8067dc" id="id-156" transform="translate(0,0)"><g><g><path d=" M0,0  L-155.4292,-125.8641  a200,200,0,0,1,93.6258,-64.3472 L0,0 "/></g><g/></g></g><g stroke-opacity="1" stroke="#ffffff" role="menuitem" focusable="true" tabindex="0" fill="#a367dc" id="id-173" transform="translate(0,0)"><g><g><path d=" M0,0  L-61.8034,-190.2113  a200,200,0,0,1,61.8034,-9.7887 L0,0 "/></g><g/></g></g></g></g><g><g><g fill-opacity="0" stroke-opacity="0.2" stroke="#000000" stroke-width="1"><polyline points="142.65008984,-140.18185286,210,-151.396,216,-151.396"/></g><g fill-opacity="0" stroke-opacity="0.2" stroke="#000000" stroke-width="1"><polyline points="108.927807,167.73411358,210,181.153,216,181.153"/></g><g fill-opacity="0" stroke-opacity="0.2" stroke="#000000" stroke-width="1"><polyline points="-194.05914526,48.38437912,-210,52.255,-216,52.255"/></g><g fill-opacity="0" stroke-opacity="0.2" stroke="#000000" stroke-width="1"><polyline points="-113.28124738000001,-164.82523772,-210,-178.011,-216,-178.011"/></g><g fill-opacity="0" stroke-opacity="0.2" stroke="#000000" stroke-width="1"><polyline points="-31.286893,-197.53766812,-210,-213.341,-216,-213.341"/></g></g></g><g><g><g fill="#000000" aria-label="I commit to a project until I reach&#10; a defined end goal before moving&#10; on to the next: 25.3%" transform="translate(216,-151.396)"><g transform="translate(5,-31.5)" style="user-select: none;"><text x="0" y="21" dy="-5.67"><tspan>I commit to a project until I reach</tspan></text><text x="0" y="42" dy="-5.67"><tspan> a defined end goal before moving</tspan></text><text x="0" y="63" dy="-5.67"><tspan> on to the next: 25.3%</tspan></text></g></g><g fill="#000000" aria-label="I start a project but quickly lose&#10; motivation and usually don't&#10; complete a project: 31.1%" transform="translate(216,181.153)"><g transform="translate(5,-31.5)" style="user-select: none;"><text x="0" y="21" dy="-5.67"><tspan>I start a project but quickly lose</tspan></text><text x="0" y="42" dy="-5.67"><tspan> motivation and usually don't</tspan></text><text x="0" y="63" dy="-5.67"><tspan> complete a project: 31.1%</tspan></text></g></g><g fill="#000000" aria-label="I have lots of projects on the go.&#10; Switching between them keeps&#10; me motivated: 29.4%" transform="translate(-216,52.255)"><g transform="translate(-233,-31.5)" style="user-select: none;"><text x="0" y="21" dy="-5.67"><tspan>I have lots of projects on the go.</tspan></text><text x="0" y="42" dy="-5.67"><tspan> Switching between them keeps</tspan></text><text x="0" y="63" dy="-5.67"><tspan> me motivated: 29.4%</tspan></text></g></g><g fill="#000000" aria-label="I need to have some collaborators&#10; in order to keep myself motivated: 9.2%" transform="translate(-216,-178.011)"><g transform="translate(-286,-21)" style="user-select: none;"><text x="0" y="21" dy="-5.67"><tspan>I need to have some collaborators</tspan></text><text x="0" y="42" dy="-5.67"><tspan> in order to keep myself motivated: 9.2%</tspan></text></g></g><g fill="#000000" aria-label="Other: 5.0%" transform="translate(-216,-213.341)"><g transform="translate(-88,-10.5)" style="user-select: none;"><text x="0" y="21" dy="-5.67"><tspan>Other: 5.0%</tspan></text></g></g></g></g></g></g></g></g><g transform="translate(465.5,250)"><g><g><g/></g></g></g></g></g></g></g></g></g><g><g><g role="tooltip" visibility="hidden" opacity="0"><g fill="#ffffff" fill-opacity="0.9" stroke-width="1" stroke-opacity="1" stroke="#ffffff" filter="url(#filter-id-51)" transform="translate(0,6)" style="pointer-events: none;"><path d="M3,0 L3,0 L0,-6 L13,0 L21,0 a3,3 0 0 1 3,3 L24,8 a3,3 0 0 1 -3,3 L3,11 a3,3 0 0 1 -3,-3 L0,3 a3,3 0 0 1 3,-3"/></g><g><g fill="#ffffff" transform="translate(12,6)" style="pointer-events: none;"><g transform="translate(0,7)" display="none"/></g></g></g><g visibility="hidden" style="pointer-events: none;" display="none"><g fill="#ffffff" opacity="1"><rect width="1029" height="500"/></g><g><g transform="translate(465.5,250)"><g><g stroke-opacity="1" fill="#f3f3f3" fill-opacity="0.8"><g><g><path d=" M53,0  a53,53,0,0,1,-106,0 a53,53,0,0,1,106,0 M42,0  a42,42,0,0,0,-84,0 a42,42,0,0,0,84,0 L42,0 "/></g></g></g><g stroke-opacity="1" fill="#000000" fill-opacity="0.2"><g><g><path d=" M50,0  a50,50,0,0,1,-100,0 a50,50,0,0,1,100,0 M45,0  a45,45,0,0,0,-90,0 a45,45,0,0,0,90,0 L45,0 "/></g></g></g><g fill="#000000" fill-opacity="0.4"><g transform="translate(-19.5,-10.5)" style="user-select: none;"><text x="19.5px" y="21" dy="-5.67" text-anchor="middle"><tspan>100%</tspan></text></g></g></g></g></g></g><g opacity="0.3" aria-labelledby="id-66-title" filter="url(#filter-id-66)" transform="translate(0,479)" style="cursor: pointer;"><g fill="#ffffff" opacity="0"><rect width="66" height="21"/></g><g><g shape-rendering="auto" fill="none" stroke-opacity="1" stroke-width="1.7999999999999998" stroke="#3cabff"><path d=" M15,15  C17.4001,15 22.7998,15.0001 27,15 C31.2002,14.9999 33.2999,6 36,6 C38.7001,6 38.6999,10.5 40.5,10.5 C42.3001,10.5 42.2999,6 45,6 C47.7001,6 50.9999,14.9999 54,15 C57.0002,15.0001 58.7999,15 60,15"/></g><g shape-rendering="auto" fill="none" stroke-opacity="1" stroke-width="1.7999999999999998" stroke="url(#gradient-id-69)"><path d=" M6,15  C8.2501,15 9.7498,15.0001 15,15 C20.2502,14.9999 20.7748,3.6 27,3.6 C33.2252,3.6 33.8998,14.9999 39.9,15 C45.9002,15.0001 45.9748,15 51,15 C56.0252,15 57.7499,15 60,15"/></g></g><title id="id-66-title">Chart created using amCharts library</title></g><g role="tooltip" opacity="0" aria-describedby="id-102" transform="translate(585.825,179.9091)" aria-hidden="true" visibility="hidden"><g fill="#67b7dc" fill-opacity="0.9" stroke-width="1" stroke-opacity="1" stroke="#ffffff" filter="url(#filter-id-83)" transform="translate(-132.5,-80)" style="pointer-events: none;"><path d="M3,0 L262,0 a3,3 0 0 1 3,3 L265,71 a3,3 0 0 1 -3,3 L262,74 L137.5,74 L132.5,80 L127.5,74 L3,74 a3,3 0 0 1 -3,-3 L0,3 a3,3 0 0 1 3,-3"/></g><g><g fill="#000000" transform="translate(0,-80)" style="pointer-events: none;"><g transform="translate(-120.5,7)" style="user-select: none;"><text x="0" y="21" dy="-5.67"><tspan>I commit to a project until I reach</tspan></text><text x="0" y="42" dy="-5.67"><tspan> a defined end goal before moving</tspan></text><text x="0" y="63" dy="-5.67"><tspan> on to the next: 25.3% (91)</tspan></text></g></g></g></g></g></g></g></g></svg>