<?xml version="1.0" encoding="utf-8"?><svg width="1002px" height="500px" viewBox="0 0 1002 500"  style="font-family: -apple-system, BlinkMacSystemFont, Segoe UI, Roboto, Helvetica, Arial, sans-serif, Apple Color Emoji, Segoe UI Emoji, Segoe UI Symbol;font-size: 16px;" version="1.1" xmlns="http://www.w3.org/2000/svg" xmlns:xlink="http://www.w3.org/1999/xlink"><defs xmlns="http://www.w3.org/2000/svg"><clipPath id="id-46"><rect width="1002" height="500"/></clipPath><linearGradient id="gradient-id-69" x1="1%" x2="99%" y1="59%" y2="41%"><stop stop-color="#474758" offset="0"/><stop stop-color="#474758" stop-opacity="1" offset="0.75"/><stop stop-color="#3cabff" stop-opacity="1" offset="0.755"/></linearGradient><clipPath id="id-78"/><filter id="filter-id-51" filterUnits="objectBoundingBox" width="200%" height="200%" x="-50%" y="-50%"><feGaussianBlur result="blurOut" in="SourceGraphic" stdDeviation="1.5"/><feOffset result="offsetBlur" dx="1" dy="1"/><feFlood flood-color="#000000" flood-opacity="0.5"/><feComposite in2="offsetBlur" operator="in"/><feMerge><feMergeNode/><feMergeNode in="SourceGraphic"/></feMerge></filter><filter id="filter-id-66" filterUnits="objectBoundingBox" width="120%" height="120%" x="-10%" y="-10%"><feColorMatrix type="saturate" values="0"/></filter><filter id="filter-id-83" filterUnits="objectBoundingBox" width="200%" height="200%" x="-50%" y="-50%"><feGaussianBlur result="blurOut" in="SourceGraphic" stdDeviation="1.5"/><feOffset result="offsetBlur" dx="1" dy="1"/><feFlood flood-color="#000000" flood-opacity="0.5"/><feComposite in2="offsetBlur" operator="in"/><feMerge><feMergeNode/><feMergeNode in="SourceGraphic"/></feMerge></filter></defs><g xmlns="http://www.w3.org/2000/svg" style=""><g fill="#ffffff" fill-opacity="0"><rect width="1002" height="500"/></g><g><g role="region" clip-path="url(#id-46)" opacity="1" aria-label="Chart"><g><g><g><g><g><g transform="translate(501,250)"><g><g role="group" aria-label="Series"><g><g clip-path="url(#id-78)"><g/></g><g/><g><g><g stroke-opacity="1" stroke="#ffffff" role="menuitem" focusable="true" tabindex="0" fill="#67b7dc"><g><g><path d=" M0,0  L0,-200  a200,200,0,0,1,146.2421,336.4304 a200,200,0,0,1,-345.7608,-122.563 L0,0 "/></g><g/></g></g><g stroke-opacity="1" stroke="#ffffff" role="menuitem" focusable="true" tabindex="0" fill="#6794dc"><g><g><path d=" M0,0  L-199.5187,13.8674  a200,200,0,0,1,130.3248,-201.5166 L0,0 "/></g><g/></g></g><g stroke-opacity="1" stroke="#ffffff" role="menuitem" focusable="true" tabindex="0" fill="#6771dc"><g><g><path d=" M0,0  L-69.1938,-187.6492  a200,200,0,0,1,69.1938,-12.3508 L0,0 "/></g><g/></g></g></g></g><g><g><g fill-opacity="0" stroke-opacity="0.2" stroke="#000000" stroke-width="1"><polyline points="146.24205487999998,136.43042690000001,210,147.345,216,147.345"/></g><g fill-opacity="0" stroke-opacity="0.2" stroke="#000000" stroke-width="1"><polyline points="-167.93996176,-108.61017100000001,-210,-117.299,-216,-117.299"/></g><g fill-opacity="0" stroke-opacity="0.2" stroke="#000000" stroke-width="1"><polyline points="-35.14373044,-196.88808550000002,-210,-212.639,-216,-212.639"/></g></g></g><g><g><g fill="#000000" aria-label="I would like to contribute&#10; to more open source projects: 73.9%" transform="translate(216,147.345)"><g transform="translate(5,-21)" style="user-select: none;"><text x="0" y="21" dy="-5.67"><tspan>I would like to contribute</tspan></text><text x="0" y="42" dy="-5.67"><tspan> to more open source projects: 73.9%</tspan></text></g></g><g fill="#000000" aria-label="I'm happy with my current level&#10; of open source contribution: 20.5%" transform="translate(-216,-117.299)"><g transform="translate(-253,-21)" style="user-select: none;"><text x="0" y="21" dy="-5.67"><tspan>I'm happy with my current level</tspan></text><text x="0" y="42" dy="-5.67"><tspan> of open source contribution: 20.5%</tspan></text></g></g><g fill="#000000" aria-label="I would like to only contribute&#10; to open source projects: 5.6%" transform="translate(-216,-212.639)"><g transform="translate(-217,-21)" style="user-select: none;"><text x="0" y="21" dy="-5.67"><tspan>I would like to only contribute</tspan></text><text x="0" y="42" dy="-5.67"><tspan> to open source projects: 5.6%</tspan></text></g></g></g></g></g></g></g></g><g transform="translate(501,250)"><g><g><g/></g></g></g></g></g></g></g></g></g><g><g><g role="tooltip" visibility="hidden" opacity="0"><g fill="#ffffff" fill-opacity="0.9" stroke-width="1" stroke-opacity="1" stroke="#ffffff" filter="url(#filter-id-51)" transform="translate(0,6)" style="pointer-events: none;"><path d="M3,0 L3,0 L0,-6 L13,0 L21,0 a3,3 0 0 1 3,3 L24,8 a3,3 0 0 1 -3,3 L3,11 a3,3 0 0 1 -3,-3 L0,3 a3,3 0 0 1 3,-3"/></g><g><g fill="#ffffff" transform="translate(12,6)" style="pointer-events: none;"><g transform="translate(0,7)" display="none"/></g></g></g><g visibility="hidden" style="pointer-events: none;" display="none"><g fill="#ffffff" opacity="1"><rect width="1002" height="500"/></g><g><g transform="translate(501,250)"><g><g stroke-opacity="1" fill="#f3f3f3" fill-opacity="0.8"><g><g><path d=" M53,0  a53,53,0,0,1,-106,0 a53,53,0,0,1,106,0 M42,0  a42,42,0,0,0,-84,0 a42,42,0,0,0,84,0 L42,0 "/></g></g></g><g stroke-opacity="1" fill="#000000" fill-opacity="0.2"><g><g><path d=" M50,0  a50,50,0,0,1,-100,0 a50,50,0,0,1,100,0 M45,0  a45,45,0,0,0,-90,0 a45,45,0,0,0,90,0 L45,0 "/></g></g></g><g fill="#000000" fill-opacity="0.4"><g transform="translate(-19.5,-10.5)" style="user-select: none;"><text x="19.5px" y="21" dy="-5.67" text-anchor="middle"><tspan>100%</tspan></text></g></g></g></g></g></g><g opacity="0.3" aria-labelledby="id-66-title" filter="url(#filter-id-66)" transform="translate(0,479)" style="cursor: pointer;"><g fill="#ffffff" opacity="0"><rect width="66" height="21"/></g><g><g shape-rendering="auto" fill="none" stroke-opacity="1" stroke-width="1.7999999999999998" stroke="#3cabff"><path d=" M15,15  C17.4001,15 22.7998,15.0001 27,15 C31.2002,14.9999 33.2999,6 36,6 C38.7001,6 38.6999,10.5 40.5,10.5 C42.3001,10.5 42.2999,6 45,6 C47.7001,6 50.9999,14.9999 54,15 C57.0002,15.0001 58.7999,15 60,15"/></g><g shape-rendering="auto" fill="none" stroke-opacity="1" stroke-width="1.7999999999999998" stroke="url(#gradient-id-69)"><path d=" M6,15  C8.2501,15 9.7498,15.0001 15,15 C20.2502,14.9999 20.7748,3.6 27,3.6 C33.2252,3.6 33.8998,14.9999 39.9,15 C45.9002,15.0001 45.9748,15 51,15 C56.0252,15 57.7499,15 60,15"/></g></g><title id="id-66-title">Chart created using amCharts library</title></g><g role="tooltip" visibility="hidden" opacity="0"><g fill="#ffffff" fill-opacity="0.9" stroke-width="1" stroke-opacity="1" stroke="#ffffff" filter="url(#filter-id-83)" transform="translate(0,6)" style="pointer-events: none;"><path d="M3,0 L3,0 L0,-6 L13,0 L21,0 a3,3 0 0 1 3,3 L24,8 a3,3 0 0 1 -3,3 L3,11 a3,3 0 0 1 -3,-3 L0,3 a3,3 0 0 1 3,-3"/></g><g><g fill="#ffffff" transform="translate(12,6)" style="pointer-events: none;"><g transform="translate(0,7)" display="none"/></g></g></g></g></g></g></g></svg>