<?xml version="1.0" encoding="utf-8"?><svg width="948px" height="500px" viewBox="0 0 948 500"  style="font-family: -apple-system, BlinkMacSystemFont, Segoe UI, Roboto, Helvetica, Arial, sans-serif, Apple Color Emoji, Segoe UI Emoji, Segoe UI Symbol;font-size: 16px;" version="1.1" xmlns="http://www.w3.org/2000/svg" xmlns:xlink="http://www.w3.org/1999/xlink"><defs xmlns="http://www.w3.org/2000/svg"><clipPath id="id-46"><rect width="948" height="500"/></clipPath><linearGradient id="gradient-id-69" x1="1%" x2="99%" y1="59%" y2="41%"><stop stop-color="#474758" offset="0"/><stop stop-color="#474758" stop-opacity="1" offset="0.75"/><stop stop-color="#3cabff" stop-opacity="1" offset="0.755"/></linearGradient><clipPath id="id-78"/><filter id="filter-id-51" filterUnits="objectBoundingBox" width="200%" height="200%" x="-50%" y="-50%"><feGaussianBlur result="blurOut" in="SourceGraphic" stdDeviation="1.5"/><feOffset result="offsetBlur" dx="1" dy="1"/><feFlood flood-color="#000000" flood-opacity="0.5"/><feComposite in2="offsetBlur" operator="in"/><feMerge><feMergeNode/><feMergeNode in="SourceGraphic"/></feMerge></filter><filter id="filter-id-66" filterUnits="objectBoundingBox" width="120%" height="120%" x="-10%" y="-10%"><feColorMatrix type="saturate" values="0"/></filter><filter id="filter-id-83" filterUnits="objectBoundingBox" width="200%" height="200%" x="-50%" y="-50%"><feGaussianBlur result="blurOut" in="SourceGraphic" stdDeviation="1.5"/><feOffset result="offsetBlur" dx="1" dy="1"/><feFlood flood-color="#000000" flood-opacity="0.5"/><feComposite in2="offsetBlur" operator="in"/><feMerge><feMergeNode/><feMergeNode in="SourceGraphic"/></feMerge></filter></defs><g xmlns="http://www.w3.org/2000/svg" style=""><g fill="#ffffff" fill-opacity="1"><rect width="948" height="500"/></g><g><g role="region" clip-path="url(#id-46)" opacity="1" aria-label="Chart"><g><g><g><g><g><g transform="translate(474,250)"><g><g role="group" aria-label="Series"><g><g clip-path="url(#id-78)"><g/></g><g/><g><g><g stroke-opacity="1" stroke="#ffffff" role="menuitem" focusable="true" tabindex="0" fill="#67b7dc" id="id-106" transform="translate(0,0)"><g><g><path d=" M0,0  L0,-200  a200,200,0,0,1,10.3239,0.2666 L0,0 "/></g><g/></g></g><g stroke-opacity="1" stroke="#ffffff" role="menuitem" focusable="true" tabindex="0" fill="#6794dc" id="id-126" transform="translate(0,0)"><g><g><path d=" M0,0  L10.3239,-199.7334  a200,200,0,0,1,164.8544,103.2318 L0,0 "/></g><g/></g></g><g stroke-opacity="1" stroke="#ffffff" role="menuitem" focusable="true" tabindex="0" fill="#6771dc" id="id-143" transform="translate(0,0)"><g><g><path d=" M0,0  L175.1783,-96.5015  a200,200,0,0,1,-221.2395,291.1252 L0,0 "/></g><g/></g></g><g stroke-opacity="1" stroke="#ffffff" role="menuitem" focusable="true" tabindex="0" fill="#8067dc" id="id-160" transform="translate(0,0)"><g><g><path d=" M0,0  L-46.0611,194.6237  a200,200,0,0,1,-122.9887,-87.7492 L0,0 "/></g><g/></g></g><g stroke-opacity="1" stroke="#ffffff" role="menuitem" focusable="true" tabindex="0" fill="#a367dc" id="id-177" transform="translate(0,0)"><g><g><path d=" M0,0  L-169.0498,106.8745  a200,200,0,0,1,-18.3265,-36.945 L0,0 "/></g><g/></g></g><g stroke-opacity="1" stroke="#ffffff" role="menuitem" focusable="true" tabindex="0" fill="#c767dc" id="id-194" transform="translate(0,0)"><g><g><path d=" M0,0  L-187.3763,69.9295  a200,200,0,0,1,55.0493,-219.8948 L0,0 "/></g><g/></g></g><g stroke-opacity="1" stroke="#ffffff" role="menuitem" focusable="true" tabindex="0" fill="#dc67ce" id="id-211" transform="translate(0,0)"><g><g><path d=" M0,0  L-132.3269,-149.9653  a200,200,0,0,1,48.8882,-31.7982 L0,0 "/></g><g/></g></g><g stroke-opacity="1" stroke="#ffffff" role="menuitem" focusable="true" tabindex="0" fill="#dc67ab" id="id-228" transform="translate(0,0)"><g><g><path d=" M0,0  L-83.4387,-181.7635  a200,200,0,0,1,12.7035,-5.3101 L0,0 "/></g><g/></g></g><g stroke-opacity="1" stroke="#ffffff" role="menuitem" focusable="true" tabindex="0" fill="#dc6788" id="id-245" transform="translate(0,0)"><g><g><path d=" M0,0  L-70.7352,-187.0736  a200,200,0,0,1,70.7352,-12.9264 L0,0 "/></g><g/></g></g></g></g><g><g><g fill-opacity="0" stroke-opacity="0.2" stroke="#000000" stroke-width="1"><polyline points="5.16368804,-199.9333297,210,-215.928,216,-215.928"/></g><g fill-opacity="0" stroke-opacity="0.2" stroke="#000000" stroke-width="1"><polyline points="106.14600964,-169.50818458,210,-183.069,216,-183.069"/></g><g fill-opacity="0" stroke-opacity="0.2" stroke="#000000" stroke-width="1"><polyline points="159.23657276,121.01121392,210,130.692,216,130.692"/></g><g fill-opacity="0" stroke-opacity="0.2" stroke="#000000" stroke-width="1"><polyline points="-116.16005469999999,162.8092187,-210,175.834,-216,175.834"/></g><g fill-opacity="0" stroke-opacity="0.2" stroke="#000000" stroke-width="1"><polyline points="-179.16785814,88.87563562,-210,95.986,-216,95.986"/></g><g fill-opacity="0" stroke-opacity="0.2" stroke="#000000" stroke-width="1"><polyline points="-194.01278438,-48.56994442,-210,-52.456,-216,-52.456"/></g><g fill-opacity="0" stroke-opacity="0.2" stroke="#000000" stroke-width="1"><polyline points="-109.04808770000001,-167.65594104,-210,-150.481,-216,-150.481"/></g><g fill-opacity="0" stroke-opacity="0.2" stroke="#000000" stroke-width="1"><polyline points="-77.13268124,-184.52790976,-210,-181.481,-216,-181.481"/></g><g fill-opacity="0" stroke-opacity="0.2" stroke="#000000" stroke-width="1"><polyline points="-35.95331714,-196.74185876,-210,-212.481,-216,-212.481"/></g></g></g><g><g><g fill="#000000" aria-label="No formal education: 0.8%" transform="translate(216,-215.928)"><g transform="translate(5,-10.5)" style="user-select: none;"><text x="0" y="21" dy="-5.67"><tspan>No formal education: 0.8%</tspan></text></g></g><g fill="#000000" aria-label="Primary/elementary school: 16.2%" transform="translate(216,-183.069)"><g transform="translate(5,-10.5)" style="user-select: none;"><text x="0" y="21" dy="-5.67"><tspan>Primary/elementary school: 16.2%</tspan></text></g></g><g fill="#000000" aria-label="Secondary/high school: 36.7%" transform="translate(216,130.692)"><g transform="translate(5,-10.5)" style="user-select: none;"><text x="0" y="21" dy="-5.67"><tspan>Secondary/high school: 36.7%</tspan></text></g></g><g fill="#000000" aria-label="College/University without earning a degree: 12.3%" transform="translate(-216,175.834)"><g transform="translate(-367,-10.5)" style="user-select: none;"><text x="0" y="21" dy="-5.67"><tspan>College/University without earning a degree: 12.3%</tspan></text></g></g><g fill="#000000" aria-label="Associate degree: 3.3%" transform="translate(-216,95.986)"><g transform="translate(-169,-10.5)" style="user-select: none;"><text x="0" y="21" dy="-5.67"><tspan>Associate degree: 3.3%</tspan></text></g></g><g fill="#000000" aria-label="Bachelor's degree: 19.2%" transform="translate(-216,-52.456)"><g transform="translate(-181,-10.5)" style="user-select: none;"><text x="0" y="21" dy="-5.67"><tspan>Bachelor's degree: 19.2%</tspan></text></g></g><g fill="#000000" aria-label="Master's degree: 4.7%" transform="translate(-216,-150.481)"><g transform="translate(-160,-10.5)" style="user-select: none;"><text x="0" y="21" dy="-5.67"><tspan>Master's degree: 4.7%</tspan></text></g></g><g fill="#000000" aria-label="PhD: 1.1%" transform="translate(-216,-181.481)"><g transform="translate(-76,-10.5)" style="user-select: none;"><text x="0" y="21" dy="-5.67"><tspan>PhD: 1.1%</tspan></text></g></g><g fill="#000000" aria-label="Other: 5.8%" transform="translate(-216,-212.481)"><g transform="translate(-88,-10.5)" style="user-select: none;"><text x="0" y="21" dy="-5.67"><tspan>Other: 5.8%</tspan></text></g></g></g></g></g></g></g></g><g transform="translate(474,250)"><g><g><g/></g></g></g></g></g></g></g></g></g><g><g><g role="tooltip" visibility="hidden" opacity="0"><g fill="#ffffff" fill-opacity="0.9" stroke-width="1" stroke-opacity="1" stroke="#ffffff" filter="url(#filter-id-51)" transform="translate(0,6)" style="pointer-events: none;"><path d="M3,0 L3,0 L0,-6 L13,0 L21,0 a3,3 0 0 1 3,3 L24,8 a3,3 0 0 1 -3,3 L3,11 a3,3 0 0 1 -3,-3 L0,3 a3,3 0 0 1 3,-3"/></g><g><g fill="#ffffff" transform="translate(12,6)" style="pointer-events: none;"><g transform="translate(0,7)" display="none"/></g></g></g><g visibility="hidden" style="pointer-events: none;" display="none"><g fill="#ffffff" opacity="1"><rect width="948" height="500"/></g><g><g transform="translate(474,250)"><g><g stroke-opacity="1" fill="#f3f3f3" fill-opacity="0.8"><g><g><path d=" M53,0  a53,53,0,0,1,-106,0 a53,53,0,0,1,106,0 M42,0  a42,42,0,0,0,-84,0 a42,42,0,0,0,84,0 L42,0 "/></g></g></g><g stroke-opacity="1" fill="#000000" fill-opacity="0.2"><g><g><path d=" M50,0  a50,50,0,0,1,-100,0 a50,50,0,0,1,100,0 M45,0  a45,45,0,0,0,-90,0 a45,45,0,0,0,90,0 L45,0 "/></g></g></g><g fill="#000000" fill-opacity="0.4"><g transform="translate(-19.5,-10.5)" style="user-select: none;"><text x="19.5px" y="21" dy="-5.67" text-anchor="middle"><tspan>100%</tspan></text></g></g></g></g></g></g><g opacity="0.3" aria-labelledby="id-66-title" filter="url(#filter-id-66)" transform="translate(0,479)" style="cursor: pointer;"><g fill="#ffffff" opacity="0"><rect width="66" height="21"/></g><g><g shape-rendering="auto" fill="none" stroke-opacity="1" stroke-width="1.7999999999999998" stroke="#3cabff"><path d=" M15,15  C17.4001,15 22.7998,15.0001 27,15 C31.2002,14.9999 33.2999,6 36,6 C38.7001,6 38.6999,10.5 40.5,10.5 C42.3001,10.5 42.2999,6 45,6 C47.7001,6 50.9999,14.9999 54,15 C57.0002,15.0001 58.7999,15 60,15"/></g><g shape-rendering="auto" fill="none" stroke-opacity="1" stroke-width="1.7999999999999998" stroke="url(#gradient-id-69)"><path d=" M6,15  C8.2501,15 9.7498,15.0001 15,15 C20.2502,14.9999 20.7748,3.6 27,3.6 C33.2252,3.6 33.8998,14.9999 39.9,15 C45.9002,15.0001 45.9748,15 51,15 C56.0252,15 57.7499,15 60,15"/></g></g><title id="id-66-title">Chart created using amCharts library</title></g><g role="tooltip" opacity="0" aria-describedby="id-194" transform="translate(376.2915,225.5393)" aria-hidden="true" visibility="hidden"><g fill="#c767dc" fill-opacity="0.9" stroke-width="1" stroke-opacity="1" stroke="#ffffff" filter="url(#filter-id-83)" transform="translate(-116,-38)" style="pointer-events: none;"><path d="M3,0 L229,0 a3,3 0 0 1 3,3 L232,29 a3,3 0 0 1 -3,3 L229,32 L121,32 L116,38 L111,32 L3,32 a3,3 0 0 1 -3,-3 L0,3 a3,3 0 0 1 3,-3"/></g><g><g fill="#000000" transform="translate(0,-38)" style="pointer-events: none;"><g transform="translate(-104,7)" style="user-select: none;"><text x="0" y="21" dy="-5.67"><tspan>Bachelor's degree: 19.2% (70)</tspan></text></g></g></g></g></g></g></g></g></svg>