<?xml version="1.0" encoding="utf-8"?><svg width="948px" height="500px" viewBox="0 0 948 500"  style="font-family: -apple-system, BlinkMacSystemFont, Segoe UI, Roboto, Helvetica, Arial, sans-serif, Apple Color Emoji, Segoe UI Emoji, Segoe UI Symbol;font-size: 16px;" version="1.1" xmlns="http://www.w3.org/2000/svg" xmlns:xlink="http://www.w3.org/1999/xlink"><defs xmlns="http://www.w3.org/2000/svg"><clipPath id="id-46"><rect width="948" height="500"/></clipPath><linearGradient id="gradient-id-69" x1="1%" x2="99%" y1="59%" y2="41%"><stop stop-color="#474758" offset="0"/><stop stop-color="#474758" stop-opacity="1" offset="0.75"/><stop stop-color="#3cabff" stop-opacity="1" offset="0.755"/></linearGradient><clipPath id="id-78"/><filter id="filter-id-51" filterUnits="objectBoundingBox" width="200%" height="200%" x="-50%" y="-50%"><feGaussianBlur result="blurOut" in="SourceGraphic" stdDeviation="1.5"/><feOffset result="offsetBlur" dx="1" dy="1"/><feFlood flood-color="#000000" flood-opacity="0.5"/><feComposite in2="offsetBlur" operator="in"/><feMerge><feMergeNode/><feMergeNode in="SourceGraphic"/></feMerge></filter><filter id="filter-id-66" filterUnits="objectBoundingBox" width="120%" height="120%" x="-10%" y="-10%"><feColorMatrix type="saturate" values="0"/></filter><filter id="filter-id-83" filterUnits="objectBoundingBox" width="200%" height="200%" x="-50%" y="-50%"><feGaussianBlur result="blurOut" in="SourceGraphic" stdDeviation="1.5"/><feOffset result="offsetBlur" dx="1" dy="1"/><feFlood flood-color="#000000" flood-opacity="0.5"/><feComposite in2="offsetBlur" operator="in"/><feMerge><feMergeNode/><feMergeNode in="SourceGraphic"/></feMerge></filter></defs><g xmlns="http://www.w3.org/2000/svg" style=""><g fill="#ffffff" fill-opacity="1"><rect width="948" height="500"/></g><g><g role="region" clip-path="url(#id-46)" opacity="1" aria-label="Chart"><g><g><g><g><g><g transform="translate(474,250)"><g><g role="group" aria-label="Series"><g><g clip-path="url(#id-78)"><g/></g><g/><g><g><g stroke-opacity="1" stroke="#ffffff" role="menuitem" focusable="true" tabindex="0" fill="#67b7dc" id="id-104" transform="translate(0,0)"><g><g><path d=" M0,0  L0,-200  a200,200,0,0,1,8.6044,399.8148 L0,0 "/></g><g/></g></g><g stroke-opacity="1" stroke="#ffffff" role="menuitem" focusable="true" tabindex="0" fill="#6794dc" id="id-124" transform="translate(0,0)"><g><g><path d=" M0,0  L8.6044,199.8148  a200,200,0,0,1,-207.0489,-224.7107 L0,0 "/></g><g/></g></g><g stroke-opacity="1" stroke="#ffffff" role="menuitem" focusable="true" tabindex="0" fill="#6771dc" id="id-141" transform="translate(0,0)"><g><g><path d=" M0,0  L-198.4444,-24.8959  a200,200,0,0,1,30.3208,-83.4297 L0,0 "/></g><g/></g></g><g stroke-opacity="1" stroke="#ffffff" role="menuitem" focusable="true" tabindex="0" fill="#8067dc" id="id-158" transform="translate(0,0)"><g><g><path d=" M0,0  L-168.1237,-108.3256  a200,200,0,0,1,38.3978,-43.8953 L0,0 "/></g><g/></g></g><g stroke-opacity="1" stroke="#ffffff" role="menuitem" focusable="true" tabindex="0" fill="#a367dc" id="id-175" transform="translate(0,0)"><g><g><path d=" M0,0  L-129.7259,-152.2209  a200,200,0,0,1,55.781,-33.6074 L0,0 "/></g><g/></g></g><g stroke-opacity="1" stroke="#ffffff" role="menuitem" focusable="true" tabindex="0" fill="#c767dc" id="id-192" transform="translate(0,0)"><g><g><path d=" M0,0  L-73.9449,-185.8283  a200,200,0,0,1,32.924,-9.9197 L0,0 "/></g><g/></g></g><g stroke-opacity="1" stroke="#ffffff" role="menuitem" focusable="true" tabindex="0" fill="#dc67ce" id="id-209" transform="translate(0,0)"><g><g><path d=" M0,0  L-41.0209,-195.748  a200,200,0,0,1,41.0209,-4.252 L0,0 "/></g><g/></g></g></g></g><g><g><g fill-opacity="0" stroke-opacity="0.2" stroke="#000000" stroke-width="1"><polyline points="199.9537004,-4.30321948,210,-4.647,216,-4.647"/></g><g fill-opacity="0" stroke-opacity="0.2" stroke="#000000" stroke-width="1"><polyline points="-147.0834046,135.5229578,-210,146.365,-216,146.365"/></g><g fill-opacity="0" stroke-opacity="0.2" stroke="#000000" stroke-width="1"><polyline points="-187.97121158000002,-68.31415384,-210,-73.779,-216,-73.779"/></g><g fill-opacity="0" stroke-opacity="0.2" stroke="#000000" stroke-width="1"><polyline points="-150.5333655,-131.68031694,-210,-121.849,-216,-121.849"/></g><g fill-opacity="0" stroke-opacity="0.2" stroke="#000000" stroke-width="1"><polyline points="-103.21247819999999,-171.31019917999998,-210,-152.849,-216,-152.849"/></g><g fill-opacity="0" stroke-opacity="0.2" stroke="#000000" stroke-width="1"><polyline points="-57.69648658,-191.49703768,-210,-183.849,-216,-183.849"/></g><g fill-opacity="0" stroke-opacity="0.2" stroke="#000000" stroke-width="1"><polyline points="-20.62033948,-198.93416398,-210,-214.849,-216,-214.849"/></g></g></g><g><g><g fill="#000000" aria-label="Student (full time): 49.3%" transform="translate(216,-4.647)"><g transform="translate(5,-10.5)" style="user-select: none;"><text x="0" y="21" dy="-5.67"><tspan>Student (full time): 49.3%</tspan></text></g></g><g fill="#000000" aria-label="Employed (full time): 27.7%" transform="translate(-216,146.365)"><g transform="translate(-198,-10.5)" style="user-select: none;"><text x="0" y="21" dy="-5.67"><tspan>Employed (full time): 27.7%</tspan></text></g></g><g fill="#000000" aria-label="Rather not say: 7.1%" transform="translate(-216,-73.779)"><g transform="translate(-149,-10.5)" style="user-select: none;"><text x="0" y="21" dy="-5.67"><tspan>Rather not say: 7.1%</tspan></text></g></g><g fill="#000000" aria-label="Student (part time): 4.7%" transform="translate(-216,-121.849)"><g transform="translate(-180,-10.5)" style="user-select: none;"><text x="0" y="21" dy="-5.67"><tspan>Student (part time): 4.7%</tspan></text></g></g><g fill="#000000" aria-label="Employed (part time): 5.2%" transform="translate(-216,-152.849)"><g transform="translate(-196,-10.5)" style="user-select: none;"><text x="0" y="21" dy="-5.67"><tspan>Employed (part time): 5.2%</tspan></text></g></g><g fill="#000000" aria-label="Employed (internship): 2.7%" transform="translate(-216,-183.849)"><g transform="translate(-202,-10.5)" style="user-select: none;"><text x="0" y="21" dy="-5.67"><tspan>Employed (internship): 2.7%</tspan></text></g></g><g fill="#000000" aria-label="Self employed: 3.3%" transform="translate(-216,-214.849)"><g transform="translate(-148,-10.5)" style="user-select: none;"><text x="0" y="21" dy="-5.67"><tspan>Self employed: 3.3%</tspan></text></g></g></g></g></g></g></g></g><g transform="translate(474,250)"><g><g><g/></g></g></g></g></g></g></g></g></g><g><g><g role="tooltip" visibility="hidden" opacity="0"><g fill="#ffffff" fill-opacity="0.9" stroke-width="1" stroke-opacity="1" stroke="#ffffff" filter="url(#filter-id-51)" transform="translate(0,6)" style="pointer-events: none;"><path d="M3,0 L3,0 L0,-6 L13,0 L21,0 a3,3 0 0 1 3,3 L24,8 a3,3 0 0 1 -3,3 L3,11 a3,3 0 0 1 -3,-3 L0,3 a3,3 0 0 1 3,-3"/></g><g><g fill="#ffffff" transform="translate(12,6)" style="pointer-events: none;"><g transform="translate(0,7)" display="none"/></g></g></g><g visibility="hidden" style="pointer-events: none;" display="none"><g fill="#ffffff" opacity="1"><rect width="948" height="500"/></g><g><g transform="translate(474,250)"><g><g stroke-opacity="1" fill="#f3f3f3" fill-opacity="0.8"><g><g><path d=" M53,0  a53,53,0,0,1,-106,0 a53,53,0,0,1,106,0 M42,0  a42,42,0,0,0,-84,0 a42,42,0,0,0,84,0 L42,0 "/></g></g></g><g stroke-opacity="1" fill="#000000" fill-opacity="0.2"><g><g><path d=" M50,0  a50,50,0,0,1,-100,0 a50,50,0,0,1,100,0 M45,0  a45,45,0,0,0,-90,0 a45,45,0,0,0,90,0 L45,0 "/></g></g></g><g fill="#000000" fill-opacity="0.4"><g transform="translate(-19.5,-10.5)" style="user-select: none;"><text x="19.5px" y="21" dy="-5.67" text-anchor="middle"><tspan>100%</tspan></text></g></g></g></g></g></g><g opacity="0.3" aria-labelledby="id-66-title" filter="url(#filter-id-66)" transform="translate(0,479)" style="cursor: pointer;"><g fill="#ffffff" opacity="0"><rect width="66" height="21"/></g><g><g shape-rendering="auto" fill="none" stroke-opacity="1" stroke-width="1.7999999999999998" stroke="#3cabff"><path d=" M15,15  C17.4001,15 22.7998,15.0001 27,15 C31.2002,14.9999 33.2999,6 36,6 C38.7001,6 38.6999,10.5 40.5,10.5 C42.3001,10.5 42.2999,6 45,6 C47.7001,6 50.9999,14.9999 54,15 C57.0002,15.0001 58.7999,15 60,15"/></g><g shape-rendering="auto" fill="none" stroke-opacity="1" stroke-width="1.7999999999999998" stroke="url(#gradient-id-69)"><path d=" M6,15  C8.2501,15 9.7498,15.0001 15,15 C20.2502,14.9999 20.7748,3.6 27,3.6 C33.2252,3.6 33.8998,14.9999 39.9,15 C45.9002,15.0001 45.9748,15 51,15 C56.0252,15 57.7499,15 60,15"/></g></g><title id="id-66-title">Chart created using amCharts library</title></g><g role="tooltip" opacity="0" aria-describedby="id-104" transform="translate(573.9769,247.8484)" aria-hidden="true" visibility="hidden"><g fill="#67b7dc" fill-opacity="0.9" stroke-width="1" stroke-opacity="1" stroke="#ffffff" filter="url(#filter-id-83)" transform="translate(-120.5,-38)" style="pointer-events: none;"><path d="M3,0 L238,0 a3,3 0 0 1 3,3 L241,29 a3,3 0 0 1 -3,3 L238,32 L125.5,32 L120.5,38 L115.5,32 L3,32 a3,3 0 0 1 -3,-3 L0,3 a3,3 0 0 1 3,-3"/></g><g><g fill="#000000" transform="translate(0,-38)" style="pointer-events: none;"><g transform="translate(-108.5,7)" style="user-select: none;"><text x="0" y="21" dy="-5.67"><tspan>Student (full time): 49.3% (180)</tspan></text></g></g></g></g></g></g></g></g></svg>