<?xml version="1.0" encoding="utf-8"?><svg width="948px" height="500px" viewBox="0 0 948 500"  style="font-family: -apple-system, BlinkMacSystemFont, Segoe UI, Roboto, Helvetica, Arial, sans-serif, Apple Color Emoji, Segoe UI Emoji, Segoe UI Symbol;font-size: 16px;" version="1.1" xmlns="http://www.w3.org/2000/svg" xmlns:xlink="http://www.w3.org/1999/xlink"><defs xmlns="http://www.w3.org/2000/svg"><clipPath id="id-46"><rect width="948" height="500"/></clipPath><linearGradient id="gradient-id-69" x1="1%" x2="99%" y1="59%" y2="41%"><stop stop-color="#474758" offset="0"/><stop stop-color="#474758" stop-opacity="1" offset="0.75"/><stop stop-color="#3cabff" stop-opacity="1" offset="0.755"/></linearGradient><filter id="filter-id-99" filterUnits="objectBoundingBox" width="200%" height="200%" x="-50%" y="-50%"/><filter id="filter-id-120" filterUnits="objectBoundingBox" width="200%" height="200%" x="-50%" y="-50%"/><clipPath id="id-153"><path d="M0,0 L868,0 L868,273 L0,273 L0,0"/></clipPath><clipPath id="id-173"><rect width="868" height="273"/></clipPath><clipPath id="id-347"><rect width="868" height="273"/></clipPath><filter id="filter-id-51" filterUnits="objectBoundingBox" width="200%" height="200%" x="-50%" y="-50%"><feGaussianBlur result="blurOut" in="SourceGraphic" stdDeviation="1.5"/><feOffset result="offsetBlur" dx="1" dy="1"/><feFlood flood-color="#000000" flood-opacity="0.5"/><feComposite in2="offsetBlur" operator="in"/><feMerge><feMergeNode/><feMergeNode in="SourceGraphic"/></feMerge></filter><filter id="filter-id-66" filterUnits="objectBoundingBox" width="120%" height="120%" x="-10%" y="-10%"><feColorMatrix type="saturate" values="0"/></filter><filter id="filter-id-158" filterUnits="objectBoundingBox" width="200%" height="200%" x="-50%" y="-50%"><feGaussianBlur result="blurOut" in="SourceGraphic" stdDeviation="1.5"/><feOffset result="offsetBlur" dx="1" dy="1"/><feFlood flood-color="#000000" flood-opacity="0.5"/><feComposite in2="offsetBlur" operator="in"/><feMerge><feMergeNode/><feMergeNode in="SourceGraphic"/></feMerge></filter></defs><g xmlns="http://www.w3.org/2000/svg" style=""><g fill="#ffffff" fill-opacity="0"><rect width="948" height="500"/></g><g><g role="region" clip-path="url(#id-46)" opacity="1" aria-label="Chart" id="id-22"><g transform="translate(15,15)"><g><g><g><g><g transform="translate(0,32)"><g><g style="touch-action: none; user-select: none; -webkit-user-drag: none;" transform="translate(50,0)"><g fill="#ffffff" fill-opacity="0"><rect width="868" height="273"/></g><g><g><g><g stroke="#000000" stroke-opacity="0.15" fill="none" transform="translate(0,295)" display="none"><path d=" M0,0  L868,0 " transform="translate(-0.5,-0.5)"/></g><g stroke="#000000" stroke-opacity="0.15" fill="none" transform="translate(0,273)"><path d=" M0,0  L868,0 " transform="translate(-0.5,-0.5)"/></g><g stroke="#000000" stroke-opacity="0.15" fill="none" transform="translate(0,251)" display="none"><path d=" M0,0  L868,0 " transform="translate(-0.5,-0.5)"/></g><g stroke="#000000" stroke-opacity="0.15" fill="none" transform="translate(0,229)" display="none"><path d=" M0,0  L868,0 " transform="translate(-0.5,-0.5)"/></g><g stroke="#000000" stroke-opacity="0.15" fill="none" transform="translate(0,207)" display="none"><path d=" M0,0  L868,0 " transform="translate(-0.5,-0.5)"/></g><g stroke="#000000" stroke-opacity="0.15" fill="none" transform="translate(0,186)" display="none"><path d=" M0,0  L868,0 " transform="translate(-0.5,-0.5)"/></g><g stroke="#000000" stroke-opacity="0.15" fill="none" transform="translate(0,164)"><path d=" M0,0  L868,0 " transform="translate(-0.5,-0.5)"/></g><g stroke="#000000" stroke-opacity="0.15" fill="none" transform="translate(0,142)" display="none"><path d=" M0,0  L868,0 " transform="translate(-0.5,-0.5)"/></g><g stroke="#000000" stroke-opacity="0.15" fill="none" transform="translate(0,-55)" display="none"><path d=" M0,0  L868,0 " transform="translate(-0.5,-0.5)"/></g><g stroke="#000000" stroke-opacity="0.15" fill="none"><path d=" M0,0  L868,0 " transform="translate(-0.5,-0.5)"/></g><g stroke="#000000" stroke-opacity="0.15" fill="none" transform="translate(0,55)"><path d=" M0,0  L868,0 " transform="translate(-0.5,-0.5)"/></g><g stroke="#000000" stroke-opacity="0.15" fill="none" transform="translate(0,109)"><path d=" M0,0  L868,0 " transform="translate(-0.5,-0.5)"/></g><g stroke="#000000" stroke-opacity="0.15" fill="none" transform="translate(0,218)"><path d=" M0,0  L868,0 " transform="translate(-0.5,-0.5)"/></g><g stroke="#000000" stroke-opacity="0.15" fill="none" transform="translate(0,328)" display="none"><path d=" M0,0  L868,0 " transform="translate(-0.5,-0.5)"/></g><g stroke="#000000" stroke-opacity="0.15" fill="none" transform="translate(0,382)" display="none"><path d=" M0,0  L868,0 " transform="translate(-0.5,-0.5)"/></g></g></g><g><g><g stroke="#000000" stroke-opacity="0.15" fill="none"><path d=" M0,0  L0,273 " transform="translate(-0.5,-0.5)"/></g><g stroke="#000000" stroke-opacity="0.15" fill="none" transform="translate(72,0)"><path d=" M0,0  L0,273 " transform="translate(-0.5,-0.5)"/></g><g stroke="#000000" stroke-opacity="0.15" fill="none" transform="translate(145,0)"><path d=" M0,0  L0,273 " transform="translate(-0.5,-0.5)"/></g><g stroke="#000000" stroke-opacity="0.15" fill="none" transform="translate(217,0)"><path d=" M0,0  L0,273 " transform="translate(-0.5,-0.5)"/></g><g stroke="#000000" stroke-opacity="0.15" fill="none" transform="translate(289,0)"><path d=" M0,0  L0,273 " transform="translate(-0.5,-0.5)"/></g><g stroke="#000000" stroke-opacity="0.15" fill="none" transform="translate(362,0)"><path d=" M0,0  L0,273 " transform="translate(-0.5,-0.5)"/></g><g stroke="#000000" stroke-opacity="0.15" fill="none" transform="translate(434,0)"><path d=" M0,0  L0,273 " transform="translate(-0.5,-0.5)"/></g><g stroke="#000000" stroke-opacity="0.15" fill="none" transform="translate(506,0)"><path d=" M0,0  L0,273 " transform="translate(-0.5,-0.5)"/></g><g stroke="#000000" stroke-opacity="0.15" fill="none" transform="translate(579,0)"><path d=" M0,0  L0,273 " transform="translate(-0.5,-0.5)"/></g><g stroke="#000000" stroke-opacity="0.15" fill="none" transform="translate(651,0)"><path d=" M0,0  L0,273 " transform="translate(-0.5,-0.5)"/></g><g stroke="#000000" stroke-opacity="0.15" fill="none" transform="translate(723,0)"><path d=" M0,0  L0,273 " transform="translate(-0.5,-0.5)"/></g><g stroke="#000000" stroke-opacity="0.15" fill="none" transform="translate(796,0)"><path d=" M0,0  L0,273 " transform="translate(-0.5,-0.5)"/></g><g stroke="#000000" stroke-opacity="0.15" fill="none" transform="translate(868,0)"><path d=" M0,0  L0,273 " transform="translate(-0.5,-0.5)"/></g></g></g><g><g><g role="group" stroke-opacity="0" fill-opacity="1" stroke="#67b7dc" aria-label="Series" id="id-148"><g><g clip-path="url(#id-153)"><g><g><g><g stroke-opacity="1" stroke-width="0" fill="#67b7dc" fill-opacity="1" stroke="#67b7dc" role="menuitem" focusable="true" tabindex="0" transform="translate(7.23,207.48)"><g><g fill-opacity="0.8"><path d="M10,0 L47.87,0 a10,10 0 0 1 10,10 L57.87,65.52 a0,0 0 0 1 -0,0 L0,65.52 a0,0 0 0 1 -0,-0 L0,10 a10,10 0 0 1 10,-10 Z"/></g></g></g><g stroke-opacity="1" stroke-width="0" fill="#6794dc" fill-opacity="1" stroke="#67b7dc" role="menuitem" focusable="true" tabindex="0" transform="translate(79.57,250.068)"><g><g fill-opacity="0.8"><path d="M10,0 L47.861,0 a10,10 0 0 1 10,10 L57.861,22.932 a0,0 0 0 1 -0,0 L0,22.932 a0,0 0 0 1 -0,-0 L0,10 a10,10 0 0 1 10,-10 Z"/></g></g></g><g stroke-opacity="1" stroke-width="0" fill="#6771dc" fill-opacity="1" stroke="#67b7dc" role="menuitem" focusable="true" tabindex="0" transform="translate(151.9,161.616)"><g><g fill-opacity="0.8"><path d="M10,0 L47.87,0 a10,10 0 0 1 10,10 L57.87,111.384 a0,0 0 0 1 -0,0 L0,111.384 a0,0 0 0 1 -0,-0 L0,10 a10,10 0 0 1 10,-10 Z"/></g></g></g><g stroke-opacity="1" stroke-width="0" fill="#8067dc" fill-opacity="1" stroke="#67b7dc" role="menuitem" focusable="true" tabindex="0" transform="translate(224.23,21.84)"><g><g fill-opacity="0.8"><path d="M10,0 L47.87,0 a10,10 0 0 1 10,10 L57.87,251.16 a0,0 0 0 1 -0,0 L0,251.16 a0,0 0 0 1 -0,-0 L0,10 a10,10 0 0 1 10,-10 Z"/></g></g></g><g stroke-opacity="1" stroke-width="0" fill="#a367dc" fill-opacity="1" stroke="#67b7dc" role="menuitem" focusable="true" tabindex="0" transform="translate(296.57,167.076)"><g><g fill-opacity="0.8"><path d="M10,0 L47.861,0 a10,10 0 0 1 10,10 L57.861,105.924 a0,0 0 0 1 -0,0 L0,105.924 a0,0 0 0 1 -0,-0 L0,10 a10,10 0 0 1 10,-10 Z"/></g></g></g><g stroke-opacity="1" stroke-width="0" fill="#c767dc" fill-opacity="1" stroke="#67b7dc" role="menuitem" focusable="true" tabindex="0" transform="translate(368.9,136.5)"><g><g fill-opacity="0.8"><path d="M10,0 L47.87,0 a10,10 0 0 1 10,10 L57.87,136.5 a0,0 0 0 1 -0,0 L0,136.5 a0,0 0 0 1 -0,-0 L0,10 a10,10 0 0 1 10,-10 Z"/></g></g></g><g stroke-opacity="1" stroke-width="0" fill="#dc67ce" fill-opacity="1" stroke="#67b7dc" role="menuitem" focusable="true" tabindex="0" transform="translate(441.23,151.788)"><g><g fill-opacity="0.8"><path d="M10,0 L47.87,0 a10,10 0 0 1 10,10 L57.87,121.212 a0,0 0 0 1 -0,0 L0,121.212 a0,0 0 0 1 -0,-0 L0,10 a10,10 0 0 1 10,-10 Z"/></g></g></g><g stroke-opacity="1" stroke-width="0" fill="#dc67ab" fill-opacity="1" stroke="#67b7dc" role="menuitem" focusable="true" tabindex="0" transform="translate(513.57,144.144)"><g><g fill-opacity="0.8"><path d="M10,0 L47.861,0 a10,10 0 0 1 10,10 L57.861,128.856 a0,0 0 0 1 -0,0 L0,128.856 a0,0 0 0 1 -0,-0 L0,10 a10,10 0 0 1 10,-10 Z"/></g></g></g><g stroke-opacity="1" stroke-width="0" fill="#dc6788" fill-opacity="1" stroke="#67b7dc" role="menuitem" focusable="true" tabindex="0" transform="translate(585.9,100.464)"><g><g fill-opacity="0.8"><path d="M10,0 L47.87,0 a10,10 0 0 1 10,10 L57.87,172.536 a0,0 0 0 1 -0,0 L0,172.536 a0,0 0 0 1 -0,-0 L0,10 a10,10 0 0 1 10,-10 Z"/></g></g></g><g stroke-opacity="1" stroke-width="0" fill="#dc6967" fill-opacity="1" stroke="#67b7dc" role="menuitem" focusable="true" tabindex="0" transform="translate(658.23,208.572)"><g><g fill-opacity="0.8"><path d="M10,0 L47.87,0 a10,10 0 0 1 10,10 L57.87,64.428 a0,0 0 0 1 -0,0 L0,64.428 a0,0 0 0 1 -0,-0 L0,10 a10,10 0 0 1 10,-10 Z"/></g></g></g><g stroke-opacity="1" stroke-width="0" fill="#dc8c67" fill-opacity="1" stroke="#67b7dc" role="menuitem" focusable="true" tabindex="0" transform="translate(730.57,129.948)"><g><g fill-opacity="0.8"><path d="M10,0 L47.861,0 a10,10 0 0 1 10,10 L57.861,143.052 a0,0 0 0 1 -0,0 L0,143.052 a0,0 0 0 1 -0,-0 L0,10 a10,10 0 0 1 10,-10 Z"/></g></g></g><g stroke-opacity="1" stroke-width="0" fill="#dcaf67" fill-opacity="1" stroke="#67b7dc" role="menuitem" focusable="true" tabindex="0" transform="translate(802.9,167.076)"><g><g fill-opacity="0.8"><path d="M10,0 L47.87,0 a10,10 0 0 1 10,10 L57.87,105.924 a0,0 0 0 1 -0,0 L0,105.924 a0,0 0 0 1 -0,-0 L0,10 a10,10 0 0 1 10,-10 Z"/></g></g></g></g></g></g></g><g/></g></g></g></g><g clip-path="url(#id-347)"><g><g fill="#67b7dc" stroke="#67b7dc"><g/></g></g></g><g><g><g><g/></g><g><g/></g></g></g><g><g/></g><g><g/></g><g opacity="0" clip-path="url(#id-173)" style="touch-action: none; user-select: none; -webkit-user-drag: none;" visibility="hidden" aria-hidden="true"><g><g fill-opacity="0.2" fill="#000000" visibility="hidden" style="pointer-events: none;"><path/></g><g stroke="#000000" fill="none" stroke-dasharray="3,3" stroke-opacity="0.4" style="pointer-events: none;" transform="translate(844,0)"><path d=" M0,0  L0,273 "/></g><g stroke="#000000" fill="none" stroke-dasharray="3,3" stroke-opacity="0.4" style="pointer-events: none;" transform="translate(0,0)"><path d=" M0,0  L868,0 "/></g></g></g><g role="button" focusable="true" tabindex="0" opacity="0" visibility="hidden" aria-hidden="true" transform="translate(828,-3)" aria-labelledby="id-37-title"><g fill="#6794dc" stroke="#ffffff" fill-opacity="1" stroke-opacity="0" transform="translate(0,8)"><path d="M17,0 L18,0 a17,17 0 0 1 17,17 L35,17 a17,17 0 0 1 -17,17 L17,34 a17,17 0 0 1 -17,-17 L0,17 a17,17 0 0 1 17,-17 Z"/></g><g transform="translate(9,9)"><g stroke="#ffffff" style="pointer-events: none;" transform="translate(0,8)"><path d=" M0,0  L11,0 " transform="translate(2.5,7.5)"/></g><g fill="#000000" style="pointer-events: none;" transform="translate(17,8)"><g display="none"/></g></g><title id="id-37-title">Zoom Out</title></g></g></g><g><g><g aria-hidden="true"><g><g fill="#000000" transform="translate(0,136.5) rotate(-90)"><g display="none"/></g><g stroke="#000000" stroke-opacity="0.15" fill="none" transform="translate(50,273)" opacity="1"><path transform="translate(-0.5,-0.5)" d=" M0,0  L868,0 "/></g><g><g><g fill="#000000" aria-label="L" fill-opacity="0" opacity="0" stroke-opacity="0" style="pointer-events: none;" transform="translate(50,136.5)"><g transform="translate(-37,-10.5)" style="user-select: none;"><text x="0" y="21" dy="-5.67"><tspan>100</tspan></text></g></g><g fill="#000000" transform="translate(50,294.84)" display="none"><g transform="translate(-35,-10.5)" style="user-select: none;"><text x="0" y="21" dy="-5.67"><tspan>-20</tspan></text></g></g><g fill="#000000" transform="translate(50,273)"><g transform="translate(-19,-10.5)" style="user-select: none;"><text x="0" y="21" dy="-5.67"><tspan>0</tspan></text></g></g><g fill="#000000" transform="translate(50,251.16)" display="none"><g transform="translate(-28,-10.5)" style="user-select: none;"><text x="0" y="21" dy="-5.67"><tspan>20</tspan></text></g></g><g fill="#000000" transform="translate(50,229.32)" display="none"><g transform="translate(-29,-10.5)" style="user-select: none;"><text x="0" y="21" dy="-5.67"><tspan>40</tspan></text></g></g><g fill="#000000" transform="translate(50,207.48)" display="none"><g transform="translate(-28,-10.5)" style="user-select: none;"><text x="0" y="21" dy="-5.67"><tspan>60</tspan></text></g></g><g fill="#000000" transform="translate(50,185.64)" display="none"><g transform="translate(-28,-10.5)" style="user-select: none;"><text x="0" y="21" dy="-5.67"><tspan>80</tspan></text></g></g><g fill="#000000" transform="translate(50,163.8)"><g transform="translate(-37,-10.5)" style="user-select: none;"><text x="0" y="21" dy="-5.67"><tspan>100</tspan></text></g></g><g fill="#000000" transform="translate(50,141.96)" display="none"><g transform="translate(-37,-10.5)" style="user-select: none;"><text x="0" y="21" dy="-5.67"><tspan>120</tspan></text></g></g><g fill="#000000" transform="translate(50,-54.6)" display="none"><g transform="translate(-37,-10.5)" style="user-select: none;"><text x="0" y="21" dy="-5.67"><tspan>300</tspan></text></g></g><g fill="#000000" transform="translate(50,0)"><g transform="translate(-37,-10.5)" style="user-select: none;"><text x="0" y="21" dy="-5.67"><tspan>250</tspan></text></g></g><g fill="#000000" transform="translate(50,54.6)"><g transform="translate(-37,-10.5)" style="user-select: none;"><text x="0" y="21" dy="-5.67"><tspan>200</tspan></text></g></g><g fill="#000000" transform="translate(50,109.2)"><g transform="translate(-37,-10.5)" style="user-select: none;"><text x="0" y="21" dy="-5.67"><tspan>150</tspan></text></g></g><g fill="#000000" transform="translate(50,218.4)"><g transform="translate(-28,-10.5)" style="user-select: none;"><text x="0" y="21" dy="-5.67"><tspan>50</tspan></text></g></g><g fill="#000000" transform="translate(50,327.6)" display="none"><g transform="translate(-35,-10.5)" style="user-select: none;"><text x="0" y="21" dy="-5.67"><tspan>-50</tspan></text></g></g><g fill="#000000" transform="translate(50,382.2)" display="none"><g transform="translate(-43,-10.5)" style="user-select: none;"><text x="0" y="21" dy="-5.67"><tspan>-100</tspan></text></g></g></g></g><g stroke="#000000" stroke-opacity="0" fill="none" style="pointer-events: none;" transform="translate(50,0)"><path d=" M0,0  L0,273 " transform="translate(-0.5,-0.5)"/></g></g></g></g></g><g transform="translate(918,0)"><g/></g></g></g><g><g transform="translate(50,0)"><g role="scrollbar" aria-valuemin="0" aria-valuemax="100" aria-valuenow="0" aria-valuetext="From Fintech to Other" aria-labelledby="id-73-title" aria-orientation="horizontal" aria-controls="id-22" transform="translate(0,10)"><g fill="#f3f3f3" fill-opacity="0.5"><path d="M6,0 L862,0 a6,6 0 0 1 6,6 L868,6 a6,6 0 0 1 -6,6 L6,12 a6,6 0 0 1 -6,-6 L0,6 a6,6 0 0 1 6,-6 Z"/></g><g><g role="slider" focusable="true" tabindex="0" aria-valuemin="0" aria-valuemax="100" aria-live="polite" style="touch-action: none; user-select: none; -webkit-user-drag: none; cursor: -webkit-grab;" aria-labelledby="id-87-title" aria-valuenow="0" aria-valuetext="From Fintech to Other" aria-describedby="id-87-description" transform="translate(0,6)"><g fill="#d9d9d9" stroke="#ffffff" fill-opacity="1" stroke-opacity="1" transform="translate(0,-6)"><path d="M6,0 L862,0 a6,6 0 0 1 6,6 L868,6 a6,6 0 0 1 -6,6 L6,12 a6,6 0 0 1 -6,-6 L0,6 a6,6 0 0 1 6,-6 Z"/></g><g transform="translate(0,-6)"><g fill="#000000" style="pointer-events: none;" transform="translate(434,6)"><g display="none"/></g></g><title id="id-87-title">From Fintech to Other</title><desc id="id-87-description">Use left and right arrows to move selection</desc></g><g role="slider" focusable="true" tabindex="0" aria-valuemin="0" aria-valuemax="100" style="touch-action: none; user-select: none; -webkit-user-drag: none; cursor: ew-resize;" aria-labelledby="id-75-title" aria-valuenow="0" aria-valuetext="From Fintech" aria-describedby="id-75-description" transform="translate(0,6)" opacity="0" visibility="hidden" aria-hidden="true"><g fill="#d9d9d9" stroke="#ffffff" fill-opacity="1" stroke-opacity="1" transform="translate(-14,-14)"><path d="M14,0 L14,0 a14,14 0 0 1 14,14 L28,14 a14,14 0 0 1 -14,14 L14,28 a14,14 0 0 1 -14,-14 L0,14 a14,14 0 0 1 14,-14 Z"/></g><g transform="translate(-6,-12)"><g stroke="#ffffff" stroke-opacity="0.7" style="pointer-events: none;" transform="translate(2,12)"><path d=" M-2,-6  L-2,6  M2,-6  L2,6 " transform="translate(3.5,-0.5)"/></g></g><title id="id-75-title">From Fintech</title><desc id="id-75-description">Use left and right arrows to move left selection</desc></g><g role="slider" focusable="true" tabindex="0" aria-valuemin="0" aria-valuemax="100" style="touch-action: none; user-select: none; -webkit-user-drag: none; cursor: ew-resize;" aria-labelledby="id-81-title" aria-valuenow="100" aria-valuetext="To Other" aria-describedby="id-81-description" transform="translate(868,6)" opacity="0" visibility="hidden" aria-hidden="true"><g fill="#d9d9d9" stroke="#ffffff" fill-opacity="1" stroke-opacity="1" transform="translate(-14,-14)"><path d="M14,0 L14,0 a14,14 0 0 1 14,14 L28,14 a14,14 0 0 1 -14,14 L14,28 a14,14 0 0 1 -14,-14 L0,14 a14,14 0 0 1 14,-14 Z"/></g><g transform="translate(-6,-12)"><g stroke="#ffffff" stroke-opacity="0.7" style="pointer-events: none;" transform="translate(2,12)"><path d=" M-2,-6  L-2,6  M2,-6  L2,6 " transform="translate(3.5,-0.5)"/></g></g><title id="id-81-title">To Other</title><desc id="id-81-description">Use left and right arrows to move right selection</desc></g></g><title id="id-73-title">Use TAB to select grip buttons or left and right arrows to change selection</title></g></g></g><g transform="translate(0,305)"><g transform="translate(50,0)"><g aria-hidden="true"><g><g stroke="#000000" stroke-opacity="0" fill="none" style="pointer-events: none;"><path d=" M0,0  L868,0 " transform="translate(-0.5,-0.5)"/></g><g><g><g fill="#000000" aria-label="L" fill-opacity="0" opacity="0" stroke-opacity="0" style="pointer-events: none;" transform="translate(434,0) rotate(270)"><g transform="translate(-155,-10.5)" style="user-select: none;"><text x="0" y="21" dy="-5.67"><tspan>Artificial Intelligence</tspan></text></g></g><g fill="#000000" transform="translate(36.165,0) rotate(270)"><g transform="translate(-61,-10.5)" style="user-select: none;"><text x="0" y="21" dy="-5.67"><tspan>Fintech</tspan></text></g></g><g fill="#000000" transform="translate(108.5,0) rotate(270)"><g transform="translate(-125,-10.5)" style="user-select: none;"><text x="0" y="21" dy="-5.67"><tspan>Pharmaceuticals</tspan></text></g></g><g fill="#000000" transform="translate(180.835,0) rotate(270)"><g transform="translate(-71,-10.5)" style="user-select: none;"><text x="0" y="21" dy="-5.67"><tspan>Robotics</tspan></text></g></g><g fill="#000000" transform="translate(253.165,0) rotate(270)"><g transform="translate(-76,-10.5)" style="user-select: none;"><text x="0" y="21" dy="-5.67"><tspan>Web Dev</tspan></text></g></g><g fill="#000000" transform="translate(325.5,0) rotate(270)"><g transform="translate(-92,-10.5)" style="user-select: none;"><text x="0" y="21" dy="-5.67"><tspan>Mobile Dev</tspan></text></g></g><g fill="#000000" transform="translate(397.835,0) rotate(270)"><g transform="translate(-101,-10.5)" style="user-select: none;"><text x="0" y="21" dy="-5.67"><tspan>Data Science</tspan></text></g></g><g fill="#000000" transform="translate(470.165,0) rotate(270)"><g transform="translate(-148,-10.5)" style="user-select: none;"><text x="0" y="21" dy="-5.67"><tspan>Embedded Systems</tspan></text></g></g><g fill="#000000" transform="translate(542.5,0) rotate(270)"><g transform="translate(-112,-10.5)" style="user-select: none;"><text x="0" y="21" dy="-5.67"><tspan>Cyber Security</tspan></text></g></g><g fill="#000000" transform="translate(614.835,0) rotate(270)"><g transform="translate(-84,-10.5)" style="user-select: none;"><text x="0" y="21" dy="-5.67"><tspan>Game Dev</tspan></text></g></g><g fill="#000000" transform="translate(687.165,0) rotate(270)"><g transform="translate(-60,-10.5)" style="user-select: none;"><text x="0" y="21" dy="-5.67"><tspan>Testing</tspan></text></g></g><g fill="#000000" transform="translate(759.5,0) rotate(270)"><g transform="translate(-155,-10.5)" style="user-select: none;"><text x="0" y="21" dy="-5.67"><tspan>Artificial Intelligence</tspan></text></g></g><g fill="#000000" transform="translate(831.835,0) rotate(270)"><g transform="translate(-51,-10.5)" style="user-select: none;"><text x="0" y="21" dy="-5.67"><tspan>Other</tspan></text></g></g><g fill="#000000" display="none" transform="translate(904.165,0) rotate(270)"><g transform="translate(-10,0)" display="none"/></g></g></g><g stroke="#000000" stroke-opacity="0.15" fill="none" display="none" transform="translate(868,-273)" opacity="0" visibility="hidden" aria-hidden="true"><path transform="translate(-0.5,-0.5)" d=" M0,0  L0,273 "/></g><g fill="#000000" transform="translate(434,165)"><g display="none"/></g></g></g></g></g></g></g></g></g></g></g><g><g><g role="tooltip" opacity="0" aria-describedby="id-148" transform="translate(535.1696,198.788)" visibility="hidden" aria-hidden="true"><g fill="#dc67ce" fill-opacity="0.9" stroke-width="1" stroke-opacity="1" stroke="#ffffff" filter="url(#filter-id-158)" style="pointer-events: none;" transform="translate(-25,-38)"><path d="M3,0 L47,0 a3,3 0 0 1 3,3 L50,29 a3,3 0 0 1 -3,3 L47,32 L30,32 L25,38 L20,32 L3,32 a3,3 0 0 1 -3,-3 L0,3 a3,3 0 0 1 3,-3"/></g><g><g fill="#000000" style="pointer-events: none;" transform="translate(0,-38)"><g transform="translate(-13,7)" style="user-select: none;"><text x="0" y="21" dy="-5.67"><tspan style="fill:Embedded;Systems: bold">111</tspan></text></g></g></g></g><g role="tooltip" visibility="hidden" opacity="0"><g fill="#ffffff" fill-opacity="0.9" stroke-width="1" stroke-opacity="1" stroke="#ffffff" filter="url(#filter-id-51)" style="pointer-events: none;" transform="translate(0,6)"><path d="M3,0 L3,0 L0,-6 L13,0 L21,0 a3,3 0 0 1 3,3 L24,8 a3,3 0 0 1 -3,3 L3,11 a3,3 0 0 1 -3,-3 L0,3 a3,3 0 0 1 3,-3"/></g><g><g fill="#ffffff" style="pointer-events: none;" transform="translate(12,6)"><g transform="translate(0,7)" display="none"/></g></g></g><g visibility="hidden" style="pointer-events: none;" display="none"><g fill="#ffffff" opacity="1"><rect width="948" height="500"/></g><g><g transform="translate(474,250)"><g><g stroke-opacity="1" fill="#f3f3f3" fill-opacity="0.8"><g><g><path d=" M53,0  a53,53,0,0,1,-106,0 a53,53,0,0,1,106,0 M42,0  a42,42,0,0,0,-84,0 a42,42,0,0,0,84,0 L42,0 "/></g></g></g><g stroke-opacity="1" fill="#000000" fill-opacity="0.2"><g><g><path d=" M50,0  a50,50,0,0,1,-100,0 a50,50,0,0,1,100,0 M45,0  a45,45,0,0,0,-90,0 a45,45,0,0,0,90,0 L45,0 "/></g></g></g><g fill="#000000" fill-opacity="0.4"><g transform="translate(-19.5,-10.5)" style="user-select: none;"><text x="19.5px" y="21" dy="-5.67" text-anchor="middle"><tspan>100%</tspan></text></g></g></g></g></g></g><g opacity="0.3" aria-labelledby="id-66-title" filter="url(#filter-id-66)" style="cursor: pointer;" transform="translate(0,479)"><g fill="#ffffff" opacity="0"><rect width="66" height="21"/></g><g><g shape-rendering="auto" fill="none" stroke-opacity="1" stroke-width="1.7999999999999998" stroke="#3cabff"><path d=" M15,15  C17.4001,15 22.7998,15.0001 27,15 C31.2002,14.9999 33.2999,6 36,6 C38.7001,6 38.6999,10.5 40.5,10.5 C42.3001,10.5 42.2999,6 45,6 C47.7001,6 50.9999,14.9999 54,15 C57.0002,15.0001 58.7999,15 60,15"/></g><g shape-rendering="auto" fill="none" stroke-opacity="1" stroke-width="1.7999999999999998" stroke="url(#gradient-id-69)"><path d=" M6,15  C8.2501,15 9.7498,15.0001 15,15 C20.2502,14.9999 20.7748,3.6 27,3.6 C33.2252,3.6 33.8998,14.9999 39.9,15 C45.9002,15.0001 45.9748,15 51,15 C56.0252,15 57.7499,15 60,15"/></g></g><title id="id-66-title">Chart created using amCharts library</title></g><g role="tooltip" visibility="hidden" opacity="0" display="none" transform="translate(462.8348,320)"><g fill="#000000" fill-opacity="1" stroke-width="1" stroke-opacity="1" stroke="#000000" style="pointer-events: none;"><path/></g><g><g fill="#ffffff" style="pointer-events: none;"><g transform="translate(0,5)"/></g></g></g><g role="tooltip" opacity="0" transform="translate(65,58)" visibility="hidden" aria-hidden="true"><g fill="#000000" fill-opacity="1" stroke-width="1" stroke-opacity="1" stroke="#000000" style="pointer-events: none;" transform="translate(-52,-11)"><path d="M0,0 L47,0 a0,0 0 0 1 0,0 L47,0 L47,6 L52,11 L47,16 L47,31 a0,0 0 0 1 -0,0 L0,31 a0,0 0 0 1 -0,-0 L0,0 a0,0 0 0 1 0,-0"/></g><g><g fill="#ffffff" style="pointer-events: none;" transform="translate(-28.5,-11)"><g transform="translate(-13.5,5)" style="user-select: none;"><text x="0" y="21" dy="-5.67"><tspan>240</tspan></text></g></g></g></g></g></g></g></g></svg>