<?xml version="1.0" encoding="utf-8"?><svg width="965px" height="500px" viewBox="0 0 965 500"  style="font-family: -apple-system, BlinkMacSystemFont, Segoe UI, Roboto, Helvetica, Arial, sans-serif, Apple Color Emoji, Segoe UI Emoji, Segoe UI Symbol;font-size: 16px;" version="1.1" xmlns="http://www.w3.org/2000/svg" xmlns:xlink="http://www.w3.org/1999/xlink"><defs xmlns="http://www.w3.org/2000/svg"><clipPath id="id-46"><rect width="965" height="500"/></clipPath><linearGradient id="gradient-id-69" x1="1%" x2="99%" y1="59%" y2="41%"><stop stop-color="#474758" offset="0"/><stop stop-color="#474758" stop-opacity="1" offset="0.75"/><stop stop-color="#3cabff" stop-opacity="1" offset="0.755"/></linearGradient><clipPath id="id-78"/><filter id="filter-id-51" filterUnits="objectBoundingBox" width="200%" height="200%" x="-50%" y="-50%"><feGaussianBlur result="blurOut" in="SourceGraphic" stdDeviation="1.5"/><feOffset result="offsetBlur" dx="1" dy="1"/><feFlood flood-color="#000000" flood-opacity="0.5"/><feComposite in2="offsetBlur" operator="in"/><feMerge><feMergeNode/><feMergeNode in="SourceGraphic"/></feMerge></filter><filter id="filter-id-66" filterUnits="objectBoundingBox" width="120%" height="120%" x="-10%" y="-10%"><feColorMatrix type="saturate" values="0"/></filter><filter id="filter-id-83" filterUnits="objectBoundingBox" width="200%" height="200%" x="-50%" y="-50%"><feGaussianBlur result="blurOut" in="SourceGraphic" stdDeviation="1.5"/><feOffset result="offsetBlur" dx="1" dy="1"/><feFlood flood-color="#000000" flood-opacity="0.5"/><feComposite in2="offsetBlur" operator="in"/><feMerge><feMergeNode/><feMergeNode in="SourceGraphic"/></feMerge></filter></defs><g xmlns="http://www.w3.org/2000/svg" style=""><g fill="#ffffff" fill-opacity="0"><rect width="965" height="500"/></g><g><g role="region" clip-path="url(#id-46)" opacity="1" aria-label="Chart"><g><g><g><g><g><g transform="translate(482.5,250)"><g><g role="group" aria-label="Series"><g><g clip-path="url(#id-78)"><g/></g><g/><g><g><g stroke-opacity="1" stroke="#ffffff" role="menuitem" focusable="true" tabindex="0" fill="#67b7dc"><g><g><path d=" M0,0  L0,-200  a200,200,0,0,1,196.2613,161.5097 L0,0 "/></g><g/></g></g><g stroke-opacity="1" stroke="#ffffff" role="menuitem" focusable="true" tabindex="0" fill="#6794dc"><g><g><path d=" M0,0  L196.2613,-38.4903  a200,200,0,0,1,-10.1165,111.6348 L0,0 "/></g><g/></g></g><g stroke-opacity="1" stroke="#ffffff" role="menuitem" focusable="true" tabindex="0" fill="#6771dc"><g><g><path d=" M0,0  L186.1448,73.1445  a200,200,0,0,1,-13.5164,27.8477 L0,0 "/></g><g/></g></g><g stroke-opacity="1" stroke="#ffffff" role="menuitem" focusable="true" tabindex="0" fill="#8067dc"><g><g><path d=" M0,0  L172.6284,100.9922  a200,200,0,0,1,-90.7572,81.4827 L0,0 "/></g><g/></g></g><g stroke-opacity="1" stroke="#ffffff" role="menuitem" focusable="true" tabindex="0" fill="#a367dc"><g><g><path d=" M0,0  L81.8712,182.475  a200,200,0,0,1,-280.094,-155.872 L0,0 "/></g><g/></g></g><g stroke-opacity="1" stroke="#ffffff" role="menuitem" focusable="true" tabindex="0" fill="#c767dc"><g><g><path d=" M0,0  L-198.2228,26.6029  a200,200,0,0,1,84.8825,-191.3875 L0,0 "/></g><g/></g></g><g stroke-opacity="1" stroke="#ffffff" role="menuitem" focusable="true" tabindex="0" fill="#dc67ce"><g><g><path d=" M0,0  L-113.3404,-164.7846  a200,200,0,0,1,113.3404,-35.2154 L0,0 "/></g><g/></g></g></g></g><g><g><g fill-opacity="0" stroke-opacity="0.2" stroke="#000000" stroke-width="1"><polyline points="127.08646018,-154.4313169,210,-166.786,216,-166.786"/></g><g fill-opacity="0" stroke-opacity="0.2" stroke="#000000" stroke-width="1"><polyline points="199.18379922,18.050321999999998,210,19.494,216,19.494"/></g><g fill-opacity="0" stroke-opacity="0.2" stroke="#000000" stroke-width="1"><polyline points="179.92617393999998,87.3302464,210,94.317,216,94.317"/></g><g fill-opacity="0" stroke-opacity="0.2" stroke="#000000" stroke-width="1"><polyline points="133.61277284,148.82078798,210,160.726,216,160.726"/></g><g fill-opacity="0" stroke-opacity="0.2" stroke="#000000" stroke-width="1"><polyline points="-97.25454142,174.76142072000002,-210,188.742,-216,188.742"/></g><g fill-opacity="0" stroke-opacity="0.2" stroke="#000000" stroke-width="1"><polyline points="-182.82559763999998,-81.08514568000001,-210,-87.572,-216,-87.572"/></g><g fill-opacity="0" stroke-opacity="0.2" stroke="#000000" stroke-width="1"><polyline points="-59.34256386,-190.99335098,-210,-206.273,-216,-206.273"/></g></g></g><g><g><g fill="#000000" aria-label="Discord server discovery: 21.9%" transform="translate(216,-166.786)"><g transform="translate(5,-10.5)" style="user-select: none;"><text x="0" y="21" dy="-5.67"><tspan>Discord server discovery: 21.9%</tspan></text></g></g><g fill="#000000" aria-label="Through a friend/colleague: 9.0%" transform="translate(216,19.494)"><g transform="translate(5,-10.5)" style="user-select: none;"><text x="0" y="21" dy="-5.67"><tspan>Through a friend/colleague: 9.0%</tspan></text></g></g><g fill="#000000" aria-label="Social media: 2.5%" transform="translate(216,94.317)"><g transform="translate(5,-10.5)" style="user-select: none;"><text x="0" y="21" dy="-5.67"><tspan>Social media: 2.5%</tspan></text></g></g><g fill="#000000" aria-label="Another discord server: 9.9%" transform="translate(216,160.726)"><g transform="translate(5,-10.5)" style="user-select: none;"><text x="0" y="21" dy="-5.67"><tspan>Another discord server: 9.9%</tspan></text></g></g><g fill="#000000" aria-label="Search engine result: 29.6%" transform="translate(-216,188.742)"><g transform="translate(-199,-10.5)" style="user-select: none;"><text x="0" y="21" dy="-5.67"><tspan>Search engine result: 29.6%</tspan></text></g></g><g fill="#000000" aria-label="Discord server listing website: 17.5%" transform="translate(-216,-87.572)"><g transform="translate(-261,-10.5)" style="user-select: none;"><text x="0" y="21" dy="-5.67"><tspan>Discord server listing website: 17.5%</tspan></text></g></g><g fill="#000000" aria-label="Other: 9.6%" transform="translate(-216,-206.273)"><g transform="translate(-88,-10.5)" style="user-select: none;"><text x="0" y="21" dy="-5.67"><tspan>Other: 9.6%</tspan></text></g></g></g></g></g></g></g></g><g transform="translate(465.5,250)"><g><g><g/></g></g></g></g></g></g></g></g></g><g><g><g role="tooltip" visibility="hidden" opacity="0"><g fill="#ffffff" fill-opacity="0.9" stroke-width="1" stroke-opacity="1" stroke="#ffffff" filter="url(#filter-id-51)" transform="translate(0,6)" style="pointer-events: none;"><path d="M3,0 L3,0 L0,-6 L13,0 L21,0 a3,3 0 0 1 3,3 L24,8 a3,3 0 0 1 -3,3 L3,11 a3,3 0 0 1 -3,-3 L0,3 a3,3 0 0 1 3,-3"/></g><g><g fill="#ffffff" transform="translate(12,6)" style="pointer-events: none;"><g transform="translate(0,7)" display="none"/></g></g></g><g visibility="hidden" style="pointer-events: none;" display="none"><g fill="#ffffff" opacity="1"><rect width="965" height="500"/></g><g><g transform="translate(465.5,250)"><g><g stroke-opacity="1" fill="#f3f3f3" fill-opacity="0.8"><g><g><path d=" M53,0  a53,53,0,0,1,-106,0 a53,53,0,0,1,106,0 M42,0  a42,42,0,0,0,-84,0 a42,42,0,0,0,84,0 L42,0 "/></g></g></g><g stroke-opacity="1" fill="#000000" fill-opacity="0.2"><g><g><path d=" M50,0  a50,50,0,0,1,-100,0 a50,50,0,0,1,100,0 M45,0  a45,45,0,0,0,-90,0 a45,45,0,0,0,90,0 L45,0 "/></g></g></g><g fill="#000000" fill-opacity="0.4"><g transform="translate(-19.5,-10.5)" style="user-select: none;"><text x="19.5px" y="21" dy="-5.67" text-anchor="middle"><tspan>100%</tspan></text></g></g></g></g></g></g><g opacity="0.3" aria-labelledby="id-66-title" filter="url(#filter-id-66)" transform="translate(0,479)" style="cursor: pointer;"><g fill="#ffffff" opacity="0"><rect width="66" height="21"/></g><g><g shape-rendering="auto" fill="none" stroke-opacity="1" stroke-width="1.7999999999999998" stroke="#3cabff"><path d=" M15,15  C17.4001,15 22.7998,15.0001 27,15 C31.2002,14.9999 33.2999,6 36,6 C38.7001,6 38.6999,10.5 40.5,10.5 C42.3001,10.5 42.2999,6 45,6 C47.7001,6 50.9999,14.9999 54,15 C57.0002,15.0001 58.7999,15 60,15"/></g><g shape-rendering="auto" fill="none" stroke-opacity="1" stroke-width="1.7999999999999998" stroke="url(#gradient-id-69)"><path d=" M6,15  C8.2501,15 9.7498,15.0001 15,15 C20.2502,14.9999 20.7748,3.6 27,3.6 C33.2252,3.6 33.8998,14.9999 39.9,15 C45.9002,15.0001 45.9748,15 51,15 C56.0252,15 57.7499,15 60,15"/></g></g><title id="id-66-title">Chart created using amCharts library</title></g><g role="tooltip" visibility="hidden" opacity="0"><g fill="#ffffff" fill-opacity="0.9" stroke-width="1" stroke-opacity="1" stroke="#ffffff" filter="url(#filter-id-83)" transform="translate(0,6)" style="pointer-events: none;"><path d="M3,0 L3,0 L0,-6 L13,0 L21,0 a3,3 0 0 1 3,3 L24,8 a3,3 0 0 1 -3,3 L3,11 a3,3 0 0 1 -3,-3 L0,3 a3,3 0 0 1 3,-3"/></g><g><g fill="#ffffff" transform="translate(12,6)" style="pointer-events: none;"><g transform="translate(0,7)" display="none"/></g></g></g></g></g></g></g></svg>