<?xml version="1.0" encoding="utf-8"?><svg width="931px" height="500px" viewBox="0 0 931 500"  style="font-family: -apple-system, BlinkMacSystemFont, Segoe UI, Roboto, Helvetica, Arial, sans-serif, Apple Color Emoji, Segoe UI Emoji, Segoe UI Symbol;font-size: 16px;" version="1.1" xmlns="http://www.w3.org/2000/svg" xmlns:xlink="http://www.w3.org/1999/xlink"><defs xmlns="http://www.w3.org/2000/svg"><clipPath id="id-46"><rect width="931" height="500"/></clipPath><linearGradient id="gradient-id-69" x1="1%" x2="99%" y1="59%" y2="41%"><stop stop-color="#474758" offset="0"/><stop stop-color="#474758" stop-opacity="1" offset="0.75"/><stop stop-color="#3cabff" stop-opacity="1" offset="0.755"/></linearGradient><filter id="filter-id-99" filterUnits="objectBoundingBox" width="200%" height="200%" x="-50%" y="-50%"/><filter id="filter-id-120" filterUnits="objectBoundingBox" width="200%" height="200%" x="-50%" y="-50%"/><clipPath id="id-153"><path d="M0,0 L851,0 L851,328 L0,328 L0,0"/></clipPath><clipPath id="id-173"><rect width="851" height="328"/></clipPath><clipPath id="id-379"><rect width="851" height="328"/></clipPath><filter id="filter-id-51" filterUnits="objectBoundingBox" width="200%" height="200%" x="-50%" y="-50%"><feGaussianBlur result="blurOut" in="SourceGraphic" stdDeviation="1.5"/><feOffset result="offsetBlur" dx="1" dy="1"/><feFlood flood-color="#000000" flood-opacity="0.5"/><feComposite in2="offsetBlur" operator="in"/><feMerge><feMergeNode/><feMergeNode in="SourceGraphic"/></feMerge></filter><filter id="filter-id-66" filterUnits="objectBoundingBox" width="120%" height="120%" x="-10%" y="-10%"><feColorMatrix type="saturate" values="0"/></filter><filter id="filter-id-158" filterUnits="objectBoundingBox" width="200%" height="200%" x="-50%" y="-50%"><feGaussianBlur result="blurOut" in="SourceGraphic" stdDeviation="1.5"/><feOffset result="offsetBlur" dx="1" dy="1"/><feFlood flood-color="#000000" flood-opacity="0.5"/><feComposite in2="offsetBlur" operator="in"/><feMerge><feMergeNode/><feMergeNode in="SourceGraphic"/></feMerge></filter></defs><g xmlns="http://www.w3.org/2000/svg" style=""><g fill="#ffffff" fill-opacity="0"><rect width="931" height="500"/></g><g><g role="region" clip-path="url(#id-46)" opacity="1" aria-label="Chart" id="id-22"><g transform="translate(15,15)"><g><g><g><g><g transform="translate(0,32)"><g><g style="touch-action: none; user-select: none; -webkit-user-drag: none;" transform="translate(50,0)"><g fill="#ffffff" fill-opacity="0"><rect width="851" height="328"/></g><g><g><g><g stroke="#000000" stroke-opacity="0.15" fill="none" transform="translate(0,394)" display="none"><path d=" M0,0  L851,0 " transform="translate(-0.5,-0.5)"/></g><g stroke="#000000" stroke-opacity="0.15" fill="none" transform="translate(0,361)" display="none"><path d=" M0,0  L851,0 " transform="translate(-0.5,-0.5)"/></g><g stroke="#000000" stroke-opacity="0.15" fill="none" transform="translate(0,328)"><path d=" M0,0  L851,0 " transform="translate(-0.5,-0.5)"/></g><g stroke="#000000" stroke-opacity="0.15" fill="none" transform="translate(0,295)" display="none"><path d=" M0,0  L851,0 " transform="translate(-0.5,-0.5)"/></g><g stroke="#000000" stroke-opacity="0.15" fill="none" transform="translate(0,262)" display="none"><path d=" M0,0  L851,0 " transform="translate(-0.5,-0.5)"/></g><g stroke="#000000" stroke-opacity="0.15" fill="none" transform="translate(0,230)" display="none"><path d=" M0,0  L851,0 " transform="translate(-0.5,-0.5)"/></g><g stroke="#000000" stroke-opacity="0.15" fill="none" transform="translate(0,-82)" display="none"><path d=" M0,0  L851,0 " transform="translate(-0.5,-0.5)"/></g><g stroke="#000000" stroke-opacity="0.15" fill="none" transform="translate(0,164)"><path d=" M0,0  L851,0 " transform="translate(-0.5,-0.5)"/></g><g stroke="#000000" stroke-opacity="0.15" fill="none"><path d=" M0,0  L851,0 " transform="translate(-0.5,-0.5)"/></g><g stroke="#000000" stroke-opacity="0.15" fill="none" transform="translate(0,82)"><path d=" M0,0  L851,0 " transform="translate(-0.5,-0.5)"/></g><g stroke="#000000" stroke-opacity="0.15" fill="none" transform="translate(0,246)"><path d=" M0,0  L851,0 " transform="translate(-0.5,-0.5)"/></g><g stroke="#000000" stroke-opacity="0.15" fill="none" transform="translate(0,410)" display="none"><path d=" M0,0  L851,0 " transform="translate(-0.5,-0.5)"/></g><g stroke="#000000" stroke-opacity="0.15" fill="none" transform="translate(0,492)" display="none"><path d=" M0,0  L851,0 " transform="translate(-0.5,-0.5)"/></g></g></g><g><g><g stroke="#000000" stroke-opacity="0.15" fill="none"><path d=" M0,0  L0,328 " transform="translate(-0.5,-0.5)"/></g><g stroke="#000000" stroke-opacity="0.15" fill="none" transform="translate(45,0)"><path d=" M0,0  L0,328 " transform="translate(-0.5,-0.5)"/></g><g stroke="#000000" stroke-opacity="0.15" fill="none" transform="translate(90,0)"><path d=" M0,0  L0,328 " transform="translate(-0.5,-0.5)"/></g><g stroke="#000000" stroke-opacity="0.15" fill="none" transform="translate(134,0)"><path d=" M0,0  L0,328 " transform="translate(-0.5,-0.5)"/></g><g stroke="#000000" stroke-opacity="0.15" fill="none" transform="translate(179,0)"><path d=" M0,0  L0,328 " transform="translate(-0.5,-0.5)"/></g><g stroke="#000000" stroke-opacity="0.15" fill="none" transform="translate(224,0)"><path d=" M0,0  L0,328 " transform="translate(-0.5,-0.5)"/></g><g stroke="#000000" stroke-opacity="0.15" fill="none" transform="translate(269,0)"><path d=" M0,0  L0,328 " transform="translate(-0.5,-0.5)"/></g><g stroke="#000000" stroke-opacity="0.15" fill="none" transform="translate(314,0)"><path d=" M0,0  L0,328 " transform="translate(-0.5,-0.5)"/></g><g stroke="#000000" stroke-opacity="0.15" fill="none" transform="translate(358,0)"><path d=" M0,0  L0,328 " transform="translate(-0.5,-0.5)"/></g><g stroke="#000000" stroke-opacity="0.15" fill="none" transform="translate(403,0)"><path d=" M0,0  L0,328 " transform="translate(-0.5,-0.5)"/></g><g stroke="#000000" stroke-opacity="0.15" fill="none" transform="translate(448,0)"><path d=" M0,0  L0,328 " transform="translate(-0.5,-0.5)"/></g><g stroke="#000000" stroke-opacity="0.15" fill="none" transform="translate(493,0)"><path d=" M0,0  L0,328 " transform="translate(-0.5,-0.5)"/></g><g stroke="#000000" stroke-opacity="0.15" fill="none" transform="translate(537,0)"><path d=" M0,0  L0,328 " transform="translate(-0.5,-0.5)"/></g><g stroke="#000000" stroke-opacity="0.15" fill="none" transform="translate(582,0)"><path d=" M0,0  L0,328 " transform="translate(-0.5,-0.5)"/></g><g stroke="#000000" stroke-opacity="0.15" fill="none" transform="translate(627,0)"><path d=" M0,0  L0,328 " transform="translate(-0.5,-0.5)"/></g><g stroke="#000000" stroke-opacity="0.15" fill="none" transform="translate(672,0)"><path d=" M0,0  L0,328 " transform="translate(-0.5,-0.5)"/></g><g stroke="#000000" stroke-opacity="0.15" fill="none" transform="translate(717,0)"><path d=" M0,0  L0,328 " transform="translate(-0.5,-0.5)"/></g><g stroke="#000000" stroke-opacity="0.15" fill="none" transform="translate(761,0)"><path d=" M0,0  L0,328 " transform="translate(-0.5,-0.5)"/></g><g stroke="#000000" stroke-opacity="0.15" fill="none" transform="translate(806,0)"><path d=" M0,0  L0,328 " transform="translate(-0.5,-0.5)"/></g><g stroke="#000000" stroke-opacity="0.15" fill="none" transform="translate(851,0)"><path d=" M0,0  L0,328 " transform="translate(-0.5,-0.5)"/></g></g></g><g><g><g role="group" stroke-opacity="0" fill-opacity="1" stroke="#67b7dc" aria-label="Series"><g><g clip-path="url(#id-153)"><g><g><g><g stroke-opacity="1" stroke-width="0" fill="#67b7dc" fill-opacity="1" stroke="#67b7dc" role="menuitem" focusable="true" tabindex="0" transform="translate(4.476,36.08)"><g><g fill-opacity="0.8"><path d="M10,0 L25.836,0 a10,10 0 0 1 10,10 L35.836,291.92 a0,0 0 0 1 -0,0 L0,291.92 a0,0 0 0 1 -0,-0 L0,10 a10,10 0 0 1 10,-10 Z"/></g></g></g><g stroke-opacity="1" stroke-width="0" fill="#6794dc" fill-opacity="1" stroke="#67b7dc" role="menuitem" focusable="true" tabindex="0" transform="translate(49.264,208.28)"><g><g fill-opacity="0.8"><path d="M10,0 L25.836,0 a10,10 0 0 1 10,10 L35.836,119.72 a0,0 0 0 1 -0,0 L0,119.72 a0,0 0 0 1 -0,-0 L0,10 a10,10 0 0 1 10,-10 Z"/></g></g></g><g stroke-opacity="1" stroke-width="0" fill="#6771dc" fill-opacity="1" stroke="#67b7dc" role="menuitem" focusable="true" tabindex="0" transform="translate(94.061,190.24)"><g><g fill-opacity="0.8"><path d="M10,0 L25.826999999999998,0 a10,10 0 0 1 10,10 L35.827,137.76 a0,0 0 0 1 -0,0 L0,137.76 a0,0 0 0 1 -0,-0 L0,10 a10,10 0 0 1 10,-10 Z"/></g></g></g><g stroke-opacity="1" stroke-width="0" fill="#8067dc" fill-opacity="1" stroke="#67b7dc" role="menuitem" focusable="true" tabindex="0" transform="translate(138.849,111.52)"><g><g fill-opacity="0.8"><path d="M10,0 L25.826999999999998,0 a10,10 0 0 1 10,10 L35.827,216.48 a0,0 0 0 1 -0,0 L0,216.48 a0,0 0 0 1 -0,-0 L0,10 a10,10 0 0 1 10,-10 Z"/></g></g></g><g stroke-opacity="1" stroke-width="0" fill="#a367dc" fill-opacity="1" stroke="#67b7dc" role="menuitem" focusable="true" tabindex="0" transform="translate(183.637,250.92)"><g><g fill-opacity="0.8"><path d="M10,0 L25.826999999999998,0 a10,10 0 0 1 10,10 L35.827,77.08 a0,0 0 0 1 -0,0 L0,77.08 a0,0 0 0 1 -0,-0 L0,10 a10,10 0 0 1 10,-10 Z"/></g></g></g><g stroke-opacity="1" stroke-width="0" fill="#c767dc" fill-opacity="1" stroke="#67b7dc" role="menuitem" focusable="true" tabindex="0" transform="translate(228.425,134.48)"><g><g fill-opacity="0.8"><path d="M10,0 L25.836,0 a10,10 0 0 1 10,10 L35.836,193.52 a0,0 0 0 1 -0,0 L0,193.52 a0,0 0 0 1 -0,-0 L0,10 a10,10 0 0 1 10,-10 Z"/></g></g></g><g stroke-opacity="1" stroke-width="0" fill="#dc67ce" fill-opacity="1" stroke="#67b7dc" role="menuitem" focusable="true" tabindex="0" transform="translate(273.214,159.08)"><g><g fill-opacity="0.8"><path d="M10,0 L25.836,0 a10,10 0 0 1 10,10 L35.836,168.92 a0,0 0 0 1 -0,0 L0,168.92 a0,0 0 0 1 -0,-0 L0,10 a10,10 0 0 1 10,-10 Z"/></g></g></g><g stroke-opacity="1" stroke-width="0" fill="#dc67ab" fill-opacity="1" stroke="#67b7dc" role="menuitem" focusable="true" tabindex="0" transform="translate(318.002,250.92)"><g><g fill-opacity="0.8"><path d="M10,0 L25.836,0 a10,10 0 0 1 10,10 L35.836,77.08 a0,0 0 0 1 -0,0 L0,77.08 a0,0 0 0 1 -0,-0 L0,10 a10,10 0 0 1 10,-10 Z"/></g></g></g><g stroke-opacity="1" stroke-width="0" fill="#dc6788" fill-opacity="1" stroke="#67b7dc" role="menuitem" focusable="true" tabindex="0" transform="translate(362.798,288.64)"><g><g fill-opacity="0.8"><path d="M10,0 L25.826999999999998,0 a10,10 0 0 1 10,10 L35.827,39.36 a0,0 0 0 1 -0,0 L0,39.36 a0,0 0 0 1 -0,-0 L0,10 a10,10 0 0 1 10,-10 Z"/></g></g></g><g stroke-opacity="1" stroke-width="0" fill="#dc6967" fill-opacity="1" stroke="#67b7dc" role="menuitem" focusable="true" tabindex="0" transform="translate(407.586,291.92)"><g><g fill-opacity="0.8"><path d="M10,0 L25.826999999999998,0 a10,10 0 0 1 10,10 L35.827,36.08 a0,0 0 0 1 -0,0 L0,36.08 a0,0 0 0 1 -0,-0 L0,10 a10,10 0 0 1 10,-10 Z"/></g></g></g><g stroke-opacity="1" stroke-width="0" fill="#dc8c67" fill-opacity="1" stroke="#67b7dc" role="menuitem" focusable="true" tabindex="0" transform="translate(452.375,291.92)"><g><g fill-opacity="0.8"><path d="M10,0 L25.826999999999998,0 a10,10 0 0 1 10,10 L35.827,36.08 a0,0 0 0 1 -0,0 L0,36.08 a0,0 0 0 1 -0,-0 L0,10 a10,10 0 0 1 10,-10 Z"/></g></g></g><g stroke-opacity="1" stroke-width="0" fill="#dcaf67" fill-opacity="1" stroke="#67b7dc" role="menuitem" focusable="true" tabindex="0" transform="translate(497.163,188.6)"><g><g fill-opacity="0.8"><path d="M10,0 L25.836,0 a10,10 0 0 1 10,10 L35.836,139.4 a0,0 0 0 1 -0,0 L0,139.4 a0,0 0 0 1 -0,-0 L0,10 a10,10 0 0 1 10,-10 Z"/></g></g></g><g stroke-opacity="1" stroke-width="0" fill="#dcd267" fill-opacity="1" stroke="#67b7dc" role="menuitem" focusable="true" tabindex="0" transform="translate(541.951,313.24)"><g><g fill-opacity="0.8"><path d="M7.38,0 L28.456,0 a7.38,7.38 0 0 1 7.38,7.38 L35.836,14.76 a0,0 0 0 1 -0,0 L0,14.76 a0,0 0 0 1 -0,-0 L0,7.38 a7.38,7.38 0 0 1 7.38,-7.38 Z"/></g></g></g><g stroke-opacity="1" stroke-width="0" fill="#c3dc67" fill-opacity="1" stroke="#67b7dc" role="menuitem" focusable="true" tabindex="0" transform="translate(586.739,313.24)"><g><g fill-opacity="0.8"><path d="M7.38,0 L28.456,0 a7.38,7.38 0 0 1 7.38,7.38 L35.836,14.76 a0,0 0 0 1 -0,0 L0,14.76 a0,0 0 0 1 -0,-0 L0,7.38 a7.38,7.38 0 0 1 7.38,-7.38 Z"/></g></g></g><g stroke-opacity="1" stroke-width="0" fill="#a0dc67" fill-opacity="1" stroke="#67b7dc" role="menuitem" focusable="true" tabindex="0" transform="translate(631.536,311.6)"><g><g fill-opacity="0.8"><path d="M8.2,0 L27.627,0 a8.2,8.2 0 0 1 8.2,8.2 L35.827,16.4 a0,0 0 0 1 -0,0 L0,16.4 a0,0 0 0 1 -0,-0 L0,8.2 a8.2,8.2 0 0 1 8.2,-8.2 Z"/></g></g></g><g stroke-opacity="1" stroke-width="0" fill="#7ddc67" fill-opacity="1" stroke="#67b7dc" role="menuitem" focusable="true" tabindex="0" transform="translate(676.324,314.88)"><g><g fill-opacity="0.8"><path d="M6.56,0 L29.267,0 a6.56,6.56 0 0 1 6.56,6.56 L35.827,13.12 a0,0 0 0 1 -0,0 L0,13.12 a0,0 0 0 1 -0,-0 L0,6.56 a6.56,6.56 0 0 1 6.56,-6.56 Z"/></g></g></g><g stroke-opacity="1" stroke-width="0" fill="#67dc75" fill-opacity="1" stroke="#67b7dc" role="menuitem" focusable="true" tabindex="0" transform="translate(721.112,291.92)"><g><g fill-opacity="0.8"><path d="M10,0 L25.826999999999998,0 a10,10 0 0 1 10,10 L35.827,36.08 a0,0 0 0 1 -0,0 L0,36.08 a0,0 0 0 1 -0,-0 L0,10 a10,10 0 0 1 10,-10 Z"/></g></g></g><g stroke-opacity="1" stroke-width="0" fill="#67dc98" fill-opacity="1" stroke="#67b7dc" role="menuitem" focusable="true" tabindex="0" transform="translate(765.9,313.24)"><g><g fill-opacity="0.8"><path d="M7.38,0 L28.456,0 a7.38,7.38 0 0 1 7.38,7.38 L35.836,14.76 a0,0 0 0 1 -0,0 L0,14.76 a0,0 0 0 1 -0,-0 L0,7.38 a7.38,7.38 0 0 1 7.38,-7.38 Z"/></g></g></g><g stroke-opacity="1" stroke-width="0" fill="#67dcbb" fill-opacity="1" stroke="#67b7dc" role="menuitem" focusable="true" tabindex="0" transform="translate(810.688,321.44)"><g><g fill-opacity="0.8"><path d="M3.28,0 L32.556,0 a3.28,3.28 0 0 1 3.28,3.28 L35.836,6.56 a0,0 0 0 1 -0,0 L0,6.56 a0,0 0 0 1 -0,-0 L0,3.28 a3.28,3.28 0 0 1 3.28,-3.28 Z"/></g></g></g></g></g></g></g><g/></g></g></g></g><g clip-path="url(#id-379)"><g><g fill="#67b7dc" stroke="#67b7dc"><g/></g></g></g><g><g><g><g/></g><g><g/></g></g></g><g><g/></g><g><g/></g><g opacity="0" visibility="hidden" aria-hidden="true" clip-path="url(#id-173)" style="touch-action: none; user-select: none; -webkit-user-drag: none;"><g><g fill-opacity="0.2" fill="#000000" visibility="hidden" style="pointer-events: none;"><path/></g><g stroke="#000000" fill="none" stroke-dasharray="3,3" stroke-opacity="0.4" style="pointer-events: none;" transform="translate(829,0)"><path d=" M0,0  L0,328 "/></g><g stroke="#000000" fill="none" stroke-dasharray="3,3" stroke-opacity="0.4" style="pointer-events: none;"><path d=" M0,0  L851,0 "/></g></g></g><g role="button" focusable="true" tabindex="0" opacity="0" visibility="hidden" aria-hidden="true" transform="translate(811,-3)" aria-labelledby="id-37-title"><g fill="#6794dc" stroke="#ffffff" fill-opacity="1" stroke-opacity="0" transform="translate(0,8)"><path d="M17,0 L18,0 a17,17 0 0 1 17,17 L35,17 a17,17 0 0 1 -17,17 L17,34 a17,17 0 0 1 -17,-17 L0,17 a17,17 0 0 1 17,-17 Z"/></g><g transform="translate(9,9)"><g stroke="#ffffff" style="pointer-events: none;" transform="translate(0,8)"><path d=" M0,0  L11,0 " transform="translate(2.5,7.5)"/></g><g fill="#000000" style="pointer-events: none;" transform="translate(17,8)"><g display="none"/></g></g><title id="id-37-title">Zoom Out</title></g></g></g><g><g><g aria-hidden="true"><g><g fill="#000000" transform="translate(0,164) rotate(-90)"><g display="none"/></g><g stroke="#000000" stroke-opacity="0.15" fill="none" transform="translate(50,328)" opacity="1"><path transform="translate(-0.5,-0.5)" d=" M0,0  L851,0 "/></g><g><g><g fill="#000000" aria-label="L" fill-opacity="0" opacity="0" stroke-opacity="0" style="pointer-events: none;" transform="translate(50,164)"><g transform="translate(-37,-10.5)" style="user-select: none;"><text x="0" y="21" dy="-5.67"><tspan>100</tspan></text></g></g><g fill="#000000" transform="translate(50,393.6)" display="none"><g transform="translate(-35,-10.5)" style="user-select: none;"><text x="0" y="21" dy="-5.67"><tspan>-40</tspan></text></g></g><g fill="#000000" transform="translate(50,360.8)" display="none"><g transform="translate(-35,-10.5)" style="user-select: none;"><text x="0" y="21" dy="-5.67"><tspan>-20</tspan></text></g></g><g fill="#000000" transform="translate(50,328)"><g transform="translate(-19,-10.5)" style="user-select: none;"><text x="0" y="21" dy="-5.67"><tspan>0</tspan></text></g></g><g fill="#000000" transform="translate(50,295.2)" display="none"><g transform="translate(-28,-10.5)" style="user-select: none;"><text x="0" y="21" dy="-5.67"><tspan>20</tspan></text></g></g><g fill="#000000" transform="translate(50,262.4)" display="none"><g transform="translate(-29,-10.5)" style="user-select: none;"><text x="0" y="21" dy="-5.67"><tspan>40</tspan></text></g></g><g fill="#000000" transform="translate(50,229.6)" display="none"><g transform="translate(-28,-10.5)" style="user-select: none;"><text x="0" y="21" dy="-5.67"><tspan>60</tspan></text></g></g><g fill="#000000" transform="translate(50,-82)" display="none"><g transform="translate(-37,-10.5)" style="user-select: none;"><text x="0" y="21" dy="-5.67"><tspan>250</tspan></text></g></g><g fill="#000000" transform="translate(50,164)"><g transform="translate(-37,-10.5)" style="user-select: none;"><text x="0" y="21" dy="-5.67"><tspan>100</tspan></text></g></g><g fill="#000000" transform="translate(50,0)"><g transform="translate(-37,-10.5)" style="user-select: none;"><text x="0" y="21" dy="-5.67"><tspan>200</tspan></text></g></g><g fill="#000000" transform="translate(50,82)"><g transform="translate(-37,-10.5)" style="user-select: none;"><text x="0" y="21" dy="-5.67"><tspan>150</tspan></text></g></g><g fill="#000000" transform="translate(50,246)"><g transform="translate(-28,-10.5)" style="user-select: none;"><text x="0" y="21" dy="-5.67"><tspan>50</tspan></text></g></g><g fill="#000000" transform="translate(50,410)" display="none"><g transform="translate(-35,-10.5)" style="user-select: none;"><text x="0" y="21" dy="-5.67"><tspan>-50</tspan></text></g></g><g fill="#000000" transform="translate(50,492)" display="none"><g transform="translate(-43,-10.5)" style="user-select: none;"><text x="0" y="21" dy="-5.67"><tspan>-100</tspan></text></g></g></g></g><g stroke="#000000" stroke-opacity="0" fill="none" style="pointer-events: none;" transform="translate(50,0)"><path d=" M0,0  L0,328 " transform="translate(-0.5,-0.5)"/></g></g></g></g></g><g transform="translate(901,0)"><g/></g></g></g><g><g transform="translate(50,0)"><g role="scrollbar" aria-valuemin="0" aria-valuemax="100" aria-valuenow="0" aria-valuetext="From JavaScript to Elixir" aria-labelledby="id-73-title" aria-orientation="horizontal" aria-controls="id-22" transform="translate(0,10)"><g fill="#f3f3f3" fill-opacity="0.5"><path d="M6,0 L845,0 a6,6 0 0 1 6,6 L851,6 a6,6 0 0 1 -6,6 L6,12 a6,6 0 0 1 -6,-6 L0,6 a6,6 0 0 1 6,-6 Z"/></g><g><g role="slider" focusable="true" tabindex="0" aria-valuemin="0" aria-valuemax="100" aria-live="polite" style="touch-action: none; user-select: none; -webkit-user-drag: none; cursor: -webkit-grab;" aria-labelledby="id-87-title" aria-valuenow="0" aria-valuetext="From JavaScript to Elixir" aria-describedby="id-87-description" transform="translate(0,6)"><g fill="#d9d9d9" stroke="#ffffff" fill-opacity="1" stroke-opacity="1" transform="translate(0,-6)"><path d="M6,0 L845,0 a6,6 0 0 1 6,6 L851,6 a6,6 0 0 1 -6,6 L6,12 a6,6 0 0 1 -6,-6 L0,6 a6,6 0 0 1 6,-6 Z"/></g><g transform="translate(0,-6)"><g fill="#000000" style="pointer-events: none;" transform="translate(425.5,6)"><g display="none"/></g></g><title id="id-87-title">From JavaScript to Elixir</title><desc id="id-87-description">Use left and right arrows to move selection</desc></g><g role="slider" focusable="true" tabindex="0" aria-valuemin="0" aria-valuemax="100" style="touch-action: none; user-select: none; -webkit-user-drag: none; cursor: ew-resize;" aria-labelledby="id-75-title" aria-valuenow="0" aria-valuetext="From JavaScript" aria-describedby="id-75-description" transform="translate(0,6)" opacity="0" visibility="hidden" aria-hidden="true"><g fill="#d9d9d9" stroke="#ffffff" fill-opacity="1" stroke-opacity="1" transform="translate(-14,-14)"><path d="M14,0 L14,0 a14,14 0 0 1 14,14 L28,14 a14,14 0 0 1 -14,14 L14,28 a14,14 0 0 1 -14,-14 L0,14 a14,14 0 0 1 14,-14 Z"/></g><g transform="translate(-6,-12)"><g stroke="#ffffff" stroke-opacity="0.7" style="pointer-events: none;" transform="translate(2,12)"><path d=" M-2,-6  L-2,6  M2,-6  L2,6 " transform="translate(3.5,-0.5)"/></g></g><title id="id-75-title">From JavaScript</title><desc id="id-75-description">Use left and right arrows to move left selection</desc></g><g role="slider" focusable="true" tabindex="0" aria-valuemin="0" aria-valuemax="100" style="touch-action: none; user-select: none; -webkit-user-drag: none; cursor: ew-resize;" aria-labelledby="id-81-title" aria-valuenow="100" aria-valuetext="To Elixir" aria-describedby="id-81-description" transform="translate(851,6)" opacity="0" visibility="hidden" aria-hidden="true"><g fill="#d9d9d9" stroke="#ffffff" fill-opacity="1" stroke-opacity="1" transform="translate(-14,-14)"><path d="M14,0 L14,0 a14,14 0 0 1 14,14 L28,14 a14,14 0 0 1 -14,14 L14,28 a14,14 0 0 1 -14,-14 L0,14 a14,14 0 0 1 14,-14 Z"/></g><g transform="translate(-6,-12)"><g stroke="#ffffff" stroke-opacity="0.7" style="pointer-events: none;" transform="translate(2,12)"><path d=" M-2,-6  L-2,6  M2,-6  L2,6 " transform="translate(3.5,-0.5)"/></g></g><title id="id-81-title">To Elixir</title><desc id="id-81-description">Use left and right arrows to move right selection</desc></g></g><title id="id-73-title">Use TAB to select grip buttons or left and right arrows to change selection</title></g></g></g><g transform="translate(0,360)"><g transform="translate(50,0)"><g aria-hidden="true"><g><g stroke="#000000" stroke-opacity="0" fill="none" style="pointer-events: none;"><path d=" M0,0  L851,0 " transform="translate(-0.5,-0.5)"/></g><g><g><g fill="#000000" aria-label="L" fill-opacity="0" opacity="0" stroke-opacity="0" style="pointer-events: none;" transform="translate(425.5,0) rotate(270)"><g transform="translate(-47,-10.5)" style="user-select: none;"><text x="0" y="21" dy="-5.67"><tspan>Ruby</tspan></text></g></g><g fill="#000000" transform="translate(22.394,0) rotate(270)"><g transform="translate(-82,-10.5)" style="user-select: none;"><text x="0" y="21" dy="-5.67"><tspan>JavaScript</tspan></text></g></g><g fill="#000000" transform="translate(67.182,0) rotate(270)"><g transform="translate(-42,-10.5)" style="user-select: none;"><text x="0" y="21" dy="-5.67"><tspan>C++</tspan></text></g></g><g fill="#000000" transform="translate(111.97,0) rotate(270)"><g transform="translate(-41,-10.5)" style="user-select: none;"><text x="0" y="21" dy="-5.67"><tspan>Java</tspan></text></g></g><g fill="#000000" transform="translate(156.763,0) rotate(270)"><g transform="translate(-60,-10.5)" style="user-select: none;"><text x="0" y="21" dy="-5.67"><tspan>Python</tspan></text></g></g><g fill="#000000" transform="translate(201.555,0) rotate(270)"><g transform="translate(-20,-10.5)" style="user-select: none;"><text x="0" y="21" dy="-5.67"><tspan>C</tspan></text></g></g><g fill="#000000" transform="translate(246.343,0) rotate(270)"><g transform="translate(-53,-10.5)" style="user-select: none;"><text x="0" y="21" dy="-5.67"><tspan>HTML</tspan></text></g></g><g fill="#000000" transform="translate(291.131,0) rotate(270)"><g transform="translate(-37,-10.5)" style="user-select: none;"><text x="0" y="21" dy="-5.67"><tspan>CSS</tspan></text></g></g><g fill="#000000" transform="translate(335.919,0) rotate(270)"><g transform="translate(-30,-10.5)" style="user-select: none;"><text x="0" y="21" dy="-5.67"><tspan>C#</tspan></text></g></g><g fill="#000000" transform="translate(380.708,0) rotate(270)"><g transform="translate(-40,-10.5)" style="user-select: none;"><text x="0" y="21" dy="-5.67"><tspan>PHP</tspan></text></g></g><g fill="#000000" transform="translate(425.5,0) rotate(270)"><g transform="translate(-51,-10.5)" style="user-select: none;"><text x="0" y="21" dy="-5.67"><tspan>Kotlin</tspan></text></g></g><g fill="#000000" transform="translate(470.292,0) rotate(270)"><g transform="translate(-42,-10.5)" style="user-select: none;"><text x="0" y="21" dy="-5.67"><tspan>Rust</tspan></text></g></g><g fill="#000000" transform="translate(515.081,0) rotate(270)"><g transform="translate(-84,-10.5)" style="user-select: none;"><text x="0" y="21" dy="-5.67"><tspan>TypeScript</tspan></text></g></g><g fill="#000000" transform="translate(559.869,0) rotate(270)"><g transform="translate(-61,-10.5)" style="user-select: none;"><text x="0" y="21" dy="-5.67"><tspan>Haskell</tspan></text></g></g><g fill="#000000" transform="translate(604.657,0) rotate(270)"><g transform="translate(-35,-10.5)" style="user-select: none;"><text x="0" y="21" dy="-5.67"><tspan>Lua</tspan></text></g></g><g fill="#000000" transform="translate(649.445,0) rotate(270)"><g transform="translate(-79,-10.5)" style="user-select: none;"><text x="0" y="21" dy="-5.67"><tspan>Assembly</tspan></text></g></g><g fill="#000000" transform="translate(694.237,0) rotate(270)"><g transform="translate(-38,-10.5)" style="user-select: none;"><text x="0" y="21" dy="-5.67"><tspan>Lisp</tspan></text></g></g><g fill="#000000" transform="translate(739.03,0) rotate(270)"><g transform="translate(-31,-10.5)" style="user-select: none;"><text x="0" y="21" dy="-5.67"><tspan>Go</tspan></text></g></g><g fill="#000000" transform="translate(783.818,0) rotate(270)"><g transform="translate(-47,-10.5)" style="user-select: none;"><text x="0" y="21" dy="-5.67"><tspan>Ruby</tspan></text></g></g><g fill="#000000" transform="translate(828.606,0) rotate(270)"><g transform="translate(-44,-10.5)" style="user-select: none;"><text x="0" y="21" dy="-5.67"><tspan>Elixir</tspan></text></g></g><g fill="#000000" display="none" transform="translate(873.394,0) rotate(270)"><g transform="translate(-10,0)" display="none"/></g></g></g><g stroke="#000000" stroke-opacity="0.15" fill="none" display="none" transform="translate(851,-328)" opacity="0" visibility="hidden" aria-hidden="true"><path transform="translate(-0.5,-0.5)" d=" M0,0  L0,328 "/></g><g fill="#000000" transform="translate(425.5,110)"><g display="none"/></g></g></g></g></g></g></g></g></g></g></g><g><g><g role="tooltip" visibility="hidden" opacity="0"><g fill="#ffffff" fill-opacity="0.9" stroke-width="1" stroke-opacity="1" stroke="#ffffff" filter="url(#filter-id-51)" style="pointer-events: none;" transform="translate(0,6)"><path d="M3,0 L3,0 L0,-6 L13,0 L21,0 a3,3 0 0 1 3,3 L24,8 a3,3 0 0 1 -3,3 L3,11 a3,3 0 0 1 -3,-3 L0,3 a3,3 0 0 1 3,-3"/></g><g><g fill="#ffffff" style="pointer-events: none;" transform="translate(12,6)"><g transform="translate(0,7)" display="none"/></g></g></g><g visibility="hidden" style="pointer-events: none;" display="none"><g fill="#ffffff" opacity="1"><rect width="931" height="500"/></g><g><g transform="translate(465.5,250)"><g><g stroke-opacity="1" fill="#f3f3f3" fill-opacity="0.8"><g><g><path d=" M53,0  a53,53,0,0,1,-106,0 a53,53,0,0,1,106,0 M42,0  a42,42,0,0,0,-84,0 a42,42,0,0,0,84,0 L42,0 "/></g></g></g><g stroke-opacity="1" fill="#000000" fill-opacity="0.2"><g><g><path d=" M50,0  a50,50,0,0,1,-100,0 a50,50,0,0,1,100,0 M45,0  a45,45,0,0,0,-90,0 a45,45,0,0,0,90,0 L45,0 "/></g></g></g><g fill="#000000" fill-opacity="0.4"><g transform="translate(-19.5,-10.5)" style="user-select: none;"><text x="19.5px" y="21" dy="-5.67" text-anchor="middle"><tspan>100%</tspan></text></g></g></g></g></g></g><g opacity="0.3" aria-labelledby="id-66-title" filter="url(#filter-id-66)" style="cursor: pointer;" transform="translate(0,479)"><g fill="#ffffff" opacity="0"><rect width="66" height="21"/></g><g><g shape-rendering="auto" fill="none" stroke-opacity="1" stroke-width="1.7999999999999998" stroke="#3cabff"><path d=" M15,15  C17.4001,15 22.7998,15.0001 27,15 C31.2002,14.9999 33.2999,6 36,6 C38.7001,6 38.6999,10.5 40.5,10.5 C42.3001,10.5 42.2999,6 45,6 C47.7001,6 50.9999,14.9999 54,15 C57.0002,15.0001 58.7999,15 60,15"/></g><g shape-rendering="auto" fill="none" stroke-opacity="1" stroke-width="1.7999999999999998" stroke="url(#gradient-id-69)"><path d=" M6,15  C8.2501,15 9.7498,15.0001 15,15 C20.2502,14.9999 20.7748,3.6 27,3.6 C33.2252,3.6 33.8998,14.9999 39.9,15 C45.9002,15.0001 45.9748,15 51,15 C56.0252,15 57.7499,15 60,15"/></g></g><title id="id-66-title">Chart created using amCharts library</title></g><g role="tooltip" visibility="hidden" opacity="0" display="none"><g fill="#000000" fill-opacity="1" stroke-width="1" stroke-opacity="1" stroke="#000000" style="pointer-events: none;"><path/></g><g><g fill="#ffffff" style="pointer-events: none;"><g transform="translate(0,5)"/></g></g></g><g role="tooltip" visibility="hidden" opacity="0"><g fill="#000000" fill-opacity="1" stroke-width="1" stroke-opacity="1" stroke="#000000" style="pointer-events: none;" transform="translate(-25,47)"><path d="M0,0 L20,0 a0,0 0 0 1 0,0 L20,0 L20,0 L25,0 L20,10 L20,10 a0,0 0 0 1 -0,0 L0,10 a0,0 0 0 1 -0,-0 L0,0 a0,0 0 0 1 0,-0"/></g><g><g fill="#ffffff" style="pointer-events: none;" transform="translate(-15,47)"><g transform="translate(0,5)" display="none"/></g></g></g><g role="tooltip" visibility="hidden" opacity="0"><g fill="#ffffff" fill-opacity="0.9" stroke-width="1" stroke-opacity="1" stroke="#ffffff" filter="url(#filter-id-158)" style="pointer-events: none;" transform="translate(0,6)"><path d="M3,0 L3,0 L0,-6 L13,0 L21,0 a3,3 0 0 1 3,3 L24,8 a3,3 0 0 1 -3,3 L3,11 a3,3 0 0 1 -3,-3 L0,3 a3,3 0 0 1 3,-3"/></g><g><g fill="#ffffff" style="pointer-events: none;" transform="translate(12,6)"><g transform="translate(0,7)" display="none"/></g></g></g></g></g></g></g></svg>