<?xml version="1.0" encoding="utf-8"?><svg width="985px" height="650px" viewBox="0 0 985 650"  style="font-family: -apple-system, BlinkMacSystemFont, Segoe UI, Roboto, Helvetica, Arial, sans-serif, Apple Color Emoji, Segoe UI Emoji, Segoe UI Symbol;font-size: 16px;" version="1.1" xmlns="http://www.w3.org/2000/svg" xmlns:xlink="http://www.w3.org/1999/xlink"><defs xmlns="http://www.w3.org/2000/svg"><clipPath id="id-46"><rect width="985" height="650"/></clipPath><linearGradient id="gradient-id-69" x1="1%" x2="99%" y1="59%" y2="41%"><stop stop-color="#474758" offset="0"/><stop stop-color="#474758" stop-opacity="1" offset="0.75"/><stop stop-color="#3cabff" stop-opacity="1" offset="0.755"/></linearGradient><filter id="filter-id-103" filterUnits="objectBoundingBox" width="200%" height="200%" x="-50%" y="-50%"/><filter id="filter-id-124" filterUnits="objectBoundingBox" width="200%" height="200%" x="-50%" y="-50%"/><clipPath id="id-144"><path d="M0,0 L875,0 L875,456 L0,456 L0,0"/></clipPath><clipPath id="id-165"><path d="M0,0 L875,0 L875,456 L0,456 L0,0"/></clipPath><clipPath id="id-186"><path d="M0,0 L875,0 L875,456 L0,456 L0,0"/></clipPath><clipPath id="id-207"><path d="M0,0 L875,0 L875,456 L0,456 L0,0"/></clipPath><clipPath id="id-228"><path d="M0,0 L875,0 L875,456 L0,456 L0,0"/></clipPath><clipPath id="id-561"><rect width="875" height="456"/></clipPath><filter id="filter-id-51" filterUnits="objectBoundingBox" width="200%" height="200%" x="-50%" y="-50%"><feGaussianBlur result="blurOut" in="SourceGraphic" stdDeviation="1.5"/><feOffset result="offsetBlur" dx="1" dy="1"/><feFlood flood-color="#000000" flood-opacity="0.5"/><feComposite in2="offsetBlur" operator="in"/><feMerge><feMergeNode/><feMergeNode in="SourceGraphic"/></feMerge></filter><filter id="filter-id-66" filterUnits="objectBoundingBox" width="120%" height="120%" x="-10%" y="-10%"><feColorMatrix type="saturate" values="0"/></filter><filter id="filter-id-149" filterUnits="objectBoundingBox" width="200%" height="200%" x="-50%" y="-50%"><feGaussianBlur result="blurOut" in="SourceGraphic" stdDeviation="1.5"/><feOffset result="offsetBlur" dx="1" dy="1"/><feFlood flood-color="#000000" flood-opacity="0.5"/><feComposite in2="offsetBlur" operator="in"/><feMerge><feMergeNode/><feMergeNode in="SourceGraphic"/></feMerge></filter><filter id="filter-id-170" filterUnits="objectBoundingBox" width="200%" height="200%" x="-50%" y="-50%"><feGaussianBlur result="blurOut" in="SourceGraphic" stdDeviation="1.5"/><feOffset result="offsetBlur" dx="1" dy="1"/><feFlood flood-color="#000000" flood-opacity="0.5"/><feComposite in2="offsetBlur" operator="in"/><feMerge><feMergeNode/><feMergeNode in="SourceGraphic"/></feMerge></filter><filter id="filter-id-191" filterUnits="objectBoundingBox" width="200%" height="200%" x="-50%" y="-50%"><feGaussianBlur result="blurOut" in="SourceGraphic" stdDeviation="1.5"/><feOffset result="offsetBlur" dx="1" dy="1"/><feFlood flood-color="#000000" flood-opacity="0.5"/><feComposite in2="offsetBlur" operator="in"/><feMerge><feMergeNode/><feMergeNode in="SourceGraphic"/></feMerge></filter><filter id="filter-id-212" filterUnits="objectBoundingBox" width="200%" height="200%" x="-50%" y="-50%"><feGaussianBlur result="blurOut" in="SourceGraphic" stdDeviation="1.5"/><feOffset result="offsetBlur" dx="1" dy="1"/><feFlood flood-color="#000000" flood-opacity="0.5"/><feComposite in2="offsetBlur" operator="in"/><feMerge><feMergeNode/><feMergeNode in="SourceGraphic"/></feMerge></filter><filter id="filter-id-233" filterUnits="objectBoundingBox" width="200%" height="200%" x="-50%" y="-50%"><feGaussianBlur result="blurOut" in="SourceGraphic" stdDeviation="1.5"/><feOffset result="offsetBlur" dx="1" dy="1"/><feFlood flood-color="#000000" flood-opacity="0.5"/><feComposite in2="offsetBlur" operator="in"/><feMerge><feMergeNode/><feMergeNode in="SourceGraphic"/></feMerge></filter></defs><g xmlns="http://www.w3.org/2000/svg" style=""><g fill="#ffffff" fill-opacity="1"><rect width="985" height="650"/></g><g><g role="region" clip-path="url(#id-46)" opacity="1" aria-label="Chart" id="id-22"><g transform="translate(30,30)"><g><g><g><g><g transform="translate(0,32)"><g><g transform="translate(50,0)"><g fill="#ffffff" fill-opacity="0"><rect width="875" height="456"/></g><g><g><g><g stroke="#000000" stroke-opacity="0.15" fill="none" transform="translate(0,547)" display="none"><path d=" M0,0  L875,0 " transform="translate(-0.5,-0.5)"/></g><g stroke="#000000" stroke-opacity="0.15" fill="none" transform="translate(0,502)" display="none"><path d=" M0,0  L875,0 " transform="translate(-0.5,-0.5)"/></g><g stroke="#000000" stroke-opacity="0.15" fill="none" transform="translate(0,456)"><path d=" M0,0  L875,0 " transform="translate(-0.5,-0.5)"/></g><g stroke="#000000" stroke-opacity="0.15" fill="none" transform="translate(0,410)"><path d=" M0,0  L875,0 " transform="translate(-0.5,-0.5)"/></g><g stroke="#000000" stroke-opacity="0.15" fill="none" transform="translate(0,365)"><path d=" M0,0  L875,0 " transform="translate(-0.5,-0.5)"/></g><g stroke="#000000" stroke-opacity="0.15" fill="none" transform="translate(0,319)"><path d=" M0,0  L875,0 " transform="translate(-0.5,-0.5)"/></g><g stroke="#000000" stroke-opacity="0.15" fill="none" transform="translate(0,274)"><path d=" M0,0  L875,0 " transform="translate(-0.5,-0.5)"/></g><g stroke="#000000" stroke-opacity="0.15" fill="none" transform="translate(0,228)"><path d=" M0,0  L875,0 " transform="translate(-0.5,-0.5)"/></g><g stroke="#000000" stroke-opacity="0.15" fill="none" transform="translate(0,182)"><path d=" M0,0  L875,0 " transform="translate(-0.5,-0.5)"/></g><g stroke="#000000" stroke-opacity="0.15" fill="none" transform="translate(0,137)"><path d=" M0,0  L875,0 " transform="translate(-0.5,-0.5)"/></g><g stroke="#000000" stroke-opacity="0.15" fill="none" transform="translate(0,91)"><path d=" M0,0  L875,0 " transform="translate(-0.5,-0.5)"/></g><g stroke="#000000" stroke-opacity="0.15" fill="none" transform="translate(0,46)"><path d=" M0,0  L875,0 " transform="translate(-0.5,-0.5)"/></g><g stroke="#000000" stroke-opacity="0.15" fill="none"><path d=" M0,0  L875,0 " transform="translate(-0.5,-0.5)"/></g><g stroke="#000000" stroke-opacity="0.15" fill="none" transform="translate(0,-46)" display="none"><path d=" M0,0  L875,0 " transform="translate(-0.5,-0.5)"/></g></g></g><g><g><g stroke="#000000" stroke-opacity="0.15" fill="none"><path d=" M0,0  L0,456 " transform="translate(-0.5,-0.5)"/></g><g stroke="#000000" stroke-opacity="0.15" fill="none" transform="translate(146,0)"><path d=" M0,0  L0,456 " transform="translate(-0.5,-0.5)"/></g><g stroke="#000000" stroke-opacity="0.15" fill="none" transform="translate(292,0)"><path d=" M0,0  L0,456 " transform="translate(-0.5,-0.5)"/></g><g stroke="#000000" stroke-opacity="0.15" fill="none" transform="translate(437,0)"><path d=" M0,0  L0,456 " transform="translate(-0.5,-0.5)"/></g><g stroke="#000000" stroke-opacity="0.15" fill="none" transform="translate(583,0)"><path d=" M0,0  L0,456 " transform="translate(-0.5,-0.5)"/></g><g stroke="#000000" stroke-opacity="0.15" fill="none" transform="translate(729,0)"><path d=" M0,0  L0,456 " transform="translate(-0.5,-0.5)"/></g><g stroke="#000000" stroke-opacity="0.15" fill="none" transform="translate(875,0)"><path d=" M0,0  L0,456 " transform="translate(-0.5,-0.5)"/></g></g></g><g><g><g role="group" stroke-opacity="0" fill-opacity="1" stroke="#67b7dc" aria-label="Strongly disagree" id="id-139"><g><g clip-path="url(#id-144)"><g><g><g><g stroke-opacity="1" fill="#67b7dc" fill-opacity="1" stroke="#67b7dc" role="menuitem" focusable="true" tabindex="0" transform="translate(14.586,448.115)"><g><g><path d="M0,0 L116.664,0 a0,0 0 0 1 0,0 L116.664,7.885 a0,0 0 0 1 -0,0 L0,7.885 a0,0 0 0 1 -0,-0 L0,0 a0,0 0 0 1 0,-0 Z"/></g></g></g><g stroke-opacity="1" fill="#67b7dc" fill-opacity="1" stroke="#67b7dc" role="menuitem" focusable="true" tabindex="0" transform="translate(160.414,445.487)"><g><g><path d="M0,0 L116.673,0 a0,0 0 0 1 0,0 L116.673,10.513 a0,0 0 0 1 -0,0 L0,10.513 a0,0 0 0 1 -0,-0 L0,0 a0,0 0 0 1 0,-0 Z"/></g></g></g><g stroke-opacity="1" fill="#67b7dc" fill-opacity="1" stroke="#67b7dc" role="menuitem" focusable="true" tabindex="0" transform="translate(306.25,438.767)"><g><g><path d="M0,0 L116.664,0 a0,0 0 0 1 0,0 L116.664,17.233 a0,0 0 0 1 -0,0 L0,17.233 a0,0 0 0 1 -0,-0 L0,0 a0,0 0 0 1 0,-0 Z"/></g></g></g><g stroke-opacity="1" fill="#67b7dc" fill-opacity="1" stroke="#67b7dc" role="menuitem" focusable="true" tabindex="0" transform="translate(452.086,436.116)"><g><g><path d="M0,0 L116.664,0 a0,0 0 0 1 0,0 L116.664,19.884 a0,0 0 0 1 -0,0 L0,19.884 a0,0 0 0 1 -0,-0 L0,0 a0,0 0 0 1 0,-0 Z"/></g></g></g><g stroke-opacity="1" fill="#67b7dc" fill-opacity="1" stroke="#67b7dc" role="menuitem" focusable="true" tabindex="0" transform="translate(597.914,441.419)"><g><g><path d="M0,0 L116.672,0 a0,0 0 0 1 0,0 L116.672,14.581 a0,0 0 0 1 -0,0 L0,14.581 a0,0 0 0 1 -0,-0 L0,0 a0,0 0 0 1 0,-0 Z"/></g></g></g><g stroke-opacity="1" fill="#67b7dc" fill-opacity="1" stroke="#67b7dc" role="menuitem" focusable="true" tabindex="0" transform="translate(743.75,417.78)"><g><g><path d="M0,0 L116.664,0 a0,0 0 0 1 0,0 L116.664,38.22 a0,0 0 0 1 -0,0 L0,38.22 a0,0 0 0 1 -0,-0 L0,0 a0,0 0 0 1 0,-0 Z"/></g></g></g></g></g></g></g><g/></g></g><g role="group" stroke-opacity="0" fill-opacity="1" stroke="#6771dc" aria-label="Somewhat disagree" id="id-160"><g><g clip-path="url(#id-165)"><g><g><g><g stroke-opacity="1" fill="#6771dc" fill-opacity="1" stroke="#6771dc" role="menuitem" focusable="true" tabindex="0" transform="translate(14.586,431.032)"><g><g><path d="M0,0 L116.664,0 a0,0 0 0 1 0,0 L116.664,17.084 a0,0 0 0 1 -0,0 L0,17.084 a0,0 0 0 1 -0,-0 L0,0 a0,0 0 0 1 0,-0 Z"/></g></g></g><g stroke-opacity="1" fill="#6771dc" fill-opacity="1" stroke="#6771dc" role="menuitem" focusable="true" tabindex="0" transform="translate(160.414,425.775)"><g><g><path d="M0,0 L116.673,0 a0,0 0 0 1 0,0 L116.673,19.712 a0,0 0 0 1 -0,0 L0,19.712 a0,0 0 0 1 -0,-0 L0,0 a0,0 0 0 1 0,-0 Z"/></g></g></g><g stroke-opacity="1" fill="#6771dc" fill-opacity="1" stroke="#6771dc" role="menuitem" focusable="true" tabindex="0" transform="translate(306.25,426.837)"><g><g><path d="M0,0 L116.664,0 a0,0 0 0 1 0,0 L116.664,11.93 a0,0 0 0 1 -0,0 L0,11.93 a0,0 0 0 1 -0,-0 L0,0 a0,0 0 0 1 0,-0 Z"/></g></g></g><g stroke-opacity="1" fill="#6771dc" fill-opacity="1" stroke="#6771dc" role="menuitem" focusable="true" tabindex="0" transform="translate(452.086,422.86)"><g><g><path d="M0,0 L116.664,0 a0,0 0 0 1 0,0 L116.664,13.256 a0,0 0 0 1 -0,0 L0,13.256 a0,0 0 0 1 -0,-0 L0,0 a0,0 0 0 1 0,-0 Z"/></g></g></g><g stroke-opacity="1" fill="#6771dc" fill-opacity="1" stroke="#6771dc" role="menuitem" focusable="true" tabindex="0" transform="translate(597.914,425.512)"><g><g><path d="M0,0 L116.672,0 a0,0 0 0 1 0,0 L116.672,15.907 a0,0 0 0 1 -0,0 L0,15.907 a0,0 0 0 1 -0,-0 L0,0 a0,0 0 0 1 0,-0 Z"/></g></g></g><g stroke-opacity="1" fill="#6771dc" fill-opacity="1" stroke="#6771dc" role="menuitem" focusable="true" tabindex="0" transform="translate(743.75,384.832)"><g><g><path d="M0,0 L116.664,0 a0,0 0 0 1 0,0 L116.664,32.948 a0,0 0 0 1 -0,0 L0,32.948 a0,0 0 0 1 -0,-0 L0,0 a0,0 0 0 1 0,-0 Z"/></g></g></g></g></g></g></g><g/></g></g><g role="group" stroke-opacity="0" fill-opacity="1" stroke="#a367dc" aria-label="Not sure" id="id-181"><g><g clip-path="url(#id-186)"><g><g><g><g stroke-opacity="1" fill="#a367dc" fill-opacity="1" stroke="#a367dc" role="menuitem" focusable="true" tabindex="0" transform="translate(14.586,394.236)"><g><g><path d="M0,0 L116.664,0 a0,0 0 0 1 0,0 L116.664,36.795 a0,0 0 0 1 -0,0 L0,36.795 a0,0 0 0 1 -0,-0 L0,0 a0,0 0 0 1 0,-0 Z"/></g></g></g><g stroke-opacity="1" fill="#a367dc" fill-opacity="1" stroke="#a367dc" role="menuitem" focusable="true" tabindex="0" transform="translate(160.414,386.352)"><g><g><path d="M0,0 L116.673,0 a0,0 0 0 1 0,0 L116.673,39.424 a0,0 0 0 1 -0,0 L0,39.424 a0,0 0 0 1 -0,-0 L0,0 a0,0 0 0 1 0,-0 Z"/></g></g></g><g stroke-opacity="1" fill="#a367dc" fill-opacity="1" stroke="#a367dc" role="menuitem" focusable="true" tabindex="0" transform="translate(306.25,349.953)"><g><g><path d="M0,0 L116.664,0 a0,0 0 0 1 0,0 L116.664,76.884 a0,0 0 0 1 -0,0 L0,76.884 a0,0 0 0 1 -0,-0 L0,0 a0,0 0 0 1 0,-0 Z"/></g></g></g><g stroke-opacity="1" fill="#a367dc" fill-opacity="1" stroke="#a367dc" role="menuitem" focusable="true" tabindex="0" transform="translate(452.086,342)"><g><g><path d="M0,0 L116.664,0 a0,0 0 0 1 0,0 L116.664,80.86 a0,0 0 0 1 -0,0 L0,80.86 a0,0 0 0 1 -0,-0 L0,0 a0,0 0 0 1 0,-0 Z"/></g></g></g><g stroke-opacity="1" fill="#a367dc" fill-opacity="1" stroke="#a367dc" role="menuitem" focusable="true" tabindex="0" transform="translate(597.914,353.93)"><g><g><path d="M0,0 L116.672,0 a0,0 0 0 1 0,0 L116.672,71.581 a0,0 0 0 1 -0,0 L0,71.581 a0,0 0 0 1 -0,-0 L0,0 a0,0 0 0 1 0,-0 Z"/></g></g></g><g stroke-opacity="1" fill="#a367dc" fill-opacity="1" stroke="#a367dc" role="menuitem" focusable="true" tabindex="0" transform="translate(743.75,301.803)"><g><g><path d="M0,0 L116.664,0 a0,0 0 0 1 0,0 L116.664,83.029 a0,0 0 0 1 -0,0 L0,83.029 a0,0 0 0 1 -0,-0 L0,0 a0,0 0 0 1 0,-0 Z"/></g></g></g></g></g></g></g><g/></g></g><g role="group" stroke-opacity="0" fill-opacity="1" stroke="#dc67ce" aria-label="Somewhat agree" id="id-202"><g><g clip-path="url(#id-207)"><g><g><g><g stroke-opacity="1" fill="#dc67ce" fill-opacity="1" stroke="#dc67ce" role="menuitem" focusable="true" tabindex="0" transform="translate(14.586,308.818)"><g><g><path d="M0,0 L116.664,0 a0,0 0 0 1 0,0 L116.664,85.418 a0,0 0 0 1 -0,0 L0,85.418 a0,0 0 0 1 -0,-0 L0,0 a0,0 0 0 1 0,-0 Z"/></g></g></g><g stroke-opacity="1" fill="#dc67ce" fill-opacity="1" stroke="#dc67ce" role="menuitem" focusable="true" tabindex="0" transform="translate(160.414,281.222)"><g><g><path d="M0,0 L116.673,0 a0,0 0 0 1 0,0 L116.673,105.13 a0,0 0 0 1 -0,0 L0,105.13 a0,0 0 0 1 -0,-0 L0,0 a0,0 0 0 1 0,-0 Z"/></g></g></g><g stroke-opacity="1" fill="#dc67ce" fill-opacity="1" stroke="#dc67ce" role="menuitem" focusable="true" tabindex="0" transform="translate(306.25,258.488)"><g><g><path d="M0,0 L116.664,0 a0,0 0 0 1 0,0 L116.664,91.465 a0,0 0 0 1 -0,0 L0,91.465 a0,0 0 0 1 -0,-0 L0,0 a0,0 0 0 1 0,-0 Z"/></g></g></g><g stroke-opacity="1" fill="#dc67ce" fill-opacity="1" stroke="#dc67ce" role="menuitem" focusable="true" tabindex="0" transform="translate(452.086,247.884)"><g><g><path d="M0,0 L116.664,0 a0,0 0 0 1 0,0 L116.664,94.116 a0,0 0 0 1 -0,0 L0,94.116 a0,0 0 0 1 -0,-0 L0,0 a0,0 0 0 1 0,-0 Z"/></g></g></g><g stroke-opacity="1" fill="#dc67ce" fill-opacity="1" stroke="#dc67ce" role="menuitem" focusable="true" tabindex="0" transform="translate(597.914,237.279)"><g><g><path d="M0,0 L116.672,0 a0,0 0 0 1 0,0 L116.672,116.651 a0,0 0 0 1 -0,0 L0,116.651 a0,0 0 0 1 -0,-0 L0,0 a0,0 0 0 1 0,-0 Z"/></g></g></g><g stroke-opacity="1" fill="#dc67ce" fill-opacity="1" stroke="#dc67ce" role="menuitem" focusable="true" tabindex="0" transform="translate(743.75,237.225)"><g><g><path d="M0,0 L116.664,0 a0,0 0 0 1 0,0 L116.664,64.578 a0,0 0 0 1 -0,0 L0,64.578 a0,0 0 0 1 -0,-0 L0,0 a0,0 0 0 1 0,-0 Z"/></g></g></g></g></g></g></g><g/></g></g><g role="group" stroke-opacity="0" fill-opacity="1" stroke="#dc6788" aria-label="Strongly Agree" id="id-223"><g><g clip-path="url(#id-228)"><g><g><g><g stroke-opacity="1" fill="#dc6788" fill-opacity="1" stroke="#dc6788" role="menuitem" focusable="true" tabindex="0" transform="translate(14.586,0)" id="id-563"><g><g><path d="M0,0 L116.664,0 a0,0 0 0 1 0,0 L116.664,308.818 a0,0 0 0 1 -0,0 L0,308.818 a0,0 0 0 1 -0,-0 L0,0 a0,0 0 0 1 0,-0 Z"/></g></g></g><g stroke-opacity="1" fill="#dc6788" fill-opacity="1" stroke="#dc6788" role="menuitem" focusable="true" tabindex="0" transform="translate(160.414,0)"><g><g><path d="M0,0 L116.673,0 a0,0 0 0 1 0,0 L116.673,281.222 a0,0 0 0 1 -0,0 L0,281.222 a0,0 0 0 1 -0,-0 L0,0 a0,0 0 0 1 0,-0 Z"/></g></g></g><g stroke-opacity="1" fill="#dc6788" fill-opacity="1" stroke="#dc6788" role="menuitem" focusable="true" tabindex="0" transform="translate(306.25,0)"><g><g><path d="M0,0 L116.664,0 a0,0 0 0 1 0,0 L116.664,258.488 a0,0 0 0 1 -0,0 L0,258.488 a0,0 0 0 1 -0,-0 L0,0 a0,0 0 0 1 0,-0 Z"/></g></g></g><g stroke-opacity="1" fill="#dc6788" fill-opacity="1" stroke="#dc6788" role="menuitem" focusable="true" tabindex="0" transform="translate(452.086,0)"><g><g><path d="M0,0 L116.664,0 a0,0 0 0 1 0,0 L116.664,247.884 a0,0 0 0 1 -0,0 L0,247.884 a0,0 0 0 1 -0,-0 L0,0 a0,0 0 0 1 0,-0 Z"/></g></g></g><g stroke-opacity="1" fill="#dc6788" fill-opacity="1" stroke="#dc6788" role="menuitem" focusable="true" tabindex="0" transform="translate(597.914,0)"><g><g><path d="M0,0 L116.672,0 a0,0 0 0 1 0,0 L116.672,237.279 a0,0 0 0 1 -0,0 L0,237.279 a0,0 0 0 1 -0,-0 L0,0 a0,0 0 0 1 0,-0 Z"/></g></g></g><g stroke-opacity="1" fill="#dc6788" fill-opacity="1" stroke="#dc6788" role="menuitem" focusable="true" tabindex="0" transform="translate(743.75,0)" id="id-633" aria-label="I like the&#10; nickname policy 180  "><g><g><path d="M0,0 L116.664,0 a0,0 0 0 1 0,0 L116.664,237.225 a0,0 0 0 1 -0,0 L0,237.225 a0,0 0 0 1 -0,-0 L0,0 a0,0 0 0 1 0,-0 Z"/></g></g></g></g></g></g></g><g/></g></g></g></g><g clip-path="url(#id-561)"><g><g fill="#67b7dc" stroke="#67b7dc"><g><g focusable="true" tabindex="0" opacity="1" transform="translate(72.914,452.058)" style="pointer-events: none;"><g><g fill="#ffffff" stroke-opacity="0"><g transform="translate(-21.5,-10.5)" style="user-select: none;"><text x="0" y="21" overflow="hidden" dy="-5.67"><tspan>1.73%</tspan></text></g></g></g></g><g focusable="true" tabindex="0" opacity="1" transform="translate(218.75,450.744)" style="pointer-events: none;"><g><g fill="#ffffff" stroke-opacity="0"><g transform="translate(-21.5,-10.5)" style="user-select: none;"><text x="0" y="21" overflow="hidden" dy="-5.67"><tspan>2.31%</tspan></text></g></g></g></g><g focusable="true" tabindex="0" opacity="1" transform="translate(364.586,447.384)" style="pointer-events: none;"><g><g fill="#ffffff" stroke-opacity="0"><g transform="translate(-21.5,-10.5)" style="user-select: none;"><text x="0" y="21" overflow="hidden" dy="-5.67"><tspan>3.78%</tspan></text></g></g></g></g><g focusable="true" tabindex="0" opacity="1" transform="translate(510.414,446.058)" style="pointer-events: none;"><g><g fill="#ffffff" stroke-opacity="0"><g transform="translate(-22,-10.5)" style="user-select: none;"><text x="0" y="21" overflow="hidden" dy="-5.67"><tspan>4.36%</tspan></text></g></g></g></g><g focusable="true" tabindex="0" opacity="1" transform="translate(656.25,448.709)" style="pointer-events: none;"><g><g fill="#ffffff" stroke-opacity="0"><g transform="translate(-21.5,-10.5)" style="user-select: none;"><text x="0" y="21" overflow="hidden" dy="-5.67"><tspan>3.20%</tspan></text></g></g></g></g><g focusable="true" tabindex="0" opacity="1" transform="translate(802.086,436.89)" style="pointer-events: none;"><g><g fill="#ffffff" stroke-opacity="0"><g transform="translate(-21.5,-10.5)" style="user-select: none;"><text x="0" y="21" overflow="hidden" dy="-5.67"><tspan>8.38%</tspan></text></g></g></g></g></g></g><g fill="#6771dc" stroke="#6771dc"><g><g focusable="true" tabindex="0" opacity="1" transform="translate(72.914,439.573)" style="pointer-events: none;"><g><g fill="#ffffff" stroke-opacity="0"><g transform="translate(-21.5,-10.5)" style="user-select: none;"><text x="0" y="21" overflow="hidden" dy="-5.67"><tspan>3.75%</tspan></text></g></g></g></g><g focusable="true" tabindex="0" opacity="1" transform="translate(218.75,435.631)" style="pointer-events: none;"><g><g fill="#ffffff" stroke-opacity="0"><g transform="translate(-22,-10.5)" style="user-select: none;"><text x="0" y="21" overflow="hidden" dy="-5.67"><tspan>4.32%</tspan></text></g></g></g></g><g focusable="true" tabindex="0" opacity="1" transform="translate(364.586,432.802)" style="pointer-events: none;"><g><g fill="#ffffff" stroke-opacity="0"><g transform="translate(-21.5,-10.5)" style="user-select: none;"><text x="0" y="21" overflow="hidden" dy="-5.67"><tspan>2.62%</tspan></text></g></g></g></g><g focusable="true" tabindex="0" opacity="1" transform="translate(510.414,429.488)" style="pointer-events: none;"><g><g fill="#ffffff" stroke-opacity="0"><g transform="translate(-21.5,-10.5)" style="user-select: none;"><text x="0" y="21" overflow="hidden" dy="-5.67"><tspan>2.91%</tspan></text></g></g></g></g><g focusable="true" tabindex="0" opacity="1" transform="translate(656.25,433.465)" style="pointer-events: none;"><g><g fill="#ffffff" stroke-opacity="0"><g transform="translate(-21.5,-10.5)" style="user-select: none;"><text x="0" y="21" overflow="hidden" dy="-5.67"><tspan>3.49%</tspan></text></g></g></g></g><g focusable="true" tabindex="0" opacity="1" transform="translate(802.086,401.306)" style="pointer-events: none;"><g><g fill="#ffffff" stroke-opacity="0"><g transform="translate(-21.5,-10.5)" style="user-select: none;"><text x="0" y="21" overflow="hidden" dy="-5.67"><tspan>7.23%</tspan></text></g></g></g></g></g></g><g fill="#a367dc" stroke="#a367dc"><g><g focusable="true" tabindex="0" opacity="1" transform="translate(72.914,412.634)" style="pointer-events: none;"><g><g fill="#ffffff" stroke-opacity="0"><g transform="translate(-21.5,-10.5)" style="user-select: none;"><text x="0" y="21" overflow="hidden" dy="-5.67"><tspan>8.07%</tspan></text></g></g></g></g><g focusable="true" tabindex="0" opacity="1" transform="translate(218.75,406.063)" style="pointer-events: none;"><g><g fill="#ffffff" stroke-opacity="0"><g transform="translate(-21.5,-10.5)" style="user-select: none;"><text x="0" y="21" overflow="hidden" dy="-5.67"><tspan>8.65%</tspan></text></g></g></g></g><g focusable="true" tabindex="0" opacity="1" transform="translate(364.586,388.395)" style="pointer-events: none;"><g><g fill="#ffffff" stroke-opacity="0"><g transform="translate(-26,-10.5)" style="user-select: none;"><text x="0" y="21" overflow="hidden" dy="-5.67"><tspan>16.86%</tspan></text></g></g></g></g><g focusable="true" tabindex="0" opacity="1" transform="translate(510.414,382.43)" style="pointer-events: none;"><g><g fill="#ffffff" stroke-opacity="0"><g transform="translate(-26,-10.5)" style="user-select: none;"><text x="0" y="21" overflow="hidden" dy="-5.67"><tspan>17.73%</tspan></text></g></g></g></g><g focusable="true" tabindex="0" opacity="1" transform="translate(656.25,389.721)" style="pointer-events: none;"><g><g fill="#ffffff" stroke-opacity="0"><g transform="translate(-26,-10.5)" style="user-select: none;"><text x="0" y="21" overflow="hidden" dy="-5.67"><tspan>15.70%</tspan></text></g></g></g></g><g focusable="true" tabindex="0" opacity="1" transform="translate(802.086,343.318)" style="pointer-events: none;"><g><g fill="#ffffff" stroke-opacity="0"><g transform="translate(-26,-10.5)" style="user-select: none;"><text x="0" y="21" overflow="hidden" dy="-5.67"><tspan>18.21%</tspan></text></g></g></g></g></g></g><g fill="#dc67ce" stroke="#dc67ce"><g><g focusable="true" tabindex="0" opacity="1" transform="translate(72.914,351.527)" style="pointer-events: none;"><g><g fill="#ffffff" stroke-opacity="0"><g transform="translate(-26,-10.5)" style="user-select: none;"><text x="0" y="21" overflow="hidden" dy="-5.67"><tspan>18.73%</tspan></text></g></g></g></g><g focusable="true" tabindex="0" opacity="1" transform="translate(218.75,333.787)" style="pointer-events: none;"><g><g fill="#ffffff" stroke-opacity="0"><g transform="translate(-26,-10.5)" style="user-select: none;"><text x="0" y="21" overflow="hidden" dy="-5.67"><tspan>23.05%</tspan></text></g></g></g></g><g focusable="true" tabindex="0" opacity="1" transform="translate(364.586,304.221)" style="pointer-events: none;"><g><g fill="#ffffff" stroke-opacity="0"><g transform="translate(-26,-10.5)" style="user-select: none;"><text x="0" y="21" overflow="hidden" dy="-5.67"><tspan>20.06%</tspan></text></g></g></g></g><g focusable="true" tabindex="0" opacity="1" transform="translate(510.414,294.942)" style="pointer-events: none;"><g><g fill="#ffffff" stroke-opacity="0"><g transform="translate(-26,-10.5)" style="user-select: none;"><text x="0" y="21" overflow="hidden" dy="-5.67"><tspan>20.64%</tspan></text></g></g></g></g><g focusable="true" tabindex="0" opacity="1" transform="translate(656.25,295.605)" style="pointer-events: none;"><g><g fill="#ffffff" stroke-opacity="0"><g transform="translate(-26,-10.5)" style="user-select: none;"><text x="0" y="21" overflow="hidden" dy="-5.67"><tspan>25.58%</tspan></text></g></g></g></g><g focusable="true" tabindex="0" opacity="1" transform="translate(802.086,269.514)" style="pointer-events: none;"><g><g fill="#ffffff" stroke-opacity="0"><g transform="translate(-26,-10.5)" style="user-select: none;"><text x="0" y="21" overflow="hidden" dy="-5.67"><tspan>14.16%</tspan></text></g></g></g></g></g></g><g fill="#dc6788" stroke="#dc6788"><g><g opacity="1" transform="translate(72.914,154.409)" style="pointer-events: none;" focusable="true" tabindex="0"><g><g fill="#ffffff" stroke-opacity="0"><g transform="translate(-26,-10.5)" style="user-select: none;"><text x="0" y="21" overflow="hidden" dy="-5.67"><tspan>67.72%</tspan></text></g></g></g></g><g opacity="1" transform="translate(218.75,140.611)" style="pointer-events: none;" focusable="true" tabindex="0"><g><g fill="#ffffff" stroke-opacity="0"><g transform="translate(-26,-10.5)" style="user-select: none;"><text x="0" y="21" overflow="hidden" dy="-5.67"><tspan>61.67%</tspan></text></g></g></g></g><g opacity="1" transform="translate(364.586,129.244)" style="pointer-events: none;" focusable="true" tabindex="0"><g><g fill="#ffffff" stroke-opacity="0"><g transform="translate(-26,-10.5)" style="user-select: none;"><text x="0" y="21" overflow="hidden" dy="-5.67"><tspan>56.69%</tspan></text></g></g></g></g><g opacity="1" transform="translate(510.414,123.942)" style="pointer-events: none;" focusable="true" tabindex="0"><g><g fill="#ffffff" stroke-opacity="0"><g transform="translate(-26,-10.5)" style="user-select: none;"><text x="0" y="21" overflow="hidden" dy="-5.67"><tspan>54.36%</tspan></text></g></g></g></g><g opacity="1" transform="translate(656.25,118.64)" style="pointer-events: none;" focusable="true" tabindex="0"><g><g fill="#ffffff" stroke-opacity="0"><g transform="translate(-26,-10.5)" style="user-select: none;"><text x="0" y="21" overflow="hidden" dy="-5.67"><tspan>52.03%</tspan></text></g></g></g></g><g opacity="1" transform="translate(802.086,118.613)" style="pointer-events: none;" focusable="true" tabindex="0"><g><g fill="#ffffff" stroke-opacity="0"><g transform="translate(-26,-10.5)" style="user-select: none;"><text x="0" y="21" overflow="hidden" dy="-5.67"><tspan>52.02%</tspan></text></g></g></g></g></g></g></g></g><g><g><g><g/></g><g><g/></g></g></g><g><g/></g><g><g/></g><g role="button" focusable="true" tabindex="0" opacity="0" visibility="hidden" aria-hidden="true" transform="translate(835,-3)" aria-labelledby="id-37-title"><g fill="#6794dc" stroke="#ffffff" fill-opacity="1" stroke-opacity="0" transform="translate(0,8)"><path d="M17,0 L18,0 a17,17 0 0 1 17,17 L35,17 a17,17 0 0 1 -17,17 L17,34 a17,17 0 0 1 -17,-17 L0,17 a17,17 0 0 1 17,-17 Z"/></g><g transform="translate(9,9)"><g stroke="#ffffff" style="pointer-events: none;" transform="translate(0,8)"><path d=" M0,0  L11,0 " transform="translate(2.5,7.5)"/></g><g fill="#000000" style="pointer-events: none;" transform="translate(17,8)"><g display="none"/></g></g><title id="id-37-title">Zoom Out</title></g></g></g><g><g><g aria-hidden="true"><g><g fill="#000000" transform="translate(0,228) rotate(-90)"><g display="none"/></g><g stroke="#000000" stroke-opacity="0.15" fill="none" transform="translate(50,456)" opacity="1"><path transform="translate(-0.5,-0.5)" d=" M0,0  L875,0 "/></g><g><g><g fill="#000000" aria-label="L" fill-opacity="0" opacity="0" stroke-opacity="0" style="pointer-events: none;" transform="translate(50,228)"><g transform="translate(-37,-10.5)" style="user-select: none;"><text x="0" y="21" dy="-5.67"><tspan>100</tspan></text></g></g><g fill="#000000" transform="translate(50,547.2)" display="none"><g transform="translate(-35,-10.5)" style="user-select: none;"><text x="0" y="21" dy="-5.67"><tspan>-20</tspan></text></g></g><g fill="#000000" transform="translate(50,501.6)" display="none"><g transform="translate(-35,-10.5)" style="user-select: none;"><text x="0" y="21" dy="-5.67"><tspan>-10</tspan></text></g></g><g fill="#000000" transform="translate(50,456)"><g transform="translate(-19,-10.5)" style="user-select: none;"><text x="0" y="21" dy="-5.67"><tspan>0</tspan></text></g></g><g fill="#000000" transform="translate(50,410.4)"><g transform="translate(-28,-10.5)" style="user-select: none;"><text x="0" y="21" dy="-5.67"><tspan>10</tspan></text></g></g><g fill="#000000" transform="translate(50,364.8)"><g transform="translate(-28,-10.5)" style="user-select: none;"><text x="0" y="21" dy="-5.67"><tspan>20</tspan></text></g></g><g fill="#000000" transform="translate(50,319.2)"><g transform="translate(-28,-10.5)" style="user-select: none;"><text x="0" y="21" dy="-5.67"><tspan>30</tspan></text></g></g><g fill="#000000" transform="translate(50,273.6)"><g transform="translate(-29,-10.5)" style="user-select: none;"><text x="0" y="21" dy="-5.67"><tspan>40</tspan></text></g></g><g fill="#000000" transform="translate(50,228)"><g transform="translate(-28,-10.5)" style="user-select: none;"><text x="0" y="21" dy="-5.67"><tspan>50</tspan></text></g></g><g fill="#000000" transform="translate(50,182.4)"><g transform="translate(-28,-10.5)" style="user-select: none;"><text x="0" y="21" dy="-5.67"><tspan>60</tspan></text></g></g><g fill="#000000" transform="translate(50,136.8)"><g transform="translate(-28,-10.5)" style="user-select: none;"><text x="0" y="21" dy="-5.67"><tspan>70</tspan></text></g></g><g fill="#000000" transform="translate(50,91.2)"><g transform="translate(-28,-10.5)" style="user-select: none;"><text x="0" y="21" dy="-5.67"><tspan>80</tspan></text></g></g><g fill="#000000" transform="translate(50,45.6)"><g transform="translate(-28,-10.5)" style="user-select: none;"><text x="0" y="21" dy="-5.67"><tspan>90</tspan></text></g></g><g fill="#000000" transform="translate(50,0)"><g transform="translate(-37,-10.5)" style="user-select: none;"><text x="0" y="21" dy="-5.67"><tspan>100</tspan></text></g></g><g fill="#000000" transform="translate(50,-45.6)" display="none"><g transform="translate(-37,-10.5)" style="user-select: none;"><text x="0" y="21" dy="-5.67"><tspan>110</tspan></text></g></g></g></g><g stroke="#000000" stroke-opacity="0" fill="none" style="pointer-events: none;" transform="translate(50,0)"><path d=" M0,0  L0,456 " transform="translate(-0.5,-0.5)"/></g></g></g></g></g><g transform="translate(925,0)"><g/></g></g></g><g><g transform="translate(50,0)"><g role="scrollbar" aria-valuemin="0" aria-valuemax="100" aria-valuenow="0" aria-valuetext="From Rules are&#10; clear and&#10; understandable to I like the&#10; nickname policy" aria-labelledby="id-244-title" aria-orientation="horizontal" aria-controls="id-22" transform="translate(0,10)"><g fill="#f3f3f3" fill-opacity="0.5"><path d="M6,0 L869,0 a6,6 0 0 1 6,6 L875,6 a6,6 0 0 1 -6,6 L6,12 a6,6 0 0 1 -6,-6 L0,6 a6,6 0 0 1 6,-6 Z"/></g><g><g role="slider" focusable="true" tabindex="0" aria-valuemin="0" aria-valuemax="100" aria-live="polite" aria-labelledby="id-258-title" aria-valuenow="0" aria-valuetext="From Rules are&#10; clear and&#10; understandable to I like the&#10; nickname policy" style="touch-action: none; user-select: none; -webkit-user-drag: none; cursor: -webkit-grab;" aria-describedby="id-258-description" transform="translate(0,6)"><g fill="#d9d9d9" stroke="#ffffff" fill-opacity="1" stroke-opacity="1" transform="translate(0,-6)"><path d="M6,0 L869,0 a6,6 0 0 1 6,6 L875,6 a6,6 0 0 1 -6,6 L6,12 a6,6 0 0 1 -6,-6 L0,6 a6,6 0 0 1 6,-6 Z"/></g><g transform="translate(0,-6)"><g fill="#000000" style="pointer-events: none;" transform="translate(437.5,6)"><g display="none"/></g></g><title id="id-258-title">From Rules are
 clear and
 understandable to I like the
 nickname policy</title><desc id="id-258-description">Use left and right arrows to move selection</desc></g><g role="slider" focusable="true" tabindex="0" aria-valuemin="0" aria-valuemax="100" aria-labelledby="id-246-title" aria-valuenow="0" aria-valuetext="From Rules are&#10; clear and&#10; understandable" style="touch-action: none; user-select: none; -webkit-user-drag: none; cursor: ew-resize;" aria-describedby="id-246-description" transform="translate(0,6)" opacity="0" visibility="hidden" aria-hidden="true"><g fill="#d9d9d9" stroke="#ffffff" fill-opacity="1" stroke-opacity="1" transform="translate(-14,-14)"><path d="M14,0 L14,0 a14,14 0 0 1 14,14 L28,14 a14,14 0 0 1 -14,14 L14,28 a14,14 0 0 1 -14,-14 L0,14 a14,14 0 0 1 14,-14 Z"/></g><g transform="translate(-6,-12)"><g stroke="#ffffff" stroke-opacity="0.7" style="pointer-events: none;" transform="translate(2,12)"><path d=" M-2,-6  L-2,6  M2,-6  L2,6 " transform="translate(3.5,-0.5)"/></g></g><title id="id-246-title">From Rules are
 clear and
 understandable</title><desc id="id-246-description">Use left and right arrows to move left selection</desc></g><g role="slider" focusable="true" tabindex="0" aria-valuemin="0" aria-valuemax="100" aria-labelledby="id-252-title" aria-valuenow="100" aria-valuetext="To I like the&#10; nickname policy" style="touch-action: none; user-select: none; -webkit-user-drag: none; cursor: ew-resize;" aria-describedby="id-252-description" transform="translate(875,6)" opacity="0" visibility="hidden" aria-hidden="true"><g fill="#d9d9d9" stroke="#ffffff" fill-opacity="1" stroke-opacity="1" transform="translate(-14,-14)"><path d="M14,0 L14,0 a14,14 0 0 1 14,14 L28,14 a14,14 0 0 1 -14,14 L14,28 a14,14 0 0 1 -14,-14 L0,14 a14,14 0 0 1 14,-14 Z"/></g><g transform="translate(-6,-12)"><g stroke="#ffffff" stroke-opacity="0.7" style="pointer-events: none;" transform="translate(2,12)"><path d=" M-2,-6  L-2,6  M2,-6  L2,6 " transform="translate(3.5,-0.5)"/></g></g><title id="id-252-title">To I like the
 nickname policy</title><desc id="id-252-description">Use left and right arrows to move right selection</desc></g></g><title id="id-244-title">Use TAB to select grip buttons or left and right arrows to change selection</title></g></g></g><g transform="translate(0,488)"><g transform="translate(50,0)"><g aria-hidden="true"><g><g stroke="#000000" stroke-opacity="0" fill="none" style="pointer-events: none;"><path d=" M0,0  L875,0 " transform="translate(-0.5,-0.5)"/></g><g><g><g fill="#000000" aria-label="L" fill-opacity="0" opacity="0" stroke-opacity="0" style="pointer-events: none;" transform="translate(437.5,0)"><g transform="translate(-55.5,10)" style="user-select: none;"><text x="0" y="21" dy="-5.67"><tspan>Rules are</tspan></text><text x="0" y="42" dy="-5.67"><tspan> clear and</tspan></text><text x="0" y="63" dy="-5.67"><tspan> understandable</tspan></text></g></g><g fill="#000000" transform="translate(72.918,0)"><g transform="translate(-55.5,10)" style="user-select: none;"><text x="0" y="21" dy="-5.67"><tspan>Rules are</tspan></text><text x="0" y="42" dy="-5.67"><tspan> clear and</tspan></text><text x="0" y="63" dy="-5.67"><tspan> understandable</tspan></text></g></g><g fill="#000000" transform="translate(218.75,0)"><g transform="translate(-39,10)" style="user-select: none;"><text x="0" y="21" dy="-5.67"><tspan>Rules are</tspan></text><text x="0" y="42" dy="-5.67"><tspan> reasonable</tspan></text></g></g><g fill="#000000" transform="translate(364.582,0)"><g transform="translate(-56.5,10)" style="user-select: none;"><text x="0" y="21" dy="-5.67"><tspan>The moderation</tspan></text><text x="0" y="42" dy="-5.67"><tspan> is fair</tspan></text></g></g><g fill="#000000" transform="translate(510.418,0)"><g transform="translate(-64,10)" style="user-select: none;"><text x="0" y="21" dy="-5.67"><tspan>The mod team</tspan></text><text x="0" y="42" dy="-5.67"><tspan> communicate well</tspan></text></g></g><g fill="#000000" transform="translate(656.25,0)"><g transform="translate(-59.5,10)" style="user-select: none;"><text x="0" y="21" dy="-5.67"><tspan>I like TPH's</tspan></text><text x="0" y="42" dy="-5.67"><tspan> moderation style</tspan></text></g></g><g fill="#000000" transform="translate(802.082,0)"><g transform="translate(-57,10)" style="user-select: none;"><text x="0" y="21" dy="-5.67"><tspan>I like the</tspan></text><text x="0" y="42" dy="-5.67"><tspan> nickname policy</tspan></text></g></g><g fill="#000000" display="none" transform="translate(947.918,0)"><g transform="translate(0,10)" display="none"/></g></g></g><g stroke="#000000" stroke-opacity="0.15" fill="none" display="none" transform="translate(875,-456)" opacity="0" visibility="hidden" aria-hidden="true"><path transform="translate(-0.5,-0.5)" d=" M0,0  L0,456 "/></g><g fill="#000000" transform="translate(437.5,83)"><g display="none"/></g></g></g></g></g></g></g><g role="group" aria-label="Legend" transform="translate(0,571)"><g><g focusable="true" tabindex="0" role="switch" aria-controls="id-139" aria-labelledby="id-139" aria-checked="true" style="cursor: pointer;" transform="translate(66.5,0)"><g fill="#ffffff" fill-opacity="0"><rect width="156" height="39"/></g><g transform="translate(0,8)"><g fill="#67b7dc" style="pointer-events: none;"><g fill="#ffffff" fill-opacity="0" stroke-opacity="0" stroke="#000000"><rect width="23" height="23"/></g><g><g fill="#67b7dc" fill-opacity="1" stroke="#67b7dc" stroke-opacity="1"><path d="M3,0 L20,0 a3,3 0 0 1 3,3 L23,20 a3,3 0 0 1 -3,3 L3,23 a3,3 0 0 1 -3,-3 L0,3 a3,3 0 0 1 3,-3 Z"/></g></g></g><g fill="#000000" aria-label="Strongly disagree" style="pointer-events: none;" transform="translate(28,1)"><g style="user-select: none;"><text x="0" y="21" overflow="hidden" dy="-5.67"><tspan>Strongly disagree</tspan></text></g></g><g fill="#000000" style="pointer-events: none;" display="none"><g display="none"/></g></g></g><g focusable="true" tabindex="0" role="switch" aria-controls="id-160" aria-labelledby="id-160" aria-checked="true" style="cursor: pointer;" transform="translate(242.5,0)"><g fill="#ffffff" fill-opacity="0"><rect width="172" height="39"/></g><g transform="translate(0,8)"><g fill="#6771dc" style="pointer-events: none;"><g fill="#ffffff" fill-opacity="0" stroke-opacity="0" stroke="#000000"><rect width="23" height="23"/></g><g><g fill="#6771dc" fill-opacity="1" stroke="#6771dc" stroke-opacity="1"><path d="M3,0 L20,0 a3,3 0 0 1 3,3 L23,20 a3,3 0 0 1 -3,3 L3,23 a3,3 0 0 1 -3,-3 L0,3 a3,3 0 0 1 3,-3 Z"/></g></g></g><g fill="#000000" aria-label="Somewhat disagree" style="pointer-events: none;" transform="translate(28,1)"><g style="user-select: none;"><text x="0" y="21" overflow="hidden" dy="-5.67"><tspan>Somewhat disagree</tspan></text></g></g><g fill="#000000" style="pointer-events: none;" display="none"><g display="none"/></g></g></g><g focusable="true" tabindex="0" role="switch" aria-controls="id-181" aria-labelledby="id-181" aria-checked="true" style="cursor: pointer;" transform="translate(434.5,0)"><g fill="#ffffff" fill-opacity="0"><rect width="94" height="39"/></g><g transform="translate(0,8)"><g fill="#a367dc" style="pointer-events: none;"><g fill="#ffffff" fill-opacity="0" stroke-opacity="0" stroke="#000000"><rect width="23" height="23"/></g><g><g fill="#a367dc" fill-opacity="1" stroke="#a367dc" stroke-opacity="1"><path d="M3,0 L20,0 a3,3 0 0 1 3,3 L23,20 a3,3 0 0 1 -3,3 L3,23 a3,3 0 0 1 -3,-3 L0,3 a3,3 0 0 1 3,-3 Z"/></g></g></g><g fill="#000000" aria-label="Not sure" style="pointer-events: none;" transform="translate(28,1)"><g style="user-select: none;"><text x="0" y="21" overflow="hidden" dy="-5.67"><tspan>Not sure</tspan></text></g></g><g fill="#000000" style="pointer-events: none;" display="none"><g display="none"/></g></g></g><g focusable="true" tabindex="0" role="switch" aria-controls="id-202" aria-labelledby="id-202" aria-checked="true" style="cursor: pointer;" transform="translate(548.5,0)"><g fill="#ffffff" fill-opacity="0"><rect width="152" height="39"/></g><g transform="translate(0,8)"><g fill="#dc67ce" style="pointer-events: none;"><g fill="#ffffff" fill-opacity="0" stroke-opacity="0" stroke="#000000"><rect width="23" height="23"/></g><g><g fill="#dc67ce" fill-opacity="1" stroke="#dc67ce" stroke-opacity="1"><path d="M3,0 L20,0 a3,3 0 0 1 3,3 L23,20 a3,3 0 0 1 -3,3 L3,23 a3,3 0 0 1 -3,-3 L0,3 a3,3 0 0 1 3,-3 Z"/></g></g></g><g fill="#000000" aria-label="Somewhat agree" style="pointer-events: none;" transform="translate(28,1)"><g style="user-select: none;"><text x="0" y="21" overflow="hidden" dy="-5.67"><tspan>Somewhat agree</tspan></text></g></g><g fill="#000000" style="pointer-events: none;" display="none"><g display="none"/></g></g></g><g focusable="true" tabindex="0" role="switch" aria-controls="id-223" aria-labelledby="id-223" aria-checked="true" style="cursor: pointer;" transform="translate(720.5,0)"><g fill="#ffffff" fill-opacity="0"><rect width="138" height="39"/></g><g transform="translate(0,8)"><g fill="#dc6788" style="pointer-events: none;"><g fill="#ffffff" fill-opacity="0" stroke-opacity="0" stroke="#000000"><rect width="23" height="23"/></g><g><g fill="#dc6788" fill-opacity="1" stroke="#dc6788" stroke-opacity="1"><path d="M3,0 L20,0 a3,3 0 0 1 3,3 L23,20 a3,3 0 0 1 -3,3 L3,23 a3,3 0 0 1 -3,-3 L0,3 a3,3 0 0 1 3,-3 Z"/></g></g></g><g fill="#000000" aria-label="Strongly Agree" style="pointer-events: none;" transform="translate(28,1)"><g style="user-select: none;"><text x="0" y="21" overflow="hidden" dy="-5.67"><tspan>Strongly Agree</tspan></text></g></g><g fill="#000000" style="pointer-events: none;" display="none"><g display="none"/></g></g></g></g></g></g></g></g></g><g><g><g role="tooltip" visibility="hidden" opacity="0"><g fill="#ffffff" fill-opacity="0.9" stroke-width="1" stroke-opacity="1" stroke="#ffffff" filter="url(#filter-id-51)" style="pointer-events: none;" transform="translate(0,6)"><path d="M3,0 L3,0 L0,-6 L13,0 L21,0 a3,3 0 0 1 3,3 L24,8 a3,3 0 0 1 -3,3 L3,11 a3,3 0 0 1 -3,-3 L0,3 a3,3 0 0 1 3,-3"/></g><g><g fill="#ffffff" style="pointer-events: none;" transform="translate(12,6)"><g transform="translate(0,7)" display="none"/></g></g></g><g visibility="hidden" style="pointer-events: none;" display="none"><g fill="#ffffff" opacity="1"><rect width="985" height="650"/></g><g><g transform="translate(492.5,325)"><g><g stroke-opacity="1" fill="#f3f3f3" fill-opacity="0.8"><g><g><path d=" M53,0  a53,53,0,0,1,-106,0 a53,53,0,0,1,106,0 M42,0  a42,42,0,0,0,-84,0 a42,42,0,0,0,84,0 L42,0 "/></g></g></g><g stroke-opacity="1" fill="#000000" fill-opacity="0.2"><g><g><path d=" M50,0  a50,50,0,0,1,-100,0 a50,50,0,0,1,100,0 M45,0  a45,45,0,0,0,-90,0 a45,45,0,0,0,90,0 L45,0 "/></g></g></g><g fill="#000000" fill-opacity="0.4"><g transform="translate(-19.5,-10.5)" style="user-select: none;"><text x="19.5px" y="21" dy="-5.67" text-anchor="middle"><tspan>100%</tspan></text></g></g></g></g></g></g><g opacity="0.3" aria-labelledby="id-66-title" filter="url(#filter-id-66)" style="cursor: pointer;" transform="translate(0,629)"><g fill="#ffffff" opacity="0"><rect width="66" height="21"/></g><g><g shape-rendering="auto" fill="none" stroke-opacity="1" stroke-width="1.7999999999999998" stroke="#3cabff"><path d=" M15,15  C17.4001,15 22.7998,15.0001 27,15 C31.2002,14.9999 33.2999,6 36,6 C38.7001,6 38.6999,10.5 40.5,10.5 C42.3001,10.5 42.2999,6 45,6 C47.7001,6 50.9999,14.9999 54,15 C57.0002,15.0001 58.7999,15 60,15"/></g><g shape-rendering="auto" fill="none" stroke-opacity="1" stroke-width="1.7999999999999998" stroke="url(#gradient-id-69)"><path d=" M6,15  C8.2501,15 9.7498,15.0001 15,15 C20.2502,14.9999 20.7748,3.6 27,3.6 C33.2252,3.6 33.8998,14.9999 39.9,15 C45.9002,15.0001 45.9748,15 51,15 C56.0252,15 57.7499,15 60,15"/></g></g><title id="id-66-title">Chart created using amCharts library</title></g><g role="tooltip" visibility="hidden" opacity="0"><g fill="#000000" fill-opacity="1" stroke-width="1" stroke-opacity="1" stroke="#000000" style="pointer-events: none;" transform="translate(80,518)"><path d="M0,0 L20,0 a0,0 0 0 1 0,0 L20,10 a0,0 0 0 1 -0,0 L0,10 a0,0 0 0 1 -0,-0 L0,0 a0,0 0 0 1 0,-0"/></g><g><g fill="#ffffff" style="pointer-events: none;" transform="translate(90,518)"><g transform="translate(0,5)" display="none"/></g></g></g><g role="tooltip" visibility="hidden" opacity="0"><g fill="#000000" fill-opacity="1" stroke-width="1" stroke-opacity="1" stroke="#000000" style="pointer-events: none;" transform="translate(-25,62)"><path d="M0,0 L20,0 a0,0 0 0 1 0,0 L20,0 L20,0 L25,0 L20,10 L20,10 a0,0 0 0 1 -0,0 L0,10 a0,0 0 0 1 -0,-0 L0,0 a0,0 0 0 1 0,-0"/></g><g><g fill="#ffffff" style="pointer-events: none;" transform="translate(-15,62)"><g transform="translate(0,5)" display="none"/></g></g></g><g role="tooltip" visibility="hidden" opacity="0"><g fill="#ffffff" fill-opacity="0.9" stroke-width="1" stroke-opacity="1" stroke="#ffffff" filter="url(#filter-id-149)" style="pointer-events: none;" transform="translate(0,6)"><path d="M3,0 L3,0 L0,-6 L13,0 L21,0 a3,3 0 0 1 3,3 L24,8 a3,3 0 0 1 -3,3 L3,11 a3,3 0 0 1 -3,-3 L0,3 a3,3 0 0 1 3,-3"/></g><g><g fill="#ffffff" style="pointer-events: none;" transform="translate(12,6)"><g transform="translate(0,7)" display="none"/></g></g></g><g role="tooltip" visibility="hidden" opacity="0"><g fill="#ffffff" fill-opacity="0.9" stroke-width="1" stroke-opacity="1" stroke="#ffffff" filter="url(#filter-id-170)" style="pointer-events: none;" transform="translate(0,6)"><path d="M3,0 L3,0 L0,-6 L13,0 L21,0 a3,3 0 0 1 3,3 L24,8 a3,3 0 0 1 -3,3 L3,11 a3,3 0 0 1 -3,-3 L0,3 a3,3 0 0 1 3,-3"/></g><g><g fill="#ffffff" style="pointer-events: none;" transform="translate(12,6)"><g transform="translate(0,7)" display="none"/></g></g></g><g role="tooltip" visibility="hidden" opacity="0"><g fill="#ffffff" fill-opacity="0.9" stroke-width="1" stroke-opacity="1" stroke="#ffffff" filter="url(#filter-id-191)" style="pointer-events: none;" transform="translate(0,6)"><path d="M3,0 L3,0 L0,-6 L13,0 L21,0 a3,3 0 0 1 3,3 L24,8 a3,3 0 0 1 -3,3 L3,11 a3,3 0 0 1 -3,-3 L0,3 a3,3 0 0 1 3,-3"/></g><g><g fill="#ffffff" style="pointer-events: none;" transform="translate(12,6)"><g transform="translate(0,7)" display="none"/></g></g></g><g role="tooltip" visibility="hidden" opacity="0"><g fill="#ffffff" fill-opacity="0.9" stroke-width="1" stroke-opacity="1" stroke="#ffffff" filter="url(#filter-id-212)" style="pointer-events: none;" transform="translate(0,6)"><path d="M3,0 L3,0 L0,-6 L13,0 L21,0 a3,3 0 0 1 3,3 L24,8 a3,3 0 0 1 -3,3 L3,11 a3,3 0 0 1 -3,-3 L0,3 a3,3 0 0 1 3,-3"/></g><g><g fill="#ffffff" style="pointer-events: none;" transform="translate(12,6)"><g transform="translate(0,7)" display="none"/></g></g></g><g role="tooltip" opacity="0" aria-describedby="id-633" transform="translate(882.082,180.6125)"><g fill="#dc6788" fill-opacity="0.9" stroke-width="1" stroke-opacity="1" stroke="#ffffff" filter="url(#filter-id-233)" style="pointer-events: none;" transform="translate(-94,-38)"><path d="M3,0 L185,0 a3,3 0 0 1 3,3 L188,29 a3,3 0 0 1 -3,3 L185,32 L99,32 L94,38 L89,32 L3,32 a3,3 0 0 1 -3,-3 L0,3 a3,3 0 0 1 3,-3"/></g><g><g fill="#000000" style="pointer-events: none;" transform="translate(0,-38)"><g transform="translate(-82,7)" style="user-select: none;"><text x="0" y="21" dy="-5.67"><tspan>Strongly Agree: 52.02%</tspan></text></g></g></g></g></g></g></g></g></svg>