<?xml version="1.0" encoding="utf-8"?><svg width="955px" height="500px" viewBox="0 0 955 500"  style="font-family: -apple-system, BlinkMacSystemFont, Segoe UI, Roboto, Helvetica, Arial, sans-serif, Apple Color Emoji, Segoe UI Emoji, Segoe UI Symbol;font-size: 16px;" version="1.1" xmlns="http://www.w3.org/2000/svg" xmlns:xlink="http://www.w3.org/1999/xlink"><defs xmlns="http://www.w3.org/2000/svg"><clipPath id="id-46"><rect width="955" height="500"/></clipPath><linearGradient id="gradient-id-69" x1="1%" x2="99%" y1="59%" y2="41%"><stop stop-color="#474758" offset="0"/><stop stop-color="#474758" stop-opacity="1" offset="0.75"/><stop stop-color="#3cabff" stop-opacity="1" offset="0.755"/></linearGradient><filter id="filter-id-78" filterUnits="objectBoundingBox" width="200%" height="200%" x="-50%" y="-50%"/><filter id="filter-id-99" filterUnits="objectBoundingBox" width="200%" height="200%" x="-50%" y="-50%"/><clipPath id="id-132"><path d="M0,0 L694,0 L694,379 L0,379 L0,0"/></clipPath><clipPath id="id-248"><rect width="694" height="379"/></clipPath><filter id="filter-id-51" filterUnits="objectBoundingBox" width="200%" height="200%" x="-50%" y="-50%"><feGaussianBlur result="blurOut" in="SourceGraphic" stdDeviation="1.5"/><feOffset result="offsetBlur" dx="1" dy="1"/><feFlood flood-color="#000000" flood-opacity="0.5"/><feComposite in2="offsetBlur" operator="in"/><feMerge><feMergeNode/><feMergeNode in="SourceGraphic"/></feMerge></filter><filter id="filter-id-66" filterUnits="objectBoundingBox" width="120%" height="120%" x="-10%" y="-10%"><feColorMatrix type="saturate" values="0"/></filter><filter id="filter-id-137" filterUnits="objectBoundingBox" width="200%" height="200%" x="-50%" y="-50%"><feGaussianBlur result="blurOut" in="SourceGraphic" stdDeviation="1.5"/><feOffset result="offsetBlur" dx="1" dy="1"/><feFlood flood-color="#000000" flood-opacity="0.5"/><feComposite in2="offsetBlur" operator="in"/><feMerge><feMergeNode/><feMergeNode in="SourceGraphic"/></feMerge></filter></defs><g xmlns="http://www.w3.org/2000/svg" style=""><g fill="#ffffff" fill-opacity="0"><rect width="955" height="500"/></g><g><g role="region" clip-path="url(#id-46)" opacity="1" aria-label="Chart"><g transform="translate(40,40)"><g><g><g><g><g><g><g transform="translate(181,0)"><g fill="#ffffff" fill-opacity="0"><rect width="694" height="379"/></g><g><g><g><g stroke="#000000" stroke-opacity="0.15" fill="none" transform="translate(-278,0)" display="none"><path d=" M0,0  L0,379 " transform="translate(-0.5,-0.5)"/></g><g stroke="#000000" stroke-opacity="0.15" fill="none" transform="translate(-139,0)" display="none"><path d=" M0,0  L0,379 " transform="translate(-0.5,-0.5)"/></g><g stroke="#000000" stroke-opacity="0.15" fill="none"><path d=" M0,0  L0,379 " transform="translate(-0.5,-0.5)"/></g><g stroke="#000000" stroke-opacity="0.15" fill="none" transform="translate(139,0)"><path d=" M0,0  L0,379 " transform="translate(-0.5,-0.5)"/></g><g stroke="#000000" stroke-opacity="0.15" fill="none" transform="translate(278,0)"><path d=" M0,0  L0,379 " transform="translate(-0.5,-0.5)"/></g><g stroke="#000000" stroke-opacity="0.15" fill="none" transform="translate(416,0)"><path d=" M0,0  L0,379 " transform="translate(-0.5,-0.5)"/></g><g stroke="#000000" stroke-opacity="0.15" fill="none" transform="translate(555,0)"><path d=" M0,0  L0,379 " transform="translate(-0.5,-0.5)"/></g><g stroke="#000000" stroke-opacity="0.15" fill="none" transform="translate(694,0)"><path d=" M0,0  L0,379 " transform="translate(-0.5,-0.5)"/></g><g stroke="#000000" stroke-opacity="0.15" fill="none" transform="translate(833,0)" display="none"><path d=" M0,0  L0,379 " transform="translate(-0.5,-0.5)"/></g></g></g><g><g/></g><g><g><g role="group" stroke-opacity="0" fill-opacity="1" stroke="#67b7dc" aria-label="Series" id="id-127"><g><g clip-path="url(#id-132)"><g><g><g><g stroke-opacity="0" fill="#67b7dc" fill-opacity="1" stroke="#67b7dc" role="menuitem" focusable="true" tabindex="0" transform="translate(0,4.738)"><g><g><path d="M0,0 L550.2,0 a5,5 0 0 1 5,5 L555.2,32.9 a5,5 0 0 1 -5,5 L0,37.9 a0,0 0 0 1 -0,-0 L0,0 a0,0 0 0 1 0,-0 Z"/></g></g></g><g stroke-opacity="0" fill="#6794dc" fill-opacity="1" stroke="#67b7dc" role="menuitem" focusable="true" tabindex="0" transform="translate(0,52.113)"><g><g><path d="M0,0 L494.68,0 a5,5 0 0 1 5,5 L499.68,32.9 a5,5 0 0 1 -5,5 L0,37.9 a0,0 0 0 1 -0,-0 L0,0 a0,0 0 0 1 0,-0 Z"/></g></g></g><g stroke-opacity="0" fill="#6771dc" fill-opacity="1" stroke="#67b7dc" role="menuitem" focusable="true" tabindex="0" transform="translate(0,99.488)"><g><g><path d="M0,0 L342,0 a5,5 0 0 1 5,5 L347,32.9 a5,5 0 0 1 -5,5 L0,37.9 a0,0 0 0 1 -0,-0 L0,0 a0,0 0 0 1 0,-0 Z"/></g></g></g><g stroke-opacity="0" fill="#8067dc" fill-opacity="1" stroke="#67b7dc" role="menuitem" focusable="true" tabindex="0" transform="translate(0,146.863)"><g><g><path d="M0,0 L314.24,0 a5,5 0 0 1 5,5 L319.24,32.9 a5,5 0 0 1 -5,5 L0,37.9 a0,0 0 0 1 -0,-0 L0,0 a0,0 0 0 1 0,-0 Z"/></g></g></g><g stroke-opacity="0" fill="#a367dc" fill-opacity="1" stroke="#67b7dc" role="menuitem" focusable="true" tabindex="0" transform="translate(0,194.237)"><g><g><path d="M0,0 L258.72,0 a5,5 0 0 1 5,5 L263.72,32.9 a5,5 0 0 1 -5,5 L0,37.9 a0,0 0 0 1 -0,-0 L0,0 a0,0 0 0 1 0,-0 Z"/></g></g></g><g stroke-opacity="0" fill="#c767dc" fill-opacity="1" stroke="#67b7dc" role="menuitem" focusable="true" tabindex="0" transform="translate(0,241.612)"><g><g><path d="M0,0 L203.2,0 a5,5 0 0 1 5,5 L208.2,32.9 a5,5 0 0 1 -5,5 L0,37.9 a0,0 0 0 1 -0,-0 L0,0 a0,0 0 0 1 0,-0 Z"/></g></g></g><g stroke-opacity="0" fill="#dc67ce" fill-opacity="1" stroke="#67b7dc" role="menuitem" focusable="true" tabindex="0" transform="translate(0,288.988)"><g><g><path d="M0,0 L182.38,0 a5,5 0 0 1 5,5 L187.38,32.9 a5,5 0 0 1 -5,5 L0,37.9 a0,0 0 0 1 -0,-0 L0,0 a0,0 0 0 1 0,-0 Z"/></g></g></g><g stroke-opacity="0" fill="#dc67ab" fill-opacity="1" stroke="#67b7dc" role="menuitem" focusable="true" tabindex="0" transform="translate(0,336.363)"><g><g><path d="M0,0 L147.68,0 a5,5 0 0 1 5,5 L152.68,32.9 a5,5 0 0 1 -5,5 L0,37.9 a0,0 0 0 1 -0,-0 L0,0 a0,0 0 0 1 0,-0 Z"/></g></g></g></g></g></g></g><g/></g></g></g></g><g clip-path="url(#id-248)"><g><g fill="#67b7dc" stroke="#67b7dc"><g><g opacity="1" transform="translate(0,23.688)" focusable="true" tabindex="0"><g><g fill="#000000" stroke-opacity="0" transform="translate(10,0)"><g transform="translate(0,-10.5)" style="user-select: none;"><text x="0" y="21" overflow="hidden" dy="-5.67"><tspan>80</tspan></text></g></g></g></g><g opacity="1" transform="translate(0,71.063)" focusable="true" tabindex="0"><g><g fill="#000000" stroke-opacity="0" transform="translate(10,0)"><g transform="translate(0,-10.5)" style="user-select: none;"><text x="0" y="21" overflow="hidden" dy="-5.67"><tspan>72</tspan></text></g></g></g></g><g opacity="1" transform="translate(0,118.438)" focusable="true" tabindex="0"><g><g fill="#000000" stroke-opacity="0" transform="translate(10,0)"><g transform="translate(0,-10.5)" style="user-select: none;"><text x="0" y="21" overflow="hidden" dy="-5.67"><tspan>50</tspan></text></g></g></g></g><g opacity="1" transform="translate(0,165.813)" focusable="true" tabindex="0"><g><g fill="#000000" stroke-opacity="0" transform="translate(10,0)"><g transform="translate(0,-10.5)" style="user-select: none;"><text x="0" y="21" overflow="hidden" dy="-5.67"><tspan>46</tspan></text></g></g></g></g><g opacity="1" transform="translate(0,213.188)" focusable="true" tabindex="0"><g><g fill="#000000" stroke-opacity="0" transform="translate(10,0)"><g transform="translate(0,-10.5)" style="user-select: none;"><text x="0" y="21" overflow="hidden" dy="-5.67"><tspan>38</tspan></text></g></g></g></g><g opacity="1" transform="translate(0,260.563)" focusable="true" tabindex="0"><g><g fill="#000000" stroke-opacity="0" transform="translate(10,0)"><g transform="translate(0,-10.5)" style="user-select: none;"><text x="0" y="21" overflow="hidden" dy="-5.67"><tspan>30</tspan></text></g></g></g></g><g opacity="1" transform="translate(0,307.938)" focusable="true" tabindex="0"><g><g fill="#000000" stroke-opacity="0" transform="translate(10,0)"><g transform="translate(0,-10.5)" style="user-select: none;"><text x="0" y="21" overflow="hidden" dy="-5.67"><tspan>27</tspan></text></g></g></g></g><g opacity="1" transform="translate(0,355.313)" focusable="true" tabindex="0"><g><g fill="#000000" stroke-opacity="0" transform="translate(10,0)"><g transform="translate(0,-10.5)" style="user-select: none;"><text x="0" y="21" overflow="hidden" dy="-5.67"><tspan>22</tspan></text></g></g></g></g></g></g></g></g><g><g><g><g/></g><g><g/></g></g></g><g><g/></g><g><g/></g><g role="button" focusable="true" tabindex="0" opacity="0" visibility="hidden" aria-hidden="true" transform="translate(654,-3)" aria-labelledby="id-37-title"><g fill="#6794dc" stroke="#ffffff" fill-opacity="1" stroke-opacity="0" transform="translate(0,8)"><path d="M17,0 L18,0 a17,17 0 0 1 17,17 L35,17 a17,17 0 0 1 -17,17 L17,34 a17,17 0 0 1 -17,-17 L0,17 a17,17 0 0 1 17,-17 Z"/></g><g transform="translate(9,9)"><g stroke="#ffffff" style="pointer-events: none;" transform="translate(0,8)"><path d=" M0,0  L11,0 " transform="translate(2.5,7.5)"/></g><g fill="#000000" style="pointer-events: none;" transform="translate(17,8)"><g display="none"/></g></g><title id="id-37-title">Zoom Out</title></g></g></g><g><g><g aria-hidden="true"><g><g fill="#000000" transform="translate(0,189.5) rotate(-90)"><g display="none"/></g><g stroke="#000000" stroke-opacity="0.15" fill="none" display="none" transform="translate(181,379)" opacity="0" visibility="hidden" aria-hidden="true"><path transform="translate(-0.5,-0.5)" d=" M0,0  L694,0 "/></g><g transform="translate(0,0)"><g><g fill="#000000" aria-label="L" fill-opacity="0" opacity="0" stroke-opacity="0" style="pointer-events: none;" transform="translate(181,189.5)"><g transform="translate(-171,-10.5)" style="user-select: none;"><text x="0" y="21" dy="-5.67"><tspan>Patriotic Procrastinator</tspan></text></g></g><g fill="#000000" transform="translate(181,307.938)"><g transform="translate(-171,-10.5)" style="user-select: none;"><text x="0" y="21" dy="-5.67"><tspan>Patriotic Procrastinator</tspan></text></g></g><g fill="#000000" transform="translate(181,260.563)"><g transform="translate(-147,-10.5)" style="user-select: none;"><text x="0" y="21" dy="-5.67"><tspan>Conke Commander</tspan></text></g></g><g fill="#000000" transform="translate(181,165.813)"><g transform="translate(-105,-10.5)" style="user-select: none;"><text x="0" y="21" dy="-5.67"><tspan>Bepis Drinker</tspan></text></g></g><g fill="#000000" transform="translate(181,213.188)"><g transform="translate(-90,-10.5)" style="user-select: none;"><text x="0" y="21" dy="-5.67"><tspan>Super Talky</tspan></text></g></g><g fill="#000000" transform="translate(181,118.438)"><g transform="translate(-89,-10.5)" style="user-select: none;"><text x="0" y="21" dy="-5.67"><tspan>Chatterbox</tspan></text></g></g><g fill="#000000" transform="translate(181,23.688)"><g transform="translate(-55,-10.5)" style="user-select: none;"><text x="0" y="21" dy="-5.67"><tspan>Active</tspan></text></g></g><g fill="#000000" transform="translate(181,355.313)"><g transform="translate(-157,-10.5)" style="user-select: none;"><text x="0" y="21" dy="-5.67"><tspan>Community Member</tspan></text></g></g><g fill="#000000" transform="translate(181,71.063)"><g transform="translate(-63,-10.5)" style="user-select: none;"><text x="0" y="21" dy="-5.67"><tspan>No role</tspan></text></g></g><g fill="#000000" display="none" transform="translate(181,402.688)"><g transform="translate(-10,0)" display="none"/></g></g></g><g stroke="#000000" stroke-opacity="0" fill="none" style="pointer-events: none;" transform="translate(181,0)"><path d=" M0,0  L0,379 " transform="translate(-0.5,-0.5)"/></g></g></g></g></g><g transform="translate(875,0)"><g/></g></g></g><g><g transform="translate(181,0)"/></g><g transform="translate(0,379)"><g transform="translate(181,0)"><g aria-hidden="true"><g><g stroke="#000000" stroke-opacity="0" fill="none" style="pointer-events: none;"><path d=" M0,0  L694,0 " transform="translate(-0.5,-0.5)"/></g><g><g><g fill="#000000" aria-label="L" fill-opacity="0" opacity="0" stroke-opacity="0" style="pointer-events: none;" transform="translate(347,0)"><g transform="translate(-4,10)" style="user-select: none;"><text x="0" y="21" dy="-5.67"><tspan>L</tspan></text></g></g><g fill="#000000" transform="translate(-277.6,0)" display="none"><g transform="translate(-12.5,10)" style="user-select: none;"><text x="0" y="21" dy="-5.67"><tspan>-40</tspan></text></g></g><g fill="#000000" transform="translate(-138.8,0)" display="none"><g transform="translate(-12.5,10)" style="user-select: none;"><text x="0" y="21" dy="-5.67"><tspan>-20</tspan></text></g></g><g fill="#000000"><g transform="translate(-4.5,10)" style="user-select: none;"><text x="0" y="21" dy="-5.67"><tspan>0</tspan></text></g></g><g fill="#000000" transform="translate(138.8,0)"><g transform="translate(-9,10)" style="user-select: none;"><text x="0" y="21" dy="-5.67"><tspan>20</tspan></text></g></g><g fill="#000000" transform="translate(277.6,0)"><g transform="translate(-9.5,10)" style="user-select: none;"><text x="0" y="21" dy="-5.67"><tspan>40</tspan></text></g></g><g fill="#000000" transform="translate(416.4,0)"><g transform="translate(-9,10)" style="user-select: none;"><text x="0" y="21" dy="-5.67"><tspan>60</tspan></text></g></g><g fill="#000000" transform="translate(555.2,0)"><g transform="translate(-9,10)" style="user-select: none;"><text x="0" y="21" dy="-5.67"><tspan>80</tspan></text></g></g><g fill="#000000" transform="translate(694,0)"><g transform="translate(-13.5,10)" style="user-select: none;"><text x="0" y="21" dy="-5.67"><tspan>100</tspan></text></g></g><g fill="#000000" transform="translate(832.8,0)" display="none"><g transform="translate(-13.5,10)" style="user-select: none;"><text x="0" y="21" dy="-5.67"><tspan>120</tspan></text></g></g></g></g><g stroke="#000000" stroke-opacity="0.15" fill="none" transform="translate(0,-379)"><path transform="translate(-0.5,-0.5)" d=" M0,0  L0,379 "/></g><g fill="#000000" transform="translate(347,41)"><g display="none"/></g></g></g></g></g></g></g></g></g></g></g><g><g><g role="tooltip" visibility="hidden" opacity="0"><g fill="#ffffff" fill-opacity="0.9" stroke-width="1" stroke-opacity="1" stroke="#ffffff" filter="url(#filter-id-51)" style="pointer-events: none;" transform="translate(0,6)"><path d="M3,0 L3,0 L0,-6 L13,0 L21,0 a3,3 0 0 1 3,3 L24,8 a3,3 0 0 1 -3,3 L3,11 a3,3 0 0 1 -3,-3 L0,3 a3,3 0 0 1 3,-3"/></g><g><g fill="#ffffff" style="pointer-events: none;" transform="translate(12,6)"><g transform="translate(0,7)" display="none"/></g></g></g><g visibility="hidden" style="pointer-events: none;" display="none"><g fill="#ffffff" opacity="1"><rect width="965" height="500"/></g><g><g transform="translate(482.5,250)"><g><g stroke-opacity="1" fill="#f3f3f3" fill-opacity="0.8"><g><g><path d=" M53,0  a53,53,0,0,1,-106,0 a53,53,0,0,1,106,0 M42,0  a42,42,0,0,0,-84,0 a42,42,0,0,0,84,0 L42,0 "/></g></g></g><g stroke-opacity="1" fill="#000000" fill-opacity="0.2"><g><g><path d=" M50,0  a50,50,0,0,1,-100,0 a50,50,0,0,1,100,0 M45,0  a45,45,0,0,0,-90,0 a45,45,0,0,0,90,0 L45,0 "/></g></g></g><g fill="#000000" fill-opacity="0.4"><g transform="translate(-19.5,-10.5)" style="user-select: none;"><text x="19.5px" y="21" dy="-5.67" text-anchor="middle"><tspan>100%</tspan></text></g></g></g></g></g></g><g opacity="0.3" aria-labelledby="id-66-title" filter="url(#filter-id-66)" style="cursor: pointer;" transform="translate(0,479)"><g fill="#ffffff" opacity="0"><rect width="66" height="21"/></g><g><g shape-rendering="auto" fill="none" stroke-opacity="1" stroke-width="1.7999999999999998" stroke="#3cabff"><path d=" M15,15  C17.4001,15 22.7998,15.0001 27,15 C31.2002,14.9999 33.2999,6 36,6 C38.7001,6 38.6999,10.5 40.5,10.5 C42.3001,10.5 42.2999,6 45,6 C47.7001,6 50.9999,14.9999 54,15 C57.0002,15.0001 58.7999,15 60,15"/></g><g shape-rendering="auto" fill="none" stroke-opacity="1" stroke-width="1.7999999999999998" stroke="url(#gradient-id-69)"><path d=" M6,15  C8.2501,15 9.7498,15.0001 15,15 C20.2502,14.9999 20.7748,3.6 27,3.6 C33.2252,3.6 33.8998,14.9999 39.9,15 C45.9002,15.0001 45.9748,15 51,15 C56.0252,15 57.7499,15 60,15"/></g></g><title id="id-66-title">Chart created using amCharts library</title></g><g role="tooltip" visibility="hidden" opacity="0"><g fill="#000000" fill-opacity="1" stroke-width="1" stroke-opacity="1" stroke="#000000" style="pointer-events: none;" transform="translate(-25,40)"><path d="M0,0 L20,0 a0,0 0 0 1 0,0 L20,0 L20,0 L25,0 L20,10 L20,10 a0,0 0 0 1 -0,0 L0,10 a0,0 0 0 1 -0,-0 L0,0 a0,0 0 0 1 0,-0"/></g><g><g fill="#ffffff" style="pointer-events: none;" transform="translate(-15,40)"><g transform="translate(0,5)" display="none"/></g></g></g><g role="tooltip" visibility="hidden" opacity="0"><g fill="#000000" fill-opacity="1" stroke-width="1" stroke-opacity="1" stroke="#000000" style="pointer-events: none;" transform="translate(221,419)"><path d="M0,0 L20,0 a0,0 0 0 1 0,0 L20,10 a0,0 0 0 1 -0,0 L0,10 a0,0 0 0 1 -0,-0 L0,0 a0,0 0 0 1 0,-0"/></g><g><g fill="#ffffff" style="pointer-events: none;" transform="translate(231,419)"><g transform="translate(0,5)" display="none"/></g></g></g><g role="tooltip" visibility="hidden" opacity="0" aria-describedby="id-127" transform="translate(573,229.5)"><g fill="#67b7dc" fill-opacity="0.9" stroke-width="1" stroke-opacity="1" stroke="#ffffff" filter="url(#filter-id-137)" style="pointer-events: none;" transform="translate(-30,-5.5)"><path d="M3,0 L21,0 a3,3 0 0 1 3,3 L24,3 L24,0.5 L30,5.5 L24,10.5 L24,8 a3,3 0 0 1 -3,3 L3,11 a3,3 0 0 1 -3,-3 L0,3 a3,3 0 0 1 3,-3"/></g><g><g fill="#000000" style="pointer-events: none;" transform="translate(-18,-5.5)"><g transform="translate(0,7)" display="none"/></g></g></g></g></g></g></g></svg>