<?xml version="1.0" encoding="utf-8"?><svg width="948px" height="500px" viewBox="0 0 948 500"  style="font-family: -apple-system, BlinkMacSystemFont, Segoe UI, Roboto, Helvetica, Arial, sans-serif, Apple Color Emoji, Segoe UI Emoji, Segoe UI Symbol;font-size: 16px;" version="1.1" xmlns="http://www.w3.org/2000/svg" xmlns:xlink="http://www.w3.org/1999/xlink"><defs xmlns="http://www.w3.org/2000/svg"><clipPath id="id-46"><rect width="948" height="500"/></clipPath><linearGradient id="gradient-id-69" x1="1%" x2="99%" y1="59%" y2="41%"><stop stop-color="#474758" offset="0"/><stop stop-color="#474758" stop-opacity="1" offset="0.75"/><stop stop-color="#3cabff" stop-opacity="1" offset="0.755"/></linearGradient><filter id="filter-id-99" filterUnits="objectBoundingBox" width="200%" height="200%" x="-50%" y="-50%"/><filter id="filter-id-120" filterUnits="objectBoundingBox" width="200%" height="200%" x="-50%" y="-50%"/><clipPath id="id-153"><path d="M0,0 L868,0 L868,328 L0,328 L0,0"/></clipPath><clipPath id="id-173"><rect width="868" height="328"/></clipPath><clipPath id="id-394"><rect width="868" height="328"/></clipPath><filter id="filter-id-51" filterUnits="objectBoundingBox" width="200%" height="200%" x="-50%" y="-50%"><feGaussianBlur result="blurOut" in="SourceGraphic" stdDeviation="1.5"/><feOffset result="offsetBlur" dx="1" dy="1"/><feFlood flood-color="#000000" flood-opacity="0.5"/><feComposite in2="offsetBlur" operator="in"/><feMerge><feMergeNode/><feMergeNode in="SourceGraphic"/></feMerge></filter><filter id="filter-id-66" filterUnits="objectBoundingBox" width="120%" height="120%" x="-10%" y="-10%"><feColorMatrix type="saturate" values="0"/></filter><filter id="filter-id-158" filterUnits="objectBoundingBox" width="200%" height="200%" x="-50%" y="-50%"><feGaussianBlur result="blurOut" in="SourceGraphic" stdDeviation="1.5"/><feOffset result="offsetBlur" dx="1" dy="1"/><feFlood flood-color="#000000" flood-opacity="0.5"/><feComposite in2="offsetBlur" operator="in"/><feMerge><feMergeNode/><feMergeNode in="SourceGraphic"/></feMerge></filter></defs><g xmlns="http://www.w3.org/2000/svg" style=""><g fill="#ffffff" fill-opacity="1"><rect width="948" height="500"/></g><g><g role="region" clip-path="url(#id-46)" opacity="1" aria-label="Chart" id="id-22"><g transform="translate(15,15)"><g><g><g><g><g transform="translate(0,32)"><g><g style="touch-action: none; user-select: none; -webkit-user-drag: none;" transform="translate(50,0)"><g fill="#ffffff" fill-opacity="0"><rect width="868" height="328"/></g><g><g><g><g stroke="#000000" stroke-opacity="0.15" fill="none" transform="translate(0,351)" display="none"><path d=" M0,0  L868,0 " transform="translate(-0.5,-0.5)"/></g><g stroke="#000000" stroke-opacity="0.15" fill="none" transform="translate(0,328)"><path d=" M0,0  L868,0 " transform="translate(-0.5,-0.5)"/></g><g stroke="#000000" stroke-opacity="0.15" fill="none" transform="translate(0,305)" display="none"><path d=" M0,0  L868,0 " transform="translate(-0.5,-0.5)"/></g><g stroke="#000000" stroke-opacity="0.15" fill="none" transform="translate(0,281)"><path d=" M0,0  L868,0 " transform="translate(-0.5,-0.5)"/></g><g stroke="#000000" stroke-opacity="0.15" fill="none" transform="translate(0,258)" display="none"><path d=" M0,0  L868,0 " transform="translate(-0.5,-0.5)"/></g><g stroke="#000000" stroke-opacity="0.15" fill="none" transform="translate(0,234)"><path d=" M0,0  L868,0 " transform="translate(-0.5,-0.5)"/></g><g stroke="#000000" stroke-opacity="0.15" fill="none" transform="translate(0,211)" display="none"><path d=" M0,0  L868,0 " transform="translate(-0.5,-0.5)"/></g><g stroke="#000000" stroke-opacity="0.15" fill="none" transform="translate(0,187)"><path d=" M0,0  L868,0 " transform="translate(-0.5,-0.5)"/></g><g stroke="#000000" stroke-opacity="0.15" fill="none" transform="translate(0,164)" display="none"><path d=" M0,0  L868,0 " transform="translate(-0.5,-0.5)"/></g><g stroke="#000000" stroke-opacity="0.15" fill="none" transform="translate(0,141)"><path d=" M0,0  L868,0 " transform="translate(-0.5,-0.5)"/></g><g stroke="#000000" stroke-opacity="0.15" fill="none" transform="translate(0,-47)" display="none"><path d=" M0,0  L868,0 " transform="translate(-0.5,-0.5)"/></g><g stroke="#000000" stroke-opacity="0.15" fill="none" transform="translate(0,94)"><path d=" M0,0  L868,0 " transform="translate(-0.5,-0.5)"/></g><g stroke="#000000" stroke-opacity="0.15" fill="none"><path d=" M0,0  L868,0 " transform="translate(-0.5,-0.5)"/></g><g stroke="#000000" stroke-opacity="0.15" fill="none" transform="translate(0,47)"><path d=" M0,0  L868,0 " transform="translate(-0.5,-0.5)"/></g><g stroke="#000000" stroke-opacity="0.15" fill="none" transform="translate(0,375)" display="none"><path d=" M0,0  L868,0 " transform="translate(-0.5,-0.5)"/></g><g stroke="#000000" stroke-opacity="0.15" fill="none" transform="translate(0,422)" display="none"><path d=" M0,0  L868,0 " transform="translate(-0.5,-0.5)"/></g></g></g><g><g><g stroke="#000000" stroke-opacity="0.15" fill="none"><path d=" M0,0  L0,328 " transform="translate(-0.5,-0.5)"/></g><g stroke="#000000" stroke-opacity="0.15" fill="none" transform="translate(46,0)"><path d=" M0,0  L0,328 " transform="translate(-0.5,-0.5)"/></g><g stroke="#000000" stroke-opacity="0.15" fill="none" transform="translate(91,0)"><path d=" M0,0  L0,328 " transform="translate(-0.5,-0.5)"/></g><g stroke="#000000" stroke-opacity="0.15" fill="none" transform="translate(137,0)"><path d=" M0,0  L0,328 " transform="translate(-0.5,-0.5)"/></g><g stroke="#000000" stroke-opacity="0.15" fill="none" transform="translate(183,0)"><path d=" M0,0  L0,328 " transform="translate(-0.5,-0.5)"/></g><g stroke="#000000" stroke-opacity="0.15" fill="none" transform="translate(228,0)"><path d=" M0,0  L0,328 " transform="translate(-0.5,-0.5)"/></g><g stroke="#000000" stroke-opacity="0.15" fill="none" transform="translate(274,0)"><path d=" M0,0  L0,328 " transform="translate(-0.5,-0.5)"/></g><g stroke="#000000" stroke-opacity="0.15" fill="none" transform="translate(320,0)"><path d=" M0,0  L0,328 " transform="translate(-0.5,-0.5)"/></g><g stroke="#000000" stroke-opacity="0.15" fill="none" transform="translate(365,0)"><path d=" M0,0  L0,328 " transform="translate(-0.5,-0.5)"/></g><g stroke="#000000" stroke-opacity="0.15" fill="none" transform="translate(411,0)"><path d=" M0,0  L0,328 " transform="translate(-0.5,-0.5)"/></g><g stroke="#000000" stroke-opacity="0.15" fill="none" transform="translate(457,0)"><path d=" M0,0  L0,328 " transform="translate(-0.5,-0.5)"/></g><g stroke="#000000" stroke-opacity="0.15" fill="none" transform="translate(503,0)"><path d=" M0,0  L0,328 " transform="translate(-0.5,-0.5)"/></g><g stroke="#000000" stroke-opacity="0.15" fill="none" transform="translate(548,0)"><path d=" M0,0  L0,328 " transform="translate(-0.5,-0.5)"/></g><g stroke="#000000" stroke-opacity="0.15" fill="none" transform="translate(594,0)"><path d=" M0,0  L0,328 " transform="translate(-0.5,-0.5)"/></g><g stroke="#000000" stroke-opacity="0.15" fill="none" transform="translate(640,0)"><path d=" M0,0  L0,328 " transform="translate(-0.5,-0.5)"/></g><g stroke="#000000" stroke-opacity="0.15" fill="none" transform="translate(685,0)"><path d=" M0,0  L0,328 " transform="translate(-0.5,-0.5)"/></g><g stroke="#000000" stroke-opacity="0.15" fill="none" transform="translate(731,0)"><path d=" M0,0  L0,328 " transform="translate(-0.5,-0.5)"/></g><g stroke="#000000" stroke-opacity="0.15" fill="none" transform="translate(777,0)"><path d=" M0,0  L0,328 " transform="translate(-0.5,-0.5)"/></g><g stroke="#000000" stroke-opacity="0.15" fill="none" transform="translate(822,0)"><path d=" M0,0  L0,328 " transform="translate(-0.5,-0.5)"/></g><g stroke="#000000" stroke-opacity="0.15" fill="none" transform="translate(868,0)"><path d=" M0,0  L0,328 " transform="translate(-0.5,-0.5)"/></g></g></g><g><g><g role="group" stroke-opacity="0" fill-opacity="1" stroke="#67b7dc" aria-label="Series"><g><g clip-path="url(#id-153)"><g><g><g><g stroke-opacity="1" stroke-width="0" fill="#67b7dc" fill-opacity="1" stroke="#67b7dc" role="menuitem" focusable="true" tabindex="0" transform="translate(4.566,229.6)"><g><g fill-opacity="0.8"><path d="M10,0 L26.551000000000002,0 a10,10 0 0 1 10,10 L36.551,98.4 a0,0 0 0 1 -0,0 L0,98.4 a0,0 0 0 1 -0,-0 L0,10 a10,10 0 0 1 10,-10 Z"/></g></g></g><g stroke-opacity="1" stroke-width="0" fill="#6794dc" fill-opacity="1" stroke="#67b7dc" role="menuitem" focusable="true" tabindex="0" transform="translate(50.249,147.6)"><g><g fill-opacity="0.8"><path d="M10,0 L26.551000000000002,0 a10,10 0 0 1 10,10 L36.551,180.4 a0,0 0 0 1 -0,0 L0,180.4 a0,0 0 0 1 -0,-0 L0,10 a10,10 0 0 1 10,-10 Z"/></g></g></g><g stroke-opacity="1" stroke-width="0" fill="#6771dc" fill-opacity="1" stroke="#67b7dc" role="menuitem" focusable="true" tabindex="0" transform="translate(95.94,257.714)"><g><g fill-opacity="0.8"><path d="M10,0 L26.543,0 a10,10 0 0 1 10,10 L36.543,70.286 a0,0 0 0 1 -0,0 L0,70.286 a0,0 0 0 1 -0,-0 L0,10 a10,10 0 0 1 10,-10 Z"/></g></g></g><g stroke-opacity="1" stroke-width="0" fill="#8067dc" fill-opacity="1" stroke="#67b7dc" role="menuitem" focusable="true" tabindex="0" transform="translate(141.623,227.257)"><g><g fill-opacity="0.8"><path d="M10,0 L26.543,0 a10,10 0 0 1 10,10 L36.543,100.743 a0,0 0 0 1 -0,0 L0,100.743 a0,0 0 0 1 -0,-0 L0,10 a10,10 0 0 1 10,-10 Z"/></g></g></g><g stroke-opacity="1" stroke-width="0" fill="#a367dc" fill-opacity="1" stroke="#67b7dc" role="menuitem" focusable="true" tabindex="0" transform="translate(187.306,248.343)"><g><g fill-opacity="0.8"><path d="M10,0 L26.543,0 a10,10 0 0 1 10,10 L36.543,79.657 a0,0 0 0 1 -0,0 L0,79.657 a0,0 0 0 1 -0,-0 L0,10 a10,10 0 0 1 10,-10 Z"/></g></g></g><g stroke-opacity="1" stroke-width="0" fill="#c767dc" fill-opacity="1" stroke="#67b7dc" role="menuitem" focusable="true" tabindex="0" transform="translate(232.989,292.857)"><g><g fill-opacity="0.8"><path d="M10,0 L26.551000000000002,0 a10,10 0 0 1 10,10 L36.551,35.143 a0,0 0 0 1 -0,0 L0,35.143 a0,0 0 0 1 -0,-0 L0,10 a10,10 0 0 1 10,-10 Z"/></g></g></g><g stroke-opacity="1" stroke-width="0" fill="#dc67ce" fill-opacity="1" stroke="#67b7dc" role="menuitem" focusable="true" tabindex="0" transform="translate(278.671,292.857)"><g><g fill-opacity="0.8"><path d="M10,0 L26.551000000000002,0 a10,10 0 0 1 10,10 L36.551,35.143 a0,0 0 0 1 -0,0 L0,35.143 a0,0 0 0 1 -0,-0 L0,10 a10,10 0 0 1 10,-10 Z"/></g></g></g><g stroke-opacity="1" stroke-width="0" fill="#dc67ab" fill-opacity="1" stroke="#67b7dc" role="menuitem" focusable="true" tabindex="0" transform="translate(324.354,231.943)"><g><g fill-opacity="0.8"><path d="M10,0 L26.551000000000002,0 a10,10 0 0 1 10,10 L36.551,96.057 a0,0 0 0 1 -0,0 L0,96.057 a0,0 0 0 1 -0,-0 L0,10 a10,10 0 0 1 10,-10 Z"/></g></g></g><g stroke-opacity="1" stroke-width="0" fill="#dc6788" fill-opacity="1" stroke="#67b7dc" role="menuitem" focusable="true" tabindex="0" transform="translate(370.046,276.457)"><g><g fill-opacity="0.8"><path d="M10,0 L26.543,0 a10,10 0 0 1 10,10 L36.543,51.543 a0,0 0 0 1 -0,0 L0,51.543 a0,0 0 0 1 -0,-0 L0,10 a10,10 0 0 1 10,-10 Z"/></g></g></g><g stroke-opacity="1" stroke-width="0" fill="#dc6967" fill-opacity="1" stroke="#67b7dc" role="menuitem" focusable="true" tabindex="0" transform="translate(415.729,182.743)"><g><g fill-opacity="0.8"><path d="M10,0 L26.543,0 a10,10 0 0 1 10,10 L36.543,145.257 a0,0 0 0 1 -0,0 L0,145.257 a0,0 0 0 1 -0,-0 L0,10 a10,10 0 0 1 10,-10 Z"/></g></g></g><g stroke-opacity="1" stroke-width="0" fill="#dc8c67" fill-opacity="1" stroke="#67b7dc" role="menuitem" focusable="true" tabindex="0" transform="translate(461.411,42.171)"><g><g fill-opacity="0.8"><path d="M10,0 L26.543,0 a10,10 0 0 1 10,10 L36.543,285.829 a0,0 0 0 1 -0,0 L0,285.829 a0,0 0 0 1 -0,-0 L0,10 a10,10 0 0 1 10,-10 Z"/></g></g></g><g stroke-opacity="1" stroke-width="0" fill="#dcaf67" fill-opacity="1" stroke="#67b7dc" role="menuitem" focusable="true" tabindex="0" transform="translate(507.094,161.657)"><g><g fill-opacity="0.8"><path d="M10,0 L26.551000000000002,0 a10,10 0 0 1 10,10 L36.551,166.343 a0,0 0 0 1 -0,0 L0,166.343 a0,0 0 0 1 -0,-0 L0,10 a10,10 0 0 1 10,-10 Z"/></g></g></g><g stroke-opacity="1" stroke-width="0" fill="#dcd267" fill-opacity="1" stroke="#67b7dc" role="menuitem" focusable="true" tabindex="0" transform="translate(552.777,213.2)"><g><g fill-opacity="0.8"><path d="M10,0 L26.551000000000002,0 a10,10 0 0 1 10,10 L36.551,114.8 a0,0 0 0 1 -0,0 L0,114.8 a0,0 0 0 1 -0,-0 L0,10 a10,10 0 0 1 10,-10 Z"/></g></g></g><g stroke-opacity="1" stroke-width="0" fill="#c3dc67" fill-opacity="1" stroke="#67b7dc" role="menuitem" focusable="true" tabindex="0" transform="translate(598.46,288.171)"><g><g fill-opacity="0.8"><path d="M10,0 L26.551000000000002,0 a10,10 0 0 1 10,10 L36.551,39.829 a0,0 0 0 1 -0,0 L0,39.829 a0,0 0 0 1 -0,-0 L0,10 a10,10 0 0 1 10,-10 Z"/></g></g></g><g stroke-opacity="1" stroke-width="0" fill="#a0dc67" fill-opacity="1" stroke="#67b7dc" role="menuitem" focusable="true" tabindex="0" transform="translate(644.151,257.714)"><g><g fill-opacity="0.8"><path d="M10,0 L26.543,0 a10,10 0 0 1 10,10 L36.543,70.286 a0,0 0 0 1 -0,0 L0,70.286 a0,0 0 0 1 -0,-0 L0,10 a10,10 0 0 1 10,-10 Z"/></g></g></g><g stroke-opacity="1" stroke-width="0" fill="#7ddc67" fill-opacity="1" stroke="#67b7dc" role="menuitem" focusable="true" tabindex="0" transform="translate(689.834,267.086)"><g><g fill-opacity="0.8"><path d="M10,0 L26.543,0 a10,10 0 0 1 10,10 L36.543,60.914 a0,0 0 0 1 -0,0 L0,60.914 a0,0 0 0 1 -0,-0 L0,10 a10,10 0 0 1 10,-10 Z"/></g></g></g><g stroke-opacity="1" stroke-width="0" fill="#67dc75" fill-opacity="1" stroke="#67b7dc" role="menuitem" focusable="true" tabindex="0" transform="translate(735.517,171.029)"><g><g fill-opacity="0.8"><path d="M10,0 L26.543,0 a10,10 0 0 1 10,10 L36.543,156.971 a0,0 0 0 1 -0,0 L0,156.971 a0,0 0 0 1 -0,-0 L0,10 a10,10 0 0 1 10,-10 Z"/></g></g></g><g stroke-opacity="1" stroke-width="0" fill="#67dc98" fill-opacity="1" stroke="#67b7dc" role="menuitem" focusable="true" tabindex="0" transform="translate(781.2,264.743)"><g><g fill-opacity="0.8"><path d="M10,0 L26.551000000000002,0 a10,10 0 0 1 10,10 L36.551,63.257 a0,0 0 0 1 -0,0 L0,63.257 a0,0 0 0 1 -0,-0 L0,10 a10,10 0 0 1 10,-10 Z"/></g></g></g><g stroke-opacity="1" stroke-width="0" fill="#67dcbb" fill-opacity="1" stroke="#67b7dc" role="menuitem" focusable="true" tabindex="0" transform="translate(826.883,227.257)"><g><g fill-opacity="0.8"><path d="M10,0 L26.551000000000002,0 a10,10 0 0 1 10,10 L36.551,100.743 a0,0 0 0 1 -0,0 L0,100.743 a0,0 0 0 1 -0,-0 L0,10 a10,10 0 0 1 10,-10 Z"/></g></g></g></g></g></g></g><g/></g></g></g></g><g clip-path="url(#id-394)"><g><g fill="#67b7dc" stroke="#67b7dc"><g/></g></g></g><g><g><g><g/></g><g><g/></g></g></g><g><g/></g><g><g/></g><g opacity="0" visibility="hidden" aria-hidden="true" clip-path="url(#id-173)" style="touch-action: none; user-select: none; -webkit-user-drag: none;"><g><g fill-opacity="0.2" fill="#000000" visibility="hidden" style="pointer-events: none;"><path/></g><g stroke="#000000" fill="none" stroke-dasharray="3,3" stroke-opacity="0.4" style="pointer-events: none;"><path d=" M0,0  L0,328 "/></g><g stroke="#000000" fill="none" stroke-dasharray="3,3" stroke-opacity="0.4" style="pointer-events: none;"><path d=" M0,0  L868,0 "/></g></g></g><g role="button" focusable="true" tabindex="0" opacity="0" visibility="hidden" aria-hidden="true" transform="translate(828,-3)" aria-labelledby="id-37-title"><g fill="#6794dc" stroke="#ffffff" fill-opacity="1" stroke-opacity="0" transform="translate(0,8)"><path d="M17,0 L18,0 a17,17 0 0 1 17,17 L35,17 a17,17 0 0 1 -17,17 L17,34 a17,17 0 0 1 -17,-17 L0,17 a17,17 0 0 1 17,-17 Z"/></g><g transform="translate(9,9)"><g stroke="#ffffff" style="pointer-events: none;" transform="translate(0,8)"><path d=" M0,0  L11,0 " transform="translate(2.5,7.5)"/></g><g fill="#000000" style="pointer-events: none;" transform="translate(17,8)"><g display="none"/></g></g><title id="id-37-title">Zoom Out</title></g></g></g><g><g><g aria-hidden="true"><g><g fill="#000000" transform="translate(0,164) rotate(-90)"><g display="none"/></g><g stroke="#000000" stroke-opacity="0.15" fill="none" transform="translate(50,328)" opacity="1"><path transform="translate(-0.5,-0.5)" d=" M0,0  L868,0 "/></g><g><g><g fill="#000000" aria-label="L" fill-opacity="0" opacity="0" stroke-opacity="0" style="pointer-events: none;" transform="translate(50,164)"><g transform="translate(-37,-10.5)" style="user-select: none;"><text x="0" y="21" dy="-5.67"><tspan>100</tspan></text></g></g><g fill="#000000" transform="translate(50,351.429)" display="none"><g transform="translate(-35,-10.5)" style="user-select: none;"><text x="0" y="21" dy="-5.67"><tspan>-10</tspan></text></g></g><g fill="#000000" transform="translate(50,328)"><g transform="translate(-19,-10.5)" style="user-select: none;"><text x="0" y="21" dy="-5.67"><tspan>0</tspan></text></g></g><g fill="#000000" transform="translate(50,304.571)" display="none"><g transform="translate(-28,-10.5)" style="user-select: none;"><text x="0" y="21" dy="-5.67"><tspan>10</tspan></text></g></g><g fill="#000000" transform="translate(50,281.143)"><g transform="translate(-28,-10.5)" style="user-select: none;"><text x="0" y="21" dy="-5.67"><tspan>20</tspan></text></g></g><g fill="#000000" transform="translate(50,257.714)" display="none"><g transform="translate(-28,-10.5)" style="user-select: none;"><text x="0" y="21" dy="-5.67"><tspan>30</tspan></text></g></g><g fill="#000000" transform="translate(50,234.286)"><g transform="translate(-29,-10.5)" style="user-select: none;"><text x="0" y="21" dy="-5.67"><tspan>40</tspan></text></g></g><g fill="#000000" transform="translate(50,210.857)" display="none"><g transform="translate(-28,-10.5)" style="user-select: none;"><text x="0" y="21" dy="-5.67"><tspan>50</tspan></text></g></g><g fill="#000000" transform="translate(50,187.429)"><g transform="translate(-28,-10.5)" style="user-select: none;"><text x="0" y="21" dy="-5.67"><tspan>60</tspan></text></g></g><g fill="#000000" transform="translate(50,164)" display="none"><g transform="translate(-28,-10.5)" style="user-select: none;"><text x="0" y="21" dy="-5.67"><tspan>70</tspan></text></g></g><g fill="#000000" transform="translate(50,140.571)"><g transform="translate(-28,-10.5)" style="user-select: none;"><text x="0" y="21" dy="-5.67"><tspan>80</tspan></text></g></g><g fill="#000000" transform="translate(50,-46.857)" display="none"><g transform="translate(-37,-10.5)" style="user-select: none;"><text x="0" y="21" dy="-5.67"><tspan>160</tspan></text></g></g><g fill="#000000" transform="translate(50,93.714)"><g transform="translate(-37,-10.5)" style="user-select: none;"><text x="0" y="21" dy="-5.67"><tspan>100</tspan></text></g></g><g fill="#000000" transform="translate(50,0)"><g transform="translate(-37,-10.5)" style="user-select: none;"><text x="0" y="21" dy="-5.67"><tspan>140</tspan></text></g></g><g fill="#000000" transform="translate(50,46.857)"><g transform="translate(-37,-10.5)" style="user-select: none;"><text x="0" y="21" dy="-5.67"><tspan>120</tspan></text></g></g><g fill="#000000" transform="translate(50,374.857)" display="none"><g transform="translate(-35,-10.5)" style="user-select: none;"><text x="0" y="21" dy="-5.67"><tspan>-20</tspan></text></g></g><g fill="#000000" transform="translate(50,421.714)" display="none"><g transform="translate(-35,-10.5)" style="user-select: none;"><text x="0" y="21" dy="-5.67"><tspan>-40</tspan></text></g></g></g></g><g stroke="#000000" stroke-opacity="0" fill="none" style="pointer-events: none;" transform="translate(50,0)"><path d=" M0,0  L0,328 " transform="translate(-0.5,-0.5)"/></g></g></g></g></g><g transform="translate(918,0)"><g/></g></g></g><g><g transform="translate(50,0)"><g role="scrollbar" aria-valuemin="0" aria-valuemax="100" aria-valuenow="0" aria-valuetext="From JavaScript to Elixir" aria-labelledby="id-73-title" aria-orientation="horizontal" aria-controls="id-22" transform="translate(0,10)"><g fill="#f3f3f3" fill-opacity="0.5"><path d="M6,0 L862,0 a6,6 0 0 1 6,6 L868,6 a6,6 0 0 1 -6,6 L6,12 a6,6 0 0 1 -6,-6 L0,6 a6,6 0 0 1 6,-6 Z"/></g><g><g role="slider" focusable="true" tabindex="0" aria-valuemin="0" aria-valuemax="100" aria-live="polite" style="touch-action: none; user-select: none; -webkit-user-drag: none; cursor: -webkit-grab;" aria-labelledby="id-87-title" aria-valuenow="0" aria-valuetext="From JavaScript to Elixir" aria-describedby="id-87-description" transform="translate(0,6)"><g fill="#d9d9d9" stroke="#ffffff" fill-opacity="1" stroke-opacity="1" transform="translate(0,-6)"><path d="M6,0 L862,0 a6,6 0 0 1 6,6 L868,6 a6,6 0 0 1 -6,6 L6,12 a6,6 0 0 1 -6,-6 L0,6 a6,6 0 0 1 6,-6 Z"/></g><g transform="translate(0,-6)"><g fill="#000000" style="pointer-events: none;" transform="translate(434,6)"><g display="none"/></g></g><title id="id-87-title">From JavaScript to Elixir</title><desc id="id-87-description">Use left and right arrows to move selection</desc></g><g role="slider" focusable="true" tabindex="0" aria-valuemin="0" aria-valuemax="100" style="touch-action: none; user-select: none; -webkit-user-drag: none; cursor: ew-resize;" aria-labelledby="id-75-title" aria-valuenow="0" aria-valuetext="From JavaScript" aria-describedby="id-75-description" transform="translate(0,6)" opacity="0" visibility="hidden" aria-hidden="true"><g fill="#d9d9d9" stroke="#ffffff" fill-opacity="1" stroke-opacity="1" transform="translate(-14,-14)"><path d="M14,0 L14,0 a14,14 0 0 1 14,14 L28,14 a14,14 0 0 1 -14,14 L14,28 a14,14 0 0 1 -14,-14 L0,14 a14,14 0 0 1 14,-14 Z"/></g><g transform="translate(-6,-12)"><g stroke="#ffffff" stroke-opacity="0.7" style="pointer-events: none;" transform="translate(2,12)"><path d=" M-2,-6  L-2,6  M2,-6  L2,6 " transform="translate(3.5,-0.5)"/></g></g><title id="id-75-title">From JavaScript</title><desc id="id-75-description">Use left and right arrows to move left selection</desc></g><g role="slider" focusable="true" tabindex="0" aria-valuemin="0" aria-valuemax="100" style="touch-action: none; user-select: none; -webkit-user-drag: none; cursor: ew-resize;" aria-labelledby="id-81-title" aria-valuenow="100" aria-valuetext="To Elixir" aria-describedby="id-81-description" transform="translate(868,6)" opacity="0" visibility="hidden" aria-hidden="true"><g fill="#d9d9d9" stroke="#ffffff" fill-opacity="1" stroke-opacity="1" transform="translate(-14,-14)"><path d="M14,0 L14,0 a14,14 0 0 1 14,14 L28,14 a14,14 0 0 1 -14,14 L14,28 a14,14 0 0 1 -14,-14 L0,14 a14,14 0 0 1 14,-14 Z"/></g><g transform="translate(-6,-12)"><g stroke="#ffffff" stroke-opacity="0.7" style="pointer-events: none;" transform="translate(2,12)"><path d=" M-2,-6  L-2,6  M2,-6  L2,6 " transform="translate(3.5,-0.5)"/></g></g><title id="id-81-title">To Elixir</title><desc id="id-81-description">Use left and right arrows to move right selection</desc></g></g><title id="id-73-title">Use TAB to select grip buttons or left and right arrows to change selection</title></g></g></g><g transform="translate(0,360)"><g transform="translate(50,0)"><g aria-hidden="true"><g><g stroke="#000000" stroke-opacity="0" fill="none" style="pointer-events: none;"><path d=" M0,0  L868,0 " transform="translate(-0.5,-0.5)"/></g><g><g><g fill="#000000" aria-label="L" fill-opacity="0" opacity="0" stroke-opacity="0" style="pointer-events: none;" transform="translate(434,0) rotate(270)"><g transform="translate(-47,-10.5)" style="user-select: none;"><text x="0" y="21" dy="-5.67"><tspan>Ruby</tspan></text></g></g><g fill="#000000" transform="translate(22.841,0) rotate(270)"><g transform="translate(-82,-10.5)" style="user-select: none;"><text x="0" y="21" dy="-5.67"><tspan>JavaScript</tspan></text></g></g><g fill="#000000" transform="translate(68.524,0) rotate(270)"><g transform="translate(-42,-10.5)" style="user-select: none;"><text x="0" y="21" dy="-5.67"><tspan>C++</tspan></text></g></g><g fill="#000000" transform="translate(114.207,0) rotate(270)"><g transform="translate(-41,-10.5)" style="user-select: none;"><text x="0" y="21" dy="-5.67"><tspan>Java</tspan></text></g></g><g fill="#000000" transform="translate(159.894,0) rotate(270)"><g transform="translate(-60,-10.5)" style="user-select: none;"><text x="0" y="21" dy="-5.67"><tspan>Python</tspan></text></g></g><g fill="#000000" transform="translate(205.581,0) rotate(270)"><g transform="translate(-20,-10.5)" style="user-select: none;"><text x="0" y="21" dy="-5.67"><tspan>C</tspan></text></g></g><g fill="#000000" transform="translate(251.264,0) rotate(270)"><g transform="translate(-53,-10.5)" style="user-select: none;"><text x="0" y="21" dy="-5.67"><tspan>HTML</tspan></text></g></g><g fill="#000000" transform="translate(296.947,0) rotate(270)"><g transform="translate(-37,-10.5)" style="user-select: none;"><text x="0" y="21" dy="-5.67"><tspan>CSS</tspan></text></g></g><g fill="#000000" transform="translate(342.63,0) rotate(270)"><g transform="translate(-30,-10.5)" style="user-select: none;"><text x="0" y="21" dy="-5.67"><tspan>C#</tspan></text></g></g><g fill="#000000" transform="translate(388.313,0) rotate(270)"><g transform="translate(-40,-10.5)" style="user-select: none;"><text x="0" y="21" dy="-5.67"><tspan>PHP</tspan></text></g></g><g fill="#000000" transform="translate(434,0) rotate(270)"><g transform="translate(-51,-10.5)" style="user-select: none;"><text x="0" y="21" dy="-5.67"><tspan>Kotlin</tspan></text></g></g><g fill="#000000" transform="translate(479.687,0) rotate(270)"><g transform="translate(-42,-10.5)" style="user-select: none;"><text x="0" y="21" dy="-5.67"><tspan>Rust</tspan></text></g></g><g fill="#000000" transform="translate(525.37,0) rotate(270)"><g transform="translate(-84,-10.5)" style="user-select: none;"><text x="0" y="21" dy="-5.67"><tspan>TypeScript</tspan></text></g></g><g fill="#000000" transform="translate(571.053,0) rotate(270)"><g transform="translate(-61,-10.5)" style="user-select: none;"><text x="0" y="21" dy="-5.67"><tspan>Haskell</tspan></text></g></g><g fill="#000000" transform="translate(616.736,0) rotate(270)"><g transform="translate(-35,-10.5)" style="user-select: none;"><text x="0" y="21" dy="-5.67"><tspan>Lua</tspan></text></g></g><g fill="#000000" transform="translate(662.419,0) rotate(270)"><g transform="translate(-79,-10.5)" style="user-select: none;"><text x="0" y="21" dy="-5.67"><tspan>Assembly</tspan></text></g></g><g fill="#000000" transform="translate(708.106,0) rotate(270)"><g transform="translate(-38,-10.5)" style="user-select: none;"><text x="0" y="21" dy="-5.67"><tspan>Lisp</tspan></text></g></g><g fill="#000000" transform="translate(753.793,0) rotate(270)"><g transform="translate(-31,-10.5)" style="user-select: none;"><text x="0" y="21" dy="-5.67"><tspan>Go</tspan></text></g></g><g fill="#000000" transform="translate(799.476,0) rotate(270)"><g transform="translate(-47,-10.5)" style="user-select: none;"><text x="0" y="21" dy="-5.67"><tspan>Ruby</tspan></text></g></g><g fill="#000000" transform="translate(845.159,0) rotate(270)"><g transform="translate(-44,-10.5)" style="user-select: none;"><text x="0" y="21" dy="-5.67"><tspan>Elixir</tspan></text></g></g><g fill="#000000" display="none" transform="translate(890.841,0) rotate(270)"><g transform="translate(-10,0)" display="none"/></g></g></g><g stroke="#000000" stroke-opacity="0.15" fill="none" display="none" transform="translate(868,-328)" opacity="0" visibility="hidden" aria-hidden="true"><path transform="translate(-0.5,-0.5)" d=" M0,0  L0,328 "/></g><g fill="#000000" transform="translate(434,110)"><g display="none"/></g></g></g></g></g></g></g></g></g></g></g><g><g><g role="tooltip" visibility="hidden" opacity="0"><g fill="#ffffff" fill-opacity="0.9" stroke-width="1" stroke-opacity="1" stroke="#ffffff" filter="url(#filter-id-51)" style="pointer-events: none;" transform="translate(0,6)"><path d="M3,0 L3,0 L0,-6 L13,0 L21,0 a3,3 0 0 1 3,3 L24,8 a3,3 0 0 1 -3,3 L3,11 a3,3 0 0 1 -3,-3 L0,3 a3,3 0 0 1 3,-3"/></g><g><g fill="#ffffff" style="pointer-events: none;" transform="translate(12,6)"><g transform="translate(0,7)" display="none"/></g></g></g><g visibility="hidden" style="pointer-events: none;" display="none"><g fill="#ffffff" opacity="1"><rect width="948" height="500"/></g><g><g transform="translate(474,250)"><g><g stroke-opacity="1" fill="#f3f3f3" fill-opacity="0.8"><g><g><path d=" M53,0  a53,53,0,0,1,-106,0 a53,53,0,0,1,106,0 M42,0  a42,42,0,0,0,-84,0 a42,42,0,0,0,84,0 L42,0 "/></g></g></g><g stroke-opacity="1" fill="#000000" fill-opacity="0.2"><g><g><path d=" M50,0  a50,50,0,0,1,-100,0 a50,50,0,0,1,100,0 M45,0  a45,45,0,0,0,-90,0 a45,45,0,0,0,90,0 L45,0 "/></g></g></g><g fill="#000000" fill-opacity="0.4"><g transform="translate(-19.5,-10.5)" style="user-select: none;"><text x="19.5px" y="21" dy="-5.67" text-anchor="middle"><tspan>100%</tspan></text></g></g></g></g></g></g><g opacity="0.3" aria-labelledby="id-66-title" filter="url(#filter-id-66)" style="cursor: pointer;" transform="translate(0,479)"><g fill="#ffffff" opacity="0"><rect width="66" height="21"/></g><g><g shape-rendering="auto" fill="none" stroke-opacity="1" stroke-width="1.7999999999999998" stroke="#3cabff"><path d=" M15,15  C17.4001,15 22.7998,15.0001 27,15 C31.2002,14.9999 33.2999,6 36,6 C38.7001,6 38.6999,10.5 40.5,10.5 C42.3001,10.5 42.2999,6 45,6 C47.7001,6 50.9999,14.9999 54,15 C57.0002,15.0001 58.7999,15 60,15"/></g><g shape-rendering="auto" fill="none" stroke-opacity="1" stroke-width="1.7999999999999998" stroke="url(#gradient-id-69)"><path d=" M6,15  C8.2501,15 9.7498,15.0001 15,15 C20.2502,14.9999 20.7748,3.6 27,3.6 C33.2252,3.6 33.8998,14.9999 39.9,15 C45.9002,15.0001 45.9748,15 51,15 C56.0252,15 57.7499,15 60,15"/></g></g><title id="id-66-title">Chart created using amCharts library</title></g><g role="tooltip" visibility="hidden" opacity="0" display="none"><g fill="#000000" fill-opacity="1" stroke-width="1" stroke-opacity="1" stroke="#000000" style="pointer-events: none;"><path/></g><g><g fill="#ffffff" style="pointer-events: none;"><g transform="translate(0,5)"/></g></g></g><g role="tooltip" visibility="hidden" opacity="0"><g fill="#000000" fill-opacity="1" stroke-width="1" stroke-opacity="1" stroke="#000000" style="pointer-events: none;" transform="translate(-25,47)"><path d="M0,0 L20,0 a0,0 0 0 1 0,0 L20,0 L20,0 L25,0 L20,10 L20,10 a0,0 0 0 1 -0,0 L0,10 a0,0 0 0 1 -0,-0 L0,0 a0,0 0 0 1 0,-0"/></g><g><g fill="#ffffff" style="pointer-events: none;" transform="translate(-15,47)"><g transform="translate(0,5)" display="none"/></g></g></g><g role="tooltip" visibility="hidden" opacity="0"><g fill="#ffffff" fill-opacity="0.9" stroke-width="1" stroke-opacity="1" stroke="#ffffff" filter="url(#filter-id-158)" style="pointer-events: none;" transform="translate(0,6)"><path d="M3,0 L3,0 L0,-6 L13,0 L21,0 a3,3 0 0 1 3,3 L24,8 a3,3 0 0 1 -3,3 L3,11 a3,3 0 0 1 -3,-3 L0,3 a3,3 0 0 1 3,-3"/></g><g><g fill="#ffffff" style="pointer-events: none;" transform="translate(12,6)"><g transform="translate(0,7)" display="none"/></g></g></g></g></g></g></g></svg>